999
DXF created from QGIS
  0
SECTION
  2
HEADER
  9
$ACADVER
  1
AC1015
  9
$EXTMIN
 10
1412551.39610744523815811
 20
4931503.77162766177207232
 30
0.0
  9
$EXTMAX
 10
1412842.68290744978003204
 20
4931693.14247872773557901
 30
0.0
  9
$LTSCALE
 40
1.0
  9
$PDMODE
 70
    33
  9
$PDSIZE
 40
     1
  9
$PSLTSCALE
 70
     0
  9
$HANDSEED
  5
9999999
  9
$DWGCODEPAGE
  3
ANSI_1252
  0
ENDSEC
  0
SECTION
  2
TABLES
  0
TABLE
  2
LTYPE
  5
64
100
AcDbSymbolTable
 70
     5
  0
LTYPE
  5
65
100
AcDbSymbolTableRecord
100
AcDbLinetypeTableRecord
  2
ByLayer
 70
    64
  3
Defaultstyle
 72
    65
 73
     0
 40
0.0
  0
LTYPE
  5
66
100
AcDbSymbolTableRecord
100
AcDbLinetypeTableRecord
  2
ByBlock
 70
    64
  3
Defaultstyle
 72
    65
 73
     0
 40
0.0
  0
LTYPE
  5
67
100
AcDbSymbolTableRecord
100
AcDbLinetypeTableRecord
  2
CONTINUOUS
 70
    64
  3
Defaultstyle
 72
    65
 73
     0
 40
0.0
  0
LTYPE
  5
68
100
AcDbSymbolTableRecord
100
AcDbLinetypeTableRecord
  2
DASH
 70
    64
  3

 72
    65
 73
     2
 40
2600.0
 49
2000.0
 74
     0
 49
-600.0
 74
     0
  0
LTYPE
  5
69
100
AcDbSymbolTableRecord
100
AcDbLinetypeTableRecord
  2
DOT
 70
    64
  3

 72
    65
 73
     2
 40
1200.0
 49
600.0
 74
     0
 49
-600.0
 74
     0
  0
LTYPE
  5
6a
100
AcDbSymbolTableRecord
100
AcDbLinetypeTableRecord
  2
DASHDOT
 70
    64
  3

 72
    65
 73
     4
 40
3800.0
 49
2000.0
 74
     0
 49
-600.0
 74
     0
 49
600.0
 74
     0
 49
-600.0
 74
     0
  0
LTYPE
  5
6b
100
AcDbSymbolTableRecord
100
AcDbLinetypeTableRecord
  2
DASHDOTDOT
 70
    64
  3

 72
    65
 73
     6
 40
5000.0
 49
2000.0
 74
     0
 49
-600.0
 74
     0
 49
600.0
 74
     0
 49
-600.0
 74
     0
 49
600.0
 74
     0
 49
-600.0
 74
     0
  0
ENDTAB
  0
TABLE
  2
BLOCK_RECORD
  5
6c
100
AcDbSymbolTable
 70
     0
  0
BLOCK_RECORD
  5
6d
100
AcDbSymbolTableRecord
100
AcDbBlockTableRecord
  2
*Model_Space
  0
BLOCK_RECORD
  5
6e
100
AcDbSymbolTableRecord
100
AcDbBlockTableRecord
  2
*Paper_Space
  0
BLOCK_RECORD
  5
6f
100
AcDbSymbolTableRecord
100
AcDbBlockTableRecord
  2
*Paper_Space0
  0
ENDTAB
  0
TABLE
  2
APPID
  5
70
100
AcDbSymbolTable
 70
     1
  0
APPID
  5
71
100
AcDbSymbolTableRecord
100
AcDbRegAppTableRecord
  2
ACAD
 70
     0
  0
ENDTAB
  0
TABLE
  2
VIEW
  5
72
100
AcDbSymbolTable
 70
     0
  0
ENDTAB
  0
TABLE
  2
UCS
  5
73
100
AcDbSymbolTable
 70
     0
  0
ENDTAB
  0
TABLE
  2
VPORT
  5
74
100
AcDbSymbolTable
  0
VPORT
  5
75
100
AcDbSymbolTableRecord
100
AcDbViewportTableRecord
  2
*ACTIVE
 70
     0
 10
0.0
 20
0.0
 11
1.0
 21
1.0
 12
0.0
 22
0.0
 13
0.0
 23
0.0
 14
1.0
 24
1.0
 15
1.0
 25
1.0
 16
0.0
 26
0.0
 36
1.0
 17
1412697.03950744750909507
 27
4931598.45705319475382566
 40
189.3708510659635067
 41
1.53818181818847077
 42
50.0
 43
0.0
 44
0.0
 50
0.0
 51
0.0
 71
     0
 72
   100
 73
     1
 74
     1
 75
     0
 76
     0
 77
     0
 78
     0
281
     0
 65
     1
110
0.0
120
0.0
130
0.0
111
1.0
121
0.0
131
0.0
112
0.0
122
1.0
132
0.0
 79
     0
146
0.0
 70
     0
  0
ENDTAB
  0
TABLE
  2
DIMSTYLE
  5
76
100
AcDbSymbolTable
100
AcDbDimStyleTable
 70
     0
  0
ENDTAB
  0
TABLE
  2
LAYER
  5
77
100
AcDbSymbolTable
 70
     2
  0
LAYER
  5
78
100
AcDbSymbolTableRecord
100
AcDbLayerTableRecord
  2
0
 70
    64
 62
     1
  6
CONTINUOUS
390
f
  0
LAYER
  5
79
100
AcDbSymbolTableRecord
100
AcDbLayerTableRecord
  2
Buildings-21-08-2020
 70
    64
 62
     1
  6
CONTINUOUS
390
f
  0
ENDTAB
  0
TABLE
  2
STYLE
  5
7a
100
AcDbSymbolTable
 70
     1
  0
STYLE
  5
7b
100
AcDbSymbolTableRecord
100
AcDbTextStyleTableRecord
  2
STANDARD
 70
    64
 40
0.0
 41
1.0
 50
0.0
 71
     0
 42
5.0
  3
romans.shx
  4

  0
ENDTAB
  0
ENDSEC
  0
SECTION
  2
BLOCKS
  0
BLOCK
  5
7c
330
6d
100
AcDbEntity
  8
0
100
AcDbBlockBegin
  2
*Model_Space
 70
     0
 10
0.0
 20
0.0
 30
0.0
  3
*Model_Space
  1

  0
ENDBLK
  5
7d
100
AcDbEntity
  8
0
100
AcDbBlockEnd
  0
BLOCK
  5
7e
330
6e
100
AcDbEntity
  8
0
100
AcDbBlockBegin
  2
*Paper_Space
 70
     0
 10
0.0
 20
0.0
 30
0.0
  3
*Paper_Space
  1

  0
ENDBLK
  5
7f
100
AcDbEntity
  8
0
100
AcDbBlockEnd
  0
BLOCK
  5
80
330
6f
100
AcDbEntity
  8
0
100
AcDbBlockBegin
  2
*Paper_Space0
 70
     0
 10
0.0
 20
0.0
 30
0.0
  3
*Paper_Space0
  1

  0
ENDBLK
  5
81
100
AcDbEntity
  8
0
100
AcDbBlockEnd
  0
ENDSEC
  0
SECTION
  2
ENTITIES
  0
POINT
  5
82
100
AcDbEntity
100
AcDbPoint
  8
Buildings-21-08-2020
420
     0
 10
1412684.88999999989755452
 20
4931554.51999999955296516
 30
64.76000000000000512
  0
POINT
  5
83
100
AcDbEntity
100
AcDbPoint
  8
Buildings-21-08-2020
420
     0
 10
1412683.91999999992549419
 20
4931556.71999999973922968
 30
65.23000000000000398
  0
POINT
  5
84
100
AcDbEntity
100
AcDbPoint
  8
Buildings-21-08-2020
420
     0
 10
1412686.72999999998137355
 20
4931558.04999999981373549
 30
63.28000000000000114
  0
POINT
  5
85
100
AcDbEntity
100
AcDbPoint
  8
Buildings-21-08-2020
420
     0
 10
1412680.02000000001862645
 20
4931558.36000000033527613
 30
62.14000000000000057
  0
POINT
  5
86
100
AcDbEntity
100
AcDbPoint
  8
Buildings-21-08-2020
420
     0
 10
1412681.18999999994412065
 20
4931560.92999999970197678
 30
61.65999999999999659
  0
POINT
  5
87
100
AcDbEntity
100
AcDbPoint
  8
Buildings-21-08-2020
420
     0
 10
1412681.14999999990686774
 20
4931561.95000000018626451
 30
61.32000000000000028
  0
POINT
  5
88
100
AcDbEntity
100
AcDbPoint
  8
Buildings-21-08-2020
420
     0
 10
1412681.48999999999068677
 20
4931561.88999999966472387
 30
61.38000000000000256
  0
POINT
  5
89
100
AcDbEntity
100
AcDbPoint
  8
Buildings-21-08-2020
420
     0
 10
1412682.2099999999627471
 20
4931563.49000000022351742
 30
60.90999999999999659
  0
POINT
  5
8a
100
AcDbEntity
100
AcDbPoint
  8
Buildings-21-08-2020
420
     0
 10
1412684.21999999997206032
 20
4931567.37000000011175871
 30
60.10999999999999943
  0
POINT
  5
8b
100
AcDbEntity
100
AcDbPoint
  8
Buildings-21-08-2020
420
     0
 10
1412682.65999999991618097
 20
4931565.7900000000372529
 30
60.35999999999999943
  0
POINT
  5
8c
100
AcDbEntity
100
AcDbPoint
  8
Buildings-21-08-2020
420
     0
 10
1412675.38999999989755452
 20
4931569.33999999985098839
 30
60.18999999999999773
  0
POINT
  5
8d
100
AcDbEntity
100
AcDbPoint
  8
Buildings-21-08-2020
420
     0
 10
1412675.86000000010244548
 20
4931571.33999999985098839
 30
60.00999999999999801
  0
POINT
  5
8e
100
AcDbEntity
100
AcDbPoint
  8
Buildings-21-08-2020
420
     0
 10
1412674.78000000002793968
 20
4931568.19000000040978193
 30
60.20000000000000284
  0
POINT
  5
8f
100
AcDbEntity
100
AcDbPoint
  8
Buildings-21-08-2020
420
     0
 10
1412673.77000000001862645
 20
4931567.08999999985098839
 30
61.29999999999999716
  0
POINT
  5
90
100
AcDbEntity
100
AcDbPoint
  8
Buildings-21-08-2020
420
     0
 10
1412673.05000000004656613
 20
4931565.08999999985098839
 30
61.35999999999999943
  0
POINT
  5
91
100
AcDbEntity
100
AcDbPoint
  8
Buildings-21-08-2020
420
     0
 10
1412673.77000000001862645
 20
4931565.00999999977648258
 30
61.31000000000000227
  0
POINT
  5
92
100
AcDbEntity
100
AcDbPoint
  8
Buildings-21-08-2020
420
     0
 10
1412671.44999999995343387
 20
4931561.87000000011175871
 30
62.20000000000000284
  0
POINT
  5
93
100
AcDbEntity
100
AcDbPoint
  8
Buildings-21-08-2020
420
     0
 10
1412695.18900000001303852
 20
4931579.89300000015646219
 30
58.28999999999999915
  0
POINT
  5
94
100
AcDbEntity
100
AcDbPoint
  8
Buildings-21-08-2020
420
     0
 10
1412696.93100000009872019
 20
4931575.43900000024586916
 30
59.92999999999999972
  0
POINT
  5
95
100
AcDbEntity
100
AcDbPoint
  8
Buildings-21-08-2020
420
     0
 10
1412695.97200000006705523
 20
4931580.09999999962747097
 30
59.61999999999999744
  0
POINT
  5
96
100
AcDbEntity
100
AcDbPoint
  8
Buildings-21-08-2020
420
     0
 10
1412696.60800000000745058
 20
4931571.10500000044703484
 30
60.28999999999999915
  0
POINT
  5
97
100
AcDbEntity
100
AcDbPoint
  8
Buildings-21-08-2020
420
     0
 10
1412697.55799999996088445
 20
4931571.40799999982118607
 30
60.25
  0
POINT
  5
98
100
AcDbEntity
100
AcDbPoint
  8
Buildings-21-08-2020
420
     0
 10
1412687.10700000007636845
 20
4931569.47200000006705523
 30
59.84000000000000341
  0
POINT
  5
99
100
AcDbEntity
100
AcDbPoint
  8
Buildings-21-08-2020
420
     0
 10
1412688.21500000008381903
 20
4931569.55900000035762787
 30
60.14000000000000057
  0
POINT
  5
9a
100
AcDbEntity
100
AcDbPoint
  8
Buildings-21-08-2020
420
     0
 10
1412686.21099999989382923
 20
4931573.75399999972432852
 30
59.82999999999999829
  0
POINT
  5
9b
100
AcDbEntity
100
AcDbPoint
  8
Buildings-21-08-2020
420
     0
 10
1412685.68200000002980232
 20
4931577.83899999968707561
 30
59.85000000000000142
  0
POINT
  5
9c
100
AcDbEntity
100
AcDbPoint
  8
Buildings-21-08-2020
420
     0
 10
1412738.72799999988637865
 20
4931572.79700000025331974
 30
60.64999999999999858
  0
POINT
  5
9d
100
AcDbEntity
100
AcDbPoint
  8
Buildings-21-08-2020
420
     0
 10
1412739.32199999992735684
 20
4931575.91000000014901161
 30
60.59000000000000341
  0
POINT
  5
9e
100
AcDbEntity
100
AcDbPoint
  8
Buildings-21-08-2020
420
     0
 10
1412750.11800000001676381
 20
4931575.34599999990314245
 30
60.25
  0
POINT
  5
9f
100
AcDbEntity
100
AcDbPoint
  8
Buildings-21-08-2020
420
     0
 10
1412751.79799999995157123
 20
4931574.50200000032782555
 30
60.52000000000000313
  0
POINT
  5
a0
100
AcDbEntity
100
AcDbPoint
  8
Buildings-21-08-2020
420
     0
 10
1412757.14800000004470348
 20
4931574.00399999972432852
 30
59.71999999999999886
  0
POINT
  5
a1
100
AcDbEntity
100
AcDbPoint
  8
Buildings-21-08-2020
420
     0
 10
1412757.21699999994598329
 20
4931572.87600000016391277
 30
62.14999999999999858
  0
POINT
  5
a2
100
AcDbEntity
100
AcDbPoint
  8
Buildings-21-08-2020
420
     0
 10
1412750.66999999992549419
 20
4931573.52400000020861626
 30
60.64999999999999858
  0
POINT
  5
a3
100
AcDbEntity
100
AcDbPoint
  8
Buildings-21-08-2020
420
     0
 10
1412738.73300000000745058
 20
4931574.10800000000745058
 30
60.61999999999999744
  0
POINT
  5
a4
100
AcDbEntity
100
AcDbPoint
  8
Buildings-21-08-2020
420
     0
 10
1412738.73300000000745058
 20
4931574.10800000000745058
 30
60.60000000000000142
  0
POINT
  5
a5
100
AcDbEntity
100
AcDbPoint
  8
Buildings-21-08-2020
420
     0
 10
1412687.74900000006891787
 20
4931555.89499999955296516
 30
65.18999999999999773
  0
POINT
  5
a6
100
AcDbEntity
100
AcDbPoint
  8
Buildings-21-08-2020
420
     0
 10
1412684.80000000004656613
 20
4931554.62399999983608723
 30
65.20999999999999375
  0
POINT
  5
a7
100
AcDbEntity
100
AcDbPoint
  8
Buildings-21-08-2020
420
     0
 10
1412650.587000000057742
 20
4931542.60400000028312206
 30
73.84000000000000341
  0
POINT
  5
a8
100
AcDbEntity
100
AcDbPoint
  8
Buildings-21-08-2020
420
     0
 10
1412650.32899999991059303
 20
4931541.06400000024586916
 30
73.84000000000000341
  0
POINT
  5
a9
100
AcDbEntity
100
AcDbPoint
  8
Buildings-21-08-2020
420
     0
 10
1412651.70500000007450581
 20
4931541.20100000035017729
 30
73.96999999999999886
  0
POINT
  5
aa
100
AcDbEntity
100
AcDbPoint
  8
Buildings-21-08-2020
420
     0
 10
1412651.63500000000931323
 20
4931542.37899999972432852
 30
73.93999999999999773
  0
POINT
  5
ab
100
AcDbEntity
100
AcDbPoint
  8
Buildings-21-08-2020
420
     0
 10
1412622.32000000006519258
 20
4931586.42200000025331974
 30
65.40000000000000568
  0
POINT
  5
ac
100
AcDbEntity
100
AcDbPoint
  8
Buildings-21-08-2020
420
     0
 10
1412624.25499999988824129
 20
4931587.20799999963492155
 30
65.12000000000000455
  0
POINT
  5
ad
100
AcDbEntity
100
AcDbPoint
  8
Buildings-21-08-2020
420
     0
 10
1412749.52799999993294477
 20
4931614.49100000038743019
 30
48.97999999999999687
  0
POINT
  5
ae
100
AcDbEntity
100
AcDbPoint
  8
Buildings-21-08-2020
420
     0
 10
1412749.67999999993480742
 20
4931613.26499999966472387
 30
48.79999999999999716
  0
POINT
  5
af
100
AcDbEntity
100
AcDbPoint
  8
Buildings-21-08-2020
420
     0
 10
1412761.02799999993294477
 20
4931614.70199999958276749
 30
48.92000000000000171
  0
POINT
  5
b0
100
AcDbEntity
100
AcDbPoint
  8
Buildings-21-08-2020
420
     0
 10
1412750.64700000011362135
 20
4931625.43599999975413084
 30
48.64000000000000057
  0
POINT
  5
b1
100
AcDbEntity
100
AcDbPoint
  8
Buildings-21-08-2020
420
     0
 10
1412738.39299999992363155
 20
4931615.60300000011920929
 30
47.82000000000000028
  0
POINT
  5
b2
100
AcDbEntity
100
AcDbPoint
  8
Buildings-21-08-2020
420
     0
 10
1412738.2520000000949949
 20
4931613.276999999769032
 30
47.82000000000000028
  0
POINT
  5
b3
100
AcDbEntity
100
AcDbPoint
  8
Buildings-21-08-2020
420
     0
 10
1412735.54499999992549419
 20
4931614.30599999986588955
 30
47.78999999999999915
  0
POINT
  5
b4
100
AcDbEntity
100
AcDbPoint
  8
Buildings-21-08-2020
420
     0
 10
1412735.42900000000372529
 20
4931616.2630000002682209
 30
47.85999999999999943
  0
POINT
  5
b5
100
AcDbEntity
100
AcDbPoint
  8
Buildings-21-08-2020
420
     0
 10
1412737.68900000001303852
 20
4931617.76099999994039536
 30
47.54999999999999716
  0
POINT
  5
b6
100
AcDbEntity
100
AcDbPoint
  8
Buildings-21-08-2020
420
     0
 10
1412735.55499999993480742
 20
4931619.30900000035762787
 30
47.49000000000000199
  0
POINT
  5
b7
100
AcDbEntity
100
AcDbPoint
  8
Buildings-21-08-2020
420
     0
 10
1412733.39700000011362135
 20
4931617.74500000011175871
 30
47.79999999999999716
  0
POINT
  5
b8
100
AcDbEntity
100
AcDbPoint
  8
Buildings-21-08-2020
420
     0
 10
1412733.12599999993108213
 20
4931619.83700000029057264
 30
47.52000000000000313
  0
POINT
  5
b9
100
AcDbEntity
100
AcDbPoint
  8
Buildings-21-08-2020
420
     0
 10
1412730.60899999993853271
 20
4931620.00200000032782555
 30
47.68999999999999773
  0
POINT
  5
ba
100
AcDbEntity
100
AcDbPoint
  8
Buildings-21-08-2020
420
     0
 10
1412724.25799999991431832
 20
4931616.36400000005960464
 30
47.74000000000000199
  0
POINT
  5
bb
100
AcDbEntity
100
AcDbPoint
  8
Buildings-21-08-2020
420
     0
 10
1412723.49900000006891787
 20
4931613.98599999956786633
 30
47.75999999999999801
  0
POINT
  5
bc
100
AcDbEntity
100
AcDbPoint
  8
Buildings-21-08-2020
420
     0
 10
1412724.52399999997578561
 20
4931611.76999999955296516
 30
47.78000000000000114
  0
POINT
  5
bd
100
AcDbEntity
100
AcDbPoint
  8
Buildings-21-08-2020
420
     0
 10
1412726.69399999990127981
 20
4931610.36299999989569187
 30
47.84000000000000341
  0
POINT
  5
be
100
AcDbEntity
100
AcDbPoint
  8
Buildings-21-08-2020
420
     0
 10
1412729.09700000006705523
 20
4931609.72400000039488077
 30
47.90999999999999659
  0
POINT
  5
bf
100
AcDbEntity
100
AcDbPoint
  8
Buildings-21-08-2020
420
     0
 10
1412731.52900000009685755
 20
4931609.71700000017881393
 30
47.90999999999999659
  0
POINT
  5
c0
100
AcDbEntity
100
AcDbPoint
  8
Buildings-21-08-2020
420
     0
 10
1412729.10700000007636845
 20
4931611.79600000008940697
 30
47.92000000000000171
  0
POINT
  5
c1
100
AcDbEntity
100
AcDbPoint
  8
Buildings-21-08-2020
420
     0
 10
1412727.00799999991431832
 20
4931613.17499999981373549
 30
47.79999999999999716
  0
POINT
  5
c2
100
AcDbEntity
100
AcDbPoint
  8
Buildings-21-08-2020
420
     0
 10
1412726.59700000006705523
 20
4931615.27300000004470348
 30
47.74000000000000199
  0
POINT
  5
c3
100
AcDbEntity
100
AcDbPoint
  8
Buildings-21-08-2020
420
     0
 10
1412721.77399999997578561
 20
4931613.50800000037997961
 30
47.75
  0
POINT
  5
c4
100
AcDbEntity
100
AcDbPoint
  8
Buildings-21-08-2020
420
     0
 10
1412721.96099999989382923
 20
4931610.95199999958276749
 30
47.68999999999999773
  0
POINT
  5
c5
100
AcDbEntity
100
AcDbPoint
  8
Buildings-21-08-2020
420
     0
 10
1412722.85400000005029142
 20
4931609.99199999962002039
 30
47.67999999999999972
  0
POINT
  5
c6
100
AcDbEntity
100
AcDbPoint
  8
Buildings-21-08-2020
420
     0
 10
1412728.80000000004656613
 20
4931608.44299999997019768
 30
47.88000000000000256
  0
POINT
  5
c7
100
AcDbEntity
100
AcDbPoint
  8
Buildings-21-08-2020
420
     0
 10
1412728.52499999990686774
 20
4931606.54200000036507845
 30
49.39000000000000057
  0
POINT
  5
c8
100
AcDbEntity
100
AcDbPoint
  8
Buildings-21-08-2020
420
     0
 10
1412727.14800000004470348
 20
4931606.42599999997764826
 30
49.25999999999999801
  0
POINT
  5
c9
100
AcDbEntity
100
AcDbPoint
  8
Buildings-21-08-2020
420
     0
 10
1412726.98799999989569187
 20
4931604.93900000024586916
 30
49.39000000000000057
  0
POINT
  5
ca
100
AcDbEntity
100
AcDbPoint
  8
Buildings-21-08-2020
420
     0
 10
1412731.00600000005215406
 20
4931605.08600000012665987
 30
49.75999999999999801
  0
POINT
  5
cb
100
AcDbEntity
100
AcDbPoint
  8
Buildings-21-08-2020
420
     0
 10
1412730.96699999994598329
 20
4931606.51499999966472387
 30
49.43999999999999773
  0
POINT
  5
cc
100
AcDbEntity
100
AcDbPoint
  8
Buildings-21-08-2020
420
     0
 10
1412728.34799999999813735
 20
4931605.26599999982863665
 30
49.39999999999999858
  0
POINT
  5
cd
100
AcDbEntity
100
AcDbPoint
  8
Buildings-21-08-2020
420
     0
 10
1412727.087000000057742
 20
4931604.6919999998062849
 30
50.89000000000000057
  0
POINT
  5
ce
100
AcDbEntity
100
AcDbPoint
  8
Buildings-21-08-2020
420
     0
 10
1412727.5779999999795109
 20
4931601.40699999965727329
 30
50.96999999999999886
  0
POINT
  5
cf
100
AcDbEntity
100
AcDbPoint
  8
Buildings-21-08-2020
420
     0
 10
1412736.2590000000782311
 20
4931602.13200000021606684
 30
50.88000000000000256
  0
POINT
  5
d0
100
AcDbEntity
100
AcDbPoint
  8
Buildings-21-08-2020
420
     0
 10
1412735.96699999994598329
 20
4931605.44500000029802322
 30
51.24000000000000199
  0
POINT
  5
d1
100
AcDbEntity
100
AcDbPoint
  8
Buildings-21-08-2020
420
     0
 10
1412735.76000000000931323
 20
4931610.63100000005215406
 30
47.72999999999999687
  0
POINT
  5
d2
100
AcDbEntity
100
AcDbPoint
  8
Buildings-21-08-2020
420
     0
 10
1412733.53000000002793968
 20
4931612.36600000038743019
 30
47.82999999999999829
  0
POINT
  5
d3
100
AcDbEntity
100
AcDbPoint
  8
Buildings-21-08-2020
420
     0
 10
1412736.53399999998509884
 20
4931611.13700000010430813
 30
47.84000000000000341
  0
POINT
  5
d4
100
AcDbEntity
100
AcDbPoint
  8
Buildings-21-08-2020
420
     0
 10
1412736.42599999997764826
 20
4931615.17599999997764826
 30
47.89999999999999858
  0
POINT
  5
d5
100
AcDbEntity
100
AcDbPoint
  8
Buildings-21-08-2020
420
     0
 10
1412739.42999999993480742
 20
4931614.52799999993294477
 30
47.79999999999999716
  0
POINT
  5
d6
100
AcDbEntity
100
AcDbPoint
  8
Buildings-21-08-2020
420
     0
 10
1412738.64100000006146729
 20
4931612.73000000044703484
 30
48.75999999999999801
  0
POINT
  5
d7
100
AcDbEntity
100
AcDbPoint
  8
Buildings-21-08-2020
420
     0
 10
1412736.76200000010430813
 20
4931610.89499999955296516
 30
48.78999999999999915
  0
POINT
  5
d8
100
AcDbEntity
100
AcDbPoint
  8
Buildings-21-08-2020
420
     0
 10
1412739.73799999989569187
 20
4931619.3219999996945262
 30
47.32999999999999829
  0
POINT
  5
d9
100
AcDbEntity
100
AcDbPoint
  8
Buildings-21-08-2020
420
     0
 10
1412739.98799999989569187
 20
4931620.48099999967962503
 30
47.17999999999999972
  0
POINT
  5
da
100
AcDbEntity
100
AcDbPoint
  8
Buildings-21-08-2020
420
     0
 10
1412738.75300000002607703
 20
4931621.21899999957531691
 30
47.09000000000000341
  0
POINT
  5
db
100
AcDbEntity
100
AcDbPoint
  8
Buildings-21-08-2020
420
     0
 10
1412738.06400000001303852
 20
4931620.29499999992549419
 30
47.18999999999999773
  0
POINT
  5
dc
100
AcDbEntity
100
AcDbPoint
  8
Buildings-21-08-2020
420
     0
 10
1412737.89899999997578561
 20
4931620.13999999966472387
 30
47.43999999999999773
  0
POINT
  5
dd
100
AcDbEntity
100
AcDbPoint
  8
Buildings-21-08-2020
420
     0
 10
1412738.79799999995157123
 20
4931618.99899999983608723
 30
47.56000000000000227
  0
POINT
  5
de
100
AcDbEntity
100
AcDbPoint
  8
Buildings-21-08-2020
420
     0
 10
1412750.30300000007264316
 20
4931614.65699999965727329
 30
48.65999999999999659
  0
POINT
  5
df
100
AcDbEntity
100
AcDbPoint
  8
Buildings-21-08-2020
420
     0
 10
1412749.28399999998509884
 20
4931623.1380000002682209
 30
47.28000000000000114
  0
POINT
  5
e0
100
AcDbEntity
100
AcDbPoint
  8
Buildings-21-08-2020
420
     0
 10
1412735.2409999999217689
 20
4931605.58999999985098839
 30
51.56000000000000227
  0
POINT
  5
e1
100
AcDbEntity
100
AcDbPoint
  8
Buildings-21-08-2020
420
     0
 10
1412734.82499999995343387
 20
4931606.9469999996945262
 30
51.60000000000000142
  0
POINT
  5
e2
100
AcDbEntity
100
AcDbPoint
  8
Buildings-21-08-2020
420
     0
 10
1412734.5779999999795109
 20
4931609.7900000000372529
 30
49.53999999999999915
  0
POINT
  5
e3
100
AcDbEntity
100
AcDbPoint
  8
Buildings-21-08-2020
420
     0
 10
1412734.35700000007636845
 20
4931609.53199999965727329
 30
47.88000000000000256
  0
POINT
  5
e4
100
AcDbEntity
100
AcDbPoint
  8
Buildings-21-08-2020
420
     0
 10
1412730.74300000001676381
 20
4931609.28000000026077032
 30
47.92000000000000171
  0
POINT
  5
e5
100
AcDbEntity
100
AcDbPoint
  8
Buildings-21-08-2020
420
     0
 10
1412738.15599999995902181
 20
4931573.72900000028312206
 30
63.91700000000000159
  0
POINT
  5
e6
100
AcDbEntity
100
AcDbPoint
  8
Buildings-21-08-2020
420
     0
 10
1412738.73300000000745058
 20
4931574.10800000000745058
 30
60.59000000000000341
  0
POINT
  5
e7
100
AcDbEntity
100
AcDbPoint
  8
Buildings-21-08-2020
420
     0
 10
1412758.35700000007636845
 20
4931573.48500000033527613
 30
60.6980000000000004
  0
POINT
  5
e8
100
AcDbEntity
100
AcDbPoint
  8
Buildings-21-08-2020
420
     0
 10
1412757.12899999995715916
 20
4931572.23199999984353781
 30
60.60799999999999699
  0
POINT
  5
e9
100
AcDbEntity
100
AcDbPoint
  8
Buildings-21-08-2020
420
     0
 10
1412751.89100000006146729
 20
4931572.36400000005960464
 30
60.59799999999999898
  0
POINT
  5
ea
100
AcDbEntity
100
AcDbPoint
  8
Buildings-21-08-2020
420
     0
 10
1412747.87400000006891787
 20
4931571.89800000004470348
 30
61.87700000000000244
  0
POINT
  5
eb
100
AcDbEntity
100
AcDbPoint
  8
Buildings-21-08-2020
420
     0
 10
1412743.30700000002980232
 20
4931572.60300000011920929
 30
60.59700000000000131
  0
POINT
  5
ec
100
AcDbEntity
100
AcDbPoint
  8
Buildings-21-08-2020
420
     0
 10
1412741.549000000115484
 20
4931573.10300000011920929
 30
64.01699999999999591
  0
POINT
  5
ed
100
AcDbEntity
100
AcDbPoint
  8
Buildings-21-08-2020
420
     0
 10
1412738.68800000008195639
 20
4931569.82400000002235174
 30
60.55700000000000216
  0
ENDSEC
0
SECTION
2
OBJECTS
0
DICTIONARY
5
C
330
0
100
AcDbDictionary
281
   1
3
ACAD_GROUP
350
D
3
ACAD_LAYOUT
350
1A
3
ACAD_MLEADERSTYLE
350
43
3
ACAD_MLINESTYLE
350
17
3
ACAD_PLOTSETTINGS
350
19
3
ACAD_PLOTSTYLENAME
350
E
3
ACAD_TABLESTYLE
350
42
3
ACAD_VISUALSTYLE
350
2A
0
DICTIONARY
5
D
102
{ACAD_REACTORS
330
C
102
}
330
C
100
AcDbDictionary
281
   1
0
DICTIONARY
5
1A
102
{ACAD_REACTORS
330
C
102
}
330
C
100
AcDbDictionary
281
   1
3
Layout1
350
1E
3
Layout2
350
26
3
Model
350
22
0
DICTIONARY
5
43
102
{ACAD_REACTORS
330
C
102
}
330
C
100
AcDbDictionary
281
   1
0
DICTIONARY
5
17
102
{ACAD_REACTORS
330
C
102
}
330
C
100
AcDbDictionary
281
   1
3
Standard
350
18
0
DICTIONARY
5
19
102
{ACAD_REACTORS
330
C
102
}
330
C
100
AcDbDictionary
281
   1
0
ACDBDICTIONARYWDFLT
5
E
102
{ACAD_REACTORS
330
C
102
}
330
C
100
AcDbDictionary
281
   1
3
Normal
350
F
100
AcDbDictionaryWithDefault
340
F
0
DICTIONARY
5
42
102
{ACAD_REACTORS
330
C
102
}
330
C
100
AcDbDictionary
281
   1
0
DICTIONARY
5
2A
102
{ACAD_REACTORS
330
C
102
}
330
C
100
AcDbDictionary
281
   1
3
2dWireframe
350
2F
3
3D Hidden
350
31
3
3dWireframe
350
30
3
Basic
350
32
3
Brighten
350
36
3
ColorChange
350
3A
3
Conceptual
350
34
3
Dim
350
35
3
Facepattern
350
39
3
Flat
350
2B
3
FlatWithEdges
350
2C
3
Gouraud
350
2D
3
GouraudWithEdges
350
2E
3
Linepattern
350
38
3
Realistic
350
33
3
Thicken
350
37
0
LAYOUT
5
1E
102
{ACAD_REACTORS
330
1A
102
}
330
1A
100
AcDbPlotSettings
1

2
none_device
4

6

40
0.0
41
0.0
42
0.0
43
0.0
44
0.0
45
0.0
46
0.0
47
0.0
48
0.0
49
0.0
140
0.0
141
0.0
142
1.0
143
1.0
70
 688
72
   0
73
   0
74
   5
7

75
  16
76
   0
77
   2
78
 300
147
1.0
148
0.0
149
0.0
100
AcDbLayout
1
Layout1
70
   1
71
   1
10
0.0
20
0.0
11
12.0
21
9.0
12
0.0
22
0.0
32
0.0
14
1.000000000000000E+20
24
1.000000000000000E+20
34
1.000000000000000E+20
15
-1.000000000000000E+20
25
-1.000000000000000E+20
35
-1.000000000000000E+20
146
0.0
13
0.0
23
0.0
33
0.0
16
1.0
26
0.0
36
0.0
17
0.0
27
1.0
37
0.0
76
   0
330
1B
0
LAYOUT
5
26
102
{ACAD_REACTORS
330
1A
102
}
330
1A
100
AcDbPlotSettings
1

2
none_device
4

6

40
0.0
41
0.0
42
0.0
43
0.0
44
0.0
45
0.0
46
0.0
47
0.0
48
0.0
49
0.0
140
0.0
141
0.0
142
1.0
143
1.0
70
 688
72
   0
73
   0
74
   5
7

75
  16
76
   0
77
   2
78
 300
147
1.0
148
0.0
149
0.0
100
AcDbLayout
1
Layout2
70
   1
71
   2
10
0.0
20
0.0
11
0.0
21
0.0
12
0.0
22
0.0
32
0.0
14
0.0
24
0.0
34
0.0
15
0.0
25
0.0
35
0.0
146
0.0
13
0.0
23
0.0
33
0.0
16
1.0
26
0.0
36
0.0
17
0.0
27
1.0
37
0.0
76
   0
330
23
0
LAYOUT
5
22
102
{ACAD_REACTORS
330
1A
102
}
330
1A
100
AcDbPlotSettings
1

2
none_device
4

6

40
0.0
41
0.0
42
0.0
43
0.0
44
0.0
45
0.0
46
0.0
47
0.0
48
0.0
49
0.0
140
0.0
141
0.0
142
1.0
143
1.0
70
1712
72
   0
73
   0
74
   0
7

75
   0
76
   0
77
   2
78
 300
147
1.0
148
0.0
149
0.0
100
AcDbLayout
1
Model
70
   1
71
   0
10
0.0
20
0.0
11
12.0
21
9.0
12
0.0
22
0.0
32
0.0
14
30.0
24
49.75
34
0.0
15
130.5
25
163.1318914119703
35
0.0
146
0.0
13
0.0
23
0.0
33
0.0
16
1.0
26
0.0
36
0.0
17
0.0
27
1.0
37
0.0
76
   0
330
1F
331
29
0
MLINESTYLE
5
18
102
{ACAD_REACTORS
330
17
102
}
330
17
100
AcDbMlineStyle
2
Standard
70
   0
3

62
 256
51
90.0
52
90.0
71
   2
49
0.5
62
 256
6
BYLAYER
49
-0.5
62
 256
6
BYLAYER
0
ACDBPLACEHOLDER
5
F
102
{ACAD_REACTORS
330
E
102
}
330
E
0
VISUALSTYLE
5
2F
102
{ACAD_REACTORS
330
2A
102
}
330
2A
100
AcDbVisualStyle
2
2dWireframe
70
   4
71
   0
72
   2
73
   0
90
      0
40
-0.6
41
-30.0
62
   5
63
   7
421
16777215
74
   1
91
      4
64
   7
65
 257
75
   1
175
   1
42
1.0
92
      0
66
 257
43
1.0
76
   1
77
   6
78
   2
67
   7
79
   5
170
   0
171
   0
290
   0
174
   0
93
      1
44
0.0
173
   0
291
   0
45
0.0
1001
ACAD
1000
AcDbSavedByObjectVersion
1070
   0
0
VISUALSTYLE
5
31
102
{ACAD_REACTORS
330
2A
102
}
330
2A
100
AcDbVisualStyle
2
3D Hidden
70
   6
71
   1
72
   2
73
   2
90
      0
40
-0.6
41
-30.0
62
   5
63
   7
421
16777215
74
   2
91
      2
64
   7
65
 257
75
   2
175
   1
42
40.0
92
      0
66
 257
43
1.0
76
   1
77
   6
78
   2
67
   7
79
   3
170
   0
171
   0
290
   0
174
   0
93
      1
44
0.0
173
   0
291
   0
45
0.0
1001
ACAD
1000
AcDbSavedByObjectVersion
1070
   0
0
VISUALSTYLE
5
30
102
{ACAD_REACTORS
330
2A
102
}
330
2A
100
AcDbVisualStyle
2
3dWireframe
70
   5
71
   0
72
   2
73
   0
90
      0
40
-0.6
41
-30.0
62
   5
63
   7
421
16777215
74
   1
91
      4
64
   7
65
 257
75
   1
175
   1
42
1.0
92
      0
66
 257
43
1.0
76
   1
77
   6
78
   2
67
   7
79
   5
170
   0
171
   0
290
   0
174
   0
93
      1
44
0.0
173
   0
291
   0
45
0.0
1001
ACAD
1000
AcDbSavedByObjectVersion
1070
   0
0
VISUALSTYLE
5
32
102
{ACAD_REACTORS
330
2A
102
}
330
2A
100
AcDbVisualStyle
2
Basic
70
   7
71
   1
72
   0
73
   1
90
      0
40
-0.6
41
-30.0
62
   5
63
   7
421
16777215
74
   0
91
      4
64
   7
65
 257
75
   1
175
   1
42
1.0
92
      8
66
   7
43
1.0
76
   1
77
   6
78
   2
67
   7
79
   5
170
   0
171
   0
290
   0
174
   0
93
      1
44
0.0
173
   0
291
   1
45
0.0
1001
ACAD
1000
AcDbSavedByObjectVersion
1070
   0
0
VISUALSTYLE
5
36
102
{ACAD_REACTORS
330
2A
102
}
330
2A
100
AcDbVisualStyle
2
Brighten
70
  12
71
   2
72
   2
73
   0
90
      0
40
-0.6
41
-30.0
62
   5
63
   7
421
16777215
74
   1
91
      4
64
   7
65
 257
75
   1
175
   1
42
1.0
92
      8
66
   7
43
1.0
76
   1
77
   6
78
   2
67
   7
79
   5
170
   0
171
   0
290
   0
174
   0
93
      1
44
50.0
173
   0
291
   1
45
0.0
1001
ACAD
1000
AcDbSavedByObjectVersion
1070
   0
0
VISUALSTYLE
5
3A
102
{ACAD_REACTORS
330
2A
102
}
330
2A
100
AcDbVisualStyle
2
ColorChange
70
  16
71
   2
72
   2
73
   3
90
      0
40
-0.6
41
-30.0
62
   5
63
   8
421
8421504
74
   1
91
      4
64
   7
65
 257
75
   1
175
   1
42
1.0
92
      8
66
   8
424
8421504
43
1.0
76
   1
77
   6
78
   2
67
   7
79
   5
170
   0
171
   0
290
   0
174
   0
93
      1
44
0.0
173
   0
291
   1
45
0.0
1001
ACAD
1000
AcDbSavedByObjectVersion
1070
   0
0
VISUALSTYLE
5
34
102
{ACAD_REACTORS
330
2A
102
}
330
2A
100
AcDbVisualStyle
2
Conceptual
70
   9
71
   3
72
   2
73
   0
90
      0
40
-0.6
41
-30.0
62
   5
63
   7
421
16777215
74
   2
91
      2
64
   7
65
 257
75
   1
175
   1
42
40.0
92
      8
66
   7
43
1.0
76
   1
77
   6
78
   2
67
   7
79
   3
170
   0
171
   0
290
   0
174
   0
93
      1
44
0.0
173
   0
291
   0
45
0.0
1001
ACAD
1000
AcDbSavedByObjectVersion
1070
   0
0
VISUALSTYLE
5
35
102
{ACAD_REACTORS
330
2A
102
}
330
2A
100
AcDbVisualStyle
2
Dim
70
  11
71
   2
72
   2
73
   0
90
      0
40
-0.6
41
-30.0
62
   5
63
   7
421
16777215
74
   1
91
      4
64
   7
65
 257
75
   1
175
   1
42
1.0
92
      8
66
   7
43
1.0
76
   1
77
   6
78
   2
67
   7
79
   5
170
   0
171
   0
290
   0
174
   0
93
      1
44
-50.0
173
   0
291
   1
45
0.0
1001
ACAD
1000
AcDbSavedByObjectVersion
1070
   0
0
VISUALSTYLE
5
39
102
{ACAD_REACTORS
330
2A
102
}
330
2A
100
AcDbVisualStyle
2
Facepattern
70
  15
71
   2
72
   2
73
   0
90
      0
40
-0.6
41
-30.0
62
   5
63
   7
421
16777215
74
   1
91
      4
64
   7
65
 257
75
   1
175
   1
42
1.0
92
      8
66
   7
43
1.0
76
   1
77
   6
78
   2
67
   7
79
   5
170
   0
171
   0
290
   0
174
   0
93
      1
44
0.0
173
   0
291
   1
45
0.0
1001
ACAD
1000
AcDbSavedByObjectVersion
1070
   0
0
VISUALSTYLE
5
2B
102
{ACAD_REACTORS
330
2A
102
}
330
2A
100
AcDbVisualStyle
2
Flat
70
   0
71
   2
72
   1
73
   1
90
      2
40
-0.6
41
30.0
62
   5
63
   7
421
16777215
74
   0
91
      4
64
   7
65
 257
75
   1
175
   1
42
1.0
92
      8
66
   7
43
1.0
76
   1
77
   6
78
   2
67
   7
79
   5
170
   0
171
   0
290
   0
174
   0
93
     13
44
0.0
173
   0
291
   1
45
0.0
1001
ACAD
1000
AcDbSavedByObjectVersion
1070
   0
0
VISUALSTYLE
5
2C
102
{ACAD_REACTORS
330
2A
102
}
330
2A
100
AcDbVisualStyle
2
FlatWithEdges
70
   1
71
   2
72
   1
73
   1
90
      2
40
-0.6
41
30.0
62
   5
63
   7
421
16777215
74
   1
91
      4
64
   7
65
 257
75
   1
175
   1
42
1.0
92
      0
66
 257
43
1.0
76
   1
77
   6
78
   2
67
   7
79
   5
170
   0
171
   0
290
   0
174
   0
93
     13
44
0.0
173
   0
291
   1
45
0.0
1001
ACAD
1000
AcDbSavedByObjectVersion
1070
   0
0
VISUALSTYLE
5
2D
102
{ACAD_REACTORS
330
2A
102
}
330
2A
100
AcDbVisualStyle
2
Gouraud
70
   2
71
   2
72
   2
73
   1
90
      2
40
-0.6
41
30.0
62
   5
63
   7
421
16777215
74
   0
91
      4
64
   7
65
 257
75
   1
175
   1
42
1.0
92
      0
66
   7
43
1.0
76
   1
77
   6
78
   2
67
   7
79
   5
170
   0
171
   0
290
   0
174
   0
93
     13
44
0.0
173
   0
291
   1
45
0.0
1001
ACAD
1000
AcDbSavedByObjectVersion
1070
   0
0
VISUALSTYLE
5
2E
102
{ACAD_REACTORS
330
2A
102
}
330
2A
100
AcDbVisualStyle
2
GouraudWithEdges
70
   3
71
   2
72
   2
73
   1
90
      2
40
-0.6
41
30.0
62
   5
63
   7
421
16777215
74
   1
91
      4
64
   7
65
 257
75
   1
175
   1
42
1.0
92
      0
66
 257
43
1.0
76
   1
77
   6
78
   2
67
   7
79
   5
170
   0
171
   0
290
   0
174
   0
93
     13
44
0.0
173
   0
291
   1
45
0.0
1001
ACAD
1000
AcDbSavedByObjectVersion
1070
   0
0
VISUALSTYLE
5
38
102
{ACAD_REACTORS
330
2A
102
}
330
2A
100
AcDbVisualStyle
2
Linepattern
70
  14
71
   2
72
   2
73
   0
90
      0
40
-0.6
41
-30.0
62
   5
63
   7
421
16777215
74
   1
91
      4
64
   7
65
 257
75
   7
175
   7
42
1.0
92
      8
66
   7
43
1.0
76
   1
77
   6
78
   2
67
   7
79
   5
170
   0
171
   0
290
   0
174
   0
93
      1
44
0.0
173
   0
291
   1
45
0.0
1001
ACAD
1000
AcDbSavedByObjectVersion
1070
   0
0
VISUALSTYLE
5
33
102
{ACAD_REACTORS
330
2A
102
}
330
2A
100
AcDbVisualStyle
2
Realistic
70
   8
71
   2
72
   2
73
   0
90
      0
40
-0.6
41
-30.0
62
   5
63
   7
421
16777215
74
   1
91
      0
64
   7
65
 257
75
   1
175
   1
42
1.0
92
      8
66
   8
424
7895160
43
1.0
76
   1
77
   6
78
   2
67
   7
79
   5
170
   0
171
   0
290
   0
174
   0
93
     13
44
0.0
173
   0
291
   0
45
0.0
1001
ACAD
1000
AcDbSavedByObjectVersion
1070
   0
0
VISUALSTYLE
5
37
102
{ACAD_REACTORS
330
2A
102
}
330
2A
100
AcDbVisualStyle
2
Thicken
70
  13
71
   2
72
   2
73
   0
90
      0
40
-0.6
41
-30.0
62
   5
63
   7
421
16777215
74
   1
91
      4
64
   7
65
 257
75
   1
175
   1
42
1.0
92
     12
66
   7
43
1.0
76
   1
77
   6
78
   2
67
   7
79
   5
170
   0
171
   0
290
   0
174
   0
93
      1
44
0.0
173
   0
291
   1
45
0.0
1001
ACAD
1000
AcDbSavedByObjectVersion
1070
   0
0
ENDSEC
  0
EOF
