  0
SECTION
  2
HEADER
  9
$LIMMIN
 10
1412585.822599
 20
4931498.868568
  9
$LIMMAX
 10
1412851.728343
 20
4931743.004757
  0
ENDSEC
  0
SECTION
  2
TABLES
  0
TABLE
  2
LTYPE
 70
     1
  0
LTYPE
  2
CONTINUOUS
 70
    64
  3
Solid line
 72
    65
 73
     0
 40
0.0
  0
ENDTAB
  0
TABLE
  2
LAYER
 70
     7
  0
LAYER
  2
0
 70
     0
 62
     7
  6
CONTINUOUS
  0
LAYER
  2
point
 70
    64
 62
     1
  6
CONTINUOUS
  0
LAYER
  2
line
 70
    64
 62
     2
  6
CONTINUOUS
  0
LAYER
  2
boundary
 70
    64
 62
     3
  6
CONTINUOUS
  0
LAYER
  2
centroid
 70
    64
 62
     4
  6
CONTINUOUS
  0
LAYER
  2
point_label
 70
    64
 62
     5
  6
CONTINUOUS
  0
LAYER
  2
centroid_label
 70
    64
 62
     6
  6
CONTINUOUS
  0
ENDTAB
  0
ENDSEC
  0
SECTION
  2
ENTITIES
0
POLYLINE
8
boundary
66
1
0
VERTEX
8
boundary
10
1412744.685543
20
4931742.391479
 30
0.000000
0
VERTEX
8
boundary
10
1412729.038234
20
4931738.613176
 30
0.000000
0
VERTEX
8
boundary
10
1412586.840791
20
4931703.817403
 30
0.000000
0
VERTEX
8
boundary
10
1412585.822599
20
4931737.606372
 30
0.000000
0
VERTEX
8
boundary
10
1412744.685543
20
4931742.391479
 30
0.000000
  0
SEQEND
  8
boundary
0
POLYLINE
8
boundary
66
1
0
VERTEX
8
boundary
10
1412849.807967
20
4931570.473996
 30
0.000000
0
VERTEX
8
boundary
10
1412850.439493
20
4931549.488147
 30
0.000000
  0
SEQEND
  8
boundary
0
POLYLINE
8
boundary
66
1
0
VERTEX
8
boundary
10
1412764.203399
20
4931660.382551
 30
0.000000
0
VERTEX
8
boundary
10
1412779.005625
20
4931654.389681
 30
0.000000
  0
SEQEND
  8
boundary
0
POLYLINE
8
boundary
66
1
0
VERTEX
8
boundary
10
1412649.677902
20
4931531.312553
 30
0.000000
0
VERTEX
8
boundary
10
1412777.359720
20
4931579.102143
 30
0.000000
0
VERTEX
8
boundary
10
1412789.245120
20
4931608.399760
 30
0.000000
  0
SEQEND
  8
boundary
0
POLYLINE
8
boundary
66
1
0
VERTEX
8
boundary
10
1412803.807255
20
4931644.349841
 30
0.000000
0
VERTEX
8
boundary
10
1412822.409887
20
4931636.814381
 30
0.000000
  0
SEQEND
  8
boundary
0
POLYLINE
8
boundary
66
1
0
VERTEX
8
boundary
10
1412842.593948
20
4931552.667008
 30
0.000000
0
VERTEX
8
boundary
10
1412850.439493
20
4931549.488147
 30
0.000000
  0
SEQEND
  8
boundary
0
POLYLINE
8
boundary
66
1
0
VERTEX
8
boundary
10
1412850.439493
20
4931549.488147
 30
0.000000
0
VERTEX
8
boundary
10
1412851.728343
20
4931506.659418
 30
0.000000
0
VERTEX
8
boundary
10
1412665.042521
20
4931501.038635
 30
0.000000
  0
SEQEND
  8
boundary
0
POLYLINE
8
boundary
66
1
0
VERTEX
8
boundary
10
1412613.802979
20
4931689.704018
 30
0.000000
0
VERTEX
8
boundary
10
1412652.882242
20
4931699.249159
 30
0.000000
  0
SEQEND
  8
boundary
0
POLYLINE
8
boundary
66
1
0
VERTEX
8
boundary
10
1412682.697564
20
4931640.466081
 30
0.000000
0
VERTEX
8
boundary
10
1412699.747808
20
4931606.839283
 30
0.000000
0
VERTEX
8
boundary
10
1412660.662372
20
4931597.301636
 30
0.000000
  0
SEQEND
  8
boundary
0
POLYLINE
8
boundary
66
1
0
VERTEX
8
boundary
10
1412843.988691
20
4931649.779198
 30
0.000000
0
VERTEX
8
boundary
10
1412820.676596
20
4931659.222768
 30
0.000000
  0
SEQEND
  8
boundary
0
POLYLINE
8
boundary
66
1
0
VERTEX
8
boundary
10
1412845.307652
20
4931720.022989
 30
0.000000
0
VERTEX
8
boundary
10
1412847.184066
20
4931657.667843
 30
0.000000
  0
SEQEND
  8
boundary
0
POLYLINE
8
boundary
66
1
0
VERTEX
8
boundary
10
1412799.368686
20
4931667.866638
 30
0.000000
0
VERTEX
8
boundary
10
1412779.429929
20
4931675.943769
 30
0.000000
0
VERTEX
8
boundary
10
1412774.379723
20
4931687.617869
 30
0.000000
  0
SEQEND
  8
boundary
0
POLYLINE
8
boundary
66
1
0
VERTEX
8
boundary
10
1412836.634276
20
4931741.001360
 30
0.000000
0
VERTEX
8
boundary
10
1412844.616080
20
4931743.004757
 30
0.000000
0
VERTEX
8
boundary
10
1412844.697013
20
4931740.315249
 30
0.000000
  0
SEQEND
  8
boundary
0
POLYLINE
8
boundary
66
1
0
VERTEX
8
boundary
10
1412758.217581
20
4931724.985666
 30
0.000000
0
VERTEX
8
boundary
10
1412836.634276
20
4931741.001360
 30
0.000000
  0
SEQEND
  8
boundary
0
POLYLINE
8
boundary
66
1
0
VERTEX
8
boundary
10
1412844.697013
20
4931740.315249
 30
0.000000
0
VERTEX
8
boundary
10
1412845.260009
20
4931721.606223
 30
0.000000
  0
SEQEND
  8
boundary
0
POLYLINE
8
boundary
66
1
0
VERTEX
8
boundary
10
1412592.151782
20
4931527.573505
 30
0.000000
0
VERTEX
8
boundary
10
1412591.809393
20
4931538.935441
 30
0.000000
  0
SEQEND
  8
boundary
0
POLYLINE
8
boundary
66
1
0
VERTEX
8
boundary
10
1412737.410924
20
4931653.834253
 30
0.000000
0
VERTEX
8
boundary
10
1412710.054218
20
4931647.150228
 30
0.000000
  0
SEQEND
  8
boundary
0
POLYLINE
8
boundary
66
1
0
VERTEX
8
boundary
10
1412680.239135
20
4931705.933430
 30
0.000000
0
VERTEX
8
boundary
10
1412707.594790
20
4931712.617540
 30
0.000000
  0
SEQEND
  8
boundary
0
POLYLINE
8
boundary
66
1
0
VERTEX
8
boundary
10
1412768.308570
20
4931701.652033
 30
0.000000
0
VERTEX
8
boundary
10
1412758.217581
20
4931724.985666
 30
0.000000
  0
SEQEND
  8
boundary
0
POLYLINE
8
boundary
66
1
0
VERTEX
8
boundary
10
1412758.217581
20
4931724.985666
 30
0.000000
0
VERTEX
8
boundary
10
1412820.130670
20
4931724.832900
 30
0.000000
  0
SEQEND
  8
boundary
0
POLYLINE
8
boundary
66
1
0
VERTEX
8
boundary
10
1412589.026876
20
4931631.272151
 30
0.000000
0
VERTEX
8
boundary
10
1412588.379296
20
4931652.761996
 30
0.000000
  0
SEQEND
  8
boundary
0
POLYLINE
8
boundary
66
1
0
VERTEX
8
boundary
10
1412843.988691
20
4931649.779198
 30
0.000000
0
VERTEX
8
boundary
10
1412847.184066
20
4931657.667843
 30
0.000000
  0
SEQEND
  8
boundary
0
POLYLINE
8
boundary
66
1
0
VERTEX
8
boundary
10
1412842.593948
20
4931552.667008
 30
0.000000
0
VERTEX
8
boundary
10
1412819.282200
20
4931562.110564
 30
0.000000
  0
SEQEND
  8
boundary
0
POLYLINE
8
boundary
66
1
0
VERTEX
8
boundary
10
1412845.719309
20
4931627.370728
 30
0.000000
0
VERTEX
8
boundary
10
1412848.125111
20
4931626.396201
 30
0.000000
0
VERTEX
8
boundary
10
1412849.807967
20
4931570.473996
 30
0.000000
  0
SEQEND
  8
boundary
0
POLYLINE
8
boundary
66
1
0
VERTEX
8
boundary
10
1412849.807967
20
4931570.473996
 30
0.000000
0
VERTEX
8
boundary
10
1412842.593948
20
4931552.667008
 30
0.000000
  0
SEQEND
  8
boundary
0
POLYLINE
8
boundary
66
1
0
VERTEX
8
boundary
10
1412822.409887
20
4931636.814381
 30
0.000000
0
VERTEX
8
boundary
10
1412845.719309
20
4931627.370728
 30
0.000000
  0
SEQEND
  8
boundary
0
POLYLINE
8
boundary
66
1
0
VERTEX
8
boundary
10
1412845.719309
20
4931627.370728
 30
0.000000
0
VERTEX
8
boundary
10
1412819.282200
20
4931562.110564
 30
0.000000
  0
SEQEND
  8
boundary
0
POLYLINE
8
boundary
66
1
0
VERTEX
8
boundary
10
1412602.038055
20
4931686.832693
 30
0.000000
0
VERTEX
8
boundary
10
1412613.802979
20
4931689.704018
 30
0.000000
  0
SEQEND
  8
boundary
0
POLYLINE
8
boundary
66
1
0
VERTEX
8
boundary
10
1412613.802979
20
4931689.704018
 30
0.000000
0
VERTEX
8
boundary
10
1412660.662372
20
4931597.301636
 30
0.000000
  0
SEQEND
  8
boundary
0
POLYLINE
8
boundary
66
1
0
VERTEX
8
boundary
10
1412660.662372
20
4931597.301636
 30
0.000000
0
VERTEX
8
boundary
10
1412621.575687
20
4931587.765544
 30
0.000000
  0
SEQEND
  8
boundary
0
POLYLINE
8
boundary
66
1
0
VERTEX
8
boundary
10
1412598.339522
20
4931633.009666
 30
0.000000
0
VERTEX
8
boundary
10
1412595.427781
20
4931638.774765
 30
0.000000
  0
SEQEND
  8
boundary
0
POLYLINE
8
boundary
66
1
0
VERTEX
8
boundary
10
1412592.151782
20
4931527.573505
 30
0.000000
0
VERTEX
8
boundary
10
1412596.296391
20
4931529.767188
 30
0.000000
  0
SEQEND
  8
boundary
0
POLYLINE
8
boundary
66
1
0
VERTEX
8
boundary
10
1412643.410923
20
4931543.700504
 30
0.000000
0
VERTEX
8
boundary
10
1412649.677902
20
4931531.312553
 30
0.000000
  0
SEQEND
  8
boundary
0
POLYLINE
8
boundary
66
1
0
VERTEX
8
boundary
10
1412649.677902
20
4931531.312553
 30
0.000000
0
VERTEX
8
boundary
10
1412665.042521
20
4931501.038635
 30
0.000000
  0
SEQEND
  8
boundary
0
POLYLINE
8
boundary
66
1
0
VERTEX
8
boundary
10
1412665.042521
20
4931501.038635
 30
0.000000
0
VERTEX
8
boundary
10
1412593.016799
20
4931498.868568
 30
0.000000
0
VERTEX
8
boundary
10
1412592.151782
20
4931527.573505
 30
0.000000
  0
SEQEND
  8
boundary
0
POLYLINE
8
boundary
66
1
0
VERTEX
8
boundary
10
1412589.026876
20
4931631.272151
 30
0.000000
0
VERTEX
8
boundary
10
1412598.339522
20
4931633.009666
 30
0.000000
  0
SEQEND
  8
boundary
0
POLYLINE
8
boundary
66
1
0
VERTEX
8
boundary
10
1412598.339522
20
4931633.009666
 30
0.000000
0
VERTEX
8
boundary
10
1412611.422334
20
4931607.082768
 30
0.000000
  0
SEQEND
  8
boundary
0
POLYLINE
8
boundary
66
1
0
VERTEX
8
boundary
10
1412590.080586
20
4931596.305049
 30
0.000000
0
VERTEX
8
boundary
10
1412589.026876
20
4931631.272151
 30
0.000000
  0
SEQEND
  8
boundary
0
POLYLINE
8
boundary
66
1
0
VERTEX
8
boundary
10
1412590.080586
20
4931596.305049
 30
0.000000
0
VERTEX
8
boundary
10
1412611.422334
20
4931607.082768
 30
0.000000
  0
SEQEND
  8
boundary
0
POLYLINE
8
boundary
66
1
0
VERTEX
8
boundary
10
1412611.422334
20
4931607.082768
 30
0.000000
0
VERTEX
8
boundary
10
1412621.575687
20
4931587.765544
 30
0.000000
  0
SEQEND
  8
boundary
0
POLYLINE
8
boundary
66
1
0
VERTEX
8
boundary
10
1412621.575687
20
4931587.765544
 30
0.000000
0
VERTEX
8
boundary
10
1412638.895118
20
4931552.662485
 30
0.000000
0
VERTEX
8
boundary
10
1412643.410923
20
4931543.700504
 30
0.000000
  0
SEQEND
  8
boundary
0
POLYLINE
8
boundary
66
1
0
VERTEX
8
boundary
10
1412643.410923
20
4931543.700504
 30
0.000000
0
VERTEX
8
boundary
10
1412600.704851
20
4931520.751960
 30
0.000000
0
VERTEX
8
boundary
10
1412596.296391
20
4931529.767188
 30
0.000000
  0
SEQEND
  8
boundary
0
POLYLINE
8
boundary
66
1
0
VERTEX
8
boundary
10
1412596.296391
20
4931529.767188
 30
0.000000
0
VERTEX
8
boundary
10
1412591.809393
20
4931538.935441
 30
0.000000
  0
SEQEND
  8
boundary
0
POLYLINE
8
boundary
66
1
0
VERTEX
8
boundary
10
1412591.809393
20
4931538.935441
 30
0.000000
0
VERTEX
8
boundary
10
1412590.080586
20
4931596.305049
 30
0.000000
  0
SEQEND
  8
boundary
0
POLYLINE
8
boundary
66
1
0
VERTEX
8
boundary
10
1412710.054218
20
4931647.150228
 30
0.000000
0
VERTEX
8
boundary
10
1412682.697564
20
4931640.466081
 30
0.000000
  0
SEQEND
  8
boundary
0
POLYLINE
8
boundary
66
1
0
VERTEX
8
boundary
10
1412682.697564
20
4931640.466081
 30
0.000000
0
VERTEX
8
boundary
10
1412652.882242
20
4931699.249159
 30
0.000000
  0
SEQEND
  8
boundary
0
POLYLINE
8
boundary
66
1
0
VERTEX
8
boundary
10
1412652.882242
20
4931699.249159
 30
0.000000
0
VERTEX
8
boundary
10
1412680.239135
20
4931705.933430
 30
0.000000
  0
SEQEND
  8
boundary
0
POLYLINE
8
boundary
66
1
0
VERTEX
8
boundary
10
1412680.239135
20
4931705.933430
 30
0.000000
0
VERTEX
8
boundary
10
1412710.054218
20
4931647.150228
 30
0.000000
  0
SEQEND
  8
boundary
0
POLYLINE
8
boundary
66
1
0
VERTEX
8
boundary
10
1412774.379723
20
4931687.617869
 30
0.000000
0
VERTEX
8
boundary
10
1412768.308570
20
4931701.652033
 30
0.000000
  0
SEQEND
  8
boundary
0
POLYLINE
8
boundary
66
1
0
VERTEX
8
boundary
10
1412768.308570
20
4931701.652033
 30
0.000000
0
VERTEX
8
boundary
10
1412819.798626
20
4931723.922187
 30
0.000000
  0
SEQEND
  8
boundary
0
POLYLINE
8
boundary
66
1
0
VERTEX
8
boundary
10
1412812.589838
20
4931704.143280
 30
0.000000
0
VERTEX
8
boundary
10
1412774.379723
20
4931687.617869
 30
0.000000
  0
SEQEND
  8
boundary
0
POLYLINE
8
boundary
66
1
0
VERTEX
8
boundary
10
1412595.427781
20
4931638.774765
 30
0.000000
0
VERTEX
8
boundary
10
1412588.379296
20
4931652.761996
 30
0.000000
  0
SEQEND
  8
boundary
0
POLYLINE
8
boundary
66
1
0
VERTEX
8
boundary
10
1412588.379296
20
4931652.761996
 30
0.000000
0
VERTEX
8
boundary
10
1412587.477992
20
4931682.671784
 30
0.000000
0
VERTEX
8
boundary
10
1412602.038055
20
4931686.832693
 30
0.000000
  0
SEQEND
  8
boundary
0
POLYLINE
8
boundary
66
1
0
VERTEX
8
boundary
10
1412845.307652
20
4931720.022989
 30
0.000000
0
VERTEX
8
boundary
10
1412820.676596
20
4931659.222768
 30
0.000000
  0
SEQEND
  8
boundary
0
POLYLINE
8
boundary
66
1
0
VERTEX
8
boundary
10
1412820.676596
20
4931659.222768
 30
0.000000
0
VERTEX
8
boundary
10
1412799.368686
20
4931667.866638
 30
0.000000
  0
SEQEND
  8
boundary
0
POLYLINE
8
boundary
66
1
0
VERTEX
8
boundary
10
1412799.368686
20
4931667.866638
 30
0.000000
0
VERTEX
8
boundary
10
1412812.589838
20
4931704.143280
 30
0.000000
  0
SEQEND
  8
boundary
0
POLYLINE
8
boundary
66
1
0
VERTEX
8
boundary
10
1412812.589838
20
4931704.143280
 30
0.000000
0
VERTEX
8
boundary
10
1412819.798626
20
4931723.922187
 30
0.000000
  0
SEQEND
  8
boundary
0
POLYLINE
8
boundary
66
1
0
VERTEX
8
boundary
10
1412819.798626
20
4931723.922187
 30
0.000000
0
VERTEX
8
boundary
10
1412820.130670
20
4931724.832900
 30
0.000000
  0
SEQEND
  8
boundary
0
POLYLINE
8
boundary
66
1
0
VERTEX
8
boundary
10
1412820.130670
20
4931724.832900
 30
0.000000
0
VERTEX
8
boundary
10
1412837.390667
20
4931724.792634
 30
0.000000
0
VERTEX
8
boundary
10
1412845.260009
20
4931721.606223
 30
0.000000
  0
SEQEND
  8
boundary
0
POLYLINE
8
boundary
66
1
0
VERTEX
8
boundary
10
1412845.260009
20
4931721.606223
 30
0.000000
0
VERTEX
8
boundary
10
1412845.307652
20
4931720.022989
 30
0.000000
  0
SEQEND
  8
boundary
0
POLYLINE
8
boundary
66
1
0
VERTEX
8
boundary
10
1412737.410924
20
4931653.834253
 30
0.000000
0
VERTEX
8
boundary
10
1412707.594790
20
4931712.617540
 30
0.000000
  0
SEQEND
  8
boundary
0
POLYLINE
8
boundary
66
1
0
VERTEX
8
boundary
10
1412707.594790
20
4931712.617540
 30
0.000000
0
VERTEX
8
boundary
10
1412738.389897
20
4931720.142711
 30
0.000000
0
VERTEX
8
boundary
10
1412764.203399
20
4931660.382551
 30
0.000000
  0
SEQEND
  8
boundary
0
POLYLINE
8
boundary
66
1
0
VERTEX
8
boundary
10
1412764.203399
20
4931660.382551
 30
0.000000
0
VERTEX
8
boundary
10
1412737.410924
20
4931653.834253
 30
0.000000
  0
SEQEND
  8
boundary
0
POLYLINE
8
boundary
66
1
0
VERTEX
8
boundary
10
1412789.245120
20
4931608.399760
 30
0.000000
0
VERTEX
8
boundary
10
1412777.167725
20
4931607.161413
 30
0.000000
0
VERTEX
8
boundary
10
1412775.741498
20
4931621.476268
 30
0.000000
0
VERTEX
8
boundary
10
1412779.005625
20
4931654.389681
 30
0.000000
  0
SEQEND
  8
boundary
0
POLYLINE
8
boundary
66
1
0
VERTEX
8
boundary
10
1412779.005625
20
4931654.389681
 30
0.000000
0
VERTEX
8
boundary
10
1412803.807255
20
4931644.349841
 30
0.000000
  0
SEQEND
  8
boundary
0
POLYLINE
8
boundary
66
1
0
VERTEX
8
boundary
10
1412803.807255
20
4931644.349841
 30
0.000000
0
VERTEX
8
boundary
10
1412789.245120
20
4931608.399760
 30
0.000000
  0
SEQEND
  8
boundary
0
POLYLINE
8
boundary
66
1
0
VERTEX
8
boundary
10
1412836.634276
20
4931741.001360
 30
0.000000
0
VERTEX
8
boundary
10
1412842.444085
20
4931740.822212
 30
0.000000
0
VERTEX
8
boundary
10
1412844.697013
20
4931740.315249
 30
0.000000
  0
SEQEND
  8
boundary
0
POLYLINE
8
boundary
66
1
0
VERTEX
8
boundary
10
1412847.184066
20
4931657.667843
 30
0.000000
0
VERTEX
8
boundary
10
1412847.463824
20
4931648.371257
 30
0.000000
0
VERTEX
8
boundary
10
1412843.988691
20
4931649.779198
 30
0.000000
  0
SEQEND
  8
boundary
0
POLYLINE
8
boundary
66
1
0
VERTEX
8
boundary
10
1412819.282200
20
4931562.110564
 30
0.000000
0
VERTEX
8
boundary
10
1412795.971669
20
4931571.554074
 30
0.000000
0
VERTEX
8
boundary
10
1412822.409887
20
4931636.814381
 30
0.000000
  0
SEQEND
  8
boundary
0
POLYLINE
8
boundary
66
1
0
VERTEX
8
boundary
10
1412602.038055
20
4931686.832693
 30
0.000000
0
VERTEX
8
boundary
10
1412606.914711
20
4931681.187955
 30
0.000000
0
VERTEX
8
boundary
10
1412613.498077
20
4931677.040241
 30
0.000000
0
VERTEX
8
boundary
10
1412624.562487
20
4931655.224356
 30
0.000000
0
VERTEX
8
boundary
10
1412611.240243
20
4931647.622748
 30
0.000000
0
VERTEX
8
boundary
10
1412595.427781
20
4931638.774765
 30
0.000000
  0
SEQEND
  8
boundary
0
POINT
8
centroid
10
1412657.974142
20
4931730.445455
30
0.000000
  0
TEXT
  8
centroid_label
 10
1412657.974142
 20
4931730.445455
 30
0.000000
 40
0.797717
  1
-1
 72
     4
 11
1412657.974142
 21
4931730.445455
 31
0.000000
0
POINT
8
centroid
10
1412847.947974
20
4931559.060000
30
0.000000
  0
TEXT
  8
centroid_label
 10
1412847.947974
 20
4931559.060000
 30
0.000000
 40
0.797717
  1
-1
 72
     4
 11
1412847.947974
 21
4931559.060000
 31
0.000000
0
POINT
8
centroid
10
1412709.234714
20
4931597.088616
30
0.000000
  0
TEXT
  8
centroid_label
 10
1412709.234714
 20
4931597.088616
 30
0.000000
 40
0.797717
  1
-1
 72
     4
 11
1412709.234714
 21
4931597.088616
 31
0.000000
0
POINT
8
centroid
10
1412766.742367
20
4931550.967978
30
0.000000
  0
TEXT
  8
centroid_label
 10
1412766.742367
 20
4931550.967978
 30
0.000000
 40
0.797717
  1
-1
 72
     4
 11
1412766.742367
 21
4931550.967978
 31
0.000000
0
POINT
8
centroid
10
1412656.775346
20
4931648.273261
30
0.000000
  0
TEXT
  8
centroid_label
 10
1412656.775346
 20
4931648.273261
 30
0.000000
 40
0.797717
  1
-1
 72
     4
 11
1412656.775346
 21
4931648.273261
 31
0.000000
0
POINT
8
centroid
10
1412838.667571
20
4931681.967653
30
0.000000
  0
TEXT
  8
centroid_label
 10
1412838.667571
 20
4931681.967653
 30
0.000000
 40
0.797717
  1
-1
 72
     4
 11
1412838.667571
 21
4931681.967653
 31
0.000000
0
POINT
8
centroid
10
1412795.089006
20
4931686.477335
30
0.000000
  0
TEXT
  8
centroid_label
 10
1412795.089006
 20
4931686.477335
 30
0.000000
 40
0.797717
  1
-1
 72
     4
 11
1412795.089006
 21
4931686.477335
 31
0.000000
0
POINT
8
centroid
10
1412841.220522
20
4931741.447527
30
0.000000
  0
TEXT
  8
centroid_label
 10
1412841.220522
 20
4931741.447527
 30
0.000000
 40
0.797717
  1
-1
 72
     4
 11
1412841.220522
 21
4931741.447527
 31
0.000000
0
POINT
8
centroid
10
1412805.877020
20
4931729.398318
30
0.000000
  0
TEXT
  8
centroid_label
 10
1412805.877020
 20
4931729.398318
 30
0.000000
 40
0.797717
  1
-1
 72
     4
 11
1412805.877020
 21
4931729.398318
 31
0.000000
0
POINT
8
centroid
10
1412593.186555
20
4931532.862270
30
0.000000
  0
TEXT
  8
centroid_label
 10
1412593.186555
 20
4931532.862270
 30
0.000000
 40
0.797717
  1
-1
 72
     4
 11
1412593.186555
 21
4931532.862270
 31
0.000000
0
POINT
8
centroid
10
1412708.824886
20
4931679.883716
30
0.000000
  0
TEXT
  8
centroid_label
 10
1412708.824886
 20
4931679.883716
 30
0.000000
 40
0.797717
  1
-1
 72
     4
 11
1412708.824886
 21
4931679.883716
 31
0.000000
0
POINT
8
centroid
10
1412786.714850
20
4931718.155892
30
0.000000
  0
TEXT
  8
centroid_label
 10
1412786.714850
 20
4931718.155892
 30
0.000000
 40
0.797717
  1
-1
 72
     4
 11
1412786.714850
 21
4931718.155892
 31
0.000000
0
POINT
8
centroid
10
1412591.530917
20
4931640.616497
30
0.000000
  0
TEXT
  8
centroid_label
 10
1412591.530917
 20
4931640.616497
 30
0.000000
 40
0.797717
  1
-1
 72
     4
 11
1412591.530917
 21
4931640.616497
 31
0.000000
0
POINT
8
centroid
10
1412846.360221
20
4931652.611526
30
0.000000
  0
TEXT
  8
centroid_label
 10
1412846.360221
 20
4931652.611526
 30
0.000000
 40
0.797717
  1
-1
 72
     4
 11
1412846.360221
 21
4931652.611526
 31
0.000000
0
POINT
8
centroid
10
1412839.323802
20
4931587.317176
30
0.000000
  0
TEXT
  8
centroid_label
 10
1412839.323802
 20
4931587.317176
 30
0.000000
 40
0.797717
  1
-1
 72
     4
 11
1412839.323802
 21
4931587.317176
 31
0.000000
0
POINT
8
centroid
10
1412820.845665
20
4931599.462284
30
0.000000
  0
TEXT
  8
centroid_label
 10
1412820.845665
 20
4931599.462284
 30
0.000000
 40
0.797717
  1
-1
 72
     4
 11
1412820.845665
 21
4931599.462284
 31
0.000000
0
POINT
8
centroid
10
1412624.448279
20
4931636.535442
30
0.000000
  0
TEXT
  8
centroid_label
 10
1412624.448279
 20
4931636.535442
 30
0.000000
 40
0.797717
  1
-1
 72
     4
 11
1412624.448279
 21
4931636.535442
 31
0.000000
0
POINT
8
centroid
10
1412625.964467
20
4931516.035222
30
0.000000
  0
TEXT
  8
centroid_label
 10
1412625.964467
 20
4931516.035222
 30
0.000000
 40
0.797717
  1
-1
 72
     4
 11
1412625.964467
 21
4931516.035222
 31
0.000000
0
POINT
8
centroid
10
1412597.273565
20
4931614.470432
30
0.000000
  0
TEXT
  8
centroid_label
 10
1412597.273565
 20
4931614.470432
 30
0.000000
 40
0.797717
  1
-1
 72
     4
 11
1412597.273565
 21
4931614.470432
 31
0.000000
0
POINT
8
centroid
10
1412611.077447
20
4931562.602290
30
0.000000
  0
TEXT
  8
centroid_label
 10
1412611.077447
 20
4931562.602290
 30
0.000000
 40
0.797717
  1
-1
 72
     4
 11
1412611.077447
 21
4931562.602290
 31
0.000000
0
POINT
8
centroid
10
1412681.468269
20
4931673.199765
30
0.000000
  0
TEXT
  8
centroid_label
 10
1412681.468269
 20
4931673.199765
 30
0.000000
 40
0.797717
  1
-1
 72
     4
 11
1412681.468269
 21
4931673.199765
 31
0.000000
0
POINT
8
centroid
10
1412794.763397
20
4931705.662846
30
0.000000
  0
TEXT
  8
centroid_label
 10
1412794.763397
 20
4931705.662846
 30
0.000000
 40
0.797717
  1
-1
 72
     4
 11
1412794.763397
 21
4931705.662846
 31
0.000000
0
POINT
8
centroid
10
1412602.583442
20
4931663.171924
30
0.000000
  0
TEXT
  8
centroid_label
 10
1412602.583442
 20
4931663.171924
 30
0.000000
 40
0.797717
  1
-1
 72
     4
 11
1412602.583442
 21
4931663.171924
 31
0.000000
0
POINT
8
centroid
10
1412822.116361
20
4931693.871081
30
0.000000
  0
TEXT
  8
centroid_label
 10
1412822.116361
 20
4931693.871081
 30
0.000000
 40
0.797717
  1
-1
 72
     4
 11
1412822.116361
 21
4931693.871081
 31
0.000000
0
POINT
8
centroid
10
1412736.536923
20
4931687.370845
30
0.000000
  0
TEXT
  8
centroid_label
 10
1412736.536923
 20
4931687.370845
 30
0.000000
 40
0.797717
  1
-1
 72
     4
 11
1412736.536923
 21
4931687.370845
 31
0.000000
0
POINT
8
centroid
10
1412786.770226
20
4931631.156221
30
0.000000
  0
TEXT
  8
centroid_label
 10
1412786.770226
 20
4931631.156221
 30
0.000000
 40
0.797717
  1
-1
 72
     4
 11
1412786.770226
 21
4931631.156221
 31
0.000000
  0
ENDSEC
  0
EOF
