999
DXF created from QGIS
  0
SECTION
  2
HEADER
  9
$ACADVER
  1
AC1015
  9
$EXTMIN
 10
1412521.46904132142663002
 20
4931492.76516279950737953
 30
0.0
  9
$EXTMAX
 10
1412916.08190080709755421
 20
4931749.10816207155585289
 30
0.0
  9
$LTSCALE
 40
1.0
  9
$PDMODE
 70
    33
  9
$PDSIZE
 40
     1
  9
$PSLTSCALE
 70
     0
  9
$HANDSEED
  5
9999999
  9
$DWGCODEPAGE
  3
ANSI_1252
  0
ENDSEC
  0
SECTION
  2
TABLES
  0
TABLE
  2
LTYPE
  5
64
100
AcDbSymbolTable
 70
     5
  0
LTYPE
  5
65
100
AcDbSymbolTableRecord
100
AcDbLinetypeTableRecord
  2
ByLayer
 70
    64
  3
Defaultstyle
 72
    65
 73
     0
 40
0.0
  0
LTYPE
  5
66
100
AcDbSymbolTableRecord
100
AcDbLinetypeTableRecord
  2
ByBlock
 70
    64
  3
Defaultstyle
 72
    65
 73
     0
 40
0.0
  0
LTYPE
  5
67
100
AcDbSymbolTableRecord
100
AcDbLinetypeTableRecord
  2
CONTINUOUS
 70
    64
  3
Defaultstyle
 72
    65
 73
     0
 40
0.0
  0
LTYPE
  5
68
100
AcDbSymbolTableRecord
100
AcDbLinetypeTableRecord
  2
DASH
 70
    64
  3

 72
    65
 73
     2
 40
2600.0
 49
2000.0
 74
     0
 49
-600.0
 74
     0
  0
LTYPE
  5
69
100
AcDbSymbolTableRecord
100
AcDbLinetypeTableRecord
  2
DOT
 70
    64
  3

 72
    65
 73
     2
 40
1200.0
 49
600.0
 74
     0
 49
-600.0
 74
     0
  0
LTYPE
  5
6a
100
AcDbSymbolTableRecord
100
AcDbLinetypeTableRecord
  2
DASHDOT
 70
    64
  3

 72
    65
 73
     4
 40
3800.0
 49
2000.0
 74
     0
 49
-600.0
 74
     0
 49
600.0
 74
     0
 49
-600.0
 74
     0
  0
LTYPE
  5
6b
100
AcDbSymbolTableRecord
100
AcDbLinetypeTableRecord
  2
DASHDOTDOT
 70
    64
  3

 72
    65
 73
     6
 40
5000.0
 49
2000.0
 74
     0
 49
-600.0
 74
     0
 49
600.0
 74
     0
 49
-600.0
 74
     0
 49
600.0
 74
     0
 49
-600.0
 74
     0
  0
ENDTAB
  0
TABLE
  2
BLOCK_RECORD
  5
6c
100
AcDbSymbolTable
 70
     0
  0
BLOCK_RECORD
  5
6d
100
AcDbSymbolTableRecord
100
AcDbBlockTableRecord
  2
*Model_Space
  0
BLOCK_RECORD
  5
6e
100
AcDbSymbolTableRecord
100
AcDbBlockTableRecord
  2
*Paper_Space
  0
BLOCK_RECORD
  5
6f
100
AcDbSymbolTableRecord
100
AcDbBlockTableRecord
  2
*Paper_Space0
  0
ENDTAB
  0
TABLE
  2
APPID
  5
70
100
AcDbSymbolTable
 70
     1
  0
APPID
  5
71
100
AcDbSymbolTableRecord
100
AcDbRegAppTableRecord
  2
ACAD
 70
     0
  0
ENDTAB
  0
TABLE
  2
VIEW
  5
72
100
AcDbSymbolTable
 70
     0
  0
ENDTAB
  0
TABLE
  2
UCS
  5
73
100
AcDbSymbolTable
 70
     0
  0
ENDTAB
  0
TABLE
  2
VPORT
  5
74
100
AcDbSymbolTable
  0
VPORT
  5
75
100
AcDbSymbolTableRecord
100
AcDbViewportTableRecord
  2
*ACTIVE
 70
     0
 10
0.0
 20
0.0
 11
1.0
 21
1.0
 12
0.0
 22
0.0
 13
0.0
 23
0.0
 14
1.0
 24
1.0
 15
1.0
 25
1.0
 16
0.0
 26
0.0
 36
1.0
 17
1412718.77547106426209211
 27
4931620.93666243553161621
 40
256.34299927204847336
 41
1.5393939393947762
 42
50.0
 43
0.0
 44
0.0
 50
0.0
 51
0.0
 71
     0
 72
   100
 73
     1
 74
     1
 75
     0
 76
     0
 77
     0
 78
     0
281
     0
 65
     1
110
0.0
120
0.0
130
0.0
111
1.0
121
0.0
131
0.0
112
0.0
122
1.0
132
0.0
 79
     0
146
0.0
 70
     0
  0
ENDTAB
  0
TABLE
  2
DIMSTYLE
  5
76
100
AcDbSymbolTable
100
AcDbDimStyleTable
 70
     0
  0
ENDTAB
  0
TABLE
  2
LAYER
  5
77
100
AcDbSymbolTable
 70
     2
  0
LAYER
  5
78
100
AcDbSymbolTableRecord
100
AcDbLayerTableRecord
  2
0
 70
    64
 62
     1
  6
CONTINUOUS
390
f
  0
LAYER
  5
79
100
AcDbSymbolTableRecord
100
AcDbLayerTableRecord
  2
nz-property-titles(LINZ DOWNLOAD)
 70
    64
 62
     1
  6
CONTINUOUS
390
f
  0
ENDTAB
  0
TABLE
  2
STYLE
  5
7a
100
AcDbSymbolTable
 70
     1
  0
STYLE
  5
7b
100
AcDbSymbolTableRecord
100
AcDbTextStyleTableRecord
  2
STANDARD
 70
    64
 40
0.0
 41
1.0
 50
0.0
 71
     0
 42
5.0
  3
romans.shx
  4

  0
ENDTAB
  0
ENDSEC
  0
SECTION
  2
BLOCKS
  0
BLOCK
  5
7c
330
6d
100
AcDbEntity
  8
0
100
AcDbBlockBegin
  2
*Model_Space
 70
     0
 10
0.0
 20
0.0
 30
0.0
  3
*Model_Space
  1

  0
ENDBLK
  5
7d
100
AcDbEntity
  8
0
100
AcDbBlockEnd
  0
BLOCK
  5
7e
330
6e
100
AcDbEntity
  8
0
100
AcDbBlockBegin
  2
*Paper_Space
 70
     0
 10
0.0
 20
0.0
 30
0.0
  3
*Paper_Space
  1

  0
ENDBLK
  5
7f
100
AcDbEntity
  8
0
100
AcDbBlockEnd
  0
BLOCK
  5
80
330
6f
100
AcDbEntity
  8
0
100
AcDbBlockBegin
  2
*Paper_Space0
 70
     0
 10
0.0
 20
0.0
 30
0.0
  3
*Paper_Space0
  1

  0
ENDBLK
  5
81
100
AcDbEntity
  8
0
100
AcDbBlockEnd
  0
ENDSEC
  0
SECTION
  2
ENTITIES
  0
LWPOLYLINE
  5
82
  8
nz-property-titles(LINZ DOWNLOAD)
100
AcDbEntity
100
AcDbPolyline
  6
CONTINUOUS
420
     0
 90
     4
 70
   129
 43
-1.0
 10
1412850.43949310574680567
 20
4931549.48814697377383709
 10
1412842.59394778730347753
 20
4931552.6670080590993166
 10
1412849.80796657456085086
 20
4931570.47399620991200209
 10
1412850.43949310574680567
 20
4931549.48814697377383709
  0
LWPOLYLINE
  5
83
  8
nz-property-titles(LINZ DOWNLOAD)
100
AcDbEntity
100
AcDbPolyline
  6
CONTINUOUS
420
     0
 90
    16
 70
   129
 43
-1.0
 10
1412682.69756378838792443
 20
4931640.46608144976198673
 10
1412710.05421795696020126
 20
4931647.15022832900285721
 10
1412737.41092436760663986
 20
4931653.83425320964306593
 10
1412764.20339866704307497
 20
4931660.38255071360617876
 10
1412779.00562461442314088
 20
4931654.38968092296272516
 10
1412775.7414980917237699
 20
4931621.4762684628367424
 10
1412777.16772519936785102
 20
4931607.16141335014253855
 10
1412789.24511982430703938
 20
4931608.39976027514785528
 10
1412777.35972018330357969
 20
4931579.10214272607117891
 10
1412649.67790162726305425
 20
4931531.31255331542342901
 10
1412643.41092327516525984
 20
4931543.70050405524671078
 10
1412638.89511813223361969
 20
4931552.66248515713959932
 10
1412621.5756874461658299
 20
4931587.76554444339126348
 10
1412660.66237163660116494
 20
4931597.30163561645895243
 10
1412699.74780769925564528
 20
4931606.83928286470472813
 10
1412682.69756378838792443
 20
4931640.46608144976198673
  0
LWPOLYLINE
  5
84
  8
nz-property-titles(LINZ DOWNLOAD)
100
AcDbEntity
100
AcDbPolyline
  6
CONTINUOUS
420
     0
 90
    12
 70
   129
 43
-1.0
 10
1412665.04252094961702824
 20
4931501.03863542247563601
 10
1412649.67790162726305425
 20
4931531.31255331542342901
 10
1412777.35972018330357969
 20
4931579.10214272607117891
 10
1412789.24511982430703938
 20
4931608.39976027514785528
 10
1412803.8072553735692054
 20
4931644.34984072018414736
 10
1412822.40988745400682092
 20
4931636.81438115797936916
 10
1412795.97166920895688236
 20
4931571.55407410301268101
 10
1412819.28220010758377612
 20
4931562.11056437250226736
 10
1412842.59394778730347753
 20
4931552.6670080590993166
 10
1412850.43949310574680567
 20
4931549.48814697377383709
 10
1412851.72834307001903653
 20
4931506.65941751934587955
 10
1412665.04252094961702824
 20
4931501.03863542247563601
  0
LWPOLYLINE
  5
85
  8
nz-property-titles(LINZ DOWNLOAD)
100
AcDbEntity
100
AcDbPolyline
  6
CONTINUOUS
420
     0
 90
     6
 70
   129
 43
-1.0
 10
1412613.80297916382551193
 20
4931689.7040178282186389
 10
1412652.88224198808893561
 20
4931699.24915860220789909
 10
1412682.69756378838792443
 20
4931640.46608144976198673
 10
1412699.74780769925564528
 20
4931606.83928286470472813
 10
1412660.66237163660116494
 20
4931597.30163561645895243
 10
1412613.80297916382551193
 20
4931689.7040178282186389
  0
LWPOLYLINE
  5
86
  8
nz-property-titles(LINZ DOWNLOAD)
100
AcDbEntity
100
AcDbPolyline
  6
CONTINUOUS
420
     0
 90
     5
 70
   129
 43
-1.0
 10
1412847.18406647397205234
 20
4931657.66784335486590862
 10
1412843.9886912708170712
 20
4931649.77919763885438442
 10
1412820.67659598402678967
 20
4931659.22276812326163054
 10
1412845.30765195330604911
 20
4931720.0229892423376441
 10
1412847.18406647397205234
 20
4931657.66784335486590862
  0
LWPOLYLINE
  5
87
  8
nz-property-titles(LINZ DOWNLOAD)
100
AcDbEntity
100
AcDbPolyline
  6
CONTINUOUS
420
     0
 90
     5
 70
   129
 43
-1.0
 10
1412774.37972259568050504
 20
4931687.61786918714642525
 10
1412812.58983841235749424
 20
4931704.14327953010797501
 10
1412799.36868648091331124
 20
4931667.86663840804249048
 10
1412779.4299289658665657
 20
4931675.94376881420612335
 10
1412774.37972259568050504
 20
4931687.61786918714642525
  0
LWPOLYLINE
  5
88
  8
nz-property-titles(LINZ DOWNLOAD)
100
AcDbEntity
100
AcDbPolyline
  6
CONTINUOUS
420
     0
 90
     5
 70
   129
 43
-1.0
 10
1412842.44408474280498922
 20
4931740.82221177406609058
 10
1412836.63427582290023565
 20
4931741.00136041641235352
 10
1412844.61608045478351414
 20
4931743.00475732702761889
 10
1412844.697013488272205
 20
4931740.31524930335581303
 10
1412842.44408474280498922
 20
4931740.82221177406609058
  0
LWPOLYLINE
  5
89
  8
nz-property-titles(LINZ DOWNLOAD)
100
AcDbEntity
100
AcDbPolyline
  6
CONTINUOUS
420
     0
 90
     8
 70
   129
 43
-1.0
 10
1412845.26000891113653779
 20
4931721.60622330661863089
 10
1412837.39066679170355201
 20
4931724.79263430461287498
 10
1412820.13066976680420339
 20
4931724.83290044218301773
 10
1412758.21758112707175314
 20
4931724.98566595837473869
 10
1412836.63427582290023565
 20
4931741.00136041641235352
 10
1412842.44408474280498922
 20
4931740.82221177406609058
 10
1412844.697013488272205
 20
4931740.31524930335581303
 10
1412845.26000891113653779
 20
4931721.60622330661863089
  0
LWPOLYLINE
  5
8a
  8
nz-property-titles(LINZ DOWNLOAD)
100
AcDbEntity
100
AcDbPolyline
  6
CONTINUOUS
420
     0
 90
     5
 70
   129
 43
-1.0
 10
1412744.68554305797442794
 20
4931742.39147873874753714
 10
1412729.03823441686108708
 20
4931738.61317580658942461
 10
1412586.84079051297158003
 20
4931703.8174032736569643
 10
1412585.82259905873797834
 20
4931737.60637151170521975
 10
1412744.68554305797442794
 20
4931742.39147873874753714
  0
LWPOLYLINE
  5
8b
  8
nz-property-titles(LINZ DOWNLOAD)
100
AcDbEntity
100
AcDbPolyline
  6
CONTINUOUS
420
     0
 90
     4
 70
   129
 43
-1.0
 10
1412591.80939318961463869
 20
4931538.93544062040746212
 10
1412596.29639064962975681
 20
4931529.76718781050294638
 10
1412592.15178180672228336
 20
4931527.57350460905581713
 10
1412591.80939318961463869
 20
4931538.93544062040746212
  0
LWPOLYLINE
  5
8c
  8
nz-property-titles(LINZ DOWNLOAD)
100
AcDbEntity
100
AcDbPolyline
  6
CONTINUOUS
420
     0
 90
     5
 70
   129
 43
-1.0
 10
1412737.41092436760663986
 20
4931653.83425320964306593
 10
1412710.05421795696020126
 20
4931647.15022832900285721
 10
1412680.23913546302355826
 20
4931705.93342956341803074
 10
1412707.59478989010676742
 20
4931712.61753964051604271
 10
1412737.41092436760663986
 20
4931653.83425320964306593
  0
LWPOLYLINE
  5
8d
  8
nz-property-titles(LINZ DOWNLOAD)
100
AcDbEntity
100
AcDbPolyline
  6
CONTINUOUS
420
     0
 90
     5
 70
   129
 43
-1.0
 10
1412819.79862623172812164
 20
4931723.92218686919659376
 10
1412768.30857047694735229
 20
4931701.65203310362994671
 10
1412758.21758112707175314
 20
4931724.98566595837473869
 10
1412820.13066976680420339
 20
4931724.83290044218301773
 10
1412819.79862623172812164
 20
4931723.92218686919659376
  0
LWPOLYLINE
  5
8e
  8
nz-property-titles(LINZ DOWNLOAD)
100
AcDbEntity
100
AcDbPolyline
  6
CONTINUOUS
420
     0
 90
     5
 70
   129
 43
-1.0
 10
1412588.3792961232829839
 20
4931652.76199574302881956
 10
1412595.42778145475313067
 20
4931638.77476517204195261
 10
1412598.33952222671359777
 20
4931633.00966635160148144
 10
1412589.02687551965937018
 20
4931631.27215118240565062
 10
1412588.3792961232829839
 20
4931652.76199574302881956
  0
LWPOLYLINE
  5
8f
  8
nz-property-titles(LINZ DOWNLOAD)
100
AcDbEntity
100
AcDbPolyline
  6
CONTINUOUS
420
     0
 90
     4
 70
   129
 43
-1.0
 10
1412847.46382437250576913
 20
4931648.37125738244503736
 10
1412843.9886912708170712
 20
4931649.77919763885438442
 10
1412847.18406647397205234
 20
4931657.66784335486590862
 10
1412847.46382437250576913
 20
4931648.37125738244503736
  0
LWPOLYLINE
  5
90
  8
nz-property-titles(LINZ DOWNLOAD)
100
AcDbEntity
100
AcDbPolyline
  6
CONTINUOUS
420
     0
 90
     6
 70
   129
 43
-1.0
 10
1412842.59394778730347753
 20
4931552.6670080590993166
 10
1412819.28220010758377612
 20
4931562.11056437250226736
 10
1412845.71930864476598799
 20
4931627.37072838190943003
 10
1412848.12511125393211842
 20
4931626.39620086271315813
 10
1412849.80796657456085086
 20
4931570.47399620991200209
 10
1412842.59394778730347753
 20
4931552.6670080590993166
  0
LWPOLYLINE
  5
91
  8
nz-property-titles(LINZ DOWNLOAD)
100
AcDbEntity
100
AcDbPolyline
  6
CONTINUOUS
420
     0
 90
     5
 70
   129
 43
-1.0
 10
1412795.97166920895688236
 20
4931571.55407410301268101
 10
1412822.40988745400682092
 20
4931636.81438115797936916
 10
1412845.71930864476598799
 20
4931627.37072838190943003
 10
1412819.28220010758377612
 20
4931562.11056437250226736
 10
1412795.97166920895688236
 20
4931571.55407410301268101
  0
LWPOLYLINE
  5
92
  8
nz-property-titles(LINZ DOWNLOAD)
100
AcDbEntity
100
AcDbPolyline
  6
CONTINUOUS
420
     0
 90
    12
 70
   129
 43
-1.0
 10
1412606.91471131844446063
 20
4931681.18795535434037447
 10
1412602.03805496892891824
 20
4931686.83269255142658949
 10
1412613.80297916382551193
 20
4931689.7040178282186389
 10
1412660.66237163660116494
 20
4931597.30163561645895243
 10
1412621.5756874461658299
 20
4931587.76554444339126348
 10
1412611.42233382444828749
 20
4931607.08276805095374584
 10
1412598.33952222671359777
 20
4931633.00966635160148144
 10
1412595.42778145475313067
 20
4931638.77476517204195261
 10
1412611.24024290405213833
 20
4931647.62274785898625851
 10
1412624.56248681573197246
 20
4931655.22435646597296
 10
1412613.49807748571038246
 20
4931677.04024145659059286
 10
1412606.91471131844446063
 20
4931681.18795535434037447
  0
LWPOLYLINE
  5
93
  8
nz-property-titles(LINZ DOWNLOAD)
100
AcDbEntity
100
AcDbPolyline
  6
CONTINUOUS
420
     0
 90
     8
 70
   129
 43
-1.0
 10
1412592.15178180672228336
 20
4931527.57350460905581713
 10
1412596.29639064962975681
 20
4931529.76718781050294638
 10
1412600.7048509269952774
 20
4931520.75195976253598928
 10
1412643.41092327516525984
 20
4931543.70050405524671078
 10
1412649.67790162726305425
 20
4931531.31255331542342901
 10
1412665.04252094961702824
 20
4931501.03863542247563601
 10
1412593.0167993379291147
 20
4931498.86856754403561354
 10
1412592.15178180672228336
 20
4931527.57350460905581713
  0
LWPOLYLINE
  5
94
  8
nz-property-titles(LINZ DOWNLOAD)
100
AcDbEntity
100
AcDbPolyline
  6
CONTINUOUS
420
     0
 90
     5
 70
   129
 43
-1.0
 10
1412589.02687551965937018
 20
4931631.27215118240565062
 10
1412598.33952222671359777
 20
4931633.00966635160148144
 10
1412611.42233382444828749
 20
4931607.08276805095374584
 10
1412590.08058593142777681
 20
4931596.30504870600998402
 10
1412589.02687551965937018
 20
4931631.27215118240565062
  0
LWPOLYLINE
  5
95
  8
nz-property-titles(LINZ DOWNLOAD)
100
AcDbEntity
100
AcDbPolyline
  6
CONTINUOUS
420
     0
 90
     9
 70
   129
 43
-1.0
 10
1412590.08058593142777681
 20
4931596.30504870600998402
 10
1412611.42233382444828749
 20
4931607.08276805095374584
 10
1412621.5756874461658299
 20
4931587.76554444339126348
 10
1412638.89511813223361969
 20
4931552.66248515713959932
 10
1412643.41092327516525984
 20
4931543.70050405524671078
 10
1412600.7048509269952774
 20
4931520.75195976253598928
 10
1412596.29639064962975681
 20
4931529.76718781050294638
 10
1412591.80939318961463869
 20
4931538.93544062040746212
 10
1412590.08058593142777681
 20
4931596.30504870600998402
  0
LWPOLYLINE
  5
96
  8
nz-property-titles(LINZ DOWNLOAD)
100
AcDbEntity
100
AcDbPolyline
  6
CONTINUOUS
420
     0
 90
     5
 70
   129
 43
-1.0
 10
1412710.05421795696020126
 20
4931647.15022832900285721
 10
1412682.69756378838792443
 20
4931640.46608144976198673
 10
1412652.88224198808893561
 20
4931699.24915860220789909
 10
1412680.23913546302355826
 20
4931705.93342956341803074
 10
1412710.05421795696020126
 20
4931647.15022832900285721
  0
LWPOLYLINE
  5
97
  8
nz-property-titles(LINZ DOWNLOAD)
100
AcDbEntity
100
AcDbPolyline
  6
CONTINUOUS
420
     0
 90
     5
 70
   129
 43
-1.0
 10
1412774.37972259568050504
 20
4931687.61786918714642525
 10
1412768.30857047694735229
 20
4931701.65203310362994671
 10
1412819.79862623172812164
 20
4931723.92218686919659376
 10
1412812.58983841235749424
 20
4931704.14327953010797501
 10
1412774.37972259568050504
 20
4931687.61786918714642525
  0
LWPOLYLINE
  5
98
  8
nz-property-titles(LINZ DOWNLOAD)
100
AcDbEntity
100
AcDbPolyline
  6
CONTINUOUS
420
     0
 90
     9
 70
   129
 43
-1.0
 10
1412606.91471131844446063
 20
4931681.18795535434037447
 10
1412613.49807748571038246
 20
4931677.04024145659059286
 10
1412624.56248681573197246
 20
4931655.22435646597296
 10
1412611.24024290405213833
 20
4931647.62274785898625851
 10
1412595.42778145475313067
 20
4931638.77476517204195261
 10
1412588.3792961232829839
 20
4931652.76199574302881956
 10
1412587.47799196490086615
 20
4931682.67178374156355858
 10
1412602.03805496892891824
 20
4931686.83269255142658949
 10
1412606.91471131844446063
 20
4931681.18795535434037447
  0
LWPOLYLINE
  5
99
  8
nz-property-titles(LINZ DOWNLOAD)
100
AcDbEntity
100
AcDbPolyline
  6
CONTINUOUS
420
     0
 90
     9
 70
   129
 43
-1.0
 10
1412845.30765195330604911
 20
4931720.0229892423376441
 10
1412820.67659598402678967
 20
4931659.22276812326163054
 10
1412799.36868648091331124
 20
4931667.86663840804249048
 10
1412812.58983841235749424
 20
4931704.14327953010797501
 10
1412819.79862623172812164
 20
4931723.92218686919659376
 10
1412820.13066976680420339
 20
4931724.83290044218301773
 10
1412837.39066679170355201
 20
4931724.79263430461287498
 10
1412845.26000891113653779
 20
4931721.60622330661863089
 10
1412845.30765195330604911
 20
4931720.0229892423376441
  0
LWPOLYLINE
  5
9a
  8
nz-property-titles(LINZ DOWNLOAD)
100
AcDbEntity
100
AcDbPolyline
  6
CONTINUOUS
420
     0
 90
     5
 70
   129
 43
-1.0
 10
1412737.41092436760663986
 20
4931653.83425320964306593
 10
1412707.59478989010676742
 20
4931712.61753964051604271
 10
1412738.38989734509959817
 20
4931720.14271082263439894
 10
1412764.20339866704307497
 20
4931660.38255071360617876
 10
1412737.41092436760663986
 20
4931653.83425320964306593
  0
LWPOLYLINE
  5
9b
  8
nz-property-titles(LINZ DOWNLOAD)
100
AcDbEntity
100
AcDbPolyline
  6
CONTINUOUS
420
     0
 90
     6
 70
   129
 43
-1.0
 10
1412789.24511982430703938
 20
4931608.39976027514785528
 10
1412777.16772519936785102
 20
4931607.16141335014253855
 10
1412775.7414980917237699
 20
4931621.4762684628367424
 10
1412779.00562461442314088
 20
4931654.38968092296272516
 10
1412803.8072553735692054
 20
4931644.34984072018414736
 10
1412789.24511982430703938
 20
4931608.39976027514785528
  0
ENDSEC
0
SECTION
2
OBJECTS
0
DICTIONARY
5
C
330
0
100
AcDbDictionary
281
   1
3
ACAD_GROUP
350
D
3
ACAD_LAYOUT
350
1A
3
ACAD_MLEADERSTYLE
350
43
3
ACAD_MLINESTYLE
350
17
3
ACAD_PLOTSETTINGS
350
19
3
ACAD_PLOTSTYLENAME
350
E
3
ACAD_TABLESTYLE
350
42
3
ACAD_VISUALSTYLE
350
2A
0
DICTIONARY
5
D
102
{ACAD_REACTORS
330
C
102
}
330
C
100
AcDbDictionary
281
   1
0
DICTIONARY
5
1A
102
{ACAD_REACTORS
330
C
102
}
330
C
100
AcDbDictionary
281
   1
3
Layout1
350
1E
3
Layout2
350
26
3
Model
350
22
0
DICTIONARY
5
43
102
{ACAD_REACTORS
330
C
102
}
330
C
100
AcDbDictionary
281
   1
0
DICTIONARY
5
17
102
{ACAD_REACTORS
330
C
102
}
330
C
100
AcDbDictionary
281
   1
3
Standard
350
18
0
DICTIONARY
5
19
102
{ACAD_REACTORS
330
C
102
}
330
C
100
AcDbDictionary
281
   1
0
ACDBDICTIONARYWDFLT
5
E
102
{ACAD_REACTORS
330
C
102
}
330
C
100
AcDbDictionary
281
   1
3
Normal
350
F
100
AcDbDictionaryWithDefault
340
F
0
DICTIONARY
5
42
102
{ACAD_REACTORS
330
C
102
}
330
C
100
AcDbDictionary
281
   1
0
DICTIONARY
5
2A
102
{ACAD_REACTORS
330
C
102
}
330
C
100
AcDbDictionary
281
   1
3
2dWireframe
350
2F
3
3D Hidden
350
31
3
3dWireframe
350
30
3
Basic
350
32
3
Brighten
350
36
3
ColorChange
350
3A
3
Conceptual
350
34
3
Dim
350
35
3
Facepattern
350
39
3
Flat
350
2B
3
FlatWithEdges
350
2C
3
Gouraud
350
2D
3
GouraudWithEdges
350
2E
3
Linepattern
350
38
3
Realistic
350
33
3
Thicken
350
37
0
LAYOUT
5
1E
102
{ACAD_REACTORS
330
1A
102
}
330
1A
100
AcDbPlotSettings
1

2
none_device
4

6

40
0.0
41
0.0
42
0.0
43
0.0
44
0.0
45
0.0
46
0.0
47
0.0
48
0.0
49
0.0
140
0.0
141
0.0
142
1.0
143
1.0
70
 688
72
   0
73
   0
74
   5
7

75
  16
76
   0
77
   2
78
 300
147
1.0
148
0.0
149
0.0
100
AcDbLayout
1
Layout1
70
   1
71
   1
10
0.0
20
0.0
11
12.0
21
9.0
12
0.0
22
0.0
32
0.0
14
1.000000000000000E+20
24
1.000000000000000E+20
34
1.000000000000000E+20
15
-1.000000000000000E+20
25
-1.000000000000000E+20
35
-1.000000000000000E+20
146
0.0
13
0.0
23
0.0
33
0.0
16
1.0
26
0.0
36
0.0
17
0.0
27
1.0
37
0.0
76
   0
330
1B
0
LAYOUT
5
26
102
{ACAD_REACTORS
330
1A
102
}
330
1A
100
AcDbPlotSettings
1

2
none_device
4

6

40
0.0
41
0.0
42
0.0
43
0.0
44
0.0
45
0.0
46
0.0
47
0.0
48
0.0
49
0.0
140
0.0
141
0.0
142
1.0
143
1.0
70
 688
72
   0
73
   0
74
   5
7

75
  16
76
   0
77
   2
78
 300
147
1.0
148
0.0
149
0.0
100
AcDbLayout
1
Layout2
70
   1
71
   2
10
0.0
20
0.0
11
0.0
21
0.0
12
0.0
22
0.0
32
0.0
14
0.0
24
0.0
34
0.0
15
0.0
25
0.0
35
0.0
146
0.0
13
0.0
23
0.0
33
0.0
16
1.0
26
0.0
36
0.0
17
0.0
27
1.0
37
0.0
76
   0
330
23
0
LAYOUT
5
22
102
{ACAD_REACTORS
330
1A
102
}
330
1A
100
AcDbPlotSettings
1

2
none_device
4

6

40
0.0
41
0.0
42
0.0
43
0.0
44
0.0
45
0.0
46
0.0
47
0.0
48
0.0
49
0.0
140
0.0
141
0.0
142
1.0
143
1.0
70
1712
72
   0
73
   0
74
   0
7

75
   0
76
   0
77
   2
78
 300
147
1.0
148
0.0
149
0.0
100
AcDbLayout
1
Model
70
   1
71
   0
10
0.0
20
0.0
11
12.0
21
9.0
12
0.0
22
0.0
32
0.0
14
30.0
24
49.75
34
0.0
15
130.5
25
163.1318914119703
35
0.0
146
0.0
13
0.0
23
0.0
33
0.0
16
1.0
26
0.0
36
0.0
17
0.0
27
1.0
37
0.0
76
   0
330
1F
331
29
0
MLINESTYLE
5
18
102
{ACAD_REACTORS
330
17
102
}
330
17
100
AcDbMlineStyle
2
Standard
70
   0
3

62
 256
51
90.0
52
90.0
71
   2
49
0.5
62
 256
6
BYLAYER
49
-0.5
62
 256
6
BYLAYER
0
ACDBPLACEHOLDER
5
F
102
{ACAD_REACTORS
330
E
102
}
330
E
0
VISUALSTYLE
5
2F
102
{ACAD_REACTORS
330
2A
102
}
330
2A
100
AcDbVisualStyle
2
2dWireframe
70
   4
71
   0
72
   2
73
   0
90
      0
40
-0.6
41
-30.0
62
   5
63
   7
421
16777215
74
   1
91
      4
64
   7
65
 257
75
   1
175
   1
42
1.0
92
      0
66
 257
43
1.0
76
   1
77
   6
78
   2
67
   7
79
   5
170
   0
171
   0
290
   0
174
   0
93
      1
44
0.0
173
   0
291
   0
45
0.0
1001
ACAD
1000
AcDbSavedByObjectVersion
1070
   0
0
VISUALSTYLE
5
31
102
{ACAD_REACTORS
330
2A
102
}
330
2A
100
AcDbVisualStyle
2
3D Hidden
70
   6
71
   1
72
   2
73
   2
90
      0
40
-0.6
41
-30.0
62
   5
63
   7
421
16777215
74
   2
91
      2
64
   7
65
 257
75
   2
175
   1
42
40.0
92
      0
66
 257
43
1.0
76
   1
77
   6
78
   2
67
   7
79
   3
170
   0
171
   0
290
   0
174
   0
93
      1
44
0.0
173
   0
291
   0
45
0.0
1001
ACAD
1000
AcDbSavedByObjectVersion
1070
   0
0
VISUALSTYLE
5
30
102
{ACAD_REACTORS
330
2A
102
}
330
2A
100
AcDbVisualStyle
2
3dWireframe
70
   5
71
   0
72
   2
73
   0
90
      0
40
-0.6
41
-30.0
62
   5
63
   7
421
16777215
74
   1
91
      4
64
   7
65
 257
75
   1
175
   1
42
1.0
92
      0
66
 257
43
1.0
76
   1
77
   6
78
   2
67
   7
79
   5
170
   0
171
   0
290
   0
174
   0
93
      1
44
0.0
173
   0
291
   0
45
0.0
1001
ACAD
1000
AcDbSavedByObjectVersion
1070
   0
0
VISUALSTYLE
5
32
102
{ACAD_REACTORS
330
2A
102
}
330
2A
100
AcDbVisualStyle
2
Basic
70
   7
71
   1
72
   0
73
   1
90
      0
40
-0.6
41
-30.0
62
   5
63
   7
421
16777215
74
   0
91
      4
64
   7
65
 257
75
   1
175
   1
42
1.0
92
      8
66
   7
43
1.0
76
   1
77
   6
78
   2
67
   7
79
   5
170
   0
171
   0
290
   0
174
   0
93
      1
44
0.0
173
   0
291
   1
45
0.0
1001
ACAD
1000
AcDbSavedByObjectVersion
1070
   0
0
VISUALSTYLE
5
36
102
{ACAD_REACTORS
330
2A
102
}
330
2A
100
AcDbVisualStyle
2
Brighten
70
  12
71
   2
72
   2
73
   0
90
      0
40
-0.6
41
-30.0
62
   5
63
   7
421
16777215
74
   1
91
      4
64
   7
65
 257
75
   1
175
   1
42
1.0
92
      8
66
   7
43
1.0
76
   1
77
   6
78
   2
67
   7
79
   5
170
   0
171
   0
290
   0
174
   0
93
      1
44
50.0
173
   0
291
   1
45
0.0
1001
ACAD
1000
AcDbSavedByObjectVersion
1070
   0
0
VISUALSTYLE
5
3A
102
{ACAD_REACTORS
330
2A
102
}
330
2A
100
AcDbVisualStyle
2
ColorChange
70
  16
71
   2
72
   2
73
   3
90
      0
40
-0.6
41
-30.0
62
   5
63
   8
421
8421504
74
   1
91
      4
64
   7
65
 257
75
   1
175
   1
42
1.0
92
      8
66
   8
424
8421504
43
1.0
76
   1
77
   6
78
   2
67
   7
79
   5
170
   0
171
   0
290
   0
174
   0
93
      1
44
0.0
173
   0
291
   1
45
0.0
1001
ACAD
1000
AcDbSavedByObjectVersion
1070
   0
0
VISUALSTYLE
5
34
102
{ACAD_REACTORS
330
2A
102
}
330
2A
100
AcDbVisualStyle
2
Conceptual
70
   9
71
   3
72
   2
73
   0
90
      0
40
-0.6
41
-30.0
62
   5
63
   7
421
16777215
74
   2
91
      2
64
   7
65
 257
75
   1
175
   1
42
40.0
92
      8
66
   7
43
1.0
76
   1
77
   6
78
   2
67
   7
79
   3
170
   0
171
   0
290
   0
174
   0
93
      1
44
0.0
173
   0
291
   0
45
0.0
1001
ACAD
1000
AcDbSavedByObjectVersion
1070
   0
0
VISUALSTYLE
5
35
102
{ACAD_REACTORS
330
2A
102
}
330
2A
100
AcDbVisualStyle
2
Dim
70
  11
71
   2
72
   2
73
   0
90
      0
40
-0.6
41
-30.0
62
   5
63
   7
421
16777215
74
   1
91
      4
64
   7
65
 257
75
   1
175
   1
42
1.0
92
      8
66
   7
43
1.0
76
   1
77
   6
78
   2
67
   7
79
   5
170
   0
171
   0
290
   0
174
   0
93
      1
44
-50.0
173
   0
291
   1
45
0.0
1001
ACAD
1000
AcDbSavedByObjectVersion
1070
   0
0
VISUALSTYLE
5
39
102
{ACAD_REACTORS
330
2A
102
}
330
2A
100
AcDbVisualStyle
2
Facepattern
70
  15
71
   2
72
   2
73
   0
90
      0
40
-0.6
41
-30.0
62
   5
63
   7
421
16777215
74
   1
91
      4
64
   7
65
 257
75
   1
175
   1
42
1.0
92
      8
66
   7
43
1.0
76
   1
77
   6
78
   2
67
   7
79
   5
170
   0
171
   0
290
   0
174
   0
93
      1
44
0.0
173
   0
291
   1
45
0.0
1001
ACAD
1000
AcDbSavedByObjectVersion
1070
   0
0
VISUALSTYLE
5
2B
102
{ACAD_REACTORS
330
2A
102
}
330
2A
100
AcDbVisualStyle
2
Flat
70
   0
71
   2
72
   1
73
   1
90
      2
40
-0.6
41
30.0
62
   5
63
   7
421
16777215
74
   0
91
      4
64
   7
65
 257
75
   1
175
   1
42
1.0
92
      8
66
   7
43
1.0
76
   1
77
   6
78
   2
67
   7
79
   5
170
   0
171
   0
290
   0
174
   0
93
     13
44
0.0
173
   0
291
   1
45
0.0
1001
ACAD
1000
AcDbSavedByObjectVersion
1070
   0
0
VISUALSTYLE
5
2C
102
{ACAD_REACTORS
330
2A
102
}
330
2A
100
AcDbVisualStyle
2
FlatWithEdges
70
   1
71
   2
72
   1
73
   1
90
      2
40
-0.6
41
30.0
62
   5
63
   7
421
16777215
74
   1
91
      4
64
   7
65
 257
75
   1
175
   1
42
1.0
92
      0
66
 257
43
1.0
76
   1
77
   6
78
   2
67
   7
79
   5
170
   0
171
   0
290
   0
174
   0
93
     13
44
0.0
173
   0
291
   1
45
0.0
1001
ACAD
1000
AcDbSavedByObjectVersion
1070
   0
0
VISUALSTYLE
5
2D
102
{ACAD_REACTORS
330
2A
102
}
330
2A
100
AcDbVisualStyle
2
Gouraud
70
   2
71
   2
72
   2
73
   1
90
      2
40
-0.6
41
30.0
62
   5
63
   7
421
16777215
74
   0
91
      4
64
   7
65
 257
75
   1
175
   1
42
1.0
92
      0
66
   7
43
1.0
76
   1
77
   6
78
   2
67
   7
79
   5
170
   0
171
   0
290
   0
174
   0
93
     13
44
0.0
173
   0
291
   1
45
0.0
1001
ACAD
1000
AcDbSavedByObjectVersion
1070
   0
0
VISUALSTYLE
5
2E
102
{ACAD_REACTORS
330
2A
102
}
330
2A
100
AcDbVisualStyle
2
GouraudWithEdges
70
   3
71
   2
72
   2
73
   1
90
      2
40
-0.6
41
30.0
62
   5
63
   7
421
16777215
74
   1
91
      4
64
   7
65
 257
75
   1
175
   1
42
1.0
92
      0
66
 257
43
1.0
76
   1
77
   6
78
   2
67
   7
79
   5
170
   0
171
   0
290
   0
174
   0
93
     13
44
0.0
173
   0
291
   1
45
0.0
1001
ACAD
1000
AcDbSavedByObjectVersion
1070
   0
0
VISUALSTYLE
5
38
102
{ACAD_REACTORS
330
2A
102
}
330
2A
100
AcDbVisualStyle
2
Linepattern
70
  14
71
   2
72
   2
73
   0
90
      0
40
-0.6
41
-30.0
62
   5
63
   7
421
16777215
74
   1
91
      4
64
   7
65
 257
75
   7
175
   7
42
1.0
92
      8
66
   7
43
1.0
76
   1
77
   6
78
   2
67
   7
79
   5
170
   0
171
   0
290
   0
174
   0
93
      1
44
0.0
173
   0
291
   1
45
0.0
1001
ACAD
1000
AcDbSavedByObjectVersion
1070
   0
0
VISUALSTYLE
5
33
102
{ACAD_REACTORS
330
2A
102
}
330
2A
100
AcDbVisualStyle
2
Realistic
70
   8
71
   2
72
   2
73
   0
90
      0
40
-0.6
41
-30.0
62
   5
63
   7
421
16777215
74
   1
91
      0
64
   7
65
 257
75
   1
175
   1
42
1.0
92
      8
66
   8
424
7895160
43
1.0
76
   1
77
   6
78
   2
67
   7
79
   5
170
   0
171
   0
290
   0
174
   0
93
     13
44
0.0
173
   0
291
   0
45
0.0
1001
ACAD
1000
AcDbSavedByObjectVersion
1070
   0
0
VISUALSTYLE
5
37
102
{ACAD_REACTORS
330
2A
102
}
330
2A
100
AcDbVisualStyle
2
Thicken
70
  13
71
   2
72
   2
73
   0
90
      0
40
-0.6
41
-30.0
62
   5
63
   7
421
16777215
74
   1
91
      4
64
   7
65
 257
75
   1
175
   1
42
1.0
92
     12
66
   7
43
1.0
76
   1
77
   6
78
   2
67
   7
79
   5
170
   0
171
   0
290
   0
174
   0
93
      1
44
0.0
173
   0
291
   1
45
0.0
1001
ACAD
1000
AcDbSavedByObjectVersion
1070
   0
0
ENDSEC
  0
EOF
