  0
SECTION
  2
HEADER
  9
$ACADVER
  1
AC1009
  9
$INSBASE
 10
0.0
 20
0.0
 30
0.0
  9
$EXTMIN
 10
0.0
 20
0.0
 30
0.0
  9
$EXTMAX
 10
100.0
 20
100.0
 30
0.0
  9
$UNITMODE
 70
0
  9
$AUNITS
 70
0
  9
$ANGBASE
 50
0.0
  9
$ANGDIR
 70
0
  0
ENDSEC
  0
SECTION
  2
TABLES
  0
TABLE
  2
LTYPE
 70
19
  0
LTYPE
  2
CONTINUOUS
 70
0
  3
Solid
 72
65
 73
0
 40
0.0
  0
LTYPE
  2
CENTER
 70
0
  3
Center ____ _ ____ _ ____ _ ____ _ ____ _ ____
 72
65
 73
4
 40
2.0
 49
1.25
 49
-0.25
 49
0.25
 49
-0.25
  0
LTYPE
  2
CENTERX2
 70
0
  3
Center (2x) ________  __  ________  __  ________
 72
65
 73
4
 40
3.5
 49
2.5
 49
-0.25
 49
0.5
 49
-0.25
  0
LTYPE
  2
CENTER2
 70
0
  3
Center (.5x) ____ _ ____ _ ____ _ ____ _ ____
 72
65
 73
4
 40
1.0
 49
0.625
 49
-0.125
 49
0.125
 49
-0.125
  0
LTYPE
  2
DASHED
 70
0
  3
Dashed __ __ __ __ __ __ __ __ __ __ __ __ __ _
 72
65
 73
2
 40
0.6
 49
0.5
 49
-0.1
  0
LTYPE
  2
DASHEDX2
 70
0
  3
Dashed (2x) ____  ____  ____  ____  ____  ____
 72
65
 73
2
 40
1.2
 49
1.0
 49
-0.2
  0
LTYPE
  2
DASHED2
 70
0
  3
Dashed (.5x) _ _ _ _ _ _ _ _ _ _ _ _ _ _
 72
65
 73
2
 40
0.3
 49
0.25
 49
-0.05
  0
LTYPE
  2
PHANTOM
 70
0
  3
Phantom ______  __  __  ______  __  __  ______
 72
65
 73
6
 40
2.5
 49
1.25
 49
-0.25
 49
0.25
 49
-0.25
 49
0.25
 49
-0.25
  0
LTYPE
  2
PHANTOMX2
 70
0
  3
Phantom (2x)____________    ____    ____    ____________
 72
65
 73
6
 40
4.25
 49
2.5
 49
-0.25
 49
0.5
 49
-0.25
 49
0.5
 49
-0.25
  0
LTYPE
  2
PHANTOM2
 70
0
  3
Phantom (.5x) ___ _ _ ___ _ _ ___ _ _ ___ _ _ ___
 72
65
 73
6
 40
1.25
 49
0.625
 49
-0.125
 49
0.125
 49
-0.125
 49
0.125
 49
-0.125
  0
LTYPE
  2
DASHDOT
 70
0
  3
Dash dot __ . __ . __ . __ . __ . __ . __ . __
 72
65
 73
4
 40
1.4
 49
1.0
 49
-0.2
 49
0.0
 49
-0.2
  0
LTYPE
  2
DASHDOTX2
 70
0
  3
Dash dot (2x) ____  .  ____  .  ____  .  ____
 72
65
 73
4
 40
2.4
 49
2.0
 49
-0.2
 49
0.0
 49
-0.2
  0
LTYPE
  2
DASHDOT2
 70
0
  3
Dash dot (.5x) _ . _ . _ . _ . _ . _ . _ . _
 72
65
 73
4
 40
0.7
 49
0.5
 49
-0.1
 49
0.0
 49
-0.1
  0
LTYPE
  2
DOT
 70
0
  3
Dot .  .  .  .  .  .  .  .  .  .  .  .  .  .  .  .
 72
65
 73
2
 40
0.2
 49
0.0
 49
-0.2
  0
LTYPE
  2
DOTX2
 70
0
  3
Dot (2x) .    .    .    .    .    .    .    . 
 72
65
 73
2
 40
0.4
 49
0.0
 49
-0.4
  0
LTYPE
  2
DOT2
 70
0
  3
Dot (.5) . . . . . . . . . . . . . . . . . . . 
 72
65
 73
2
 40
0.1
 49
0.0
 49
-0.1
  0
LTYPE
  2
DIVIDE
 70
0
  3
Divide __ . . __ . . __ . . __ . . __ . . __
 72
65
 73
6
 40
1.6
 49
1.0
 49
-0.2
 49
0.0
 49
-0.2
 49
0.0
 49
-0.2
  0
LTYPE
  2
DIVIDEX2
 70
0
  3
Divide (2x) ____  . .  ____  . .  ____  . .  ____
 72
65
 73
6
 40
2.6
 49
2.0
 49
-0.2
 49
0.0
 49
-0.2
 49
0.0
 49
-0.2
  0
LTYPE
  2
DIVIDE2
 70
0
  3
Divide(.5x) _ . _ . _ . _ . _ . _ . _ . _
 72
65
 73
6
 40
0.8
 49
0.5
 49
-0.1
 49
0.0
 49
-0.1
 49
0.0
 49
-0.1
  0
ENDTAB
  0
TABLE
  2
LAYER
 70
6
  0
LAYER
  2
DIMENSIONS
 70
0
 62
1
  6
CONTINUOUS
  0
LAYER
  2
TABLEBACKGROUND
 70
0
 62
1
  6
CONTINUOUS
  0
LAYER
  2
TABLECONTENT
 70
0
 62
1
  6
CONTINUOUS
  0
LAYER
  2
TABLEGRID
 70
0
 62
1
  6
CONTINUOUS
  0
LAYER
  2
VIEWPORTS
 70
0
 62
7
  6
CONTINUOUS
  0
LAYER
  2
TOPPPLATFORM_BASELINE_STAKE_2
 70
0
 62
1
  6
CONTINUOUS
  0
ENDTAB
  0
TABLE
  2
STYLE
 70
12
  0
STYLE
  2
STANDARD
 70
0
 40
0.0
 41
1.0
 42
1.0
 50
0.0
 71
0
  3
arial.ttf
  4

  0
STYLE
  2
ARIAL
 70
0
 40
0.0
 41
1.0
 42
1.0
 50
0.0
 71
0
  3
arial.ttf
  4

  0
STYLE
  2
ARIAL_BOLD
 70
0
 40
0.0
 41
1.0
 42
1.0
 50
0.0
 71
0
  3
arialbd.ttf
  4

  0
STYLE
  2
ARIAL_ITALIC
 70
0
 40
0.0
 41
1.0
 42
1.0
 50
0.0
 71
0
  3
ariali.ttf
  4

  0
STYLE
  2
ARIAL_BOLD_ITALIC
 70
0
 40
0.0
 41
1.0
 42
1.0
 50
0.0
 71
0
  3
arialbi.ttf
  4

  0
STYLE
  2
ARIAL_BLACK
 70
0
 40
0.0
 41
1.0
 42
1.0
 50
0.0
 71
0
  3
ariblk.ttf
  4

  0
STYLE
  2
ISOCPEUR
 70
0
 40
0.0
 41
1.0
 42
1.0
 50
0.0
 71
0
  3
isocpeur.ttf
  4

  0
STYLE
  2
ISOCPEUR_ITALIC
 70
0
 40
0.0
 41
1.0
 42
1.0
 50
0.0
 71
0
  3
isocpeui.ttf
  4

  0
STYLE
  2
TIMES
 70
0
 40
0.0
 41
1.0
 42
1.0
 50
0.0
 71
0
  3
times.ttf
  4

  0
STYLE
  2
TIMES_BOLD
 70
0
 40
0.0
 41
1.0
 42
1.0
 50
0.0
 71
0
  3
timesbd.ttf
  4

  0
STYLE
  2
TIMES_ITALIC
 70
0
 40
0.0
 41
1.0
 42
1.0
 50
0.0
 71
0
  3
timesi.ttf
  4

  0
STYLE
  2
TIMES_BOLD_ITALIC
 70
0
 40
0.0
 41
1.0
 42
1.0
 50
0.0
 71
0
  3
timesbi.ttf
  4

  0
ENDTAB
  0
TABLE
  2
VIEW
 70
0
  0
ENDTAB
  0
TABLE
  2
APPID
 70
1
  0
APPID
  2
DXFWRITE
 70
0
  0
ENDTAB
  0
TABLE
  2
VPORT
 70
0
  0
ENDTAB
  0
TABLE
  2
UCS
 70
0
  0
ENDTAB
  0
ENDSEC
  0
SECTION
  2
BLOCKS
  0
ENDSEC
  0
SECTION
  2
ENTITIES
  0
VIEWPORT
  8
VIEWPORTS
 67
1
 10
0.0
 20
0.0
 30
0.0
 40
1.0
 41
1.0
 68
1
 69
1
1001
ACAD
1000
MVIEW
1002
{
1070
16
1010
0.0
1020
0.0
1030
0.0
1010
0.0
1020
0.0
1030
0.0
1040
0.0
1040
1.0
1040
0.0
1040
0.0
1040
50.0
1040
0.0
1040
0.0
1070
0
1070
100
1070
1
1070
3
1070
0
1070
0
1070
0
1070
0
1040
0.0
1040
0.0
1040
0.0
1040
0.1
1040
0.1
1040
0.1
1040
0.1
1070
0
1002
{
1002
}
1002
}
  0
POLYLINE
 62
7
  8
TOPPPLATFORM_BASELINE_STAKE_2
 66
1
 10
0.0
 20
0.0
 30
0.0
 70
8
  0
VERTEX
  8
TOPPPLATFORM_BASELINE_STAKE_2
 10
0.0
 20
69.81
 30
0.0
  0
VERTEX
  8
TOPPPLATFORM_BASELINE_STAKE_2
 10
0.11504687020425632
 20
70.22
 30
0.0
  0
VERTEX
  8
TOPPPLATFORM_BASELINE_STAKE_2
 10
0.2821871512633169
 20
70.02
 30
0.0
  0
VERTEX
  8
TOPPPLATFORM_BASELINE_STAKE_2
 10
0.9126875735988355
 20
72.81
 30
0.0
  0
VERTEX
  8
TOPPPLATFORM_BASELINE_STAKE_2
 10
1.5833095257723275
 20
69.22
 30
0.0
  0
VERTEX
  8
TOPPPLATFORM_BASELINE_STAKE_2
 10
2.8557544129294037
 20
70.66
 30
0.0
  0
VERTEX
  8
TOPPPLATFORM_BASELINE_STAKE_2
 10
2.8941183437536213
 20
67.33
 30
0.0
  0
VERTEX
  8
TOPPPLATFORM_BASELINE_STAKE_2
 10
3.031059383487937
 20
70.33
 30
0.0
  0
VERTEX
  8
TOPPPLATFORM_BASELINE_STAKE_2
 10
3.063077991205451
 20
70.4
 30
0.0
  0
VERTEX
  8
TOPPPLATFORM_BASELINE_STAKE_2
 10
3.429051474396678
 20
73.15
 30
0.0
  0
VERTEX
  8
TOPPPLATFORM_BASELINE_STAKE_2
 10
4.129125828473887
 20
68.8
 30
0.0
  0
VERTEX
  8
TOPPPLATFORM_BASELINE_STAKE_2
 10
4.150531464331711
 20
76.19
 30
0.0
  0
VERTEX
  8
TOPPPLATFORM_BASELINE_STAKE_2
 10
6.514405477451613
 20
69.14
 30
0.0
  0
VERTEX
  8
TOPPPLATFORM_BASELINE_STAKE_2
 10
7.365711885858802
 20
70.69
 30
0.0
  0
VERTEX
  8
TOPPPLATFORM_BASELINE_STAKE_2
 10
7.415705163679067
 20
71.65
 30
0.0
  0
VERTEX
  8
TOPPPLATFORM_BASELINE_STAKE_2
 10
7.513417512141131
 20
71.34
 30
0.0
  0
VERTEX
  8
TOPPPLATFORM_BASELINE_STAKE_2
 10
7.824989682385524
 20
71.37
 30
0.0
  0
VERTEX
  8
TOPPPLATFORM_BASELINE_STAKE_2
 10
7.935431982426308
 20
74.12
 30
0.0
  0
VERTEX
  8
TOPPPLATFORM_BASELINE_STAKE_2
 10
8.037046983899215
 20
76.48
 30
0.0
  0
VERTEX
  8
TOPPPLATFORM_BASELINE_STAKE_2
 10
10.34224641937612
 20
70.12
 30
0.0
  0
VERTEX
  8
TOPPPLATFORM_BASELINE_STAKE_2
 10
12.004367094267655
 20
72.03
 30
0.0
  0
VERTEX
  8
TOPPPLATFORM_BASELINE_STAKE_2
 10
12.489728096188244
 20
72.97
 30
0.0
  0
VERTEX
  8
TOPPPLATFORM_BASELINE_STAKE_2
 10
12.797122462162843
 20
72.52
 30
0.0
  0
VERTEX
  8
TOPPPLATFORM_BASELINE_STAKE_2
 10
12.809156112985258
 20
72.63
 30
0.0
  0
VERTEX
  8
TOPPPLATFORM_BASELINE_STAKE_2
 10
12.970888832171282
 20
72.94
 30
0.0
  0
VERTEX
  8
TOPPPLATFORM_BASELINE_STAKE_2
 10
13.213628294151837
 20
74.81
 30
0.0
  0
VERTEX
  8
TOPPPLATFORM_BASELINE_STAKE_2
 10
13.39452613245287
 20
72.19
 30
0.0
  0
VERTEX
  8
TOPPPLATFORM_BASELINE_STAKE_2
 10
15.647149238332402
 20
73.73
 30
0.0
  0
VERTEX
  8
TOPPPLATFORM_BASELINE_STAKE_2
 10
16.822808307227426
 20
73.55
 30
0.0
  0
VERTEX
  8
TOPPPLATFORM_BASELINE_STAKE_2
 10
17.80839408827607
 20
73.93
 30
0.0
  0
SEQEND
  0
ENDSEC
  0
EOF
