  0
SECTION
  2
HEADER
  9
$ACADVER
  1
AC1009
  9
$INSBASE
 10
0.0
 20
0.0
 30
0.0
  9
$EXTMIN
 10
0.0
 20
0.0
 30
0.0
  9
$EXTMAX
 10
100.0
 20
100.0
 30
0.0
  9
$UNITMODE
 70
0
  9
$AUNITS
 70
0
  9
$ANGBASE
 50
0.0
  9
$ANGDIR
 70
0
  0
ENDSEC
  0
SECTION
  2
TABLES
  0
TABLE
  2
LTYPE
 70
19
  0
LTYPE
  2
CONTINUOUS
 70
0
  3
Solid
 72
65
 73
0
 40
0.0
  0
LTYPE
  2
CENTER
 70
0
  3
Center ____ _ ____ _ ____ _ ____ _ ____ _ ____
 72
65
 73
4
 40
2.0
 49
1.25
 49
-0.25
 49
0.25
 49
-0.25
  0
LTYPE
  2
CENTERX2
 70
0
  3
Center (2x) ________  __  ________  __  ________
 72
65
 73
4
 40
3.5
 49
2.5
 49
-0.25
 49
0.5
 49
-0.25
  0
LTYPE
  2
CENTER2
 70
0
  3
Center (.5x) ____ _ ____ _ ____ _ ____ _ ____
 72
65
 73
4
 40
1.0
 49
0.625
 49
-0.125
 49
0.125
 49
-0.125
  0
LTYPE
  2
DASHED
 70
0
  3
Dashed __ __ __ __ __ __ __ __ __ __ __ __ __ _
 72
65
 73
2
 40
0.6
 49
0.5
 49
-0.1
  0
LTYPE
  2
DASHEDX2
 70
0
  3
Dashed (2x) ____  ____  ____  ____  ____  ____
 72
65
 73
2
 40
1.2
 49
1.0
 49
-0.2
  0
LTYPE
  2
DASHED2
 70
0
  3
Dashed (.5x) _ _ _ _ _ _ _ _ _ _ _ _ _ _
 72
65
 73
2
 40
0.3
 49
0.25
 49
-0.05
  0
LTYPE
  2
PHANTOM
 70
0
  3
Phantom ______  __  __  ______  __  __  ______
 72
65
 73
6
 40
2.5
 49
1.25
 49
-0.25
 49
0.25
 49
-0.25
 49
0.25
 49
-0.25
  0
LTYPE
  2
PHANTOMX2
 70
0
  3
Phantom (2x)____________    ____    ____    ____________
 72
65
 73
6
 40
4.25
 49
2.5
 49
-0.25
 49
0.5
 49
-0.25
 49
0.5
 49
-0.25
  0
LTYPE
  2
PHANTOM2
 70
0
  3
Phantom (.5x) ___ _ _ ___ _ _ ___ _ _ ___ _ _ ___
 72
65
 73
6
 40
1.25
 49
0.625
 49
-0.125
 49
0.125
 49
-0.125
 49
0.125
 49
-0.125
  0
LTYPE
  2
DASHDOT
 70
0
  3
Dash dot __ . __ . __ . __ . __ . __ . __ . __
 72
65
 73
4
 40
1.4
 49
1.0
 49
-0.2
 49
0.0
 49
-0.2
  0
LTYPE
  2
DASHDOTX2
 70
0
  3
Dash dot (2x) ____  .  ____  .  ____  .  ____
 72
65
 73
4
 40
2.4
 49
2.0
 49
-0.2
 49
0.0
 49
-0.2
  0
LTYPE
  2
DASHDOT2
 70
0
  3
Dash dot (.5x) _ . _ . _ . _ . _ . _ . _ . _
 72
65
 73
4
 40
0.7
 49
0.5
 49
-0.1
 49
0.0
 49
-0.1
  0
LTYPE
  2
DOT
 70
0
  3
Dot .  .  .  .  .  .  .  .  .  .  .  .  .  .  .  .
 72
65
 73
2
 40
0.2
 49
0.0
 49
-0.2
  0
LTYPE
  2
DOTX2
 70
0
  3
Dot (2x) .    .    .    .    .    .    .    . 
 72
65
 73
2
 40
0.4
 49
0.0
 49
-0.4
  0
LTYPE
  2
DOT2
 70
0
  3
Dot (.5) . . . . . . . . . . . . . . . . . . . 
 72
65
 73
2
 40
0.1
 49
0.0
 49
-0.1
  0
LTYPE
  2
DIVIDE
 70
0
  3
Divide __ . . __ . . __ . . __ . . __ . . __
 72
65
 73
6
 40
1.6
 49
1.0
 49
-0.2
 49
0.0
 49
-0.2
 49
0.0
 49
-0.2
  0
LTYPE
  2
DIVIDEX2
 70
0
  3
Divide (2x) ____  . .  ____  . .  ____  . .  ____
 72
65
 73
6
 40
2.6
 49
2.0
 49
-0.2
 49
0.0
 49
-0.2
 49
0.0
 49
-0.2
  0
LTYPE
  2
DIVIDE2
 70
0
  3
Divide(.5x) _ . _ . _ . _ . _ . _ . _ . _
 72
65
 73
6
 40
0.8
 49
0.5
 49
-0.1
 49
0.0
 49
-0.1
 49
0.0
 49
-0.1
  0
ENDTAB
  0
TABLE
  2
LAYER
 70
6
  0
LAYER
  2
DIMENSIONS
 70
0
 62
1
  6
CONTINUOUS
  0
LAYER
  2
TABLEBACKGROUND
 70
0
 62
1
  6
CONTINUOUS
  0
LAYER
  2
TABLECONTENT
 70
0
 62
1
  6
CONTINUOUS
  0
LAYER
  2
TABLEGRID
 70
0
 62
1
  6
CONTINUOUS
  0
LAYER
  2
VIEWPORTS
 70
0
 62
7
  6
CONTINUOUS
  0
LAYER
  2
TOPPPLATFORM_BASELINE_STAKE_2
 70
0
 62
1
  6
CONTINUOUS
  0
ENDTAB
  0
TABLE
  2
STYLE
 70
12
  0
STYLE
  2
STANDARD
 70
0
 40
0.0
 41
1.0
 42
1.0
 50
0.0
 71
0
  3
arial.ttf
  4

  0
STYLE
  2
ARIAL
 70
0
 40
0.0
 41
1.0
 42
1.0
 50
0.0
 71
0
  3
arial.ttf
  4

  0
STYLE
  2
ARIAL_BOLD
 70
0
 40
0.0
 41
1.0
 42
1.0
 50
0.0
 71
0
  3
arialbd.ttf
  4

  0
STYLE
  2
ARIAL_ITALIC
 70
0
 40
0.0
 41
1.0
 42
1.0
 50
0.0
 71
0
  3
ariali.ttf
  4

  0
STYLE
  2
ARIAL_BOLD_ITALIC
 70
0
 40
0.0
 41
1.0
 42
1.0
 50
0.0
 71
0
  3
arialbi.ttf
  4

  0
STYLE
  2
ARIAL_BLACK
 70
0
 40
0.0
 41
1.0
 42
1.0
 50
0.0
 71
0
  3
ariblk.ttf
  4

  0
STYLE
  2
ISOCPEUR
 70
0
 40
0.0
 41
1.0
 42
1.0
 50
0.0
 71
0
  3
isocpeur.ttf
  4

  0
STYLE
  2
ISOCPEUR_ITALIC
 70
0
 40
0.0
 41
1.0
 42
1.0
 50
0.0
 71
0
  3
isocpeui.ttf
  4

  0
STYLE
  2
TIMES
 70
0
 40
0.0
 41
1.0
 42
1.0
 50
0.0
 71
0
  3
times.ttf
  4

  0
STYLE
  2
TIMES_BOLD
 70
0
 40
0.0
 41
1.0
 42
1.0
 50
0.0
 71
0
  3
timesbd.ttf
  4

  0
STYLE
  2
TIMES_ITALIC
 70
0
 40
0.0
 41
1.0
 42
1.0
 50
0.0
 71
0
  3
timesi.ttf
  4

  0
STYLE
  2
TIMES_BOLD_ITALIC
 70
0
 40
0.0
 41
1.0
 42
1.0
 50
0.0
 71
0
  3
timesbi.ttf
  4

  0
ENDTAB
  0
TABLE
  2
VIEW
 70
0
  0
ENDTAB
  0
TABLE
  2
APPID
 70
1
  0
APPID
  2
DXFWRITE
 70
0
  0
ENDTAB
  0
TABLE
  2
VPORT
 70
0
  0
ENDTAB
  0
TABLE
  2
UCS
 70
0
  0
ENDTAB
  0
ENDSEC
  0
SECTION
  2
BLOCKS
  0
ENDSEC
  0
SECTION
  2
ENTITIES
  0
VIEWPORT
  8
VIEWPORTS
 67
1
 10
0.0
 20
0.0
 30
0.0
 40
1.0
 41
1.0
 68
1
 69
1
1001
ACAD
1000
MVIEW
1002
{
1070
16
1010
0.0
1020
0.0
1030
0.0
1010
0.0
1020
0.0
1030
0.0
1040
0.0
1040
1.0
1040
0.0
1040
0.0
1040
50.0
1040
0.0
1040
0.0
1070
0
1070
100
1070
1
1070
3
1070
0
1070
0
1070
0
1070
0
1040
0.0
1040
0.0
1040
0.0
1040
0.1
1040
0.1
1040
0.1
1040
0.1
1070
0
1002
{
1002
}
1002
}
  0
POLYLINE
 62
7
  8
TOPPPLATFORM_BASELINE_STAKE_2
 66
1
 10
0.0
 20
0.0
 30
0.0
 70
8
  0
VERTEX
  8
TOPPPLATFORM_BASELINE_STAKE_2
 10
1412657.5599999987
 20
4931536.07
 30
73.97
  0
VERTEX
  8
TOPPPLATFORM_BASELINE_STAKE_2
 10
1412656.887788221
 20
4931536.471158642
 30
73.52
  0
VERTEX
  8
TOPPPLATFORM_BASELINE_STAKE_2
 10
1412656.2024937647
 20
4931536.880124689
 30
72.01
  0
VERTEX
  8
TOPPPLATFORM_BASELINE_STAKE_2
 10
1412653.945969693
 20
4931538.226760022
 30
78.91
  0
VERTEX
  8
TOPPPLATFORM_BASELINE_STAKE_2
 10
1412653.2448570882
 20
4931538.645165931
 30
74.02
  0
VERTEX
  8
TOPPPLATFORM_BASELINE_STAKE_2
 10
1412653.2359370806
 20
4931538.650489162
 30
74.01
  0
VERTEX
  8
TOPPPLATFORM_BASELINE_STAKE_2
 10
1412653.2180970646
 20
4931538.661135623
 30
73.8
  0
VERTEX
  8
TOPPPLATFORM_BASELINE_STAKE_2
 10
1412653.110938039
 20
4931538.725085365
 30
73.55
  0
VERTEX
  8
TOPPPLATFORM_BASELINE_STAKE_2
 10
1412652.6000000003
 20
4931539.03
 30
74.04
  0
VERTEX
  8
TOPPPLATFORM_BASELINE_STAKE_2
 10
1412652.5256260938
 20
4931539.0752632115
 30
78.32
  0
VERTEX
  8
TOPPPLATFORM_BASELINE_STAKE_2
 10
1412651.6806427187
 20
4931539.589511595
 30
79.34
  0
VERTEX
  8
TOPPPLATFORM_BASELINE_STAKE_2
 10
1412651.5981319314
 20
4931539.63972683
 30
74.39
  0
VERTEX
  8
TOPPPLATFORM_BASELINE_STAKE_2
 10
1412651.32373457
 20
4931539.806722304
 30
74.18
  0
VERTEX
  8
TOPPPLATFORM_BASELINE_STAKE_2
 10
1412648.0204043586
 20
4931541.817095844
 30
73.93
  0
VERTEX
  8
TOPPPLATFORM_BASELINE_STAKE_2
 10
1412648.0035250727
 20
4931541.8273684075
 30
74.04
  0
VERTEX
  8
TOPPPLATFORM_BASELINE_STAKE_2
 10
1412647.4293386892
 20
4931543.63416914
 30
73.73
  0
VERTEX
  8
TOPPPLATFORM_BASELINE_STAKE_2
 10
1412646.7914271548
 20
4931545.641494743
 30
72.19
  0
VERTEX
  8
TOPPPLATFORM_BASELINE_STAKE_2
 10
1412646.5558772832
 20
4931546.382702986
 30
74.81
  0
VERTEX
  8
TOPPPLATFORM_BASELINE_STAKE_2
 10
1412646.5047400328
 20
4931546.543617323
 30
72.94
  0
VERTEX
  8
TOPPPLATFORM_BASELINE_STAKE_2
 10
1412646.4938036927
 20
4931546.578030865
 30
72.63
  0
VERTEX
  8
TOPPPLATFORM_BASELINE_STAKE_2
 10
1412646.4900000002
 20
4931546.59
 30
72.52
  0
VERTEX
  8
TOPPPLATFORM_BASELINE_STAKE_2
 10
1412646.4237117327
 20
4931546.825200593
 30
72.97
  0
VERTEX
  8
TOPPPLATFORM_BASELINE_STAKE_2
 10
1412646.4108312812
 20
4931546.870902344
 30
77.38
  0
VERTEX
  8
TOPPPLATFORM_BASELINE_STAKE_2
 10
1412646.3210169745
 20
4931547.189576809
 30
72.03
  0
VERTEX
  8
TOPPPLATFORM_BASELINE_STAKE_2
 10
1412645.9041274944
 20
4931548.668762447
 30
70.12
  0
VERTEX
  8
TOPPPLATFORM_BASELINE_STAKE_2
 10
1412645.1400000006
 20
4931551.38
 30
71.37
  0
VERTEX
  8
TOPPPLATFORM_BASELINE_STAKE_2
 10
1412645.0718057125
 20
4931551.641505369
 30
71.34
  0
VERTEX
  8
TOPPPLATFORM_BASELINE_STAKE_2
 10
1412645.0454362722
 20
4931551.742624546
 30
70.69
  0
VERTEX
  8
TOPPPLATFORM_BASELINE_STAKE_2
 10
1412645.0265551007
 20
4931551.815028377
 30
71.65
  0
VERTEX
  8
TOPPPLATFORM_BASELINE_STAKE_2
 10
1412644.8394536334
 20
4931552.532508385
 30
69.14
  0
VERTEX
  8
TOPPPLATFORM_BASELINE_STAKE_2
 10
1412644.2546635391
 20
4931554.775009246
 30
68.8
  0
VERTEX
  8
TOPPPLATFORM_BASELINE_STAKE_2
 10
1412644.1721978653
 20
4931555.091241252
 30
76.19
  0
VERTEX
  8
TOPPPLATFORM_BASELINE_STAKE_2
 10
1412644.1630730182
 20
4931555.126232401
 30
76.25
  0
VERTEX
  8
TOPPPLATFORM_BASELINE_STAKE_2
 10
1412644.0171017738
 20
4931555.6859899005
 30
73.15
  0
VERTEX
  8
TOPPPLATFORM_BASELINE_STAKE_2
 10
1412643.9378566323
 20
4931555.989872096
 30
70.4
  0
VERTEX
  8
TOPPPLATFORM_BASELINE_STAKE_2
 10
1412643.9300000025
 20
4931556.02
 30
70.33
  0
VERTEX
  8
TOPPPLATFORM_BASELINE_STAKE_2
 10
1412643.9204860183
 20
4931557.49942435
 30
72.81
  0
VERTEX
  8
TOPPPLATFORM_BASELINE_STAKE_2
 10
1412643.9143984497
 20
4931558.446041139
 30
67.33
  0
VERTEX
  8
TOPPPLATFORM_BASELINE_STAKE_2
 10
1412643.913241148
 20
4931558.626001552
 30
70.02
  0
VERTEX
  8
TOPPPLATFORM_BASELINE_STAKE_2
 10
1412643.9124113726
 20
4931558.75503158
 30
69.22
  0
VERTEX
  8
TOPPPLATFORM_BASELINE_STAKE_2
 10
1412643.91
 20
4931559.13
 30
69.81
  0
VERTEX
  8
TOPPPLATFORM_BASELINE_STAKE_2
 10
1412643.8318109675
 20
4931559.247022918
 30
69.49
  0
VERTEX
  8
TOPPPLATFORM_BASELINE_STAKE_2
 10
1412643.5080877983
 20
4931559.731528595
 30
70.22
  0
VERTEX
  8
TOPPPLATFORM_BASELINE_STAKE_2
 10
1412643.33579415
 20
4931559.989394755
 30
67.54
  0
VERTEX
  8
TOPPPLATFORM_BASELINE_STAKE_2
 10
1412641.0656784782
 20
4931563.387001211
 30
69.58
  0
VERTEX
  8
TOPPPLATFORM_BASELINE_STAKE_2
 10
1412641.0175304958
 20
4931563.459062692
 30
69.92
  0
VERTEX
  8
TOPPPLATFORM_BASELINE_STAKE_2
 10
1412641.0005861092
 20
4931563.48442279
 30
69.98
  0
VERTEX
  8
TOPPPLATFORM_BASELINE_STAKE_2
 10
1412640.9559257687
 20
4931563.551264433
 30
70.0
  0
VERTEX
  8
TOPPPLATFORM_BASELINE_STAKE_2
 10
1412640.9312756474
 20
4931563.588157448
 30
69.9
  0
VERTEX
  8
TOPPPLATFORM_BASELINE_STAKE_2
 10
1412640.9100000001
 20
4931563.62
 30
69.87
  0
VERTEX
  8
TOPPPLATFORM_BASELINE_STAKE_2
 10
1412640.6813369128
 20
4931564.08059279
 30
67.31
  0
VERTEX
  8
TOPPPLATFORM_BASELINE_STAKE_2
 10
1412639.127529556
 20
4931567.210404746
 30
72.71
  0
VERTEX
  8
TOPPPLATFORM_BASELINE_STAKE_2
 10
1412639.0882938497
 20
4931567.289436669
 30
75.49
  0
VERTEX
  8
TOPPPLATFORM_BASELINE_STAKE_2
 10
1412638.864432829
 20
4931567.740356725
 30
69.64
  0
VERTEX
  8
TOPPPLATFORM_BASELINE_STAKE_2
 10
1412638.8206775344
 20
4931567.828492389
 30
67.34
  0
VERTEX
  8
TOPPPLATFORM_BASELINE_STAKE_2
 10
1412638.8099999977
 20
4931567.849999999
 30
69.68
  0
VERTEX
  8
TOPPPLATFORM_BASELINE_STAKE_2
 10
1412638.6677795476
 20
4931568.090984651
 30
73.29
  0
VERTEX
  8
TOPPPLATFORM_BASELINE_STAKE_2
 10
1412638.6282419756
 20
4931568.15797887
 30
69.62
  0
VERTEX
  8
TOPPPLATFORM_BASELINE_STAKE_2
 10
1412634.8911162044
 20
4931574.490330873
 30
74.0
  0
VERTEX
  8
TOPPPLATFORM_BASELINE_STAKE_2
 10
1412634.129999999
 20
4931575.779999999
 30
69.04
  0
VERTEX
  8
TOPPPLATFORM_BASELINE_STAKE_2
 10
1412634.1299999985
 20
4931575.78
 30
69.04
  0
SEQEND
  0
ENDSEC
  0
EOF
