  0
SECTION
  2
HEADER
  9
$ACADVER
  1
AC1009
  9
$INSBASE
 10
0.0
 20
0.0
 30
0.0
  9
$EXTMIN
 10
0.0
 20
0.0
 30
0.0
  9
$EXTMAX
 10
100.0
 20
100.0
 30
0.0
  9
$UNITMODE
 70
0
  9
$AUNITS
 70
0
  9
$ANGBASE
 50
0.0
  9
$ANGDIR
 70
0
  0
ENDSEC
  0
SECTION
  2
TABLES
  0
TABLE
  2
LTYPE
 70
19
  0
LTYPE
  2
CONTINUOUS
 70
0
  3
Solid
 72
65
 73
0
 40
0.0
  0
LTYPE
  2
CENTER
 70
0
  3
Center ____ _ ____ _ ____ _ ____ _ ____ _ ____
 72
65
 73
4
 40
2.0
 49
1.25
 49
-0.25
 49
0.25
 49
-0.25
  0
LTYPE
  2
CENTERX2
 70
0
  3
Center (2x) ________  __  ________  __  ________
 72
65
 73
4
 40
3.5
 49
2.5
 49
-0.25
 49
0.5
 49
-0.25
  0
LTYPE
  2
CENTER2
 70
0
  3
Center (.5x) ____ _ ____ _ ____ _ ____ _ ____
 72
65
 73
4
 40
1.0
 49
0.625
 49
-0.125
 49
0.125
 49
-0.125
  0
LTYPE
  2
DASHED
 70
0
  3
Dashed __ __ __ __ __ __ __ __ __ __ __ __ __ _
 72
65
 73
2
 40
0.6
 49
0.5
 49
-0.1
  0
LTYPE
  2
DASHEDX2
 70
0
  3
Dashed (2x) ____  ____  ____  ____  ____  ____
 72
65
 73
2
 40
1.2
 49
1.0
 49
-0.2
  0
LTYPE
  2
DASHED2
 70
0
  3
Dashed (.5x) _ _ _ _ _ _ _ _ _ _ _ _ _ _
 72
65
 73
2
 40
0.3
 49
0.25
 49
-0.05
  0
LTYPE
  2
PHANTOM
 70
0
  3
Phantom ______  __  __  ______  __  __  ______
 72
65
 73
6
 40
2.5
 49
1.25
 49
-0.25
 49
0.25
 49
-0.25
 49
0.25
 49
-0.25
  0
LTYPE
  2
PHANTOMX2
 70
0
  3
Phantom (2x)____________    ____    ____    ____________
 72
65
 73
6
 40
4.25
 49
2.5
 49
-0.25
 49
0.5
 49
-0.25
 49
0.5
 49
-0.25
  0
LTYPE
  2
PHANTOM2
 70
0
  3
Phantom (.5x) ___ _ _ ___ _ _ ___ _ _ ___ _ _ ___
 72
65
 73
6
 40
1.25
 49
0.625
 49
-0.125
 49
0.125
 49
-0.125
 49
0.125
 49
-0.125
  0
LTYPE
  2
DASHDOT
 70
0
  3
Dash dot __ . __ . __ . __ . __ . __ . __ . __
 72
65
 73
4
 40
1.4
 49
1.0
 49
-0.2
 49
0.0
 49
-0.2
  0
LTYPE
  2
DASHDOTX2
 70
0
  3
Dash dot (2x) ____  .  ____  .  ____  .  ____
 72
65
 73
4
 40
2.4
 49
2.0
 49
-0.2
 49
0.0
 49
-0.2
  0
LTYPE
  2
DASHDOT2
 70
0
  3
Dash dot (.5x) _ . _ . _ . _ . _ . _ . _ . _
 72
65
 73
4
 40
0.7
 49
0.5
 49
-0.1
 49
0.0
 49
-0.1
  0
LTYPE
  2
DOT
 70
0
  3
Dot .  .  .  .  .  .  .  .  .  .  .  .  .  .  .  .
 72
65
 73
2
 40
0.2
 49
0.0
 49
-0.2
  0
LTYPE
  2
DOTX2
 70
0
  3
Dot (2x) .    .    .    .    .    .    .    . 
 72
65
 73
2
 40
0.4
 49
0.0
 49
-0.4
  0
LTYPE
  2
DOT2
 70
0
  3
Dot (.5) . . . . . . . . . . . . . . . . . . . 
 72
65
 73
2
 40
0.1
 49
0.0
 49
-0.1
  0
LTYPE
  2
DIVIDE
 70
0
  3
Divide __ . . __ . . __ . . __ . . __ . . __
 72
65
 73
6
 40
1.6
 49
1.0
 49
-0.2
 49
0.0
 49
-0.2
 49
0.0
 49
-0.2
  0
LTYPE
  2
DIVIDEX2
 70
0
  3
Divide (2x) ____  . .  ____  . .  ____  . .  ____
 72
65
 73
6
 40
2.6
 49
2.0
 49
-0.2
 49
0.0
 49
-0.2
 49
0.0
 49
-0.2
  0
LTYPE
  2
DIVIDE2
 70
0
  3
Divide(.5x) _ . _ . _ . _ . _ . _ . _ . _
 72
65
 73
6
 40
0.8
 49
0.5
 49
-0.1
 49
0.0
 49
-0.1
 49
0.0
 49
-0.1
  0
ENDTAB
  0
TABLE
  2
LAYER
 70
6
  0
LAYER
  2
DIMENSIONS
 70
0
 62
1
  6
CONTINUOUS
  0
LAYER
  2
TABLEBACKGROUND
 70
0
 62
1
  6
CONTINUOUS
  0
LAYER
  2
TABLECONTENT
 70
0
 62
1
  6
CONTINUOUS
  0
LAYER
  2
TABLEGRID
 70
0
 62
1
  6
CONTINUOUS
  0
LAYER
  2
VIEWPORTS
 70
0
 62
7
  6
CONTINUOUS
  0
LAYER
  2
TOPPPLATFORM_BASELINE_STAKE_2
 70
0
 62
1
  6
CONTINUOUS
  0
ENDTAB
  0
TABLE
  2
STYLE
 70
12
  0
STYLE
  2
STANDARD
 70
0
 40
0.0
 41
1.0
 42
1.0
 50
0.0
 71
0
  3
arial.ttf
  4

  0
STYLE
  2
ARIAL
 70
0
 40
0.0
 41
1.0
 42
1.0
 50
0.0
 71
0
  3
arial.ttf
  4

  0
STYLE
  2
ARIAL_BOLD
 70
0
 40
0.0
 41
1.0
 42
1.0
 50
0.0
 71
0
  3
arialbd.ttf
  4

  0
STYLE
  2
ARIAL_ITALIC
 70
0
 40
0.0
 41
1.0
 42
1.0
 50
0.0
 71
0
  3
ariali.ttf
  4

  0
STYLE
  2
ARIAL_BOLD_ITALIC
 70
0
 40
0.0
 41
1.0
 42
1.0
 50
0.0
 71
0
  3
arialbi.ttf
  4

  0
STYLE
  2
ARIAL_BLACK
 70
0
 40
0.0
 41
1.0
 42
1.0
 50
0.0
 71
0
  3
ariblk.ttf
  4

  0
STYLE
  2
ISOCPEUR
 70
0
 40
0.0
 41
1.0
 42
1.0
 50
0.0
 71
0
  3
isocpeur.ttf
  4

  0
STYLE
  2
ISOCPEUR_ITALIC
 70
0
 40
0.0
 41
1.0
 42
1.0
 50
0.0
 71
0
  3
isocpeui.ttf
  4

  0
STYLE
  2
TIMES
 70
0
 40
0.0
 41
1.0
 42
1.0
 50
0.0
 71
0
  3
times.ttf
  4

  0
STYLE
  2
TIMES_BOLD
 70
0
 40
0.0
 41
1.0
 42
1.0
 50
0.0
 71
0
  3
timesbd.ttf
  4

  0
STYLE
  2
TIMES_ITALIC
 70
0
 40
0.0
 41
1.0
 42
1.0
 50
0.0
 71
0
  3
timesi.ttf
  4

  0
STYLE
  2
TIMES_BOLD_ITALIC
 70
0
 40
0.0
 41
1.0
 42
1.0
 50
0.0
 71
0
  3
timesbi.ttf
  4

  0
ENDTAB
  0
TABLE
  2
VIEW
 70
0
  0
ENDTAB
  0
TABLE
  2
APPID
 70
1
  0
APPID
  2
DXFWRITE
 70
0
  0
ENDTAB
  0
TABLE
  2
VPORT
 70
0
  0
ENDTAB
  0
TABLE
  2
UCS
 70
0
  0
ENDTAB
  0
ENDSEC
  0
SECTION
  2
BLOCKS
  0
ENDSEC
  0
SECTION
  2
ENTITIES
  0
VIEWPORT
  8
VIEWPORTS
 67
1
 10
0.0
 20
0.0
 30
0.0
 40
1.0
 41
1.0
 68
1
 69
1
1001
ACAD
1000
MVIEW
1002
{
1070
16
1010
0.0
1020
0.0
1030
0.0
1010
0.0
1020
0.0
1030
0.0
1040
0.0
1040
1.0
1040
0.0
1040
0.0
1040
50.0
1040
0.0
1040
0.0
1070
0
1070
100
1070
1
1070
3
1070
0
1070
0
1070
0
1070
0
1040
0.0
1040
0.0
1040
0.0
1040
0.1
1040
0.1
1040
0.1
1040
0.1
1070
0
1002
{
1002
}
1002
}
  0
POLYLINE
 62
7
  8
TOPPPLATFORM_BASELINE_STAKE_2
 66
1
 10
0.0
 20
0.0
 30
0.0
 70
8
  0
VERTEX
  8
TOPPPLATFORM_BASELINE_STAKE_2
 10
0.0
 20
73.97
 30
0.0
  0
VERTEX
  8
TOPPPLATFORM_BASELINE_STAKE_2
 10
0.7828134704986642
 20
73.52
 30
0.0
  0
VERTEX
  8
TOPPPLATFORM_BASELINE_STAKE_2
 10
1.5808621654813553
 20
72.01
 30
0.0
  0
VERTEX
  8
TOPPPLATFORM_BASELINE_STAKE_2
 10
4.208661170112508
 20
78.91
 30
0.0
  0
VERTEX
  8
TOPPPLATFORM_BASELINE_STAKE_2
 10
5.025130636419902
 20
74.02
 30
0.0
  0
VERTEX
  8
TOPPPLATFORM_BASELINE_STAKE_2
 10
5.03551828852188
 20
74.01
 30
0.0
  0
VERTEX
  8
TOPPPLATFORM_BASELINE_STAKE_2
 10
5.056293593689228
 20
73.8
 30
0.0
  0
VERTEX
  8
TOPPPLATFORM_BASELINE_STAKE_2
 10
5.181083922675338
 20
73.55
 30
0.0
  0
VERTEX
  8
TOPPPLATFORM_BASELINE_STAKE_2
 10
5.776088640725291
 20
74.04
 30
0.0
  0
VERTEX
  8
TOPPPLATFORM_BASELINE_STAKE_2
 10
5.86315319298439
 20
78.32
 30
0.0
  0
VERTEX
  8
TOPPPLATFORM_BASELINE_STAKE_2
 10
6.852318651199873
 20
79.34
 30
0.0
  0
VERTEX
  8
TOPPPLATFORM_BASELINE_STAKE_2
 10
6.948908504995101
 20
74.39
 30
0.0
  0
VERTEX
  8
TOPPPLATFORM_BASELINE_STAKE_2
 10
7.2701271226041175
 20
74.18
 30
0.0
  0
VERTEX
  8
TOPPPLATFORM_BASELINE_STAKE_2
 10
11.137114613404847
 20
73.93
 30
0.0
  0
VERTEX
  8
TOPPPLATFORM_BASELINE_STAKE_2
 10
11.156874063314712
 20
74.04
 30
0.0
  0
VERTEX
  8
TOPPPLATFORM_BASELINE_STAKE_2
 10
13.052716591320639
 20
73.73
 30
0.0
  0
VERTEX
  8
TOPPPLATFORM_BASELINE_STAKE_2
 10
15.15896614864507
 20
72.19
 30
0.0
  0
VERTEX
  8
TOPPPLATFORM_BASELINE_STAKE_2
 10
15.936702223452983
 20
74.81
 30
0.0
  0
VERTEX
  8
TOPPPLATFORM_BASELINE_STAKE_2
 10
16.105546655957745
 20
72.94
 30
0.0
  0
VERTEX
  8
TOPPPLATFORM_BASELINE_STAKE_2
 10
16.14165614753734
 20
72.63
 30
0.0
  0
VERTEX
  8
TOPPPLATFORM_BASELINE_STAKE_2
 10
16.15421513933789
 20
72.52
 30
0.0
  0
VERTEX
  8
TOPPPLATFORM_BASELINE_STAKE_2
 10
16.398578503020264
 20
72.97
 30
0.0
  0
VERTEX
  8
TOPPPLATFORM_BASELINE_STAKE_2
 10
16.446060668396196
 20
77.38
 30
0.0
  0
VERTEX
  8
TOPPPLATFORM_BASELINE_STAKE_2
 10
16.777149817897836
 20
72.03
 30
0.0
  0
VERTEX
  8
TOPPPLATFORM_BASELINE_STAKE_2
 10
18.313960472626153
 20
70.12
 30
0.0
  0
VERTEX
  8
TOPPPLATFORM_BASELINE_STAKE_2
 10
21.130820408031493
 20
71.37
 30
0.0
  0
VERTEX
  8
TOPPPLATFORM_BASELINE_STAKE_2
 10
21.401071252726176
 20
71.34
 30
0.0
  0
VERTEX
  8
TOPPPLATFORM_BASELINE_STAKE_2
 10
21.505572139479085
 20
70.69
 30
0.0
  0
VERTEX
  8
TOPPPLATFORM_BASELINE_STAKE_2
 10
21.580397358097034
 20
71.65
 30
0.0
  0
VERTEX
  8
TOPPPLATFORM_BASELINE_STAKE_2
 10
22.32187191682634
 20
69.14
 30
0.0
  0
VERTEX
  8
TOPPPLATFORM_BASELINE_STAKE_2
 10
24.639368316424896
 20
68.8
 30
0.0
  0
VERTEX
  8
TOPPPLATFORM_BASELINE_STAKE_2
 10
24.966176010607782
 20
76.19
 30
0.0
  0
VERTEX
  8
TOPPPLATFORM_BASELINE_STAKE_2
 10
25.002337362322123
 20
76.25
 30
0.0
  0
VERTEX
  8
TOPPPLATFORM_BASELINE_STAKE_2
 10
25.580814728740414
 20
73.15
 30
0.0
  0
VERTEX
  8
TOPPPLATFORM_BASELINE_STAKE_2
 10
25.894859599963944
 20
70.4
 30
0.0
  0
VERTEX
  8
TOPPPLATFORM_BASELINE_STAKE_2
 10
25.92599506499223
 20
70.33
 30
0.0
  0
VERTEX
  8
TOPPPLATFORM_BASELINE_STAKE_2
 10
27.40545000703515
 20
72.81
 30
0.0
  0
VERTEX
  8
TOPPPLATFORM_BASELINE_STAKE_2
 10
28.352086369794655
 20
67.33
 30
0.0
  0
VERTEX
  8
TOPPPLATFORM_BASELINE_STAKE_2
 10
28.53205050354063
 20
70.02
 30
0.0
  0
VERTEX
  8
TOPPPLATFORM_BASELINE_STAKE_2
 10
28.661083199845372
 20
69.22
 30
0.0
  0
VERTEX
  8
TOPPPLATFORM_BASELINE_STAKE_2
 10
29.036059373344415
 20
69.81
 30
0.0
  0
VERTEX
  8
TOPPPLATFORM_BASELINE_STAKE_2
 10
29.1767998729654
 20
69.49
 30
0.0
  0
VERTEX
  8
TOPPPLATFORM_BASELINE_STAKE_2
 10
29.759502576951856
 20
70.22
 30
0.0
  0
VERTEX
  8
TOPPPLATFORM_BASELINE_STAKE_2
 10
30.06963167554834
 20
67.54
 30
0.0
  0
VERTEX
  8
TOPPPLATFORM_BASELINE_STAKE_2
 10
34.155846891471555
 20
69.58
 30
0.0
  0
VERTEX
  8
TOPPPLATFORM_BASELINE_STAKE_2
 10
34.2425134086378
 20
69.92
 30
0.0
  0
VERTEX
  8
TOPPPLATFORM_BASELINE_STAKE_2
 10
34.27301335656276
 20
69.98
 30
0.0
  0
VERTEX
  8
TOPPPLATFORM_BASELINE_STAKE_2
 10
34.3534021074947
 20
70.0
 30
0.0
  0
VERTEX
  8
TOPPPLATFORM_BASELINE_STAKE_2
 10
34.39777240182603
 20
69.9
 30
0.0
  0
VERTEX
  8
TOPPPLATFORM_BASELINE_STAKE_2
 10
34.43606863275577
 20
69.87
 30
0.0
  0
VERTEX
  8
TOPPPLATFORM_BASELINE_STAKE_2
 10
34.950298664032786
 20
67.31
 30
0.0
  0
VERTEX
  8
TOPPPLATFORM_BASELINE_STAKE_2
 10
38.44458545668857
 20
72.71
 30
0.0
  0
VERTEX
  8
TOPPPLATFORM_BASELINE_STAKE_2
 10
38.53282085436411
 20
75.49
 30
0.0
  0
VERTEX
  8
TOPPPLATFORM_BASELINE_STAKE_2
 10
39.036251736307335
 20
69.64
 30
0.0
  0
VERTEX
  8
TOPPPLATFORM_BASELINE_STAKE_2
 10
39.13465103119529
 20
67.34
 30
0.0
  0
VERTEX
  8
TOPPPLATFORM_BASELINE_STAKE_2
 10
39.158663258098514
 20
69.68
 30
0.0
  0
VERTEX
  8
TOPPPLATFORM_BASELINE_STAKE_2
 10
39.438485092378116
 20
73.29
 30
0.0
  0
VERTEX
  8
TOPPPLATFORM_BASELINE_STAKE_2
 10
39.51627612691827
 20
69.62
 30
0.0
  0
VERTEX
  8
TOPPPLATFORM_BASELINE_STAKE_2
 10
46.8691524972325
 20
74.0
 30
0.0
  0
VERTEX
  8
TOPPPLATFORM_BASELINE_STAKE_2
 10
48.36666521337316
 20
69.04
 30
0.0
  0
VERTEX
  8
TOPPPLATFORM_BASELINE_STAKE_2
 10
48.366665214083184
 20
69.04
 30
0.0
  0
SEQEND
  0
ENDSEC
  0
EOF
