  0
SECTION
  2
HEADER
  9
$ACADVER
  1
AC1009
  9
$INSBASE
 10
0.0
 20
0.0
 30
0.0
  9
$EXTMIN
 10
0.0
 20
0.0
 30
0.0
  9
$EXTMAX
 10
100.0
 20
100.0
 30
0.0
  9
$UNITMODE
 70
0
  9
$AUNITS
 70
0
  9
$ANGBASE
 50
0.0
  9
$ANGDIR
 70
0
  0
ENDSEC
  0
SECTION
  2
TABLES
  0
TABLE
  2
LTYPE
 70
19
  0
LTYPE
  2
CONTINUOUS
 70
0
  3
Solid
 72
65
 73
0
 40
0.0
  0
LTYPE
  2
CENTER
 70
0
  3
Center ____ _ ____ _ ____ _ ____ _ ____ _ ____
 72
65
 73
4
 40
2.0
 49
1.25
 49
-0.25
 49
0.25
 49
-0.25
  0
LTYPE
  2
CENTERX2
 70
0
  3
Center (2x) ________  __  ________  __  ________
 72
65
 73
4
 40
3.5
 49
2.5
 49
-0.25
 49
0.5
 49
-0.25
  0
LTYPE
  2
CENTER2
 70
0
  3
Center (.5x) ____ _ ____ _ ____ _ ____ _ ____
 72
65
 73
4
 40
1.0
 49
0.625
 49
-0.125
 49
0.125
 49
-0.125
  0
LTYPE
  2
DASHED
 70
0
  3
Dashed __ __ __ __ __ __ __ __ __ __ __ __ __ _
 72
65
 73
2
 40
0.6
 49
0.5
 49
-0.1
  0
LTYPE
  2
DASHEDX2
 70
0
  3
Dashed (2x) ____  ____  ____  ____  ____  ____
 72
65
 73
2
 40
1.2
 49
1.0
 49
-0.2
  0
LTYPE
  2
DASHED2
 70
0
  3
Dashed (.5x) _ _ _ _ _ _ _ _ _ _ _ _ _ _
 72
65
 73
2
 40
0.3
 49
0.25
 49
-0.05
  0
LTYPE
  2
PHANTOM
 70
0
  3
Phantom ______  __  __  ______  __  __  ______
 72
65
 73
6
 40
2.5
 49
1.25
 49
-0.25
 49
0.25
 49
-0.25
 49
0.25
 49
-0.25
  0
LTYPE
  2
PHANTOMX2
 70
0
  3
Phantom (2x)____________    ____    ____    ____________
 72
65
 73
6
 40
4.25
 49
2.5
 49
-0.25
 49
0.5
 49
-0.25
 49
0.5
 49
-0.25
  0
LTYPE
  2
PHANTOM2
 70
0
  3
Phantom (.5x) ___ _ _ ___ _ _ ___ _ _ ___ _ _ ___
 72
65
 73
6
 40
1.25
 49
0.625
 49
-0.125
 49
0.125
 49
-0.125
 49
0.125
 49
-0.125
  0
LTYPE
  2
DASHDOT
 70
0
  3
Dash dot __ . __ . __ . __ . __ . __ . __ . __
 72
65
 73
4
 40
1.4
 49
1.0
 49
-0.2
 49
0.0
 49
-0.2
  0
LTYPE
  2
DASHDOTX2
 70
0
  3
Dash dot (2x) ____  .  ____  .  ____  .  ____
 72
65
 73
4
 40
2.4
 49
2.0
 49
-0.2
 49
0.0
 49
-0.2
  0
LTYPE
  2
DASHDOT2
 70
0
  3
Dash dot (.5x) _ . _ . _ . _ . _ . _ . _ . _
 72
65
 73
4
 40
0.7
 49
0.5
 49
-0.1
 49
0.0
 49
-0.1
  0
LTYPE
  2
DOT
 70
0
  3
Dot .  .  .  .  .  .  .  .  .  .  .  .  .  .  .  .
 72
65
 73
2
 40
0.2
 49
0.0
 49
-0.2
  0
LTYPE
  2
DOTX2
 70
0
  3
Dot (2x) .    .    .    .    .    .    .    . 
 72
65
 73
2
 40
0.4
 49
0.0
 49
-0.4
  0
LTYPE
  2
DOT2
 70
0
  3
Dot (.5) . . . . . . . . . . . . . . . . . . . 
 72
65
 73
2
 40
0.1
 49
0.0
 49
-0.1
  0
LTYPE
  2
DIVIDE
 70
0
  3
Divide __ . . __ . . __ . . __ . . __ . . __
 72
65
 73
6
 40
1.6
 49
1.0
 49
-0.2
 49
0.0
 49
-0.2
 49
0.0
 49
-0.2
  0
LTYPE
  2
DIVIDEX2
 70
0
  3
Divide (2x) ____  . .  ____  . .  ____  . .  ____
 72
65
 73
6
 40
2.6
 49
2.0
 49
-0.2
 49
0.0
 49
-0.2
 49
0.0
 49
-0.2
  0
LTYPE
  2
DIVIDE2
 70
0
  3
Divide(.5x) _ . _ . _ . _ . _ . _ . _ . _
 72
65
 73
6
 40
0.8
 49
0.5
 49
-0.1
 49
0.0
 49
-0.1
 49
0.0
 49
-0.1
  0
ENDTAB
  0
TABLE
  2
LAYER
 70
6
  0
LAYER
  2
DIMENSIONS
 70
0
 62
1
  6
CONTINUOUS
  0
LAYER
  2
TABLEBACKGROUND
 70
0
 62
1
  6
CONTINUOUS
  0
LAYER
  2
TABLECONTENT
 70
0
 62
1
  6
CONTINUOUS
  0
LAYER
  2
TABLEGRID
 70
0
 62
1
  6
CONTINUOUS
  0
LAYER
  2
VIEWPORTS
 70
0
 62
7
  6
CONTINUOUS
  0
LAYER
  2
TOPPPLATFORM_BASELINE_STAKE_2
 70
0
 62
1
  6
CONTINUOUS
  0
ENDTAB
  0
TABLE
  2
STYLE
 70
12
  0
STYLE
  2
STANDARD
 70
0
 40
0.0
 41
1.0
 42
1.0
 50
0.0
 71
0
  3
arial.ttf
  4

  0
STYLE
  2
ARIAL
 70
0
 40
0.0
 41
1.0
 42
1.0
 50
0.0
 71
0
  3
arial.ttf
  4

  0
STYLE
  2
ARIAL_BOLD
 70
0
 40
0.0
 41
1.0
 42
1.0
 50
0.0
 71
0
  3
arialbd.ttf
  4

  0
STYLE
  2
ARIAL_ITALIC
 70
0
 40
0.0
 41
1.0
 42
1.0
 50
0.0
 71
0
  3
ariali.ttf
  4

  0
STYLE
  2
ARIAL_BOLD_ITALIC
 70
0
 40
0.0
 41
1.0
 42
1.0
 50
0.0
 71
0
  3
arialbi.ttf
  4

  0
STYLE
  2
ARIAL_BLACK
 70
0
 40
0.0
 41
1.0
 42
1.0
 50
0.0
 71
0
  3
ariblk.ttf
  4

  0
STYLE
  2
ISOCPEUR
 70
0
 40
0.0
 41
1.0
 42
1.0
 50
0.0
 71
0
  3
isocpeur.ttf
  4

  0
STYLE
  2
ISOCPEUR_ITALIC
 70
0
 40
0.0
 41
1.0
 42
1.0
 50
0.0
 71
0
  3
isocpeui.ttf
  4

  0
STYLE
  2
TIMES
 70
0
 40
0.0
 41
1.0
 42
1.0
 50
0.0
 71
0
  3
times.ttf
  4

  0
STYLE
  2
TIMES_BOLD
 70
0
 40
0.0
 41
1.0
 42
1.0
 50
0.0
 71
0
  3
timesbd.ttf
  4

  0
STYLE
  2
TIMES_ITALIC
 70
0
 40
0.0
 41
1.0
 42
1.0
 50
0.0
 71
0
  3
timesi.ttf
  4

  0
STYLE
  2
TIMES_BOLD_ITALIC
 70
0
 40
0.0
 41
1.0
 42
1.0
 50
0.0
 71
0
  3
timesbi.ttf
  4

  0
ENDTAB
  0
TABLE
  2
VIEW
 70
0
  0
ENDTAB
  0
TABLE
  2
APPID
 70
1
  0
APPID
  2
DXFWRITE
 70
0
  0
ENDTAB
  0
TABLE
  2
VPORT
 70
0
  0
ENDTAB
  0
TABLE
  2
UCS
 70
0
  0
ENDTAB
  0
ENDSEC
  0
SECTION
  2
BLOCKS
  0
ENDSEC
  0
SECTION
  2
ENTITIES
  0
VIEWPORT
  8
VIEWPORTS
 67
1
 10
0.0
 20
0.0
 30
0.0
 40
1.0
 41
1.0
 68
1
 69
1
1001
ACAD
1000
MVIEW
1002
{
1070
16
1010
0.0
1020
0.0
1030
0.0
1010
0.0
1020
0.0
1030
0.0
1040
0.0
1040
1.0
1040
0.0
1040
0.0
1040
50.0
1040
0.0
1040
0.0
1070
0
1070
100
1070
1
1070
3
1070
0
1070
0
1070
0
1070
0
1040
0.0
1040
0.0
1040
0.0
1040
0.1
1040
0.1
1040
0.1
1040
0.1
1070
0
1002
{
1002
}
1002
}
  0
POLYLINE
 62
7
  8
TOPPPLATFORM_BASELINE_STAKE_2
 66
1
 10
0.0
 20
0.0
 30
0.0
 70
8
  0
VERTEX
  8
TOPPPLATFORM_BASELINE_STAKE_2
 10
1412644.5408937312
 20
4931557.877590405
 30
70.33
  0
VERTEX
  8
TOPPPLATFORM_BASELINE_STAKE_2
 10
1412643.8548745755
 20
4931559.099039145
 30
69.81
  0
VERTEX
  8
TOPPPLATFORM_BASELINE_STAKE_2
 10
1412643.8345295999
 20
4931559.135263126
 30
67.43
  0
VERTEX
  8
TOPPPLATFORM_BASELINE_STAKE_2
 10
1412643.8170815122
 20
4931559.162200525
 30
70.02
  0
VERTEX
  8
TOPPPLATFORM_BASELINE_STAKE_2
 10
1412643.7564674849
 20
4931559.255780076
 30
69.49
  0
VERTEX
  8
TOPPPLATFORM_BASELINE_STAKE_2
 10
1412643.7225049634
 20
4931559.308213443
 30
72.81
  0
VERTEX
  8
TOPPPLATFORM_BASELINE_STAKE_2
 10
1412643.4835747355
 20
4931559.677088181
 30
70.22
  0
VERTEX
  8
TOPPPLATFORM_BASELINE_STAKE_2
 10
1412643.2484296425
 20
4931560.040119201
 30
67.54
  0
VERTEX
  8
TOPPPLATFORM_BASELINE_STAKE_2
 10
1412641.0545025982
 20
4931563.4272346385
 30
69.58
  0
VERTEX
  8
TOPPPLATFORM_BASELINE_STAKE_2
 10
1412641.0335028716
 20
4931563.459655269
 30
69.92
  0
VERTEX
  8
TOPPPLATFORM_BASELINE_STAKE_2
 10
1412641.0168586434
 20
4931563.485351621
 30
69.98
  0
VERTEX
  8
TOPPPLATFORM_BASELINE_STAKE_2
 10
1412640.9728369934
 20
4931563.55331487
 30
70.0
  0
VERTEX
  8
TOPPPLATFORM_BASELINE_STAKE_2
 10
1412640.9486743445
 20
4931563.590618609
 30
69.9
  0
VERTEX
  8
TOPPPLATFORM_BASELINE_STAKE_2
 10
1412640.9238376298
 20
4931563.62896301
 30
69.87
  0
VERTEX
  8
TOPPPLATFORM_BASELINE_STAKE_2
 10
1412640.88847432
 20
4931563.683558998
 30
69.96
  0
VERTEX
  8
TOPPPLATFORM_BASELINE_STAKE_2
 10
1412640.7022121097
 20
4931564.053793309
 30
67.31
  0
VERTEX
  8
TOPPPLATFORM_BASELINE_STAKE_2
 10
1412639.1068055264
 20
4931567.224990821
 30
72.71
  0
VERTEX
  8
TOPPPLATFORM_BASELINE_STAKE_2
 10
1412639.0548617484
 20
4931567.328239724
 30
75.49
  0
VERTEX
  8
TOPPPLATFORM_BASELINE_STAKE_2
 10
1412638.8495451696
 20
4931567.736348498
 30
69.64
  0
VERTEX
  8
TOPPPLATFORM_BASELINE_STAKE_2
 10
1412638.820365597
 20
4931567.794348878
 30
67.34
  0
VERTEX
  8
TOPPPLATFORM_BASELINE_STAKE_2
 10
1412638.7959292573
 20
4931567.842921111
 30
69.68
  0
VERTEX
  8
TOPPPLATFORM_BASELINE_STAKE_2
 10
1412638.7866103195
 20
4931567.861444409
 30
69.47
  0
VERTEX
  8
TOPPPLATFORM_BASELINE_STAKE_2
 10
1412638.6616458104
 20
4931568.074172012
 30
73.29
  0
VERTEX
  8
TOPPPLATFORM_BASELINE_STAKE_2
 10
1412638.618769641
 20
4931568.147160293
 30
69.62
  0
VERTEX
  8
TOPPPLATFORM_BASELINE_STAKE_2
 10
1412634.903590799
 20
4931574.471524644
 30
74.0
  0
VERTEX
  8
TOPPPLATFORM_BASELINE_STAKE_2
 10
1412634.1336735424
 20
4931575.782157983
 30
69.04
  0
VERTEX
  8
TOPPPLATFORM_BASELINE_STAKE_2
 10
1412634.1134085958
 20
4931575.816655085
 30
68.9480253707766
  0
VERTEX
  8
TOPPPLATFORM_BASELINE_STAKE_2
 10
1412634.0619697347
 20
4931575.896334889
 30
68.73
  0
VERTEX
  8
TOPPPLATFORM_BASELINE_STAKE_2
 10
1412634.008385702
 20
4931575.979337607
 30
69.02
  0
VERTEX
  8
TOPPPLATFORM_BASELINE_STAKE_2
 10
1412633.8435960647
 20
4931576.234599986
 30
65.56
  0
VERTEX
  8
TOPPPLATFORM_BASELINE_STAKE_2
 10
1412633.6740845628
 20
4931576.497176626
 30
65.56
  0
VERTEX
  8
TOPPPLATFORM_BASELINE_STAKE_2
 10
1412633.6482419726
 20
4931576.514405019
 30
65.56
  0
SEQEND
  0
ENDSEC
  0
EOF
