  0
SECTION
  2
HEADER
  9
$ACADVER
  1
AC1009
  9
$INSBASE
 10
0.0
 20
0.0
 30
0.0
  9
$EXTMIN
 10
0.0
 20
0.0
 30
0.0
  9
$EXTMAX
 10
100.0
 20
100.0
 30
0.0
  9
$UNITMODE
 70
0
  9
$AUNITS
 70
0
  9
$ANGBASE
 50
0.0
  9
$ANGDIR
 70
0
  0
ENDSEC
  0
SECTION
  2
TABLES
  0
TABLE
  2
LTYPE
 70
19
  0
LTYPE
  2
CONTINUOUS
 70
0
  3
Solid
 72
65
 73
0
 40
0.0
  0
LTYPE
  2
CENTER
 70
0
  3
Center ____ _ ____ _ ____ _ ____ _ ____ _ ____
 72
65
 73
4
 40
2.0
 49
1.25
 49
-0.25
 49
0.25
 49
-0.25
  0
LTYPE
  2
CENTERX2
 70
0
  3
Center (2x) ________  __  ________  __  ________
 72
65
 73
4
 40
3.5
 49
2.5
 49
-0.25
 49
0.5
 49
-0.25
  0
LTYPE
  2
CENTER2
 70
0
  3
Center (.5x) ____ _ ____ _ ____ _ ____ _ ____
 72
65
 73
4
 40
1.0
 49
0.625
 49
-0.125
 49
0.125
 49
-0.125
  0
LTYPE
  2
DASHED
 70
0
  3
Dashed __ __ __ __ __ __ __ __ __ __ __ __ __ _
 72
65
 73
2
 40
0.6
 49
0.5
 49
-0.1
  0
LTYPE
  2
DASHEDX2
 70
0
  3
Dashed (2x) ____  ____  ____  ____  ____  ____
 72
65
 73
2
 40
1.2
 49
1.0
 49
-0.2
  0
LTYPE
  2
DASHED2
 70
0
  3
Dashed (.5x) _ _ _ _ _ _ _ _ _ _ _ _ _ _
 72
65
 73
2
 40
0.3
 49
0.25
 49
-0.05
  0
LTYPE
  2
PHANTOM
 70
0
  3
Phantom ______  __  __  ______  __  __  ______
 72
65
 73
6
 40
2.5
 49
1.25
 49
-0.25
 49
0.25
 49
-0.25
 49
0.25
 49
-0.25
  0
LTYPE
  2
PHANTOMX2
 70
0
  3
Phantom (2x)____________    ____    ____    ____________
 72
65
 73
6
 40
4.25
 49
2.5
 49
-0.25
 49
0.5
 49
-0.25
 49
0.5
 49
-0.25
  0
LTYPE
  2
PHANTOM2
 70
0
  3
Phantom (.5x) ___ _ _ ___ _ _ ___ _ _ ___ _ _ ___
 72
65
 73
6
 40
1.25
 49
0.625
 49
-0.125
 49
0.125
 49
-0.125
 49
0.125
 49
-0.125
  0
LTYPE
  2
DASHDOT
 70
0
  3
Dash dot __ . __ . __ . __ . __ . __ . __ . __
 72
65
 73
4
 40
1.4
 49
1.0
 49
-0.2
 49
0.0
 49
-0.2
  0
LTYPE
  2
DASHDOTX2
 70
0
  3
Dash dot (2x) ____  .  ____  .  ____  .  ____
 72
65
 73
4
 40
2.4
 49
2.0
 49
-0.2
 49
0.0
 49
-0.2
  0
LTYPE
  2
DASHDOT2
 70
0
  3
Dash dot (.5x) _ . _ . _ . _ . _ . _ . _ . _
 72
65
 73
4
 40
0.7
 49
0.5
 49
-0.1
 49
0.0
 49
-0.1
  0
LTYPE
  2
DOT
 70
0
  3
Dot .  .  .  .  .  .  .  .  .  .  .  .  .  .  .  .
 72
65
 73
2
 40
0.2
 49
0.0
 49
-0.2
  0
LTYPE
  2
DOTX2
 70
0
  3
Dot (2x) .    .    .    .    .    .    .    . 
 72
65
 73
2
 40
0.4
 49
0.0
 49
-0.4
  0
LTYPE
  2
DOT2
 70
0
  3
Dot (.5) . . . . . . . . . . . . . . . . . . . 
 72
65
 73
2
 40
0.1
 49
0.0
 49
-0.1
  0
LTYPE
  2
DIVIDE
 70
0
  3
Divide __ . . __ . . __ . . __ . . __ . . __
 72
65
 73
6
 40
1.6
 49
1.0
 49
-0.2
 49
0.0
 49
-0.2
 49
0.0
 49
-0.2
  0
LTYPE
  2
DIVIDEX2
 70
0
  3
Divide (2x) ____  . .  ____  . .  ____  . .  ____
 72
65
 73
6
 40
2.6
 49
2.0
 49
-0.2
 49
0.0
 49
-0.2
 49
0.0
 49
-0.2
  0
LTYPE
  2
DIVIDE2
 70
0
  3
Divide(.5x) _ . _ . _ . _ . _ . _ . _ . _
 72
65
 73
6
 40
0.8
 49
0.5
 49
-0.1
 49
0.0
 49
-0.1
 49
0.0
 49
-0.1
  0
ENDTAB
  0
TABLE
  2
LAYER
 70
6
  0
LAYER
  2
DIMENSIONS
 70
0
 62
1
  6
CONTINUOUS
  0
LAYER
  2
TABLEBACKGROUND
 70
0
 62
1
  6
CONTINUOUS
  0
LAYER
  2
TABLECONTENT
 70
0
 62
1
  6
CONTINUOUS
  0
LAYER
  2
TABLEGRID
 70
0
 62
1
  6
CONTINUOUS
  0
LAYER
  2
VIEWPORTS
 70
0
 62
7
  6
CONTINUOUS
  0
LAYER
  2
TOPPPLATFORM_BASELINE_STAKE_2
 70
0
 62
1
  6
CONTINUOUS
  0
ENDTAB
  0
TABLE
  2
STYLE
 70
12
  0
STYLE
  2
STANDARD
 70
0
 40
0.0
 41
1.0
 42
1.0
 50
0.0
 71
0
  3
arial.ttf
  4

  0
STYLE
  2
ARIAL
 70
0
 40
0.0
 41
1.0
 42
1.0
 50
0.0
 71
0
  3
arial.ttf
  4

  0
STYLE
  2
ARIAL_BOLD
 70
0
 40
0.0
 41
1.0
 42
1.0
 50
0.0
 71
0
  3
arialbd.ttf
  4

  0
STYLE
  2
ARIAL_ITALIC
 70
0
 40
0.0
 41
1.0
 42
1.0
 50
0.0
 71
0
  3
ariali.ttf
  4

  0
STYLE
  2
ARIAL_BOLD_ITALIC
 70
0
 40
0.0
 41
1.0
 42
1.0
 50
0.0
 71
0
  3
arialbi.ttf
  4

  0
STYLE
  2
ARIAL_BLACK
 70
0
 40
0.0
 41
1.0
 42
1.0
 50
0.0
 71
0
  3
ariblk.ttf
  4

  0
STYLE
  2
ISOCPEUR
 70
0
 40
0.0
 41
1.0
 42
1.0
 50
0.0
 71
0
  3
isocpeur.ttf
  4

  0
STYLE
  2
ISOCPEUR_ITALIC
 70
0
 40
0.0
 41
1.0
 42
1.0
 50
0.0
 71
0
  3
isocpeui.ttf
  4

  0
STYLE
  2
TIMES
 70
0
 40
0.0
 41
1.0
 42
1.0
 50
0.0
 71
0
  3
times.ttf
  4

  0
STYLE
  2
TIMES_BOLD
 70
0
 40
0.0
 41
1.0
 42
1.0
 50
0.0
 71
0
  3
timesbd.ttf
  4

  0
STYLE
  2
TIMES_ITALIC
 70
0
 40
0.0
 41
1.0
 42
1.0
 50
0.0
 71
0
  3
timesi.ttf
  4

  0
STYLE
  2
TIMES_BOLD_ITALIC
 70
0
 40
0.0
 41
1.0
 42
1.0
 50
0.0
 71
0
  3
timesbi.ttf
  4

  0
ENDTAB
  0
TABLE
  2
VIEW
 70
0
  0
ENDTAB
  0
TABLE
  2
APPID
 70
1
  0
APPID
  2
DXFWRITE
 70
0
  0
ENDTAB
  0
TABLE
  2
VPORT
 70
0
  0
ENDTAB
  0
TABLE
  2
UCS
 70
0
  0
ENDTAB
  0
ENDSEC
  0
SECTION
  2
BLOCKS
  0
ENDSEC
  0
SECTION
  2
ENTITIES
  0
VIEWPORT
  8
VIEWPORTS
 67
1
 10
0.0
 20
0.0
 30
0.0
 40
1.0
 41
1.0
 68
1
 69
1
1001
ACAD
1000
MVIEW
1002
{
1070
16
1010
0.0
1020
0.0
1030
0.0
1010
0.0
1020
0.0
1030
0.0
1040
0.0
1040
1.0
1040
0.0
1040
0.0
1040
50.0
1040
0.0
1040
0.0
1070
0
1070
100
1070
1
1070
3
1070
0
1070
0
1070
0
1070
0
1040
0.0
1040
0.0
1040
0.0
1040
0.1
1040
0.1
1040
0.1
1040
0.1
1070
0
1002
{
1002
}
1002
}
  0
POLYLINE
 62
7
  8
TOPPPLATFORM_BASELINE_STAKE_2
 66
1
 10
0.0
 20
0.0
 30
0.0
 70
8
  0
VERTEX
  8
TOPPPLATFORM_BASELINE_STAKE_2
 10
0.0
 20
70.33
 30
0.0
  0
VERTEX
  8
TOPPPLATFORM_BASELINE_STAKE_2
 10
1.4009137400350629
 20
69.81
 30
0.0
  0
VERTEX
  8
TOPPPLATFORM_BASELINE_STAKE_2
 10
1.4424600377281103
 20
67.43
 30
0.0
  0
VERTEX
  8
TOPPPLATFORM_BASELINE_STAKE_2
 10
1.4745545732249752
 20
70.02
 30
0.0
  0
VERTEX
  8
TOPPPLATFORM_BASELINE_STAKE_2
 10
1.5860498315127245
 20
69.49
 30
0.0
  0
VERTEX
  8
TOPPPLATFORM_BASELINE_STAKE_2
 10
1.6485215115687197
 20
72.81
 30
0.0
  0
VERTEX
  8
TOPPPLATFORM_BASELINE_STAKE_2
 10
2.088016933782635
 20
70.22
 30
0.0
  0
VERTEX
  8
TOPPPLATFORM_BASELINE_STAKE_2
 10
2.520549864916804
 20
67.54
 30
0.0
  0
VERTEX
  8
TOPPPLATFORM_BASELINE_STAKE_2
 10
6.556125023688573
 20
69.58
 30
0.0
  0
VERTEX
  8
TOPPPLATFORM_BASELINE_STAKE_2
 10
6.594752550124904
 20
69.92
 30
0.0
  0
VERTEX
  8
TOPPPLATFORM_BASELINE_STAKE_2
 10
6.625368442434702
 20
69.98
 30
0.0
  0
VERTEX
  8
TOPPPLATFORM_BASELINE_STAKE_2
 10
6.706343184935838
 20
70.0
 30
0.0
  0
VERTEX
  8
TOPPPLATFORM_BASELINE_STAKE_2
 10
6.7507886856372075
 20
69.9
 30
0.0
  0
VERTEX
  8
TOPPPLATFORM_BASELINE_STAKE_2
 10
6.796474082573565
 20
69.87
 30
0.0
  0
VERTEX
  8
TOPPPLATFORM_BASELINE_STAKE_2
 10
6.861522414660941
 20
69.96
 30
0.0
  0
VERTEX
  8
TOPPPLATFORM_BASELINE_STAKE_2
 10
7.275970308102916
 20
67.31
 30
0.0
  0
VERTEX
  8
TOPPPLATFORM_BASELINE_STAKE_2
 10
10.82587394429586
 20
72.71
 30
0.0
  0
VERTEX
  8
TOPPPLATFORM_BASELINE_STAKE_2
 10
10.941452887504378
 20
75.49
 30
0.0
  0
VERTEX
  8
TOPPPLATFORM_BASELINE_STAKE_2
 10
11.398298231800826
 20
69.64
 30
0.0
  0
VERTEX
  8
TOPPPLATFORM_BASELINE_STAKE_2
 10
11.463225048547583
 20
67.34
 30
0.0
  0
VERTEX
  8
TOPPPLATFORM_BASELINE_STAKE_2
 10
11.51759780333414
 20
69.68
 30
0.0
  0
VERTEX
  8
TOPPPLATFORM_BASELINE_STAKE_2
 10
11.538333164180294
 20
69.47
 30
0.0
  0
VERTEX
  8
TOPPPLATFORM_BASELINE_STAKE_2
 10
11.785049927548275
 20
73.29
 30
0.0
  0
VERTEX
  8
TOPPPLATFORM_BASELINE_STAKE_2
 10
11.869700119780127
 20
69.62
 30
0.0
  0
VERTEX
  8
TOPPPLATFORM_BASELINE_STAKE_2
 10
19.20455787421281
 20
74.0
 30
0.0
  0
VERTEX
  8
TOPPPLATFORM_BASELINE_STAKE_2
 10
20.72460140372271
 20
69.04
 30
0.0
  0
VERTEX
  8
TOPPPLATFORM_BASELINE_STAKE_2
 10
20.7646103796546
 20
68.9480253707766
 30
0.0
  0
VERTEX
  8
TOPPPLATFORM_BASELINE_STAKE_2
 10
20.859451444909183
 20
68.73
 30
0.0
  0
VERTEX
  8
TOPPPLATFORM_BASELINE_STAKE_2
 10
20.9582476977321
 20
69.02
 30
0.0
  0
VERTEX
  8
TOPPPLATFORM_BASELINE_STAKE_2
 10
21.262080722121457
 20
65.56
 30
0.0
  0
VERTEX
  8
TOPPPLATFORM_BASELINE_STAKE_2
 10
21.57461974554273
 20
65.56
 30
0.0
  0
VERTEX
  8
TOPPPLATFORM_BASELINE_STAKE_2
 10
21.60567867328643
 20
65.56
 30
0.0
  0
SEQEND
  0
ENDSEC
  0
EOF
