999
DXF created from QGIS
  0
SECTION
  2
HEADER
  9
$ACADVER
  1
AC1015
  9
$EXTMIN
 10
1412600.71306358627043664
 20
4931520.74895931035280228
 30
0.0
  9
$EXTMAX
 10
1412688.65942381019704044
 20
4931579.24445987492799759
 30
0.0
  9
$LTSCALE
 40
1.0
  9
$PDMODE
 70
    33
  9
$PDSIZE
 40
     1
  9
$PSLTSCALE
 70
     0
  9
$HANDSEED
  5
9999999
  9
$DWGCODEPAGE
  3
ANSI_1252
  0
ENDSEC
  0
SECTION
  2
TABLES
  0
TABLE
  2
LTYPE
  5
64
100
AcDbSymbolTable
 70
     5
  0
LTYPE
  5
65
100
AcDbSymbolTableRecord
100
AcDbLinetypeTableRecord
  2
ByLayer
 70
    64
  3
Defaultstyle
 72
    65
 73
     0
 40
0.0
  0
LTYPE
  5
66
100
AcDbSymbolTableRecord
100
AcDbLinetypeTableRecord
  2
ByBlock
 70
    64
  3
Defaultstyle
 72
    65
 73
     0
 40
0.0
  0
LTYPE
  5
67
100
AcDbSymbolTableRecord
100
AcDbLinetypeTableRecord
  2
CONTINUOUS
 70
    64
  3
Defaultstyle
 72
    65
 73
     0
 40
0.0
  0
LTYPE
  5
68
100
AcDbSymbolTableRecord
100
AcDbLinetypeTableRecord
  2
DASH
 70
    64
  3

 72
    65
 73
     2
 40
2600.0
 49
2000.0
 74
     0
 49
-600.0
 74
     0
  0
LTYPE
  5
69
100
AcDbSymbolTableRecord
100
AcDbLinetypeTableRecord
  2
DOT
 70
    64
  3

 72
    65
 73
     2
 40
1200.0
 49
600.0
 74
     0
 49
-600.0
 74
     0
  0
LTYPE
  5
6a
100
AcDbSymbolTableRecord
100
AcDbLinetypeTableRecord
  2
DASHDOT
 70
    64
  3

 72
    65
 73
     4
 40
3800.0
 49
2000.0
 74
     0
 49
-600.0
 74
     0
 49
600.0
 74
     0
 49
-600.0
 74
     0
  0
LTYPE
  5
6b
100
AcDbSymbolTableRecord
100
AcDbLinetypeTableRecord
  2
DASHDOTDOT
 70
    64
  3

 72
    65
 73
     6
 40
5000.0
 49
2000.0
 74
     0
 49
-600.0
 74
     0
 49
600.0
 74
     0
 49
-600.0
 74
     0
 49
600.0
 74
     0
 49
-600.0
 74
     0
  0
ENDTAB
  0
TABLE
  2
BLOCK_RECORD
  5
6c
100
AcDbSymbolTable
 70
     0
  0
BLOCK_RECORD
  5
6d
100
AcDbSymbolTableRecord
100
AcDbBlockTableRecord
  2
*Model_Space
  0
BLOCK_RECORD
  5
6e
100
AcDbSymbolTableRecord
100
AcDbBlockTableRecord
  2
*Paper_Space
  0
BLOCK_RECORD
  5
6f
100
AcDbSymbolTableRecord
100
AcDbBlockTableRecord
  2
*Paper_Space0
  0
BLOCK_RECORD
  5
70
100
AcDbSymbolTableRecord
100
AcDbBlockTableRecord
  2
symbolLayer0
  0
BLOCK_RECORD
  5
71
100
AcDbSymbolTableRecord
100
AcDbBlockTableRecord
  2
symbolLayer1
  0
BLOCK_RECORD
  5
72
100
AcDbSymbolTableRecord
100
AcDbBlockTableRecord
  2
symbolLayer2
  0
BLOCK_RECORD
  5
73
100
AcDbSymbolTableRecord
100
AcDbBlockTableRecord
  2
symbolLayer3
  0
BLOCK_RECORD
  5
74
100
AcDbSymbolTableRecord
100
AcDbBlockTableRecord
  2
symbolLayer4
  0
ENDTAB
  0
TABLE
  2
APPID
  5
75
100
AcDbSymbolTable
 70
     1
  0
APPID
  5
76
100
AcDbSymbolTableRecord
100
AcDbRegAppTableRecord
  2
ACAD
 70
     0
  0
ENDTAB
  0
TABLE
  2
VIEW
  5
77
100
AcDbSymbolTable
 70
     0
  0
ENDTAB
  0
TABLE
  2
UCS
  5
78
100
AcDbSymbolTable
 70
     0
  0
ENDTAB
  0
TABLE
  2
VPORT
  5
79
100
AcDbSymbolTable
  0
VPORT
  5
7a
100
AcDbSymbolTableRecord
100
AcDbViewportTableRecord
  2
*ACTIVE
 70
     0
 10
0.0
 20
0.0
 11
1.0
 21
1.0
 12
0.0
 22
0.0
 13
0.0
 23
0.0
 14
1.0
 24
1.0
 15
1.0
 25
1.0
 16
0.0
 26
0.0
 36
1.0
 17
1412644.68624369823373854
 27
4931549.99670959264039993
 40
58.49550056457519531
 41
1.50347222222399135
 42
50.0
 43
0.0
 44
0.0
 50
0.0
 51
0.0
 71
     0
 72
   100
 73
     1
 74
     1
 75
     0
 76
     0
 77
     0
 78
     0
281
     0
 65
     1
110
0.0
120
0.0
130
0.0
111
1.0
121
0.0
131
0.0
112
0.0
122
1.0
132
0.0
 79
     0
146
0.0
 70
     0
  0
ENDTAB
  0
TABLE
  2
DIMSTYLE
  5
7b
100
AcDbSymbolTable
100
AcDbDimStyleTable
 70
     0
  0
ENDTAB
  0
TABLE
  2
LAYER
  5
7c
100
AcDbSymbolTable
 70
    11
  0
LAYER
  5
7d
100
AcDbSymbolTableRecord
100
AcDbLayerTableRecord
  2
0
 70
    64
 62
     1
  6
CONTINUOUS
390
f
  0
LAYER
  5
7e
100
AcDbSymbolTableRecord
100
AcDbLayerTableRecord
  2
TOP ROAD LINES
 70
    64
 62
     1
  6
CONTINUOUS
390
f
  0
LAYER
  5
7f
100
AcDbSymbolTableRecord
100
AcDbLayerTableRecord
  2
Buildings-21-08-2020
 70
    64
 62
     1
  6
CONTINUOUS
390
f
  0
LAYER
  5
80
100
AcDbSymbolTableRecord
100
AcDbLayerTableRecord
  2
BoundaryLinework_KNIGHT
 70
    64
 62
     1
  6
CONTINUOUS
390
f
  0
LAYER
  5
81
100
AcDbSymbolTableRecord
100
AcDbLayerTableRecord
  2
TOPPPLATFORM_BASELINE_STAKE_2_field_4
 70
    64
 62
     1
  6
CONTINUOUS
390
f
  0
LAYER
  5
82
100
AcDbSymbolTableRecord
100
AcDbLayerTableRecord
  2
TOPPLATFORM BASELINE STAKE entities
 70
    64
 62
     1
  6
CONTINUOUS
390
f
  0
LAYER
  5
83
100
AcDbSymbolTableRecord
100
AcDbLayerTableRecord
  2
New scratch layer
 70
    64
 62
     1
  6
CONTINUOUS
390
f
  0
LAYER
  5
84
100
AcDbSymbolTableRecord
100
AcDbLayerTableRecord
  2
TOPPPLATFORM_BASELINE_STAKE_2
 70
    64
 62
     1
  6
CONTINUOUS
390
f
  0
LAYER
  5
85
100
AcDbSymbolTableRecord
100
AcDbLayerTableRecord
  2
Tiny House 11-09-20edit SPT forSTH  BNDY setback
 70
    64
 62
     1
  6
CONTINUOUS
390
f
  0
LAYER
  5
86
100
AcDbSymbolTableRecord
100
AcDbLayerTableRecord
  2
ControlBoundaryCoordinates
 70
    64
 62
     1
  6
CONTINUOUS
390
f
  0
LAYER
  5
87
100
AcDbSymbolTableRecord
100
AcDbLayerTableRecord
  2
nz-property-titles(LINZ DOWNLOAD)
 70
    64
 62
     1
  6
CONTINUOUS
390
f
  0
ENDTAB
  0
TABLE
  2
STYLE
  5
88
100
AcDbSymbolTable
 70
     1
  0
STYLE
  5
89
100
AcDbSymbolTableRecord
100
AcDbTextStyleTableRecord
  2
STANDARD
 70
    64
 40
0.0
 41
1.0
 50
0.0
 71
     0
 42
5.0
  3
romans.shx
  4

  0
ENDTAB
  0
ENDSEC
  0
SECTION
  2
BLOCKS
  0
BLOCK
  5
8a
330
6d
100
AcDbEntity
  8
0
100
AcDbBlockBegin
  2
*Model_Space
 70
     0
 10
0.0
 20
0.0
 30
0.0
  3
*Model_Space
  1

  0
ENDBLK
  5
8b
100
AcDbEntity
  8
0
100
AcDbBlockEnd
  0
BLOCK
  5
8c
330
6e
100
AcDbEntity
  8
0
100
AcDbBlockBegin
  2
*Paper_Space
 70
     0
 10
0.0
 20
0.0
 30
0.0
  3
*Paper_Space
  1

  0
ENDBLK
  5
8d
100
AcDbEntity
  8
0
100
AcDbBlockEnd
  0
BLOCK
  5
8e
330
6f
100
AcDbEntity
  8
0
100
AcDbBlockBegin
  2
*Paper_Space0
 70
     0
 10
0.0
 20
0.0
 30
0.0
  3
*Paper_Space0
  1

  0
ENDBLK
  5
8f
100
AcDbEntity
  8
0
100
AcDbBlockEnd
  0
BLOCK
  5
90
330
70
100
AcDbEntity
  8
0
100
AcDbBlockBegin
  2
symbolLayer0
 70
     0
 10
0.0
 20
0.0
 30
0.0
  3
symbolLayer0
  1

  0
HATCH
  5
91
330
70
100
AcDbEntity
  8
0
420
13623811
100
AcDbHatch
 10
0.0
 20
0.0
 30
0.0
210
0.0
220
0.0
230
1.0
  2
SOLID
 70
     1
 71
     0
 91
     1
 92
     2
 72
     0
 73
     1
 93
     5
 10
-1000.0
 20
0.0
 10
0.0
 20
-1000.0
 10
1000.0
 20
0.0
 10
0.0
 20
1000.0
 10
-1000.0
 20
0.0
 97
     0
 75
     0
 76
     1
 98
     0
  0
LWPOLYLINE
  5
92
  8
0
100
AcDbEntity
100
AcDbPolyline
  6
CONTINUOUS
420
8392985
 90
     4
 70
     1
 43
400.0
 10
-1000.0
 20
0.0
 10
0.0
 20
-1000.0
 10
1000.0
 20
0.0
 10
0.0
 20
1000.0
  0
ENDBLK
  5
93
100
AcDbEntity
  8
0
100
AcDbBlockEnd
  0
BLOCK
  5
94
330
71
100
AcDbEntity
  8
0
100
AcDbBlockBegin
  2
symbolLayer1
 70
     0
 10
0.0
 20
0.0
 30
0.0
  3
symbolLayer1
  1

  0
HATCH
  5
95
330
71
100
AcDbEntity
  8
0
420
12860473
100
AcDbHatch
 10
0.0
 20
0.0
 30
0.0
210
0.0
220
0.0
230
1.0
  2
SOLID
 70
     1
 71
     0
 91
     1
 92
     3
 72
     1
 73
     1
 93
     2
 10
-1000.0
 20
0.0
 42
1.0
 10
1000.0
 20
0.0
 42
1.0
 97
     0
 75
     0
 76
     1
 98
     0
  0
LWPOLYLINE
  5
96
330
71
  8
0
100
AcDbEntity
100
AcDbPolyline
  6
CONTINUOUS
420
2302755
 90
     2
 70
     1
 43
0.0
 10
-1000.0
 20
0.0
 42
1.0
 10
1000.0
 20
0.0
 42
1.0
  0
ENDBLK
  5
97
100
AcDbEntity
  8
0
100
AcDbBlockEnd
  0
BLOCK
  5
98
330
72
100
AcDbEntity
  8
0
100
AcDbBlockBegin
  2
symbolLayer2
 70
     0
 10
0.0
 20
0.0
 30
0.0
  3
symbolLayer2
  1

  0
HATCH
  5
99
330
72
100
AcDbEntity
  8
0
420
4750262
100
AcDbHatch
 10
0.0
 20
0.0
 30
0.0
210
0.0
220
0.0
230
1.0
  2
SOLID
 70
     1
 71
     0
 91
     1
 92
     2
 72
     0
 73
     1
 93
     5
 10
-2200.0
 20
0.0
 10
0.0
 20
-2200.0
 10
2200.0
 20
0.0
 10
0.0
 20
2200.0
 10
-2200.0
 20
0.0
 97
     0
 75
     0
 76
     1
 98
     0
  0
LWPOLYLINE
  5
9a
  8
0
100
AcDbEntity
100
AcDbPolyline
  6
CONTINUOUS
420
3299200
 90
     4
 70
     1
 43
400.0
 10
-2200.0
 20
0.0
 10
0.0
 20
-2200.0
 10
2200.0
 20
0.0
 10
0.0
 20
2200.0
  0
ENDBLK
  5
9b
100
AcDbEntity
  8
0
100
AcDbBlockEnd
  0
BLOCK
  5
9c
330
73
100
AcDbEntity
  8
0
100
AcDbBlockBegin
  2
symbolLayer3
 70
     0
 10
0.0
 20
0.0
 30
0.0
  3
symbolLayer3
  1

  0
HATCH
  5
9d
330
73
100
AcDbEntity
  8
0
420
14005308
100
AcDbHatch
 10
0.0
 20
0.0
 30
0.0
210
0.0
220
0.0
230
1.0
  2
SOLID
 70
     1
 71
     0
 91
     1
 92
     3
 72
     1
 73
     1
 93
     2
 10
-1000.0
 20
0.0
 42
1.0
 10
1000.0
 20
0.0
 42
1.0
 97
     0
 75
     0
 76
     1
 98
     0
  0
LWPOLYLINE
  5
9e
330
73
  8
0
100
AcDbEntity
100
AcDbPolyline
  6
CONTINUOUS
420
2302755
 90
     2
 70
     1
 43
0.0
 10
-1000.0
 20
0.0
 42
1.0
 10
1000.0
 20
0.0
 42
1.0
  0
ENDBLK
  5
9f
100
AcDbEntity
  8
0
100
AcDbBlockEnd
  0
BLOCK
  5
a0
330
74
100
AcDbEntity
  8
0
100
AcDbBlockBegin
  2
symbolLayer4
 70
     0
 10
0.0
 20
0.0
 30
0.0
  3
symbolLayer4
  1

  0
HATCH
  5
a1
330
74
100
AcDbEntity
  8
0
420
     0
100
AcDbHatch
 10
0.0
 20
0.0
 30
0.0
210
0.0
220
0.0
230
1.0
  2
SOLID
 70
     1
 71
     0
 91
     1
 92
     3
 72
     1
 73
     1
 93
     2
 10
-1000.0
 20
0.0
 42
1.0
 10
1000.0
 20
0.0
 42
1.0
 97
     0
 75
     0
 76
     1
 98
     0
  0
LWPOLYLINE
  5
a2
330
74
  8
0
100
AcDbEntity
100
AcDbPolyline
  6
CONTINUOUS
 62
   255
 90
     2
 70
     1
 43
400.0
 10
-1000.0
 20
0.0
 42
1.0
 10
1000.0
 20
0.0
 42
1.0
  0
ENDBLK
  5
a3
100
AcDbEntity
  8
0
100
AcDbBlockEnd
  0
ENDSEC
  0
SECTION
  2
ENTITIES
  0
POLYLINE
  5
a4
330
6d
100
AcDbEntity
  8
TOP ROAD LINES
  6
CONTINUOUS
420
15676953
100
AcDb3dPolyline
 10
0.0
 20
0.0
 30
0.0
 70
     8
  0
VERTEX
  5
a5
330
   164
100
AcDbEntity
  8
TOP ROAD LINES
420
15676953
100
AcDbVertex
100
AcDb3dPolylineVertex
 10
1412628.11000000010244548
 20
4931577.5
 30
68.42000000000000171
 70
    32
  0
VERTEX
  5
a6
330
   164
100
AcDbEntity
  8
TOP ROAD LINES
420
15676953
100
AcDbVertex
100
AcDb3dPolylineVertex
 10
1412633.05000000004656613
 20
4931574.19000000040978193
 30
69.06000000000000227
 70
    32
  0
VERTEX
  5
a7
330
   164
100
AcDbEntity
  8
TOP ROAD LINES
420
15676953
100
AcDbVertex
100
AcDb3dPolylineVertex
 10
1412634.9599999999627471
 20
4931570.17999999970197678
 30
69.40000000000000568
 70
    32
  0
VERTEX
  5
a8
330
   164
100
AcDbEntity
  8
TOP ROAD LINES
420
15676953
100
AcDbVertex
100
AcDb3dPolylineVertex
 10
1412641.64999999990686774
 20
4931558.91999999992549419
 30
70.03000000000000114
 70
    32
  0
VERTEX
  5
a9
330
   164
100
AcDbEntity
  8
TOP ROAD LINES
420
15676953
100
AcDbVertex
100
AcDb3dPolylineVertex
 10
1412643.22999999998137355
 20
4931552.21999999973922968
 30
71.35999999999999943
 70
    32
  0
VERTEX
  5
aa
330
   164
100
AcDbEntity
  8
TOP ROAD LINES
420
15676953
100
AcDbVertex
100
AcDb3dPolylineVertex
 10
1412645.17999999993480742
 20
4931545.90000000037252903
 30
73.15999999999999659
 70
    32
  0
VERTEX
  5
ab
330
   164
100
AcDbEntity
  8
TOP ROAD LINES
420
15676953
100
AcDbVertex
100
AcDb3dPolylineVertex
 10
1412648.78000000002793968
 20
4931537.03000000026077032
 30
74.12999999999999545
 70
    32
  0
VERTEX
  5
ac
330
   164
100
AcDbEntity
  8
TOP ROAD LINES
420
15676953
100
AcDbVertex
100
AcDb3dPolylineVertex
 10
1412651.34000000008381903
 20
4931534.66000000014901161
 30
74.62000000000000455
 70
    32
  0
VERTEX
  5
ad
330
   164
100
AcDbEntity
  8
TOP ROAD LINES
420
15676953
100
AcDbVertex
100
AcDb3dPolylineVertex
 10
1412654.11000000010244548
 20
4931534.37999999988824129
 30
74.23999999999999488
 70
    32
  0
VERTEX
  5
ae
330
   164
100
AcDbEntity
  8
TOP ROAD LINES
420
15676953
100
AcDbVertex
100
AcDb3dPolylineVertex
 10
1412662.28000000002793968
 20
4931539.83000000007450581
 30
71.40000000000000568
 70
    32
  0
SEQEND
  5
af
330
   164
100
AcDbEntity
  8
TOP ROAD LINES
420
15676953
  0
POLYLINE
  5
b0
330
6d
100
AcDbEntity
  8
TOP ROAD LINES
  6
CONTINUOUS
420
15676953
100
AcDb3dPolyline
 10
0.0
 20
0.0
 30
0.0
 70
     8
  0
VERTEX
  5
b1
330
   176
100
AcDbEntity
  8
TOP ROAD LINES
420
15676953
100
AcDbVertex
100
AcDb3dPolylineVertex
 10
1412625.83000000007450581
 20
4931580.37999999988824129
 30
67.98999999999999488
 70
    32
  0
VERTEX
  5
b2
330
   176
100
AcDbEntity
  8
TOP ROAD LINES
420
15676953
100
AcDbVertex
100
AcDb3dPolylineVertex
 10
1412628.75
 20
4931581.79999999981373549
 30
68.29000000000000625
 70
    32
  0
VERTEX
  5
b3
330
   176
100
AcDbEntity
  8
TOP ROAD LINES
420
15676953
100
AcDbVertex
100
AcDb3dPolylineVertex
 10
1412632.63999999989755452
 20
4931582.2099999999627471
 30
68.46999999999999886
 70
    32
  0
VERTEX
  5
b4
330
   176
100
AcDbEntity
  8
TOP ROAD LINES
420
15676953
100
AcDbVertex
100
AcDb3dPolylineVertex
 10
1412634.80000000004656613
 20
4931580.20000000018626451
 30
68.43000000000000682
 70
    32
  0
VERTEX
  5
b5
330
   176
100
AcDbEntity
  8
TOP ROAD LINES
420
15676953
100
AcDbVertex
100
AcDb3dPolylineVertex
 10
1412637.58000000007450581
 20
4931576.33999999985098839
 30
69.01999999999999602
 70
    32
  0
VERTEX
  5
b6
330
   176
100
AcDbEntity
  8
TOP ROAD LINES
420
15676953
100
AcDbVertex
100
AcDb3dPolylineVertex
 10
1412641.30000000004656613
 20
4931568.83000000007450581
 30
69.51999999999999602
 70
    32
  0
VERTEX
  5
b7
330
   176
100
AcDbEntity
  8
TOP ROAD LINES
420
15676953
100
AcDbVertex
100
AcDb3dPolylineVertex
 10
1412646.4599999999627471
 20
4931561.42999999970197678
 30
69.59000000000000341
 70
    32
  0
VERTEX
  5
b8
330
   176
100
AcDbEntity
  8
TOP ROAD LINES
420
15676953
100
AcDbVertex
100
AcDb3dPolylineVertex
 10
1412653.58000000007450581
 20
4931556.32000000029802322
 30
68.59999999999999432
 70
    32
  0
VERTEX
  5
b9
330
   176
100
AcDbEntity
  8
TOP ROAD LINES
420
15676953
100
AcDbVertex
100
AcDb3dPolylineVertex
 10
1412661.2099999999627471
 20
4931552.91000000014901161
 30
66.65999999999999659
 70
    32
  0
VERTEX
  5
ba
330
   176
100
AcDbEntity
  8
TOP ROAD LINES
420
15676953
100
AcDbVertex
100
AcDb3dPolylineVertex
 10
1412664.40999999991618097
 20
4931553.00999999977648258
 30
66.60999999999999943
 70
    32
  0
VERTEX
  5
bb
330
   176
100
AcDbEntity
  8
TOP ROAD LINES
420
15676953
100
AcDbVertex
100
AcDb3dPolylineVertex
 10
1412671.42999999993480742
 20
4931552.25
 30
66.48999999999999488
 70
    32
  0
VERTEX
  5
bc
330
   176
100
AcDbEntity
  8
TOP ROAD LINES
420
15676953
100
AcDbVertex
100
AcDb3dPolylineVertex
 10
1412680.76000000000931323
 20
4931551.75
 30
65.67000000000000171
 70
    32
  0
VERTEX
  5
bd
330
   176
100
AcDbEntity
  8
TOP ROAD LINES
420
15676953
100
AcDbVertex
100
AcDb3dPolylineVertex
 10
1412690.9599999999627471
 20
4931557.2900000000372529
 30
64.09000000000000341
 70
    32
  0
VERTEX
  5
be
330
   176
100
AcDbEntity
  8
TOP ROAD LINES
420
15676953
100
AcDbVertex
100
AcDb3dPolylineVertex
 10
1412699.75
 20
4931563.41999999992549419
 30
62.67999999999999972
 70
    32
  0
VERTEX
  5
bf
330
   176
100
AcDbEntity
  8
TOP ROAD LINES
420
15676953
100
AcDbVertex
100
AcDb3dPolylineVertex
 10
1412708.32000000006519258
 20
4931567.04999999981373549
 30
60.96000000000000085
 70
    32
  0
SEQEND
  5
c0
330
   176
100
AcDbEntity
  8
TOP ROAD LINES
420
15676953
  0
POLYLINE
  5
c1
330
6d
100
AcDbEntity
  8
TOP ROAD LINES
  6
CONTINUOUS
420
15676953
100
AcDb3dPolyline
 10
0.0
 20
0.0
 30
0.0
 70
     8
  0
VERTEX
  5
c2
330
   193
100
AcDbEntity
  8
TOP ROAD LINES
420
15676953
100
AcDbVertex
100
AcDb3dPolylineVertex
 10
1412635.72999999998137355
 20
4931573.33999999985098839
 30
69.12999999999999545
 70
    32
  0
VERTEX
  5
c3
330
   193
100
AcDbEntity
  8
TOP ROAD LINES
420
15676953
100
AcDbVertex
100
AcDb3dPolylineVertex
 10
1412640.2099999999627471
 20
4931565.92999999970197678
 30
69.78000000000000114
 70
    32
  0
VERTEX
  5
c4
330
   193
100
AcDbEntity
  8
TOP ROAD LINES
420
15676953
100
AcDbVertex
100
AcDb3dPolylineVertex
 10
1412645.09000000008381903
 20
4931558.53000000026077032
 30
69.78000000000000114
 70
    32
  0
VERTEX
  5
c5
330
   193
100
AcDbEntity
  8
TOP ROAD LINES
420
15676953
100
AcDbVertex
100
AcDb3dPolylineVertex
 10
1412645.08000000007450581
 20
4931557.36000000033527613
 30
69.98000000000000398
 70
    32
  0
VERTEX
  5
c6
330
   193
100
AcDbEntity
  8
TOP ROAD LINES
420
15676953
100
AcDbVertex
100
AcDb3dPolylineVertex
 10
1412645.21999999997206032
 20
4931550.51999999955296516
 30
71.84000000000000341
 70
    32
  0
VERTEX
  5
c7
330
   193
100
AcDbEntity
  8
TOP ROAD LINES
420
15676953
100
AcDbVertex
100
AcDb3dPolylineVertex
 10
1412648.71999999997206032
 20
4931542.75999999977648258
 30
73.79000000000000625
 70
    32
  0
VERTEX
  5
c8
330
   193
100
AcDbEntity
  8
TOP ROAD LINES
420
15676953
100
AcDbVertex
100
AcDb3dPolylineVertex
 10
1412653.68999999994412065
 20
4931538.26999999955296516
 30
73.93999999999999773
 70
    32
  0
SEQEND
  5
c9
330
   193
100
AcDbEntity
  8
TOP ROAD LINES
420
15676953
  0
POLYLINE
  5
ca
330
6d
100
AcDbEntity
  8
TOP ROAD LINES
  6
CONTINUOUS
420
15676953
100
AcDb3dPolyline
 10
0.0
 20
0.0
 30
0.0
 70
     8
  0
VERTEX
  5
cb
330
   202
100
AcDbEntity
  8
TOP ROAD LINES
420
15676953
100
AcDbVertex
100
AcDb3dPolylineVertex
 10
1412624.31000000005587935
 20
4931582.42999999970197678
 30
66.87000000000000455
 70
    32
  0
VERTEX
  5
cc
330
   202
100
AcDbEntity
  8
TOP ROAD LINES
420
15676953
100
AcDbVertex
100
AcDb3dPolylineVertex
 10
1412625.63999999989755452
 20
4931584.29999999981373549
 30
66.04999999999999716
 70
    32
  0
VERTEX
  5
cd
330
   202
100
AcDbEntity
  8
TOP ROAD LINES
420
15676953
100
AcDbVertex
100
AcDb3dPolylineVertex
 10
1412628.72999999998137355
 20
4931586.4599999999627471
 30
65.28000000000000114
 70
    32
  0
VERTEX
  5
ce
330
   202
100
AcDbEntity
  8
TOP ROAD LINES
420
15676953
100
AcDbVertex
100
AcDb3dPolylineVertex
 10
1412633.19999999995343387
 20
4931587.58999999985098839
 30
64.65000000000000568
 70
    32
  0
VERTEX
  5
cf
330
   202
100
AcDbEntity
  8
TOP ROAD LINES
420
15676953
100
AcDbVertex
100
AcDb3dPolylineVertex
 10
1412637.91999999992549419
 20
4931585.40000000037252903
 30
64.18000000000000682
 70
    32
  0
VERTEX
  5
d0
330
   202
100
AcDbEntity
  8
TOP ROAD LINES
420
15676953
100
AcDbVertex
100
AcDb3dPolylineVertex
 10
1412637.83000000007450581
 20
4931584.29999999981373549
 30
64.96999999999999886
 70
    32
  0
VERTEX
  5
d1
330
   202
100
AcDbEntity
  8
TOP ROAD LINES
420
15676953
100
AcDbVertex
100
AcDb3dPolylineVertex
 10
1412645.13999999989755452
 20
4931573.48000000044703484
 30
65.73999999999999488
 70
    32
  0
VERTEX
  5
d2
330
   202
100
AcDbEntity
  8
TOP ROAD LINES
420
15676953
100
AcDbVertex
100
AcDb3dPolylineVertex
 10
1412646.51000000000931323
 20
4931569.94000000040978193
 30
66.18000000000000682
 70
    32
  0
VERTEX
  5
d3
330
   202
100
AcDbEntity
  8
TOP ROAD LINES
420
15676953
100
AcDbVertex
100
AcDb3dPolylineVertex
 10
1412645.58000000007450581
 20
4931567.63999999966472387
 30
67.34999999999999432
 70
    32
  0
SEQEND
  5
d4
330
   202
100
AcDbEntity
  8
TOP ROAD LINES
420
15676953
  0
POLYLINE
  5
d5
330
6d
100
AcDbEntity
  8
TOP ROAD LINES
  6
CONTINUOUS
420
15676953
100
AcDb3dPolyline
 10
0.0
 20
0.0
 30
0.0
 70
     8
  0
VERTEX
  5
d6
330
   213
100
AcDbEntity
  8
TOP ROAD LINES
420
15676953
100
AcDbVertex
100
AcDb3dPolylineVertex
 10
1412645.09000000008381903
 20
4931558.53000000026077032
 30
69.78000000000000114
 70
    32
  0
VERTEX
  5
d7
330
   213
100
AcDbEntity
  8
TOP ROAD LINES
420
15676953
100
AcDbVertex
100
AcDb3dPolylineVertex
 10
1412661.48999999999068677
 20
4931550.96999999973922968
 30
66.85999999999999943
 70
    32
  0
VERTEX
  5
d8
330
   213
100
AcDbEntity
  8
TOP ROAD LINES
420
15676953
100
AcDbVertex
100
AcDb3dPolylineVertex
 10
1412674.09000000008381903
 20
4931550.2099999999627471
 30
66.34999999999999432
 70
    32
  0
VERTEX
  5
d9
330
   213
100
AcDbEntity
  8
TOP ROAD LINES
420
15676953
100
AcDbVertex
100
AcDb3dPolylineVertex
 10
1412683.5400000000372529
 20
4931551.15000000037252903
 30
65.31999999999999318
 70
    32
  0
VERTEX
  5
da
330
   213
100
AcDbEntity
  8
TOP ROAD LINES
420
15676953
100
AcDbVertex
100
AcDb3dPolylineVertex
 10
1412691.98999999999068677
 20
4931555.20000000018626451
 30
64.06000000000000227
 70
    32
  0
VERTEX
  5
db
330
   213
100
AcDbEntity
  8
TOP ROAD LINES
420
15676953
100
AcDbVertex
100
AcDb3dPolylineVertex
 10
1412700.83000000007450581
 20
4931560.12999999988824129
 30
62.77000000000000313
 70
    32
  0
VERTEX
  5
dc
330
   213
100
AcDbEntity
  8
TOP ROAD LINES
420
15676953
100
AcDbVertex
100
AcDb3dPolylineVertex
 10
1412709.01000000000931323
 20
4931564.17999999970197678
 30
61.17999999999999972
 70
    32
  0
SEQEND
  5
dd
330
   213
100
AcDbEntity
  8
TOP ROAD LINES
420
15676953
  0
POLYLINE
  5
de
330
6d
100
AcDbEntity
  8
TOP ROAD LINES
  6
CONTINUOUS
420
15676953
100
AcDb3dPolyline
 10
0.0
 20
0.0
 30
0.0
 70
     8
  0
VERTEX
  5
df
330
   222
100
AcDbEntity
  8
TOP ROAD LINES
420
15676953
100
AcDbVertex
100
AcDb3dPolylineVertex
 10
1412646.87000000011175871
 20
4931551.86000000033527613
 30
71.40999999999999659
 70
    32
  0
VERTEX
  5
e0
330
   222
100
AcDbEntity
  8
TOP ROAD LINES
420
15676953
100
AcDbVertex
100
AcDb3dPolylineVertex
 10
1412664.06000000005587935
 20
4931547.29999999981373549
 30
67.93999999999999773
 70
    32
  0
VERTEX
  5
e1
330
   222
100
AcDbEntity
  8
TOP ROAD LINES
420
15676953
100
AcDbVertex
100
AcDb3dPolylineVertex
 10
1412680.46999999997206032
 20
4931547.30999999959021807
 30
67.17000000000000171
 70
    32
  0
VERTEX
  5
e2
330
   222
100
AcDbEntity
  8
TOP ROAD LINES
420
15676953
100
AcDbVertex
100
AcDb3dPolylineVertex
 10
1412698.5400000000372529
 20
4931552.49000000022351742
 30
66.93999999999999773
 70
    32
  0
VERTEX
  5
e3
330
   222
100
AcDbEntity
  8
TOP ROAD LINES
420
15676953
100
AcDbVertex
100
AcDb3dPolylineVertex
 10
1412706.90999999991618097
 20
4931556.07000000029802322
 30
65.65000000000000568
 70
    32
  0
VERTEX
  5
e4
330
   222
100
AcDbEntity
  8
TOP ROAD LINES
420
15676953
100
AcDbVertex
100
AcDb3dPolylineVertex
 10
1412714.68999999994412065
 20
4931563.42999999970197678
 30
61.97999999999999687
 70
    32
  0
SEQEND
  5
e5
330
   222
100
AcDbEntity
  8
TOP ROAD LINES
420
15676953
  0
POLYLINE
  5
e6
330
6d
100
AcDbEntity
  8
TOP ROAD LINES
  6
CONTINUOUS
420
15676953
100
AcDb3dPolyline
 10
0.0
 20
0.0
 30
0.0
 70
     8
  0
VERTEX
  5
e7
330
   230
100
AcDbEntity
  8
TOP ROAD LINES
420
15676953
100
AcDbVertex
100
AcDb3dPolylineVertex
 10
1412711.72999999998137355
 20
4931562.82000000029802322
 30
60.67999999999999972
 70
    32
  0
VERTEX
  5
e8
330
   230
100
AcDbEntity
  8
TOP ROAD LINES
420
15676953
100
AcDbVertex
100
AcDb3dPolylineVertex
 10
1412700.57000000006519258
 20
4931556.34999999962747097
 30
62.42000000000000171
 70
    32
  0
VERTEX
  5
e9
330
   230
100
AcDbEntity
  8
TOP ROAD LINES
420
15676953
100
AcDbVertex
100
AcDb3dPolylineVertex
 10
1412691.34000000008381903
 20
4931552.07000000029802322
 30
64.12999999999999545
 70
    32
  0
VERTEX
  5
ea
330
   230
100
AcDbEntity
  8
TOP ROAD LINES
420
15676953
100
AcDbVertex
100
AcDb3dPolylineVertex
 10
1412681.92999999993480742
 20
4931548.04999999981373549
 30
65.54000000000000625
 70
    32
  0
VERTEX
  5
eb
330
   230
100
AcDbEntity
  8
TOP ROAD LINES
420
15676953
100
AcDbVertex
100
AcDb3dPolylineVertex
 10
1412672.34000000008381903
 20
4931547.94000000040978193
 30
66.31000000000000227
 70
    32
  0
VERTEX
  5
ec
330
   230
100
AcDbEntity
  8
TOP ROAD LINES
420
15676953
100
AcDbVertex
100
AcDb3dPolylineVertex
 10
1412661.77000000001862645
 20
4931549.25999999977648258
 30
66.87000000000000455
 70
    32
  0
VERTEX
  5
ed
330
   230
100
AcDbEntity
  8
TOP ROAD LINES
420
15676953
100
AcDbVertex
100
AcDb3dPolylineVertex
 10
1412658.05000000004656613
 20
4931550.37000000011175871
 30
67.42000000000000171
 70
    32
  0
VERTEX
  5
ee
330
   230
100
AcDbEntity
  8
TOP ROAD LINES
420
15676953
100
AcDbVertex
100
AcDb3dPolylineVertex
 10
1412653.64999999990686774
 20
4931552.01999999955296516
 30
68.45999999999999375
 70
    32
  0
VERTEX
  5
ef
330
   230
100
AcDbEntity
  8
TOP ROAD LINES
420
15676953
100
AcDbVertex
100
AcDb3dPolylineVertex
 10
1412647.75
 20
4931555.08000000007450581
 30
69.70000000000000284
 70
    32
  0
SEQEND
  5
f0
330
   230
100
AcDbEntity
  8
TOP ROAD LINES
420
15676953
  0
POLYLINE
  5
f1
330
6d
100
AcDbEntity
  8
TOP ROAD LINES
  6
CONTINUOUS
420
15676953
100
AcDb3dPolyline
 10
0.0
 20
0.0
 30
0.0
 70
     8
  0
VERTEX
  5
f2
330
   241
100
AcDbEntity
  8
TOP ROAD LINES
420
15676953
100
AcDbVertex
100
AcDb3dPolylineVertex
 10
1412658.72999999998137355
 20
4931539.59999999962747097
 30
73.65000000000000568
 70
    32
  0
VERTEX
  5
f3
330
   241
100
AcDbEntity
  8
TOP ROAD LINES
420
15676953
100
AcDbVertex
100
AcDb3dPolylineVertex
 10
1412658.42999999993480742
 20
4931540.36000000033527613
 30
73.54999999999999716
 70
    32
  0
VERTEX
  5
f4
330
   241
100
AcDbEntity
  8
TOP ROAD LINES
420
15676953
100
AcDbVertex
100
AcDb3dPolylineVertex
 10
1412655.52000000001862645
 20
4931542.26999999955296516
 30
73.87000000000000455
 70
    32
  0
VERTEX
  5
f5
330
   241
100
AcDbEntity
  8
TOP ROAD LINES
420
15676953
100
AcDbVertex
100
AcDb3dPolylineVertex
 10
1412646.87000000011175871
 20
4931551.86000000033527613
 30
71.40999999999999659
 70
    32
  0
SEQEND
  5
f6
330
   241
100
AcDbEntity
  8
TOP ROAD LINES
420
15676953
  0
POLYLINE
  5
f7
330
6d
100
AcDbEntity
  8
TOP ROAD LINES
  6
CONTINUOUS
420
15676953
100
AcDb3dPolyline
 10
0.0
 20
0.0
 30
0.0
 70
     8
  0
VERTEX
  5
f8
330
   247
100
AcDbEntity
  8
TOP ROAD LINES
420
15676953
100
AcDbVertex
100
AcDb3dPolylineVertex
 10
1412637.51000000000931323
 20
4931561.71999999973922968
 30
73.07999999999999829
 70
    32
  0
VERTEX
  5
f9
330
   247
100
AcDbEntity
  8
TOP ROAD LINES
420
15676953
100
AcDbVertex
100
AcDb3dPolylineVertex
 10
1412642.32000000006519258
 20
4931553.03000000026077032
 30
73.70000000000000284
 70
    32
  0
VERTEX
  5
fa
330
   247
100
AcDbEntity
  8
TOP ROAD LINES
420
15676953
100
AcDbVertex
100
AcDb3dPolylineVertex
 10
1412642.87999999988824129
 20
4931549.83999999985098839
 30
74.34000000000000341
 70
    32
  0
VERTEX
  5
fb
330
   247
100
AcDbEntity
  8
TOP ROAD LINES
420
15676953
100
AcDbVertex
100
AcDb3dPolylineVertex
 10
1412643.17999999993480742
 20
4931547.95000000018626451
 30
74.56999999999999318
 70
    32
  0
VERTEX
  5
fc
330
   247
100
AcDbEntity
  8
TOP ROAD LINES
420
15676953
100
AcDbVertex
100
AcDb3dPolylineVertex
 10
1412643.63999999989755452
 20
4931546.41000000014901161
 30
74.59000000000000341
 70
    32
  0
SEQEND
  5
fd
330
   247
100
AcDbEntity
  8
TOP ROAD LINES
420
15676953
  0
POLYLINE
  5
fe
330
6d
100
AcDbEntity
  8
TOP ROAD LINES
  6
CONTINUOUS
420
15676953
100
AcDb3dPolyline
 10
0.0
 20
0.0
 30
0.0
 70
     8
  0
VERTEX
  5
ff
330
   254
100
AcDbEntity
  8
TOP ROAD LINES
420
15676953
100
AcDbVertex
100
AcDb3dPolylineVertex
 10
1412644.83000000007450581
 20
4931543.71999999973922968
 30
75.26999999999999602
 70
    32
  0
VERTEX
  5
100
330
   254
100
AcDbEntity
  8
TOP ROAD LINES
420
15676953
100
AcDbVertex
100
AcDb3dPolylineVertex
 10
1412646.03000000002793968
 20
4931539.83000000007450581
 30
76.73999999999999488
 70
    32
  0
VERTEX
  5
101
330
   254
100
AcDbEntity
  8
TOP ROAD LINES
420
15676953
100
AcDbVertex
100
AcDb3dPolylineVertex
 10
1412646.98999999999068677
 20
4931536.82000000029802322
 30
77.76999999999999602
 70
    32
  0
VERTEX
  5
102
330
   254
100
AcDbEntity
  8
TOP ROAD LINES
420
15676953
100
AcDbVertex
100
AcDb3dPolylineVertex
 10
1412648.14999999990686774
 20
4931534.19000000040978193
 30
78.31000000000000227
 70
    32
  0
VERTEX
  5
103
330
   254
100
AcDbEntity
  8
TOP ROAD LINES
420
15676953
100
AcDbVertex
100
AcDb3dPolylineVertex
 10
1412651.5
 20
4931532.78000000026077032
 30
77.48000000000000398
 70
    32
  0
VERTEX
  5
104
330
   254
100
AcDbEntity
  8
TOP ROAD LINES
420
15676953
100
AcDbVertex
100
AcDb3dPolylineVertex
 10
1412653.73999999999068677
 20
4931532.88999999966472387
 30
76.51000000000000512
 70
    32
  0
VERTEX
  5
105
330
   254
100
AcDbEntity
  8
TOP ROAD LINES
420
15676953
100
AcDbVertex
100
AcDb3dPolylineVertex
 10
1412655.25
 20
4931533.57000000029802322
 30
75.85999999999999943
 70
    32
  0
VERTEX
  5
106
330
   254
100
AcDbEntity
  8
TOP ROAD LINES
420
15676953
100
AcDbVertex
100
AcDb3dPolylineVertex
 10
1412657.05000000004656613
 20
4931534.79999999981373549
 30
74.68000000000000682
 70
    32
  0
SEQEND
  5
107
330
   254
100
AcDbEntity
  8
TOP ROAD LINES
420
15676953
  0
POLYLINE
  5
108
330
6d
100
AcDbEntity
  8
TOP ROAD LINES
  6
CONTINUOUS
420
15676953
100
AcDb3dPolyline
 10
0.0
 20
0.0
 30
0.0
 70
     8
  0
VERTEX
  5
109
330
   264
100
AcDbEntity
  8
TOP ROAD LINES
420
15676953
100
AcDbVertex
100
AcDb3dPolylineVertex
 10
1412644.83000000007450581
 20
4931543.71999999973922968
 30
75.26999999999999602
 70
    32
  0
VERTEX
  5
10a
330
   264
100
AcDbEntity
  8
TOP ROAD LINES
420
15676953
100
AcDbVertex
100
AcDb3dPolylineVertex
 10
1412643.51000000000931323
 20
4931548.07000000029802322
 30
74.40000000000000568
 70
    32
  0
SEQEND
  5
10b
330
   264
100
AcDbEntity
  8
TOP ROAD LINES
420
15676953
  0
INSERT
  5
10c
100
AcDbEntity
100
AcDbBlockReference
  8
TOPPPLATFORM_BASELINE_STAKE_2
  2
symbolLayer0
 50
0.0
 10
1412657.56000000005587935
 20
4931536.07000000029802322
 30
73.96999999999999886
  0
INSERT
  5
10d
100
AcDbEntity
100
AcDbBlockReference
  8
TOPPPLATFORM_BASELINE_STAKE_2
  2
symbolLayer0
 50
0.0
 10
1412648.01000000000931323
 20
4931541.79999999981373549
 30
73.93000000000000682
  0
INSERT
  5
10e
100
AcDbEntity
100
AcDbBlockReference
  8
TOPPPLATFORM_BASELINE_STAKE_2
  2
symbolLayer0
 50
0.0
 10
1412634.12999999988824129
 20
4931575.78000000026077032
 30
69.04000000000000625
  0
INSERT
  5
10f
100
AcDbEntity
100
AcDbBlockReference
  8
TOPPPLATFORM_BASELINE_STAKE_2
  2
symbolLayer0
 50
0.0
 10
1412642.97999999998137355
 20
4931558.62000000011175871
 30
70.01999999999999602
  0
INSERT
  5
110
100
AcDbEntity
100
AcDbBlockReference
  8
TOPPPLATFORM_BASELINE_STAKE_2
  2
symbolLayer0
 50
0.0
 10
1412653.19999999995343387
 20
4931538.57000000029802322
 30
74.01999999999999602
  0
INSERT
  5
111
100
AcDbEntity
100
AcDbBlockReference
  8
TOPPPLATFORM_BASELINE_STAKE_2
  2
symbolLayer0
 50
0.0
 10
1412653.16999999992549419
 20
4931538.5400000000372529
 30
74.01000000000000512
  0
INSERT
  5
112
100
AcDbEntity
100
AcDbBlockReference
  8
TOPPPLATFORM_BASELINE_STAKE_2
  2
symbolLayer0
 50
0.0
 10
1412652.60000000009313226
 20
4931539.03000000026077032
 30
74.04000000000000625
  0
INSERT
  5
113
100
AcDbEntity
100
AcDbBlockReference
  8
TOPPPLATFORM_BASELINE_STAKE_2
  2
symbolLayer0
 50
0.0
 10
1412646.5
 20
4931546.58000000007450581
 30
72.62999999999999545
  0
INSERT
  5
114
100
AcDbEntity
100
AcDbBlockReference
  8
TOPPPLATFORM_BASELINE_STAKE_2
  2
symbolLayer0
 50
0.0
 10
1412646.48999999999068677
 20
4931546.58999999985098839
 30
72.51999999999999602
  0
INSERT
  5
115
100
AcDbEntity
100
AcDbBlockReference
  8
TOPPPLATFORM_BASELINE_STAKE_2
  2
symbolLayer0
 50
0.0
 10
1412645.13999999989755452
 20
4931551.37999999988824129
 30
71.37000000000000455
  0
INSERT
  5
116
100
AcDbEntity
100
AcDbBlockReference
  8
TOPPPLATFORM_BASELINE_STAKE_2
  2
symbolLayer0
 50
0.0
 10
1412643.89999999990686774
 20
4931555.98000000044703484
 30
70.40000000000000568
  0
INSERT
  5
117
100
AcDbEntity
100
AcDbBlockReference
  8
TOPPPLATFORM_BASELINE_STAKE_2
  2
symbolLayer0
 50
0.0
 10
1412643.92999999993480742
 20
4931556.01999999955296516
 30
70.32999999999999829
  0
INSERT
  5
118
100
AcDbEntity
100
AcDbBlockReference
  8
TOPPPLATFORM_BASELINE_STAKE_2
  2
symbolLayer0
 50
0.0
 10
1412640.53000000002793968
 20
4931563.16999999992549419
 30
69.98000000000000398
  0
INSERT
  5
119
100
AcDbEntity
100
AcDbBlockReference
  8
TOPPPLATFORM_BASELINE_STAKE_2
  2
symbolLayer0
 50
0.0
 10
1412640.5400000000372529
 20
4931563.13999999966472387
 30
69.92000000000000171
  0
INSERT
  5
11a
100
AcDbEntity
100
AcDbBlockReference
  8
TOPPPLATFORM_BASELINE_STAKE_2
  2
symbolLayer0
 50
0.0
 10
1412638.34000000008381903
 20
4931567.48000000044703484
 30
69.64000000000000057
  0
INSERT
  5
11b
100
AcDbEntity
100
AcDbBlockReference
  8
TOPPPLATFORM_BASELINE_STAKE_2
  2
symbolLayer0
 50
0.0
 10
1412640.52000000001862645
 20
4931563.25999999977648258
 30
70.0
  0
INSERT
  5
11c
100
AcDbEntity
100
AcDbBlockReference
  8
TOPPPLATFORM_BASELINE_STAKE_2
  2
symbolLayer0
 50
0.0
 10
1412640.5
 20
4931563.29999999981373549
 30
69.90000000000000568
  0
INSERT
  5
11d
100
AcDbEntity
100
AcDbBlockReference
  8
TOPPPLATFORM_BASELINE_STAKE_2
  2
symbolLayer0
 50
0.0
 10
1412632.2900000000372529
 20
4931574.87000000011175871
 30
69.01999999999999602
  0
INSERT
  5
11e
100
AcDbEntity
100
AcDbBlockReference
  8
TOPPPLATFORM_BASELINE_STAKE_2
  2
symbolLayer0
 50
0.0
 10
1412625.30000000004656613
 20
4931568.83000000007450581
 30
74.0
  0
INSERT
  5
11f
100
AcDbEntity
100
AcDbBlockReference
  8
TOPPPLATFORM_BASELINE_STAKE_2
  2
symbolLayer0
 50
0.0
 10
1412636.66999999992549419
 20
4931577.58000000007450581
 30
68.73000000000000398
  0
INSERT
  5
120
100
AcDbEntity
100
AcDbBlockReference
  8
TOPPPLATFORM_BASELINE_STAKE_2
  2
symbolLayer0
 50
0.0
 10
1412630.7099999999627471
 20
4931563.12999999988824129
 30
75.48999999999999488
  0
INSERT
  5
121
100
AcDbEntity
100
AcDbBlockReference
  8
TOPPPLATFORM_BASELINE_STAKE_2
  2
symbolLayer0
 50
0.0
 10
1412633.82000000006519258
 20
4931565.23000000044703484
 30
73.29000000000000625
  0
INSERT
  5
122
100
AcDbEntity
100
AcDbBlockReference
  8
TOPPPLATFORM_BASELINE_STAKE_2
  2
symbolLayer0
 50
0.0
 10
1412635.36000000010244548
 20
4931565.33999999985098839
 30
72.70999999999999375
  0
INSERT
  5
123
100
AcDbEntity
100
AcDbBlockReference
  8
TOPPPLATFORM_BASELINE_STAKE_2
  2
symbolLayer0
 50
0.0
 10
1412636.69999999995343387
 20
4931567.01999999955296516
 30
69.62000000000000455
  0
INSERT
  5
124
100
AcDbEntity
100
AcDbBlockReference
  8
TOPPPLATFORM_BASELINE_STAKE_2
  2
symbolLayer0
 50
0.0
 10
1412638.81000000005587935
 20
4931567.84999999962747097
 30
69.68000000000000682
  0
INSERT
  5
125
100
AcDbEntity
100
AcDbBlockReference
  8
TOPPPLATFORM_BASELINE_STAKE_2
  2
symbolLayer0
 50
0.0
 10
1412641.19999999995343387
 20
4931569.08999999985098839
 30
69.46999999999999886
  0
INSERT
  5
126
100
AcDbEntity
100
AcDbBlockReference
  8
TOPPPLATFORM_BASELINE_STAKE_2
  2
symbolLayer0
 50
0.0
 10
1412643.93999999994412065
 20
4931570.37000000011175871
 30
67.34000000000000341
  0
INSERT
  5
127
100
AcDbEntity
100
AcDbBlockReference
  8
TOPPPLATFORM_BASELINE_STAKE_2
  2
symbolLayer0
 50
0.0
 10
1412633.59000000008381903
 20
4931559.76999999955296516
 30
75.75
  0
INSERT
  5
128
100
AcDbEntity
100
AcDbBlockReference
  8
TOPPPLATFORM_BASELINE_STAKE_2
  2
symbolLayer0
 50
0.0
 10
1412637.43999999994412065
 20
4931561.71999999973922968
 30
73.18999999999999773
  0
INSERT
  5
129
100
AcDbEntity
100
AcDbBlockReference
  8
TOPPPLATFORM_BASELINE_STAKE_2
  2
symbolLayer0
 50
0.0
 10
1412637.15999999991618097
 20
4931553.29999999981373549
 30
76.25
  0
INSERT
  5
12a
100
AcDbEntity
100
AcDbBlockReference
  8
TOPPPLATFORM_BASELINE_STAKE_2
  2
symbolLayer0
 50
0.0
 10
1412638.9599999999627471
 20
4931549.70000000018626451
 30
76.48000000000000398
  0
INSERT
  5
12b
100
AcDbEntity
100
AcDbBlockReference
  8
TOPPPLATFORM_BASELINE_STAKE_2
  2
symbolLayer0
 50
0.0
 10
1412639.94999999995343387
 20
4931545.04999999981373549
 30
77.37999999999999545
  0
INSERT
  5
12c
100
AcDbEntity
100
AcDbBlockReference
  8
TOPPPLATFORM_BASELINE_STAKE_2
  2
symbolLayer0
 50
0.0
 10
1412644.03000000002793968
 20
4931545.58000000007450581
 30
74.81000000000000227
  0
INSERT
  5
12d
100
AcDbEntity
100
AcDbBlockReference
  8
TOPPPLATFORM_BASELINE_STAKE_2
  2
symbolLayer0
 50
0.0
 10
1412642.83000000007450581
 20
4931550.71999999973922968
 30
74.12000000000000455
  0
INSERT
  5
12e
100
AcDbEntity
100
AcDbBlockReference
  8
TOPPPLATFORM_BASELINE_STAKE_2
  2
symbolLayer0
 50
0.0
 10
1412641.77000000001862645
 20
4931555.09999999962747097
 30
73.15000000000000568
  0
INSERT
  5
12f
100
AcDbEntity
100
AcDbBlockReference
  8
TOPPPLATFORM_BASELINE_STAKE_2
  2
symbolLayer0
 50
0.0
 10
1412641.77000000001862645
 20
4931555.08999999985098839
 30
73.14000000000000057
  0
INSERT
  5
130
100
AcDbEntity
100
AcDbBlockReference
  8
TOPPPLATFORM_BASELINE_STAKE_2
  2
symbolLayer0
 50
0.0
 10
1412637.37999999988824129
 20
4931553.32000000029802322
 30
76.18999999999999773
  0
INSERT
  5
131
100
AcDbEntity
100
AcDbBlockReference
  8
TOPPPLATFORM_BASELINE_STAKE_2
  2
symbolLayer0
 50
0.0
 10
1412640.89999999990686774
 20
4931557.48000000044703484
 30
72.81000000000000227
  0
INSERT
  5
132
100
AcDbEntity
100
AcDbBlockReference
  8
TOPPPLATFORM_BASELINE_STAKE_2
  2
symbolLayer0
 50
0.0
 10
1412640.90999999991618097
 20
4931563.62000000011175871
 30
69.87000000000000455
  0
INSERT
  5
133
100
AcDbEntity
100
AcDbBlockReference
  8
TOPPPLATFORM_BASELINE_STAKE_2
  2
symbolLayer0
 50
0.0
 10
1412643.38999999989755452
 20
4931564.94000000040978193
 30
69.57999999999999829
  0
INSERT
  5
134
100
AcDbEntity
100
AcDbBlockReference
  8
TOPPPLATFORM_BASELINE_STAKE_2
  2
symbolLayer0
 50
0.0
 10
1412646.30000000004656613
 20
4931566.87000000011175871
 30
67.31000000000000227
  0
INSERT
  5
135
100
AcDbEntity
100
AcDbBlockReference
  8
TOPPPLATFORM_BASELINE_STAKE_2
  2
symbolLayer0
 50
0.0
 10
1412643.90999999991618097
 20
4931559.12999999988824129
 30
69.81000000000000227
  0
INSERT
  5
136
100
AcDbEntity
100
AcDbBlockReference
  8
TOPPPLATFORM_BASELINE_STAKE_2
  2
symbolLayer0
 50
0.0
 10
1412646.64999999990686774
 20
4931561.12999999988824129
 30
69.48999999999999488
  0
INSERT
  5
137
100
AcDbEntity
100
AcDbBlockReference
  8
TOPPPLATFORM_BASELINE_STAKE_2
  2
symbolLayer0
 50
0.0
 10
1412649.07000000006519258
 20
4931562.5
 30
67.43000000000000682
  0
INSERT
  5
138
100
AcDbEntity
100
AcDbBlockReference
  8
TOPPPLATFORM_BASELINE_STAKE_2
  2
symbolLayer0
 50
0.0
 10
1412639.35000000009313226
 20
4931562.82000000029802322
 30
69.95999999999999375
  0
INSERT
  5
139
100
AcDbEntity
100
AcDbBlockReference
  8
TOPPPLATFORM_BASELINE_STAKE_2
  2
symbolLayer0
 50
0.0
 10
1412641.62000000011175871
 20
4931558.46999999973922968
 30
70.21999999999999886
  0
INSERT
  5
13a
100
AcDbEntity
100
AcDbBlockReference
  8
TOPPPLATFORM_BASELINE_STAKE_2
  2
symbolLayer0
 50
0.0
 10
1412642.44999999995343387
 20
4931555.84999999962747097
 30
70.65999999999999659
  0
INSERT
  5
13b
100
AcDbEntity
100
AcDbBlockReference
  8
TOPPPLATFORM_BASELINE_STAKE_2
  2
symbolLayer0
 50
0.0
 10
1412643.32000000006519258
 20
4931551.37000000011175871
 30
71.65000000000000568
  0
INSERT
  5
13c
100
AcDbEntity
100
AcDbBlockReference
  8
TOPPPLATFORM_BASELINE_STAKE_2
  2
symbolLayer0
 50
0.0
 10
1412646.83000000007450581
 20
4931552.09999999962747097
 30
71.34000000000000341
  0
INSERT
  5
13d
100
AcDbEntity
100
AcDbBlockReference
  8
TOPPPLATFORM_BASELINE_STAKE_2
  2
symbolLayer0
 50
0.0
 10
1412648.63999999989755452
 20
4931552.67999999970197678
 30
70.68999999999999773
  0
INSERT
  5
13e
100
AcDbEntity
100
AcDbBlockReference
  8
TOPPPLATFORM_BASELINE_STAKE_2
  2
symbolLayer0
 50
0.0
 10
1412649.92999999993480742
 20
4931553.86000000033527613
 30
69.14000000000000057
  0
INSERT
  5
13f
100
AcDbEntity
100
AcDbBlockReference
  8
TOPPPLATFORM_BASELINE_STAKE_2
  2
symbolLayer0
 50
0.0
 10
1412652.25
 20
4931556.86000000033527613
 30
68.79999999999999716
  0
INSERT
  5
140
100
AcDbEntity
100
AcDbBlockReference
  8
TOPPPLATFORM_BASELINE_STAKE_2
  2
symbolLayer0
 50
0.0
 10
1412653.86000000010244548
 20
4931558.50999999977648258
 30
67.32999999999999829
  0
INSERT
  5
141
100
AcDbEntity
100
AcDbBlockReference
  8
TOPPPLATFORM_BASELINE_STAKE_2
  2
symbolLayer0
 50
0.0
 10
1412649.35000000009313226
 20
4931558.7900000000372529
 30
69.21999999999999886
  0
INSERT
  5
142
100
AcDbEntity
100
AcDbBlockReference
  8
TOPPPLATFORM_BASELINE_STAKE_2
  2
symbolLayer0
 50
0.0
 10
1412651.91999999992549419
 20
4931561.54999999981373549
 30
66.79999999999999716
  0
INSERT
  5
143
100
AcDbEntity
100
AcDbBlockReference
  8
TOPPPLATFORM_BASELINE_STAKE_2
  2
symbolLayer0
 50
0.0
 10
1412648.59000000008381903
 20
4931563.5
 30
67.54000000000000625
  0
INSERT
  5
144
100
AcDbEntity
100
AcDbBlockReference
  8
TOPPPLATFORM_BASELINE_STAKE_2
  2
symbolLayer0
 50
0.0
 10
1412644.91999999992549419
 20
4931546.0400000000372529
 30
72.93999999999999773
  0
INSERT
  5
145
100
AcDbEntity
100
AcDbBlockReference
  8
TOPPPLATFORM_BASELINE_STAKE_2
  2
symbolLayer0
 50
0.0
 10
1412647.86000000010244548
 20
4931547.23000000044703484
 30
72.96999999999999886
  0
INSERT
  5
146
100
AcDbEntity
100
AcDbBlockReference
  8
TOPPPLATFORM_BASELINE_STAKE_2
  2
symbolLayer0
 50
0.0
 10
1412650.18999999994412065
 20
4931548.28000000026077032
 30
72.03000000000000114
  0
INSERT
  5
147
100
AcDbEntity
100
AcDbBlockReference
  8
TOPPPLATFORM_BASELINE_STAKE_2
  2
symbolLayer0
 50
0.0
 10
1412652.64999999990686774
 20
4931550.57000000029802322
 30
70.12000000000000455
  0
INSERT
  5
148
100
AcDbEntity
100
AcDbBlockReference
  8
TOPPPLATFORM_BASELINE_STAKE_2
  2
symbolLayer0
 50
0.0
 10
1412646.71999999997206032
 20
4931540.98000000044703484
 30
74.04000000000000625
  0
INSERT
  5
149
100
AcDbEntity
100
AcDbBlockReference
  8
TOPPPLATFORM_BASELINE_STAKE_2
  2
symbolLayer0
 50
0.0
 10
1412650.5
 20
4931544.61000000033527613
 30
73.73000000000000398
  0
INSERT
  5
14a
100
AcDbEntity
100
AcDbBlockReference
  8
TOPPPLATFORM_BASELINE_STAKE_2
  2
symbolLayer0
 50
0.0
 10
1412651.77000000001862645
 20
4931540.5400000000372529
 30
74.18000000000000682
  0
INSERT
  5
14b
100
AcDbEntity
100
AcDbBlockReference
  8
TOPPPLATFORM_BASELINE_STAKE_2
  2
symbolLayer0
 50
0.0
 10
1412651.7900000000372529
 20
4931547.23000000044703484
 30
72.18999999999999773
  0
INSERT
  5
14c
100
AcDbEntity
100
AcDbBlockReference
  8
TOPPPLATFORM_BASELINE_STAKE_2
  2
symbolLayer0
 50
0.0
 10
1412649.31000000005587935
 20
4931535.87999999988824129
 30
74.39000000000000057
  0
INSERT
  5
14d
100
AcDbEntity
100
AcDbBlockReference
  8
TOPPPLATFORM_BASELINE_STAKE_2
  2
symbolLayer0
 50
0.0
 10
1412655.33000000007450581
 20
4931542.20000000018626451
 30
73.79999999999999716
  0
INSERT
  5
14e
100
AcDbEntity
100
AcDbBlockReference
  8
TOPPPLATFORM_BASELINE_STAKE_2
  2
symbolLayer0
 50
0.0
 10
1412656.7900000000372529
 20
4931544.88999999966472387
 30
73.54999999999999716
  0
INSERT
  5
14f
100
AcDbEntity
100
AcDbBlockReference
  8
TOPPPLATFORM_BASELINE_STAKE_2
  2
symbolLayer0
 50
0.0
 10
1412656.42999999993480742
 20
4931532.80999999959021807
 30
75.78000000000000114
  0
INSERT
  5
150
100
AcDbEntity
100
AcDbBlockReference
  8
TOPPPLATFORM_BASELINE_STAKE_2
  2
symbolLayer0
 50
0.0
 10
1412657.08000000007450581
 20
4931534.78000000026077032
 30
74.73999999999999488
  0
INSERT
  5
151
100
AcDbEntity
100
AcDbBlockReference
  8
TOPPPLATFORM_BASELINE_STAKE_2
  2
symbolLayer0
 50
0.0
 10
1412658.57000000006519258
 20
4931539.2900000000372529
 30
73.51999999999999602
  0
INSERT
  5
152
100
AcDbEntity
100
AcDbBlockReference
  8
TOPPPLATFORM_BASELINE_STAKE_2
  2
symbolLayer0
 50
0.0
 10
1412658.57000000006519258
 20
4931539.2900000000372529
 30
73.51999999999999602
  0
INSERT
  5
153
100
AcDbEntity
100
AcDbBlockReference
  8
TOPPPLATFORM_BASELINE_STAKE_2
  2
symbolLayer0
 50
0.0
 10
1412659.61000000010244548
 20
4931542.58999999985098839
 30
72.01000000000000512
  0
INSERT
  5
154
100
AcDbEntity
100
AcDbBlockReference
  8
TOPPPLATFORM_BASELINE_STAKE_2
  2
symbolLayer0
 50
0.0
 10
1412649.48999999999068677
 20
4931530.75999999977648258
 30
78.90999999999999659
  0
INSERT
  5
155
100
AcDbEntity
100
AcDbBlockReference
  8
TOPPPLATFORM_BASELINE_STAKE_2
  2
symbolLayer0
 50
0.0
 10
1412647.08000000007450581
 20
4931532.03000000026077032
 30
79.34000000000000341
  0
INSERT
  5
156
100
AcDbEntity
100
AcDbBlockReference
  8
TOPPPLATFORM_BASELINE_STAKE_2
  2
symbolLayer0
 50
0.0
 10
1412648.94999999995343387
 20
4931533.20000000018626451
 30
78.31999999999999318
  0
INSERT
  5
157
100
AcDbEntity
100
AcDbBlockReference
  8
TOPPPLATFORM_BASELINE_STAKE_2
  2
symbolLayer0
 50
0.0
 10
1412643.92999999993480742
 20
4931538.71999999973922968
 30
77.92000000000000171
  0
INSERT
  5
158
100
AcDbEntity
100
AcDbBlockReference
  8
TOPPPLATFORM_BASELINE_STAKE_2
  2
symbolLayer0
 50
0.0
 10
1412645.67999999993480742
 20
4931540.09999999962747097
 30
76.71999999999999886
  0
INSERT
  5
159
100
AcDbEntity
100
AcDbBlockReference
  8
TOPPLATFORM BASELINE STAKE entities
  2
symbolLayer1
 50
0.0
 10
1412657.56000000005587935
 20
4931536.07000000029802322
 30
73.96999999999999886
  0
INSERT
  5
15a
100
AcDbEntity
100
AcDbBlockReference
  8
TOPPLATFORM BASELINE STAKE entities
  2
symbolLayer1
 50
0.0
 10
1412648.01000000000931323
 20
4931541.79999999981373549
 30
73.93000000000000682
  0
INSERT
  5
15b
100
AcDbEntity
100
AcDbBlockReference
  8
TOPPLATFORM BASELINE STAKE entities
  2
symbolLayer1
 50
0.0
 10
1412634.12999999988824129
 20
4931575.78000000026077032
 30
69.04000000000000625
  0
INSERT
  5
15c
100
AcDbEntity
100
AcDbBlockReference
  8
TOPPLATFORM BASELINE STAKE entities
  2
symbolLayer1
 50
0.0
 10
1412642.97999999998137355
 20
4931558.62000000011175871
 30
70.01999999999999602
  0
INSERT
  5
15d
100
AcDbEntity
100
AcDbBlockReference
  8
TOPPLATFORM BASELINE STAKE entities
  2
symbolLayer1
 50
0.0
 10
1412653.19999999995343387
 20
4931538.57000000029802322
 30
74.01999999999999602
  0
INSERT
  5
15e
100
AcDbEntity
100
AcDbBlockReference
  8
TOPPLATFORM BASELINE STAKE entities
  2
symbolLayer1
 50
0.0
 10
1412653.16999999992549419
 20
4931538.5400000000372529
 30
74.01000000000000512
  0
INSERT
  5
15f
100
AcDbEntity
100
AcDbBlockReference
  8
TOPPLATFORM BASELINE STAKE entities
  2
symbolLayer1
 50
0.0
 10
1412652.60000000009313226
 20
4931539.03000000026077032
 30
74.04000000000000625
  0
INSERT
  5
160
100
AcDbEntity
100
AcDbBlockReference
  8
TOPPLATFORM BASELINE STAKE entities
  2
symbolLayer1
 50
0.0
 10
1412646.5
 20
4931546.58000000007450581
 30
72.62999999999999545
  0
INSERT
  5
161
100
AcDbEntity
100
AcDbBlockReference
  8
TOPPLATFORM BASELINE STAKE entities
  2
symbolLayer1
 50
0.0
 10
1412646.48999999999068677
 20
4931546.58999999985098839
 30
72.51999999999999602
  0
INSERT
  5
162
100
AcDbEntity
100
AcDbBlockReference
  8
TOPPLATFORM BASELINE STAKE entities
  2
symbolLayer1
 50
0.0
 10
1412645.13999999989755452
 20
4931551.37999999988824129
 30
71.37000000000000455
  0
INSERT
  5
163
100
AcDbEntity
100
AcDbBlockReference
  8
TOPPLATFORM BASELINE STAKE entities
  2
symbolLayer1
 50
0.0
 10
1412643.89999999990686774
 20
4931555.98000000044703484
 30
70.40000000000000568
  0
INSERT
  5
164
100
AcDbEntity
100
AcDbBlockReference
  8
TOPPLATFORM BASELINE STAKE entities
  2
symbolLayer1
 50
0.0
 10
1412643.92999999993480742
 20
4931556.01999999955296516
 30
70.32999999999999829
  0
INSERT
  5
165
100
AcDbEntity
100
AcDbBlockReference
  8
TOPPLATFORM BASELINE STAKE entities
  2
symbolLayer1
 50
0.0
 10
1412640.53000000002793968
 20
4931563.16999999992549419
 30
69.98000000000000398
  0
INSERT
  5
166
100
AcDbEntity
100
AcDbBlockReference
  8
TOPPLATFORM BASELINE STAKE entities
  2
symbolLayer1
 50
0.0
 10
1412640.5400000000372529
 20
4931563.13999999966472387
 30
69.92000000000000171
  0
INSERT
  5
167
100
AcDbEntity
100
AcDbBlockReference
  8
TOPPLATFORM BASELINE STAKE entities
  2
symbolLayer1
 50
0.0
 10
1412638.34000000008381903
 20
4931567.48000000044703484
 30
69.64000000000000057
  0
INSERT
  5
168
100
AcDbEntity
100
AcDbBlockReference
  8
TOPPLATFORM BASELINE STAKE entities
  2
symbolLayer1
 50
0.0
 10
1412640.52000000001862645
 20
4931563.25999999977648258
 30
70.0
  0
INSERT
  5
169
100
AcDbEntity
100
AcDbBlockReference
  8
TOPPLATFORM BASELINE STAKE entities
  2
symbolLayer1
 50
0.0
 10
1412640.5
 20
4931563.29999999981373549
 30
69.90000000000000568
  0
INSERT
  5
16a
100
AcDbEntity
100
AcDbBlockReference
  8
TOPPLATFORM BASELINE STAKE entities
  2
symbolLayer1
 50
0.0
 10
1412632.2900000000372529
 20
4931574.87000000011175871
 30
69.01999999999999602
  0
INSERT
  5
16b
100
AcDbEntity
100
AcDbBlockReference
  8
TOPPLATFORM BASELINE STAKE entities
  2
symbolLayer1
 50
0.0
 10
1412625.30000000004656613
 20
4931568.83000000007450581
 30
74.0
  0
INSERT
  5
16c
100
AcDbEntity
100
AcDbBlockReference
  8
TOPPLATFORM BASELINE STAKE entities
  2
symbolLayer1
 50
0.0
 10
1412636.66999999992549419
 20
4931577.58000000007450581
 30
68.73000000000000398
  0
INSERT
  5
16d
100
AcDbEntity
100
AcDbBlockReference
  8
TOPPLATFORM BASELINE STAKE entities
  2
symbolLayer1
 50
0.0
 10
1412630.7099999999627471
 20
4931563.12999999988824129
 30
75.48999999999999488
  0
INSERT
  5
16e
100
AcDbEntity
100
AcDbBlockReference
  8
TOPPLATFORM BASELINE STAKE entities
  2
symbolLayer1
 50
0.0
 10
1412633.82000000006519258
 20
4931565.23000000044703484
 30
73.29000000000000625
  0
INSERT
  5
16f
100
AcDbEntity
100
AcDbBlockReference
  8
TOPPLATFORM BASELINE STAKE entities
  2
symbolLayer1
 50
0.0
 10
1412635.36000000010244548
 20
4931565.33999999985098839
 30
72.70999999999999375
  0
INSERT
  5
170
100
AcDbEntity
100
AcDbBlockReference
  8
TOPPLATFORM BASELINE STAKE entities
  2
symbolLayer1
 50
0.0
 10
1412636.69999999995343387
 20
4931567.01999999955296516
 30
69.62000000000000455
  0
INSERT
  5
171
100
AcDbEntity
100
AcDbBlockReference
  8
TOPPLATFORM BASELINE STAKE entities
  2
symbolLayer1
 50
0.0
 10
1412638.81000000005587935
 20
4931567.84999999962747097
 30
69.68000000000000682
  0
INSERT
  5
172
100
AcDbEntity
100
AcDbBlockReference
  8
TOPPLATFORM BASELINE STAKE entities
  2
symbolLayer1
 50
0.0
 10
1412641.19999999995343387
 20
4931569.08999999985098839
 30
69.46999999999999886
  0
INSERT
  5
173
100
AcDbEntity
100
AcDbBlockReference
  8
TOPPLATFORM BASELINE STAKE entities
  2
symbolLayer1
 50
0.0
 10
1412643.93999999994412065
 20
4931570.37000000011175871
 30
67.34000000000000341
  0
INSERT
  5
174
100
AcDbEntity
100
AcDbBlockReference
  8
TOPPLATFORM BASELINE STAKE entities
  2
symbolLayer1
 50
0.0
 10
1412633.59000000008381903
 20
4931559.76999999955296516
 30
75.75
  0
INSERT
  5
175
100
AcDbEntity
100
AcDbBlockReference
  8
TOPPLATFORM BASELINE STAKE entities
  2
symbolLayer1
 50
0.0
 10
1412637.43999999994412065
 20
4931561.71999999973922968
 30
73.18999999999999773
  0
INSERT
  5
176
100
AcDbEntity
100
AcDbBlockReference
  8
TOPPLATFORM BASELINE STAKE entities
  2
symbolLayer1
 50
0.0
 10
1412637.15999999991618097
 20
4931553.29999999981373549
 30
76.25
  0
INSERT
  5
177
100
AcDbEntity
100
AcDbBlockReference
  8
TOPPLATFORM BASELINE STAKE entities
  2
symbolLayer1
 50
0.0
 10
1412638.9599999999627471
 20
4931549.70000000018626451
 30
76.48000000000000398
  0
INSERT
  5
178
100
AcDbEntity
100
AcDbBlockReference
  8
TOPPLATFORM BASELINE STAKE entities
  2
symbolLayer1
 50
0.0
 10
1412639.94999999995343387
 20
4931545.04999999981373549
 30
77.37999999999999545
  0
INSERT
  5
179
100
AcDbEntity
100
AcDbBlockReference
  8
TOPPLATFORM BASELINE STAKE entities
  2
symbolLayer1
 50
0.0
 10
1412644.03000000002793968
 20
4931545.58000000007450581
 30
74.81000000000000227
  0
INSERT
  5
17a
100
AcDbEntity
100
AcDbBlockReference
  8
TOPPLATFORM BASELINE STAKE entities
  2
symbolLayer1
 50
0.0
 10
1412642.83000000007450581
 20
4931550.71999999973922968
 30
74.12000000000000455
  0
INSERT
  5
17b
100
AcDbEntity
100
AcDbBlockReference
  8
TOPPLATFORM BASELINE STAKE entities
  2
symbolLayer1
 50
0.0
 10
1412641.77000000001862645
 20
4931555.09999999962747097
 30
73.15000000000000568
  0
INSERT
  5
17c
100
AcDbEntity
100
AcDbBlockReference
  8
TOPPLATFORM BASELINE STAKE entities
  2
symbolLayer1
 50
0.0
 10
1412641.77000000001862645
 20
4931555.08999999985098839
 30
73.14000000000000057
  0
INSERT
  5
17d
100
AcDbEntity
100
AcDbBlockReference
  8
TOPPLATFORM BASELINE STAKE entities
  2
symbolLayer1
 50
0.0
 10
1412637.37999999988824129
 20
4931553.32000000029802322
 30
76.18999999999999773
  0
INSERT
  5
17e
100
AcDbEntity
100
AcDbBlockReference
  8
TOPPLATFORM BASELINE STAKE entities
  2
symbolLayer1
 50
0.0
 10
1412640.89999999990686774
 20
4931557.48000000044703484
 30
72.81000000000000227
  0
INSERT
  5
17f
100
AcDbEntity
100
AcDbBlockReference
  8
TOPPLATFORM BASELINE STAKE entities
  2
symbolLayer1
 50
0.0
 10
1412640.90999999991618097
 20
4931563.62000000011175871
 30
69.87000000000000455
  0
INSERT
  5
180
100
AcDbEntity
100
AcDbBlockReference
  8
TOPPLATFORM BASELINE STAKE entities
  2
symbolLayer1
 50
0.0
 10
1412643.38999999989755452
 20
4931564.94000000040978193
 30
69.57999999999999829
  0
INSERT
  5
181
100
AcDbEntity
100
AcDbBlockReference
  8
TOPPLATFORM BASELINE STAKE entities
  2
symbolLayer1
 50
0.0
 10
1412646.30000000004656613
 20
4931566.87000000011175871
 30
67.31000000000000227
  0
INSERT
  5
182
100
AcDbEntity
100
AcDbBlockReference
  8
TOPPLATFORM BASELINE STAKE entities
  2
symbolLayer1
 50
0.0
 10
1412643.90999999991618097
 20
4931559.12999999988824129
 30
69.81000000000000227
  0
INSERT
  5
183
100
AcDbEntity
100
AcDbBlockReference
  8
TOPPLATFORM BASELINE STAKE entities
  2
symbolLayer1
 50
0.0
 10
1412646.64999999990686774
 20
4931561.12999999988824129
 30
69.48999999999999488
  0
INSERT
  5
184
100
AcDbEntity
100
AcDbBlockReference
  8
TOPPLATFORM BASELINE STAKE entities
  2
symbolLayer1
 50
0.0
 10
1412649.07000000006519258
 20
4931562.5
 30
67.43000000000000682
  0
INSERT
  5
185
100
AcDbEntity
100
AcDbBlockReference
  8
TOPPLATFORM BASELINE STAKE entities
  2
symbolLayer1
 50
0.0
 10
1412639.35000000009313226
 20
4931562.82000000029802322
 30
69.95999999999999375
  0
INSERT
  5
186
100
AcDbEntity
100
AcDbBlockReference
  8
TOPPLATFORM BASELINE STAKE entities
  2
symbolLayer1
 50
0.0
 10
1412641.62000000011175871
 20
4931558.46999999973922968
 30
70.21999999999999886
  0
INSERT
  5
187
100
AcDbEntity
100
AcDbBlockReference
  8
TOPPLATFORM BASELINE STAKE entities
  2
symbolLayer1
 50
0.0
 10
1412642.44999999995343387
 20
4931555.84999999962747097
 30
70.65999999999999659
  0
INSERT
  5
188
100
AcDbEntity
100
AcDbBlockReference
  8
TOPPLATFORM BASELINE STAKE entities
  2
symbolLayer1
 50
0.0
 10
1412643.32000000006519258
 20
4931551.37000000011175871
 30
71.65000000000000568
  0
INSERT
  5
189
100
AcDbEntity
100
AcDbBlockReference
  8
TOPPLATFORM BASELINE STAKE entities
  2
symbolLayer1
 50
0.0
 10
1412646.83000000007450581
 20
4931552.09999999962747097
 30
71.34000000000000341
  0
INSERT
  5
18a
100
AcDbEntity
100
AcDbBlockReference
  8
TOPPLATFORM BASELINE STAKE entities
  2
symbolLayer1
 50
0.0
 10
1412648.63999999989755452
 20
4931552.67999999970197678
 30
70.68999999999999773
  0
INSERT
  5
18b
100
AcDbEntity
100
AcDbBlockReference
  8
TOPPLATFORM BASELINE STAKE entities
  2
symbolLayer1
 50
0.0
 10
1412649.92999999993480742
 20
4931553.86000000033527613
 30
69.14000000000000057
  0
INSERT
  5
18c
100
AcDbEntity
100
AcDbBlockReference
  8
TOPPLATFORM BASELINE STAKE entities
  2
symbolLayer1
 50
0.0
 10
1412652.25
 20
4931556.86000000033527613
 30
68.79999999999999716
  0
INSERT
  5
18d
100
AcDbEntity
100
AcDbBlockReference
  8
TOPPLATFORM BASELINE STAKE entities
  2
symbolLayer1
 50
0.0
 10
1412653.86000000010244548
 20
4931558.50999999977648258
 30
67.32999999999999829
  0
INSERT
  5
18e
100
AcDbEntity
100
AcDbBlockReference
  8
TOPPLATFORM BASELINE STAKE entities
  2
symbolLayer1
 50
0.0
 10
1412649.35000000009313226
 20
4931558.7900000000372529
 30
69.21999999999999886
  0
INSERT
  5
18f
100
AcDbEntity
100
AcDbBlockReference
  8
TOPPLATFORM BASELINE STAKE entities
  2
symbolLayer1
 50
0.0
 10
1412651.91999999992549419
 20
4931561.54999999981373549
 30
66.79999999999999716
  0
INSERT
  5
190
100
AcDbEntity
100
AcDbBlockReference
  8
TOPPLATFORM BASELINE STAKE entities
  2
symbolLayer1
 50
0.0
 10
1412648.59000000008381903
 20
4931563.5
 30
67.54000000000000625
  0
INSERT
  5
191
100
AcDbEntity
100
AcDbBlockReference
  8
TOPPLATFORM BASELINE STAKE entities
  2
symbolLayer1
 50
0.0
 10
1412644.91999999992549419
 20
4931546.0400000000372529
 30
72.93999999999999773
  0
INSERT
  5
192
100
AcDbEntity
100
AcDbBlockReference
  8
TOPPLATFORM BASELINE STAKE entities
  2
symbolLayer1
 50
0.0
 10
1412647.86000000010244548
 20
4931547.23000000044703484
 30
72.96999999999999886
  0
INSERT
  5
193
100
AcDbEntity
100
AcDbBlockReference
  8
TOPPLATFORM BASELINE STAKE entities
  2
symbolLayer1
 50
0.0
 10
1412650.18999999994412065
 20
4931548.28000000026077032
 30
72.03000000000000114
  0
INSERT
  5
194
100
AcDbEntity
100
AcDbBlockReference
  8
TOPPLATFORM BASELINE STAKE entities
  2
symbolLayer1
 50
0.0
 10
1412652.64999999990686774
 20
4931550.57000000029802322
 30
70.12000000000000455
  0
INSERT
  5
195
100
AcDbEntity
100
AcDbBlockReference
  8
TOPPLATFORM BASELINE STAKE entities
  2
symbolLayer1
 50
0.0
 10
1412646.71999999997206032
 20
4931540.98000000044703484
 30
74.04000000000000625
  0
INSERT
  5
196
100
AcDbEntity
100
AcDbBlockReference
  8
TOPPLATFORM BASELINE STAKE entities
  2
symbolLayer1
 50
0.0
 10
1412650.5
 20
4931544.61000000033527613
 30
73.73000000000000398
  0
INSERT
  5
197
100
AcDbEntity
100
AcDbBlockReference
  8
TOPPLATFORM BASELINE STAKE entities
  2
symbolLayer1
 50
0.0
 10
1412651.77000000001862645
 20
4931540.5400000000372529
 30
74.18000000000000682
  0
INSERT
  5
198
100
AcDbEntity
100
AcDbBlockReference
  8
TOPPLATFORM BASELINE STAKE entities
  2
symbolLayer1
 50
0.0
 10
1412651.7900000000372529
 20
4931547.23000000044703484
 30
72.18999999999999773
  0
INSERT
  5
199
100
AcDbEntity
100
AcDbBlockReference
  8
TOPPLATFORM BASELINE STAKE entities
  2
symbolLayer1
 50
0.0
 10
1412649.31000000005587935
 20
4931535.87999999988824129
 30
74.39000000000000057
  0
INSERT
  5
19a
100
AcDbEntity
100
AcDbBlockReference
  8
TOPPLATFORM BASELINE STAKE entities
  2
symbolLayer1
 50
0.0
 10
1412655.33000000007450581
 20
4931542.20000000018626451
 30
73.79999999999999716
  0
INSERT
  5
19b
100
AcDbEntity
100
AcDbBlockReference
  8
TOPPLATFORM BASELINE STAKE entities
  2
symbolLayer1
 50
0.0
 10
1412656.7900000000372529
 20
4931544.88999999966472387
 30
73.54999999999999716
  0
INSERT
  5
19c
100
AcDbEntity
100
AcDbBlockReference
  8
TOPPLATFORM BASELINE STAKE entities
  2
symbolLayer1
 50
0.0
 10
1412656.42999999993480742
 20
4931532.80999999959021807
 30
75.78000000000000114
  0
INSERT
  5
19d
100
AcDbEntity
100
AcDbBlockReference
  8
TOPPLATFORM BASELINE STAKE entities
  2
symbolLayer1
 50
0.0
 10
1412657.08000000007450581
 20
4931534.78000000026077032
 30
74.73999999999999488
  0
INSERT
  5
19e
100
AcDbEntity
100
AcDbBlockReference
  8
TOPPLATFORM BASELINE STAKE entities
  2
symbolLayer1
 50
0.0
 10
1412658.57000000006519258
 20
4931539.2900000000372529
 30
73.51999999999999602
  0
INSERT
  5
19f
100
AcDbEntity
100
AcDbBlockReference
  8
TOPPLATFORM BASELINE STAKE entities
  2
symbolLayer1
 50
0.0
 10
1412658.57000000006519258
 20
4931539.2900000000372529
 30
73.51999999999999602
  0
INSERT
  5
1a0
100
AcDbEntity
100
AcDbBlockReference
  8
TOPPLATFORM BASELINE STAKE entities
  2
symbolLayer1
 50
0.0
 10
1412659.61000000010244548
 20
4931542.58999999985098839
 30
72.01000000000000512
  0
INSERT
  5
1a1
100
AcDbEntity
100
AcDbBlockReference
  8
TOPPLATFORM BASELINE STAKE entities
  2
symbolLayer1
 50
0.0
 10
1412649.48999999999068677
 20
4931530.75999999977648258
 30
78.90999999999999659
  0
INSERT
  5
1a2
100
AcDbEntity
100
AcDbBlockReference
  8
TOPPLATFORM BASELINE STAKE entities
  2
symbolLayer1
 50
0.0
 10
1412647.08000000007450581
 20
4931532.03000000026077032
 30
79.34000000000000341
  0
INSERT
  5
1a3
100
AcDbEntity
100
AcDbBlockReference
  8
TOPPLATFORM BASELINE STAKE entities
  2
symbolLayer1
 50
0.0
 10
1412648.94999999995343387
 20
4931533.20000000018626451
 30
78.31999999999999318
  0
INSERT
  5
1a4
100
AcDbEntity
100
AcDbBlockReference
  8
TOPPLATFORM BASELINE STAKE entities
  2
symbolLayer1
 50
0.0
 10
1412643.92999999993480742
 20
4931538.71999999973922968
 30
77.92000000000000171
  0
INSERT
  5
1a5
100
AcDbEntity
100
AcDbBlockReference
  8
TOPPLATFORM BASELINE STAKE entities
  2
symbolLayer1
 50
0.0
 10
1412645.67999999993480742
 20
4931540.09999999962747097
 30
76.71999999999999886
  0
INSERT
  5
1a6
100
AcDbEntity
100
AcDbBlockReference
  8
ControlBoundaryCoordinates
  2
symbolLayer2
 50
0.0
 10
1412608.07700000004842877
 20
4931556.51900000032037497
  0
INSERT
  5
1a7
100
AcDbEntity
100
AcDbBlockReference
  8
ControlBoundaryCoordinates
  2
symbolLayer2
 50
0.0
 10
1412645.43800000008195639
 20
4931524.20700000040233135
  0
INSERT
  5
1a8
100
AcDbEntity
100
AcDbBlockReference
  8
ControlBoundaryCoordinates
  2
symbolLayer2
 50
0.0
 10
1412649.65100000007078052
 20
4931531.27500000037252903
  0
INSERT
  5
1a9
100
AcDbEntity
100
AcDbBlockReference
  8
ControlBoundaryCoordinates
  2
symbolLayer2
 50
0.0
 10
1412649.66100000008009374
 20
4931531.28500000014901161
  0
INSERT
  5
1aa
100
AcDbEntity
100
AcDbBlockReference
  8
ControlBoundaryCoordinates
  2
symbolLayer2
 50
0.0
 10
1412649.65999999991618097
 20
4931531.29499999992549419
  0
INSERT
  5
1ab
100
AcDbEntity
100
AcDbBlockReference
  8
Buildings-21-08-2020
  2
symbolLayer3
 50
0.0
 10
1412684.88999999989755452
 20
4931554.51999999955296516
 30
64.76000000000000512
  0
INSERT
  5
1ac
100
AcDbEntity
100
AcDbBlockReference
  8
Buildings-21-08-2020
  2
symbolLayer3
 50
0.0
 10
1412683.91999999992549419
 20
4931556.71999999973922968
 30
65.23000000000000398
  0
INSERT
  5
1ad
100
AcDbEntity
100
AcDbBlockReference
  8
Buildings-21-08-2020
  2
symbolLayer3
 50
0.0
 10
1412686.72999999998137355
 20
4931558.04999999981373549
 30
63.28000000000000114
  0
INSERT
  5
1ae
100
AcDbEntity
100
AcDbBlockReference
  8
Buildings-21-08-2020
  2
symbolLayer3
 50
0.0
 10
1412680.02000000001862645
 20
4931558.36000000033527613
 30
62.14000000000000057
  0
INSERT
  5
1af
100
AcDbEntity
100
AcDbBlockReference
  8
Buildings-21-08-2020
  2
symbolLayer3
 50
0.0
 10
1412681.18999999994412065
 20
4931560.92999999970197678
 30
61.65999999999999659
  0
INSERT
  5
1b0
100
AcDbEntity
100
AcDbBlockReference
  8
Buildings-21-08-2020
  2
symbolLayer3
 50
0.0
 10
1412681.14999999990686774
 20
4931561.95000000018626451
 30
61.32000000000000028
  0
INSERT
  5
1b1
100
AcDbEntity
100
AcDbBlockReference
  8
Buildings-21-08-2020
  2
symbolLayer3
 50
0.0
 10
1412681.48999999999068677
 20
4931561.88999999966472387
 30
61.38000000000000256
  0
INSERT
  5
1b2
100
AcDbEntity
100
AcDbBlockReference
  8
Buildings-21-08-2020
  2
symbolLayer3
 50
0.0
 10
1412682.2099999999627471
 20
4931563.49000000022351742
 30
60.90999999999999659
  0
INSERT
  5
1b3
100
AcDbEntity
100
AcDbBlockReference
  8
Buildings-21-08-2020
  2
symbolLayer3
 50
0.0
 10
1412684.21999999997206032
 20
4931567.37000000011175871
 30
60.10999999999999943
  0
INSERT
  5
1b4
100
AcDbEntity
100
AcDbBlockReference
  8
Buildings-21-08-2020
  2
symbolLayer3
 50
0.0
 10
1412682.65999999991618097
 20
4931565.7900000000372529
 30
60.35999999999999943
  0
INSERT
  5
1b5
100
AcDbEntity
100
AcDbBlockReference
  8
Buildings-21-08-2020
  2
symbolLayer3
 50
0.0
 10
1412675.38999999989755452
 20
4931569.33999999985098839
 30
60.18999999999999773
  0
INSERT
  5
1b6
100
AcDbEntity
100
AcDbBlockReference
  8
Buildings-21-08-2020
  2
symbolLayer3
 50
0.0
 10
1412675.86000000010244548
 20
4931571.33999999985098839
 30
60.00999999999999801
  0
INSERT
  5
1b7
100
AcDbEntity
100
AcDbBlockReference
  8
Buildings-21-08-2020
  2
symbolLayer3
 50
0.0
 10
1412674.78000000002793968
 20
4931568.19000000040978193
 30
60.20000000000000284
  0
INSERT
  5
1b8
100
AcDbEntity
100
AcDbBlockReference
  8
Buildings-21-08-2020
  2
symbolLayer3
 50
0.0
 10
1412673.77000000001862645
 20
4931567.08999999985098839
 30
61.29999999999999716
  0
INSERT
  5
1b9
100
AcDbEntity
100
AcDbBlockReference
  8
Buildings-21-08-2020
  2
symbolLayer3
 50
0.0
 10
1412673.05000000004656613
 20
4931565.08999999985098839
 30
61.35999999999999943
  0
INSERT
  5
1ba
100
AcDbEntity
100
AcDbBlockReference
  8
Buildings-21-08-2020
  2
symbolLayer3
 50
0.0
 10
1412673.77000000001862645
 20
4931565.00999999977648258
 30
61.31000000000000227
  0
INSERT
  5
1bb
100
AcDbEntity
100
AcDbBlockReference
  8
Buildings-21-08-2020
  2
symbolLayer3
 50
0.0
 10
1412671.44999999995343387
 20
4931561.87000000011175871
 30
62.20000000000000284
  0
INSERT
  5
1bc
100
AcDbEntity
100
AcDbBlockReference
  8
Buildings-21-08-2020
  2
symbolLayer3
 50
0.0
 10
1412687.10700000007636845
 20
4931569.47200000006705523
 30
59.84000000000000341
  0
INSERT
  5
1bd
100
AcDbEntity
100
AcDbBlockReference
  8
Buildings-21-08-2020
  2
symbolLayer3
 50
0.0
 10
1412688.21500000008381903
 20
4931569.55900000035762787
 30
60.14000000000000057
  0
INSERT
  5
1be
100
AcDbEntity
100
AcDbBlockReference
  8
Buildings-21-08-2020
  2
symbolLayer3
 50
0.0
 10
1412686.21099999989382923
 20
4931573.75399999972432852
 30
59.82999999999999829
  0
INSERT
  5
1bf
100
AcDbEntity
100
AcDbBlockReference
  8
Buildings-21-08-2020
  2
symbolLayer3
 50
0.0
 10
1412685.68200000002980232
 20
4931577.83899999968707561
 30
59.85000000000000142
  0
INSERT
  5
1c0
100
AcDbEntity
100
AcDbBlockReference
  8
Buildings-21-08-2020
  2
symbolLayer3
 50
0.0
 10
1412687.74900000006891787
 20
4931555.89499999955296516
 30
65.18999999999999773
  0
INSERT
  5
1c1
100
AcDbEntity
100
AcDbBlockReference
  8
Buildings-21-08-2020
  2
symbolLayer3
 50
0.0
 10
1412684.80000000004656613
 20
4931554.62399999983608723
 30
65.20999999999999375
  0
INSERT
  5
1c2
100
AcDbEntity
100
AcDbBlockReference
  8
Buildings-21-08-2020
  2
symbolLayer3
 50
0.0
 10
1412650.587000000057742
 20
4931542.60400000028312206
 30
73.84000000000000341
  0
INSERT
  5
1c3
100
AcDbEntity
100
AcDbBlockReference
  8
Buildings-21-08-2020
  2
symbolLayer3
 50
0.0
 10
1412650.32899999991059303
 20
4931541.06400000024586916
 30
73.84000000000000341
  0
INSERT
  5
1c4
100
AcDbEntity
100
AcDbBlockReference
  8
Buildings-21-08-2020
  2
symbolLayer3
 50
0.0
 10
1412651.70500000007450581
 20
4931541.20100000035017729
 30
73.96999999999999886
  0
INSERT
  5
1c5
100
AcDbEntity
100
AcDbBlockReference
  8
Buildings-21-08-2020
  2
symbolLayer3
 50
0.0
 10
1412651.63500000000931323
 20
4931542.37899999972432852
 30
73.93999999999999773
  0
POLYLINE
  5
1c6
330
6d
100
AcDbEntity
  8
New scratch layer
  6
CONTINUOUS
420
14425577
100
AcDb3dPolyline
 10
0.0
 20
0.0
 30
0.0
 70
     8
  0
VERTEX
  5
1c7
330
   454
100
AcDbEntity
  8
New scratch layer
420
14425577
100
AcDbVertex
100
AcDb3dPolylineVertex
 10
1412595.91049350961111486
 20
4931638.53229929506778717
 30
0.0
 70
    32
  0
VERTEX
  5
1c8
330
   454
100
AcDbEntity
  8
New scratch layer
420
14425577
100
AcDbVertex
100
AcDb3dPolylineVertex
 10
1412621.72299999999813735
 20
4931586.6119999997317791
 30
0.0
 70
    32
  0
VERTEX
  5
1c9
330
   454
100
AcDbEntity
  8
New scratch layer
420
14425577
100
AcDbVertex
100
AcDb3dPolylineVertex
 10
1412649.66100000008009374
 20
4931531.28500000014901161
 30
0.0
 70
    32
  0
VERTEX
  5
1ca
330
   454
100
AcDbEntity
  8
New scratch layer
420
14425577
100
AcDbVertex
100
AcDb3dPolylineVertex
 10
1412777.48600000003352761
 20
4931577.68699999991804361
 30
0.0
 70
    32
  0
SEQEND
  5
1cb
330
   454
100
AcDbEntity
  8
New scratch layer
420
14425577
  0
POLYLINE
  5
1cc
330
6d
100
AcDbEntity
  8
New scratch layer
  6
CONTINUOUS
420
7072979
100
AcDb3dPolyline
 10
0.0
 20
0.0
 30
0.0
 70
     8
  0
VERTEX
  5
1cd
330
   460
100
AcDbEntity
  8
New scratch layer
420
7072979
100
AcDbVertex
100
AcDb3dPolylineVertex
 10
1412643.90999999991618097
 20
4931559.12999999988824129
 30
69.81000000000000227
 70
    32
  0
VERTEX
  5
1ce
330
   460
100
AcDbEntity
  8
New scratch layer
420
7072979
100
AcDbVertex
100
AcDb3dPolylineVertex
 10
1412634.1366916811093688
 20
4931575.92701968923211098
 30
0.0
 70
    32
  0
SEQEND
  5
1cf
330
   460
100
AcDbEntity
  8
New scratch layer
420
7072979
  0
POLYLINE
  5
1d0
330
6d
100
AcDbEntity
  8
New scratch layer
  6
CONTINUOUS
420
7072979
100
AcDb3dPolyline
 10
0.0
 20
0.0
 30
0.0
 70
     8
  0
VERTEX
  5
1d1
330
   464
100
AcDbEntity
  8
New scratch layer
420
7072979
100
AcDbVertex
100
AcDb3dPolylineVertex
 10
1412643.90999999991618097
 20
4931559.12999999988824129
 30
69.81000000000000227
 70
    32
  0
VERTEX
  5
1d2
330
   464
100
AcDbEntity
  8
New scratch layer
420
7072979
100
AcDbVertex
100
AcDb3dPolylineVertex
 10
1412648.01000000000931323
 20
4931541.79999999981373549
 30
73.93000000000000682
 70
    32
  0
SEQEND
  5
1d3
330
   464
100
AcDbEntity
  8
New scratch layer
420
7072979
  0
POLYLINE
  5
1d4
330
6d
100
AcDbEntity
  8
New scratch layer
  6
CONTINUOUS
420
7072979
100
AcDb3dPolyline
 10
0.0
 20
0.0
 30
0.0
 70
     8
  0
VERTEX
  5
1d5
330
   468
100
AcDbEntity
  8
New scratch layer
420
7072979
100
AcDbVertex
100
AcDb3dPolylineVertex
 10
1412648.01000000000931323
 20
4931541.79999999981373549
 30
73.93000000000000682
 70
    32
  0
VERTEX
  5
1d6
330
   468
100
AcDbEntity
  8
New scratch layer
420
7072979
100
AcDbVertex
100
AcDb3dPolylineVertex
 10
1412657.56000000005587935
 20
4931536.07000000029802322
 30
73.96999999999999886
 70
    32
  0
SEQEND
  5
1d7
330
   468
100
AcDbEntity
  8
New scratch layer
420
7072979
  0
LWPOLYLINE
  5
1d8
  8
TOPPPLATFORM_BASELINE_STAKE_2_field_4
100
AcDbEntity
100
AcDbPolyline
  6
CONTINUOUS
420
3075270
 90
     3
 70
   128
 43
260.0
 10
1412644.30064516118727624
 20
4931573.63387096766382456
 10
1412641.05674157291650772
 20
4931577.83033707924187183
 10
1412639.63252365938387811
 20
4931579.90523659344762564
  0
LWPOLYLINE
  5
1d9
  8
TOPPPLATFORM_BASELINE_STAKE_2_field_4
100
AcDbEntity
100
AcDbPolyline
  6
CONTINUOUS
420
3075270
 90
     3
 70
   128
 43
260.0
 10
1412649.06274193548597395
 20
4931566.08145161252468824
 10
1412642.13258426962420344
 20
4931575.04662921372801065
 10
1412639.08993690856732428
 20
4931579.47936908528208733
  0
LWPOLYLINE
  5
1da
  8
TOPPPLATFORM_BASELINE_STAKE_2_field_4
100
AcDbEntity
100
AcDbPolyline
  6
CONTINUOUS
420
3075270
 90
     8
 70
   128
 43
260.0
 10
1412652.6520754718221724
 20
4931560.40283018909394741
 10
1412651.70760330581106246
 20
4931561.32190082594752312
 10
1412651.01523809530772269
 20
4931561.85158730112016201
 10
1412651.02000000001862645
 20
4931562.07702702656388283
 10
1412649.7160784313455224
 20
4931563.63627451006323099
 10
1412648.9644444442819804
 20
4931564.81666666641831398
 10
1412643.20842696609906852
 20
4931572.26292134821414948
 10
1412638.54735015775077045
 20
4931579.05350157804787159
  0
LWPOLYLINE
  5
1db
  8
TOPPPLATFORM_BASELINE_STAKE_2_field_4
100
AcDbEntity
100
AcDbPolyline
  6
CONTINUOUS
420
3075270
 90
    16
 70
   128
 43
260.0
 10
1412654.06886752136051655
 20
4931557.9317094013094902
 10
1412653.94008038588799536
 20
4931558.13774919603019953
 10
1412653.78627240168862045
 20
4931558.02620071731507778
 10
1412653.67380952392704785
 20
4931558.31918367370963097
 10
1412653.45433862437494099
 20
4931558.53518518526107073
 10
1412651.17661157017573714
 20
4931560.75165289267897606
 10
1412649.08094972069375217
 20
4931562.35491620097309351
 10
1412648.98776699043810368
 20
4931562.45344660244882107
 10
1412648.76454545464366674
 20
4931563.13636363670229912
 10
1412648.7700000002514571
 20
4931563.39459459483623505
 10
1412648.19173913053236902
 20
4931564.08608695585280657
 10
1412646.05643171817064285
 20
4931566.70845815073698759
 10
1412643.90071428567171097
 20
4931569.98214285727590322
 10
1412643.73417840362526476
 20
4931570.27384976483881474
 10
1412643.10316546750254929
 20
4931571.19992805738002062
 10
1412638.00476340693421662
 20
4931578.6276340689510107
  0
LWPOLYLINE
  5
1dc
  8
TOPPPLATFORM_BASELINE_STAKE_2_field_4
100
AcDbEntity
100
AcDbPolyline
  6
CONTINUOUS
420
3075270
 90
    15
 70
   128
 43
260.0
 10
1412654.68318376084789634
 20
4931556.23085470125079155
 10
1412654.17561093252152205
 20
4931557.04289389029145241
 10
1412653.56942652328871191
 20
4931556.60326164867728949
 10
1412653.12619047611951828
 20
4931557.75795918330550194
 10
1412652.26121693127788603
 20
4931558.60925925895571709
 10
1412650.64561983477324247
 20
4931560.18140495847910643
 10
1412649.15916201123036444
 20
4931561.31860335171222687
 10
1412648.40038834954611957
 20
4931562.1209223298355937
 10
1412648.13235897431150079
 20
4931562.94092307705432177
 10
1412647.41745098028331995
 20
4931563.82470588199794292
 10
1412645.41546255489811301
 20
4931566.28334801830351353
 10
1412643.77794642839580774
 20
4931568.77008928544819355
 10
1412643.09098591539077461
 20
4931569.97338028158992529
 10
1412640.48805755376815796
 20
4931573.79345323704183102
 10
1412637.46217665611766279
 20
4931578.20176656171679497
  0
LWPOLYLINE
  5
1dd
  8
TOPPPLATFORM_BASELINE_STAKE_2_field_4
100
AcDbEntity
100
AcDbPolyline
  6
CONTINUOUS
420
3075270
 90
    15
 70
   128
 43
260.0
 10
1412655.29750000010244548
 20
4931554.52999999932944775
 10
1412654.41114147938787937
 20
4931555.94803858455270529
 10
1412653.35258064512163401
 20
4931555.18032258097082376
 10
1412652.57857142877765
 20
4931557.19673469383269548
 10
1412651.06809523818083107
 20
4931558.68333333358168602
 10
1412650.1146280993707478
 20
4931559.61115702427923679
 10
1412649.23737430176697671
 20
4931560.2822905033826828
 10
1412647.81300970865413547
 20
4931561.78839805908501148
 10
1412647.63492307672277093
 20
4931562.3332307692617178
 10
1412646.14294117642566562
 20
4931564.17764705885201693
 10
1412644.77449339209124446
 20
4931565.85823788493871689
 10
1412643.65517857135273516
 20
4931567.55803571455180645
 10
1412642.4477934273891151
 20
4931569.67291079834103584
 10
1412637.87294964026659727
 20
4931576.38697841763496399
 10
1412636.91958990530110896
 20
4931577.77589905355125666
  0
LWPOLYLINE
  5
1de
  8
TOPPPLATFORM_BASELINE_STAKE_2_field_4
100
AcDbEntity
100
AcDbPolyline
  6
CONTINUOUS
420
3075270
 90
    17
 70
   128
 43
260.0
 10
1412655.91181623935699463
 20
4931552.82914529927074909
 10
1412654.64667202578857541
 20
4931554.85318327881395817
 10
1412653.13573476718738675
 20
4931553.75738351233303547
 10
1412652.31060606054961681
 20
4931555.90696969721466303
 10
1412650.88529411749914289
 20
4931555.09529411792755127
 10
1412650.86904761916957796
 20
4931557.77904761955142021
 10
1412649.87497354531660676
 20
4931558.75740740727633238
 10
1412649.58363636373542249
 20
4931559.04090909101068974
 10
1412649.31558659253641963
 20
4931559.24597765412181616
 10
1412647.225631067994982
 20
4931561.45587378647178411
 10
1412647.13748717936687171
 20
4931561.72553846146911383
 10
1412644.86843137256801128
 20
4931564.53058823570609093
 10
1412644.13352422881871462
 20
4931565.4331277534365654
 10
1412643.53241071407683194
 20
4931566.34598214272409678
 10
1412641.8046009389217943
 20
4931569.37244131416082382
 10
1412638.32283783773891628
 20
4931574.48229729756712914
 10
1412634.45774193527176976
 20
4931576.0122580649331212
  0
LWPOLYLINE
  5
1df
  8
TOPPPLATFORM_BASELINE_STAKE_2_field_4
100
AcDbEntity
100
AcDbPolyline
  6
CONTINUOUS
420
3075270
 90
    21
 70
   128
 43
260.0
 10
1412656.52613247884437442
 20
4931551.12829059828072786
 10
1412654.88220257242210209
 20
4931553.75832797400653362
 10
1412652.91888888878747821
 20
4931552.33444444462656975
 10
1412652.46212121215648949
 20
4931553.52439394034445286
 10
1412650.92918367334641516
 20
4931552.65142857190221548
 10
1412649.63038709666579962
 20
4931553.58593548461794853
 10
1412648.11487394943833351
 20
4931554.51344537828117609
 10
1412647.98279279284179211
 20
4931558.09126126114279032
 10
1412646.76830508466809988
 20
4931558.95135593228042126
 10
1412646.56437500007450581
 20
4931561.06749999988824129
 10
1412646.28777777752839029
 20
4931561.55333333369344473
 10
1412643.59392156847752631
 20
4931564.88352941256016493
 10
1412643.49255506601184607
 20
4931565.00801762193441391
 10
1412643.40964285703375936
 20
4931565.13392857182770967
 10
1412641.79727272735908628
 20
4931567.95818181801587343
 10
1412640.85857142857275903
 20
4931568.91285714320838451
 10
1412637.49374999990686774
 20
4931570.08031249977648258
 10
1412636.16827586200088263
 20
4931568.83241379261016846
 10
1412635.81799999997019768
 20
4931568.58999999985098839
 10
1412632.46199063258245587
 20
4931573.78634660411626101
 10
1412631.61626506014727056
 20
4931574.28783132508397102
  0
LWPOLYLINE
  5
1e0
  8
TOPPPLATFORM_BASELINE_STAKE_2_field_4
100
AcDbEntity
100
AcDbPolyline
  6
CONTINUOUS
420
3075270
 90
    19
 70
   128
 43
260.0
 10
1412657.14044871786609292
 20
4931549.42743589729070663
 10
1412655.11773311905562878
 20
4931552.6634726682677865
 10
1412652.70204301062040031
 20
4931550.91150537692010403
 10
1412652.61363636376336217
 20
4931551.14181818254292011
 10
1412652.31693877535872161
 20
4931550.97285714372992516
 10
1412649.21425806451588869
 20
4931553.20529032312333584
 10
1412645.59386554616503417
 20
4931555.42100840341299772
 10
1412645.5413513514213264
 20
4931556.84351351298391819
 10
1412643.91730769211426377
 20
4931557.99365384597331285
 10
1412643.06857142853550613
 20
4931558.66857142839580774
 10
1412642.49200000008568168
 20
4931559.52400000020861626
 10
1412640.8279999999795109
 20
4931561.89466666616499424
 10
1412639.6992307691834867
 20
4931562.15076923090964556
 10
1412639.3263467492070049
 20
4931562.80637770891189575
 10
1412639.2919636364094913
 20
4931562.85665454622358084
 10
1412636.53521035588346422
 20
4931566.81339805852621794
 10
1412636.40179836517199874
 20
4931566.83465940039604902
 10
1412632.64114754111506045
 20
4931572.65754098445177078
 10
1412630.91445783153176308
 20
4931573.68140562251210213
  0
LWPOLYLINE
  5
1e1
  8
TOPPPLATFORM_BASELINE_STAKE_2_field_4
100
AcDbEntity
100
AcDbPolyline
  6
CONTINUOUS
420
3075270
 90
    25
 70
   128
 43
260.0
 10
1412657.75476495735347271
 20
4931547.72658119630068541
 10
1412655.35326366568915546
 20
4931551.56861736346036196
 10
1412653.10865889210253954
 20
4931549.94072886370122433
 10
1412652.49212560383602977
 20
4931549.9568599034100771
 10
1412652.1605759160593152
 20
4931550.11439790576696396
 10
1412649.97666666656732559
 20
4931551.97666666656732559
 10
1412648.79812903213314712
 20
4931552.82464516069740057
 10
1412646.15416666655801237
 20
4931554.44277777709066868
 10
1412644.41811881167814136
 20
4931555.36019801907241344
 10
1412644.21170212747529149
 20
4931555.56723404303193092
 10
1412644.02783505152910948
 20
4931555.50577319599688053
 10
1412643.85359999979846179
 20
4931555.611200001090765
 10
1412643.82226277375593781
 20
4931555.94751824904233217
 10
1412643.3423076921608299
 20
4931555.92999999970197678
 10
1412643.16757575748488307
 20
4931555.93242424167692661
 10
1412642.58250000001862645
 20
4931556.54249999951571226
 10
1412642.14818181819282472
 20
4931556.80272727273404598
 10
1412641.5421621622517705
 20
4931558.36297297291457653
 10
1412641.22592592611908913
 20
4931558.77639730647206306
 10
1412639.03068111464381218
 20
4931562.63609907124191523
 10
1412638.56650909082964063
 20
4931563.31483636330813169
 10
1412636.31838187715038657
 20
4931566.54155339766293764
 10
1412636.0094277928583324
 20
4931566.59079019073396921
 10
1412632.82030444964766502
 20
4931571.52873536292463541
 10
1412630.21265060245059431
 20
4931573.07497991994023323
  0
LWPOLYLINE
  5
1e2
  8
TOPPPLATFORM_BASELINE_STAKE_2_field_4
100
AcDbEntity
100
AcDbPolyline
  6
CONTINUOUS
420
3075270
 90
    23
 70
   128
 43
260.0
 10
1412658.36908119660802186
 20
4931546.02572649531066418
 10
1412655.58879421232268214
 20
4931550.47376205772161484
 10
1412653.71215743431821465
 20
4931549.11274052504450083
 10
1412652.28439613524824381
 20
4931549.15009661857038736
 10
1412651.51659685862250626
 20
4931549.51492146588861942
 10
1412648.99858208955265582
 20
4931551.66208955179899931
 10
1412647.77676923060789704
 20
4931552.40338461473584175
 10
1412645.85376237635500729
 20
4931553.41960396058857441
 10
1412645.77021276601590216
 20
4931553.50340425502508879
 10
1412644.66701030917465687
 20
4931553.13463917560875416
 10
1412643.62159999995492399
 20
4931553.76720000058412552
 10
1412643.43357664230279624
 20
4931555.78510948922485113
 10
1412642.35677419346757233
 20
4931555.74580645095556974
 10
1412642.35714859422296286
 20
4931555.74759036116302013
 10
1412642.20488372072577477
 20
4931556.10776744224131107
 10
1412641.40316602308303118
 20
4931558.17185328155755997
 10
1412640.52222222229465842
 20
4931559.32353535294532776
 10
1412638.73501547984778881
 20
4931562.4658204335719347
 10
1412637.8410545454826206
 20
4931563.7730181822553277
 10
1412636.10155339818447828
 20
4931566.26970873773097992
 10
1412635.61705722054466605
 20
4931566.3469209810718894
 10
1412632.99946135841310024
 20
4931570.39992974232882261
 10
1412629.51084337336942554
 20
4931572.46855421736836433
  0
LWPOLYLINE
  5
1e3
  8
TOPPPLATFORM_BASELINE_STAKE_2_field_4
100
AcDbEntity
100
AcDbPolyline
  6
CONTINUOUS
420
3075270
 90
    26
 70
   128
 43
260.0
 10
1412658.98339743609540164
 20
4931544.32487179525196552
 10
1412655.82432475872337818
 20
4931549.37890675198286772
 10
1412654.31565597653388977
 20
4931548.28475218638777733
 10
1412652.07666666666045785
 20
4931548.34333333373069763
 10
1412650.87261780072003603
 20
4931548.91544502601027489
 10
1412649.57694029854610562
 20
4931550.02029850706458092
 10
1412647.60913043492473662
 20
4931551.21420289855450392
 10
1412646.93110429449006915
 20
4931551.62196318991482258
 10
1412645.36099999980069697
 20
4931551.04281250014901161
 10
1412645.2926086955703795
 20
4931550.8385217385366559
 10
1412645.12178343953564763
 20
4931550.93783439509570599
 10
1412645.03080000006593764
 20
4931551.34879999980330467
 10
1412644.29499999992549419
 20
4931551.37535714358091354
 10
1412643.38960000011138618
 20
4931551.92320000007748604
 10
1412643.04489051084965467
 20
4931555.62270073033869267
 10
1412642.21967741940170527
 20
4931555.59258064441382885
 10
1412642.22060240944847465
 20
4931555.59698795154690742
 10
1412641.84441860462538898
 20
4931556.48683720920234919
 10
1412641.2641698841471225
 20
4931557.9807335902005434
 10
1412639.81851851847022772
 20
4931559.87067340034991503
 10
1412638.43934984528459609
 20
4931562.29554179590195417
 10
1412637.11560000013560057
 20
4931564.23120000027120113
 10
1412635.88472491921856999
 20
4931565.9978640777990222
 10
1412635.22468664846383035
 20
4931566.10305177047848701
 10
1412633.17861826717853546
 20
4931569.27112412266433239
 10
1412628.80903614452108741
 20
4931571.86212851386517286
  0
LWPOLYLINE
  5
1e4
  8
TOPPPLATFORM_BASELINE_STAKE_2_field_4
100
AcDbEntity
100
AcDbPolyline
  6
CONTINUOUS
420
3075270
 90
    26
 70
   128
 43
260.0
 10
1412659.59771367534995079
 20
4931542.62401709333062172
 10
1412656.05985530558973551
 20
4931548.2840514462441206
 10
1412654.91915451874956489
 20
4931547.4567638486623764
 10
1412651.86893719830550253
 20
4931547.5365700488910079
 10
1412650.22863874328322709
 20
4931548.31596858706325293
 10
1412650.15529850730672479
 20
4931548.3785074632614851
 10
1412650.04391304356977344
 20
4931548.44608695711940527
 10
1412647.24705521482974291
 20
4931550.12809816002845764
 10
1412646.21100000012665987
 20
4931549.74593750014901161
 10
1412645.8795652175322175
 20
4931548.75591304339468479
 10
1412645.05171974515542388
 20
4931549.23719745222479105
 10
1412644.6107999999076128
 20
4931551.22879999969154596
 10
1412643.25056680175475776
 20
4931551.27789473719894886
 10
1412642.95590604050084949
 20
4931552.24382550362497568
 10
1412642.65620437962934375
 20
4931555.4602919714525342
 10
1412642.08258064510300756
 20
4931555.43935483880341053
 10
1412642.08405622467398643
 20
4931555.44638554193079472
 10
1412641.48395348829217255
 20
4931556.8659069761633873
 10
1412641.12517374521121383
 20
4931557.78961389977484941
 10
1412639.11481481487862766
 20
4931560.4178114477545023
 10
1412638.14368421048857272
 20
4931562.12526315730065107
 10
1412636.39014545478858054
 20
4931564.68938181828707457
 10
1412635.66789644025266171
 20
4931565.72601941786706448
 10
1412634.83231607638299465
 20
4931565.85918256174772978
 10
1412633.35777517571114004
 20
4931568.14231850113719702
 10
1412628.10722891567274928
 20
4931571.25570281129330397
  0
LWPOLYLINE
  5
1e5
  8
TOPPPLATFORM_BASELINE_STAKE_2_field_4
100
AcDbEntity
100
AcDbPolyline
  6
CONTINUOUS
420
3075270
 90
    29
 70
   128
 43
260.0
 10
1412659.27251655654981732
 20
4931541.51913907285779715
 10
1412658.43837988842278719
 20
4931542.48324022348970175
 10
1412658.71272727288305759
 20
4931543.32181818131357431
 10
1412656.29538585199043155
 20
4931547.18919614143669605
 10
1412655.52265306096524
 20
4931546.62877550907433033
 10
1412652.92970588244497776
 20
4931546.69661764707416296
 10
1412652.47161490679718554
 20
4931546.26149068400263786
 10
1412651.53032467537559569
 20
4931546.70259740296751261
 10
1412650.27570588234812021
 20
4931547.26535294204950333
 10
1412649.02499999990686774
 20
4931547.75500000081956387
 10
1412647.56300613516941667
 20
4931548.63423312827944756
 10
1412647.06099999998696148
 20
4931548.44906250014901161
 10
1412646.46652173902839422
 20
4931546.67330434732139111
 10
1412644.98165605100803077
 20
4931547.53656050935387611
 10
1412644.19079999998211861
 20
4931551.10879999957978725
 10
1412643.15137651842087507
 20
4931551.14631578978151083
 10
1412642.43577181221917272
 20
4931553.49214765056967735
 10
1412642.26751824840903282
 20
4931555.29788321163505316
 10
1412641.94548387103714049
 20
4931555.28612903226166964
 10
1412641.94751004036515951
 20
4931555.29578313231468201
 10
1412641.12348837195895612
 20
4931557.24497674405574799
 10
1412640.98617760604247451
 20
4931557.59849420841783285
 10
1412638.4111111112870276
 20
4931560.96494949515908957
 10
1412637.84801857592537999
 20
4931561.95498451963067055
 10
1412635.66469090920872986
 20
4931565.147563636302948
 10
1412635.45106796128675342
 20
4931565.45417475700378418
 10
1412634.43994550406932831
 20
4931565.61531335115432739
 10
1412633.53693208447657526
 20
4931567.01351288147270679
 10
1412627.40542168682441115
 20
4931570.64927710872143507
  0
LWPOLYLINE
  5
1e6
  8
TOPPPLATFORM_BASELINE_STAKE_2_field_4
100
AcDbEntity
100
AcDbPolyline
  6
CONTINUOUS
420
3075270
 90
    34
 70
   128
 43
260.0
 10
1412658.92814569547772408
 20
4931540.42642384022474289
 10
1412657.24284916231408715
 20
4931542.37430167570710182
 10
1412657.79714285722002387
 20
4931544.0685714278370142
 10
1412656.53091639885678887
 20
4931546.09434083569794893
 10
1412656.1261516036465764
 20
4931545.80078717134892941
 10
1412654.76794117642566562
 20
4931545.83632352948188782
 10
1412653.5709937890060246
 20
4931544.69937888253480196
 10
1412651.11149350646883249
 20
4931545.85194805264472961
 10
1412650.36688235308974981
 20
4931546.18594117648899555
 10
1412647.96421052655205131
 20
4931547.12657894846051931
 10
1412647.84545454545877874
 20
4931545.91736363619565964
 10
1412646.92976923077367246
 20
4931545.21953846141695976
 10
1412645.10727272718213499
 20
4931545.7830303031951189
 10
1412645.01818181807175279
 20
4931545.7639999995008111
 10
1412644.89144385023973882
 20
4931546.0252406420186162
 10
1412644.81372881354764104
 20
4931546.27796610165387392
 10
1412643.77080000005662441
 20
4931550.98879999946802855
 10
1412643.05218623485416174
 20
4931551.0147368423640728
 10
1412641.91563758393749595
 20
4931554.7404697984457016
 10
1412641.87883211695589125
 20
4931555.13547445181757212
 10
1412641.80838709673844278
 20
4931555.13290322478860617
 10
1412641.81096385535784066
 20
4931555.1451807226985693
 10
1412641.38617647066712379
 20
4931556.15000000037252903
 10
1412640.7021301775239408
 20
4931557.24615384638309479
 10
1412640.69343023258261383
 20
4931557.24912790674716234
 10
1412640.42758503393270075
 20
4931557.62799319811165333
 10
1412639.16999999992549419
 20
4931559.59999999962747097
 10
1412637.70740740746259689
 20
4931561.51208754163235426
 10
1412637.55235294112935662
 20
4931561.78470588196069002
 10
1412636.61666666669771075
 20
4931563.15291666705161333
 10
1412634.59000000008381903
 20
4931565.28500000014901161
 10
1412634.04757493175566196
 20
4931565.37144414149224758
 10
1412633.71608899300917983
 20
4931565.884707260876894
 10
1412626.70361445797607303
 20
4931570.04285140614956617
  0
LWPOLYLINE
  5
1e7
  8
TOPPPLATFORM_BASELINE_STAKE_2_field_4
100
AcDbEntity
100
AcDbPolyline
  6
CONTINUOUS
420
3075270
 90
    30
 70
   128
 43
260.0
 10
1412658.58377483440563083
 20
4931539.33370860945433378
 10
1412656.04731843597255647
 20
4931542.26536312885582447
 10
1412656.88155844155699015
 20
4931544.81532467529177666
 10
1412656.76644694525748491
 20
4931544.99948552995920181
 10
1412656.72965014586225152
 20
4931544.97279883362352848
 10
1412656.60617647087201476
 20
4931544.97602941188961267
 10
1412654.67037267098203301
 20
4931543.13726708106696606
 10
1412650.69266233779489994
 20
4931545.00129870232194662
 10
1412650.45805882359854877
 20
4931545.10652941279113293
 10
1412649.7010526314843446
 20
4931545.40289473719894886
 10
1412649.66363636357709765
 20
4931545.02190909069031477
 10
1412647.51053846161812544
 20
4931543.38107692264020443
 10
1412646.66787878796458244
 20
4931543.64161616191267967
 10
1412645.83636363642290235
 20
4931543.46400000061839819
 10
1412644.65347593580372632
 20
4931545.90224598906934261
 10
1412643.92813559318892658
 20
4931548.26101694907993078
 10
1412643.35079999989829957
 20
4931550.86879999935626984
 10
1412642.95299595152027905
 20
4931550.88315789494663477
 10
1412642.15938775520771742
 20
4931553.48469387739896774
 10
1412641.46712574851699173
 20
4931554.5090419165790081
 10
1412641.25183606566861272
 20
4931554.88108196761459112
 10
1412641.26457236846908927
 20
4931554.89506578911095858
 10
1412640.18142011831514537
 20
4931556.63076923135668039
 10
1412640.14982558134943247
 20
4931556.6415697680786252
 10
1412639.18438775511458516
 20
4931558.01744897942990065
 10
1412636.97378906235098839
 20
4931561.48386718705296516
 10
1412633.80036585358902812
 20
4931564.76390243880450726
 10
1412633.52313636383041739
 20
4931565.02954545523971319
 10
1412631.30000000004656613
 20
4931566.2947887321934104
 10
1412626.0018072291277349
 20
4931569.4364257026463747
  0
LWPOLYLINE
  5
1e8
  8
TOPPPLATFORM_BASELINE_STAKE_2_field_4
100
AcDbEntity
100
AcDbPolyline
  6
CONTINUOUS
420
3075270
 90
    27
 70
   128
 43
260.0
 10
1412657.54129870142787695
 20
4931536.01974026020616293
 10
1412654.26750000007450581
 20
4931537.92250000033527613
 10
1412654.94400000013411045
 20
4931537.57000000029802322
 10
1412653.41479999991133809
 20
4931538.59879999980330467
 10
1412653.3936363635584712
 20
4931538.90000000037252903
 10
1412653.05500000016763806
 20
4931539.55833333358168602
 10
1412653.45631578960455954
 20
4931541.32631578948348761
 10
1412651.26200000010430813
 20
4931542.16800000052899122
 10
1412649.06279999995604157
 20
4931541.44720000028610229
 10
1412648.20782608701847494
 20
4931540.89913043472915888
 10
1412647.18909090897068381
 20
4931541.27818181831389666
 10
1412646.65454545454122126
 20
4931541.16399999987334013
 10
1412644.41550802136771381
 20
4931545.7792513370513916
 10
1412643.04254237283021212
 20
4931550.24406779557466507
 10
1412642.93080000020563602
 20
4931550.7488000001758337
 10
1412642.85380566795356572
 20
4931550.75157894752919674
 10
1412642.70020408160053194
 20
4931551.25510204024612904
 10
1412641.04646706581115723
 20
4931553.70215568877756596
 10
1412640.53216393431648612
 20
4931554.5909180324524641
 10
1412640.54253289476037025
 20
4931554.60230263136327267
 10
1412639.66071005910634995
 20
4931556.015384616330266
 10
1412639.60622093011625111
 20
4931556.03401162847876549
 10
1412637.94119047606363893
 20
4931558.40690476167947054
 10
1412636.22183593735098839
 20
4931561.10300781205296516
 10
1412633.75361788622103631
 20
4931563.6541463416069746
 10
1412632.81631818180903792
 20
4931564.55227272771298885
 10
1412625.30000000004656613
 20
4931568.83000000007450581
  0
LWPOLYLINE
  5
1e9
  8
TOPPPLATFORM_BASELINE_STAKE_2_field_4
100
AcDbEntity
100
AcDbPolyline
  6
CONTINUOUS
420
3075270
 90
    25
 70
   128
 43
260.0
 10
1412657.22961038956418633
 20
4931535.18207792192697525
 10
1412655.79452054807916284
 20
4931536.01616438385099173
 10
1412654.07248587557114661
 20
4931536.9537288136780262
 10
1412649.87345323734916747
 20
4931535.63705035950988531
 10
1412649.29992366419173777
 20
4931535.80498727783560753
 10
1412649.26044444460421801
 20
4931535.79444444458931684
 10
1412649.14235127484425902
 20
4931535.9684985838830471
 10
1412649.13862660946324468
 20
4931536.07922746799886227
 10
1412646.54149253712967038
 20
4931540.82895522471517324
 10
1412645.11298701306805015
 20
4931543.72805194836109877
 10
1412644.1775401069317013
 20
4931545.65625668503344059
 10
1412643.49086956540122628
 20
4931547.88927536271512508
 10
1412642.4942944785580039
 20
4931550.05907975416630507
 10
1412642.20686440682038665
 20
4931550.55576271191239357
 10
1412640.62580838333815336
 20
4931552.89526946097612381
 10
1412639.81249180319719017
 20
4931554.30075409822165966
 10
1412639.82049342105165124
 20
4931554.30953947361558676
 10
1412639.13999999989755452
 20
4931555.40000000037252903
 10
1412639.06261627888306975
 20
4931555.4264534879475832
 10
1412636.69799319724552333
 20
4931558.79636054392904043
 10
1412635.46988281235098839
 20
4931560.72214843705296516
 10
1412633.70686991885304451
 20
4931562.54439024440944195
 10
1412632.10950000025331974
 20
4931564.07500000018626451
 10
1412627.11543624149635434
 20
4931566.9172483216971159
 10
1412627.46715976321138442
 20
4931565.31224852055311203
  0
LWPOLYLINE
  5
1ea
  8
TOPPPLATFORM_BASELINE_STAKE_2_field_4
100
AcDbEntity
100
AcDbPolyline
  6
CONTINUOUS
420
3075270
 90
    24
 70
   128
 43
260.0
 10
1412656.91749999998137355
 20
4931534.28749999962747097
 10
1412654.99338983045890927
 20
4931535.33508474566042423
 10
1412652.43460431648418307
 20
4931534.53273381292819977
 10
1412649.25412213732488453
 20
4931535.46402035653591156
 10
1412649.03519191918894649
 20
4931535.40555555559694767
 10
1412648.38031161460094154
 20
4931536.37076487205922604
 10
1412648.35965665243566036
 20
4931536.98480686731636524
 10
1412646.347462686477229
 20
4931540.66477611940354109
 10
1412644.1941361257340759
 20
4931545.03486910928040743
 10
1412644.02389067527838051
 20
4931545.16090032085776329
 10
1412643.72836575889959931
 20
4931545.54081712011247873
 10
1412642.05257668718695641
 20
4931549.1894478527829051
 10
1412641.38694915268570185
 20
4931550.33966101706027985
 10
1412640.20514970039948821
 20
4931552.08838323317468166
 10
1412639.09281967207789421
 20
4931554.01059016399085522
 10
1412639.09845394734293222
 20
4931554.01677631586790085
 10
1412638.61928994068875909
 20
4931554.78461538441479206
 10
1412638.51901162788271904
 20
4931554.81889534927904606
 10
1412635.45479591842740774
 20
4931559.18581632617861032
 10
1412634.71792968735098839
 20
4931560.34128906205296516
 10
1412633.66012195125222206
 20
4931561.43463414628058672
 10
1412631.40268181823194027
 20
4931563.59772727265954018
 10
1412628.9308724831789732
 20
4931565.00449664518237114
 10
1412629.63431952660903335
 20
4931561.79449704103171825
  0
LWPOLYLINE
  5
1eb
  8
TOPPPLATFORM_BASELINE_STAKE_2_field_4
100
AcDbEntity
100
AcDbPolyline
  6
CONTINUOUS
420
3075270
 90
    25
 70
   128
 43
260.0
 10
1412656.60499999998137355
 20
4931533.34038461558520794
 10
1412655.91429378534667194
 20
4931533.71644067764282227
 10
1412654.99575539561919868
 20
4931533.42841726541519165
 10
1412649.20832061069086194
 20
4931535.12305343523621559
 10
1412648.80993939400650561
 20
4931535.0166666666045785
 10
1412647.61827195482328534
 20
4931536.77303116116672754
 10
1412647.58068669540807605
 20
4931537.89038626570254564
 10
1412646.15343283582478762
 20
4931540.50059701502323151
 10
1412644.62607329851016402
 20
4931543.60031413659453392
 10
1412644.00781350489705801
 20
4931544.05800643097609282
 10
1412642.9345914397854358
 20
4931545.43770428001880646
 10
1412641.61085889581590891
 20
4931548.31981595046818256
 10
1412640.5670338983181864
 20
4931550.12355932220816612
 10
1412639.78449101792648435
 20
4931551.28149700537323952
 10
1412638.3731475411914289
 20
4931553.72042622976005077
 10
1412638.37641447363421321
 20
4931553.72401315812021494
 10
1412638.09857988147996366
 20
4931554.16923076938837767
 10
1412637.97540697664953768
 20
4931554.21133720874786377
 10
1412634.21159863960929215
 20
4931559.57527210842818022
 10
1412633.96597656281664968
 20
4931559.96042968798428774
 10
1412633.61337398365139961
 20
4931560.32487804908305407
 10
1412630.82076923060230911
 20
4931563.00076923053711653
 10
1412630.79486842104233801
 20
4931563.00065789464861155
 10
1412630.75888888887129724
 20
4931563.03433862421661615
 10
1412631.80147928977385163
 20
4931558.27674556151032448
  0
LWPOLYLINE
  5
1ec
  8
TOPPPLATFORM_BASELINE_STAKE_2_field_4
100
AcDbEntity
100
AcDbPolyline
  6
CONTINUOUS
420
3075270
 90
    21
 70
   128
 43
260.0
 10
1412655.94220447284169495
 20
4931532.66591054294258356
 10
1412655.7821259843185544
 20
4931532.84377952758222818
 10
1412649.1625190838240087
 20
4931534.78208651393651962
 10
1412648.58468686882406473
 20
4931534.62777777761220932
 10
1412646.8562322948127985
 20
4931537.17529745027422905
 10
1412646.80171673814766109
 20
4931538.79596566408872604
 10
1412645.95940298493951559
 20
4931540.33641791064292192
 10
1412645.0580104710534215
 20
4931542.16575916204601526
 10
1412643.99173633428290486
 20
4931542.95511254016309977
 10
1412642.14081712067127228
 20
4931545.33459143992513418
 10
1412641.16914110444486141
 20
4931547.4501840490847826
 10
1412639.7471186441835016
 20
4931549.9074576273560524
 10
1412639.36383233522064984
 20
4931550.47461077850311995
 10
1412637.65347540960647166
 20
4931553.43026229552924633
 10
1412637.65437499992549419
 20
4931553.43124999944120646
 10
1412637.57786982227116823
 20
4931553.55384615436196327
 10
1412637.43180232564918697
 20
4931553.60377907007932663
 10
1412635.375
 20
4931556.53500000014901161
 10
1412635.03828947362489998
 20
4931556.5335526317358017
 10
1412633.20333333313465118
 20
4931558.25126984156668186
 10
1412633.96863905317150056
 20
4931554.7589940819889307
  0
LWPOLYLINE
  5
1ed
  8
TOPPPLATFORM_BASELINE_STAKE_2_field_4
100
AcDbEntity
100
AcDbPolyline
  6
CONTINUOUS
420
3075270
 90
    15
 70
   128
 43
260.0
 10
1412654.83357827458530664
 20
4931532.33843450434505939
 10
1412654.30968503933399916
 20
4931532.92055118083953857
 10
1412649.11671755718998611
 20
4931534.44111959263682365
 10
1412648.35943434340879321
 20
4931534.23888888955116272
 10
1412646.09419263456948102
 20
4931537.57756373938173056
 10
1412646.02274678088724613
 20
4931539.70154506433755159
 10
1412645.76537313428707421
 20
4931540.17223880626261234
 10
1412645.48994764382950962
 20
4931540.73120418842881918
 10
1412643.97565916390158236
 20
4931541.85221865028142929
 10
1412641.34704280155710876
 20
4931545.23147859890013933
 10
1412640.72742331307381392
 20
4931546.58055214770138264
 10
1412638.98200000007636845
 20
4931549.5966666666790843
 10
1412637.77725663711316884
 20
4931551.47477876115590334
 10
1412635.64777777763083577
 20
4931553.468201057985425
 10
1412636.13579881656914949
 20
4931551.2412426033988595
  0
LWPOLYLINE
  5
1ee
  8
TOPPPLATFORM_BASELINE_STAKE_2_field_4
100
AcDbEntity
100
AcDbPolyline
  6
CONTINUOUS
420
3075270
 90
    13
 70
   128
 43
260.0
 10
1412653.72495207656174898
 20
4931532.0109584666788578
 10
1412652.83724409434944391
 20
4931532.99732283502817154
 10
1412649.07091603055596352
 20
4931534.10015267133712769
 10
1412648.13418181845918298
 20
4931533.84999999962747097
 10
1412645.33215297455899417
 20
4931537.97983002848923206
 10
1412645.27166666672565043
 20
4931539.77799999993294477
 10
1412643.95958199352025986
 20
4931540.74932475853711367
 10
1412640.55326848244294524
 20
4931545.12836575880646706
 10
1412640.28570552146993577
 20
4931545.7109202453866601
 10
1412639.53200000012293458
 20
4931547.01333333365619183
 10
1412639.01176991150714457
 20
4931547.82433628290891647
 10
1412638.09222222212702036
 20
4931548.68513227440416813
 10
1412638.30295857973396778
 20
4931547.72349112387746572
  0
LWPOLYLINE
  5
1ef
  8
TOPPPLATFORM_BASELINE_STAKE_2_field_4
100
AcDbEntity
100
AcDbPolyline
  6
CONTINUOUS
420
3075270
 90
     8
 70
   128
 43
260.0
 10
1412652.61632587853819132
 20
4931531.68348242808133364
 10
1412651.36480314959771931
 20
4931533.07409448828548193
 10
1412649.02511450392194092
 20
4931533.75918575096875429
 10
1412647.90892929304391146
 20
4931533.46111111156642437
 10
1412644.57011331431567669
 20
4931538.38209631759673357
 10
1412644.54249999998137355
 20
4931539.20299999974668026
 10
1412643.94350482313893735
 20
4931539.64643086865544319
 10
1412640.8344444443937391
 20
4931543.64333333354443312
  0
LWPOLYLINE
  5
1f0
  8
TOPPPLATFORM_BASELINE_STAKE_2_field_4
100
AcDbEntity
100
AcDbPolyline
  6
CONTINUOUS
420
3075270
 90
     5
 70
   128
 43
260.0
 10
1412651.50769968051463366
 20
4931531.35600638948380947
 10
1412649.89236220461316407
 20
4931533.15086614154279232
 10
1412648.97931297728791833
 20
4931533.41821882966905832
 10
1412647.68367676762863994
 20
4931533.07222222257405519
 10
1412644.10746478871442378
 20
4931538.34309859108179808
  0
LWPOLYLINE
  5
1f1
  8
TOPPPLATFORM_BASELINE_STAKE_2_field_4
100
AcDbEntity
100
AcDbPolyline
  6
CONTINUOUS
420
3075270
 90
     5
 70
   128
 43
260.0
 10
1412650.39907348225824535
 20
4931531.02853035088628531
 10
1412649.11474576266482472
 20
4931532.45559322088956833
 10
1412648.61999999987892807
 20
4931532.99352941196411848
 10
1412647.45842424244619906
 20
4931532.68333333358168602
 10
1412645.21661971835419536
 20
4931535.98746478836983442
  0
LWPOLYLINE
  5
1f2
  8
TOPPPLATFORM_BASELINE_STAKE_2_field_4
100
AcDbEntity
100
AcDbPolyline
  6
CONTINUOUS
420
3075270
 90
     4
 70
   128
 43
260.0
 10
1412648.98558139521628618
 20
4931531.02581395301967859
 10
1412647.70333333360031247
 20
4931532.41999999992549419
 10
1412647.23317171726375818
 20
4931532.29444444458931684
 10
1412646.32577464776113629
 20
4931533.63183098658919334
  0
LWPOLYLINE
  5
1f3
  8
nz-property-titles(LINZ DOWNLOAD)
100
AcDbEntity
100
AcDbPolyline
  6
CONTINUOUS
420
2302755
 90
    16
 70
   129
 43
260.0
 10
1412682.69756378838792443
 20
4931640.46608144976198673
 10
1412710.05421795696020126
 20
4931647.15022832900285721
 10
1412737.41092436760663986
 20
4931653.83425320964306593
 10
1412764.20339866704307497
 20
4931660.38255071360617876
 10
1412779.00562461442314088
 20
4931654.38968092296272516
 10
1412775.7414980917237699
 20
4931621.4762684628367424
 10
1412777.16772519936785102
 20
4931607.16141335014253855
 10
1412789.24511982430703938
 20
4931608.39976027514785528
 10
1412777.35972018330357969
 20
4931579.10214272607117891
 10
1412649.67790162726305425
 20
4931531.31255331542342901
 10
1412643.41092327516525984
 20
4931543.70050405524671078
 10
1412638.89511813223361969
 20
4931552.66248515713959932
 10
1412621.5756874461658299
 20
4931587.76554444339126348
 10
1412660.66237163660116494
 20
4931597.30163561645895243
 10
1412699.74780769925564528
 20
4931606.83928286470472813
 10
1412682.69756378838792443
 20
4931640.46608144976198673
  0
HATCH
  5
1f4
330
6d
100
AcDbEntity
  8
nz-property-titles(LINZ DOWNLOAD)
420
9355145
100
AcDbHatch
 10
0.0
 20
0.0
 30
0.0
210
0.0
220
0.0
230
1.0
  2
SOLID
 70
     1
 71
     0
 91
     1
 92
     2
 72
     0
 73
     1
 93
    16
 10
1412682.69756378838792443
 20
4931640.46608144976198673
 10
1412710.05421795696020126
 20
4931647.15022832900285721
 10
1412737.41092436760663986
 20
4931653.83425320964306593
 10
1412764.20339866704307497
 20
4931660.38255071360617876
 10
1412779.00562461442314088
 20
4931654.38968092296272516
 10
1412775.7414980917237699
 20
4931621.4762684628367424
 10
1412777.16772519936785102
 20
4931607.16141335014253855
 10
1412789.24511982430703938
 20
4931608.39976027514785528
 10
1412777.35972018330357969
 20
4931579.10214272607117891
 10
1412649.67790162726305425
 20
4931531.31255331542342901
 10
1412643.41092327516525984
 20
4931543.70050405524671078
 10
1412638.89511813223361969
 20
4931552.66248515713959932
 10
1412621.5756874461658299
 20
4931587.76554444339126348
 10
1412660.66237163660116494
 20
4931597.30163561645895243
 10
1412699.74780769925564528
 20
4931606.83928286470472813
 10
1412682.69756378838792443
 20
4931640.46608144976198673
 97
     0
 75
     0
 76
     1
 98
     0
  0
LWPOLYLINE
  5
1f5
  8
nz-property-titles(LINZ DOWNLOAD)
100
AcDbEntity
100
AcDbPolyline
  6
CONTINUOUS
420
2302755
 90
    12
 70
   129
 43
260.0
 10
1412665.04252094961702824
 20
4931501.03863542247563601
 10
1412649.67790162726305425
 20
4931531.31255331542342901
 10
1412777.35972018330357969
 20
4931579.10214272607117891
 10
1412789.24511982430703938
 20
4931608.39976027514785528
 10
1412803.8072553735692054
 20
4931644.34984072018414736
 10
1412822.40988745400682092
 20
4931636.81438115797936916
 10
1412795.97166920895688236
 20
4931571.55407410301268101
 10
1412819.28220010758377612
 20
4931562.11056437250226736
 10
1412842.59394778730347753
 20
4931552.6670080590993166
 10
1412850.43949310574680567
 20
4931549.48814697377383709
 10
1412851.72834307001903653
 20
4931506.65941751934587955
 10
1412665.04252094961702824
 20
4931501.03863542247563601
  0
HATCH
  5
1f6
330
6d
100
AcDbEntity
  8
nz-property-titles(LINZ DOWNLOAD)
420
9355145
100
AcDbHatch
 10
0.0
 20
0.0
 30
0.0
210
0.0
220
0.0
230
1.0
  2
SOLID
 70
     1
 71
     0
 91
     1
 92
     2
 72
     0
 73
     1
 93
    12
 10
1412665.04252094961702824
 20
4931501.03863542247563601
 10
1412649.67790162726305425
 20
4931531.31255331542342901
 10
1412777.35972018330357969
 20
4931579.10214272607117891
 10
1412789.24511982430703938
 20
4931608.39976027514785528
 10
1412803.8072553735692054
 20
4931644.34984072018414736
 10
1412822.40988745400682092
 20
4931636.81438115797936916
 10
1412795.97166920895688236
 20
4931571.55407410301268101
 10
1412819.28220010758377612
 20
4931562.11056437250226736
 10
1412842.59394778730347753
 20
4931552.6670080590993166
 10
1412850.43949310574680567
 20
4931549.48814697377383709
 10
1412851.72834307001903653
 20
4931506.65941751934587955
 10
1412665.04252094961702824
 20
4931501.03863542247563601
 97
     0
 75
     0
 76
     1
 98
     0
  0
LWPOLYLINE
  5
1f7
  8
nz-property-titles(LINZ DOWNLOAD)
100
AcDbEntity
100
AcDbPolyline
  6
CONTINUOUS
420
2302755
 90
     8
 70
   129
 43
260.0
 10
1412592.15178180672228336
 20
4931527.57350460905581713
 10
1412596.29639064962975681
 20
4931529.76718781050294638
 10
1412600.7048509269952774
 20
4931520.75195976253598928
 10
1412643.41092327516525984
 20
4931543.70050405524671078
 10
1412649.67790162726305425
 20
4931531.31255331542342901
 10
1412665.04252094961702824
 20
4931501.03863542247563601
 10
1412593.0167993379291147
 20
4931498.86856754403561354
 10
1412592.15178180672228336
 20
4931527.57350460905581713
  0
HATCH
  5
1f8
330
6d
100
AcDbEntity
  8
nz-property-titles(LINZ DOWNLOAD)
420
9355145
100
AcDbHatch
 10
0.0
 20
0.0
 30
0.0
210
0.0
220
0.0
230
1.0
  2
SOLID
 70
     1
 71
     0
 91
     1
 92
     2
 72
     0
 73
     1
 93
     8
 10
1412592.15178180672228336
 20
4931527.57350460905581713
 10
1412596.29639064962975681
 20
4931529.76718781050294638
 10
1412600.7048509269952774
 20
4931520.75195976253598928
 10
1412643.41092327516525984
 20
4931543.70050405524671078
 10
1412649.67790162726305425
 20
4931531.31255331542342901
 10
1412665.04252094961702824
 20
4931501.03863542247563601
 10
1412593.0167993379291147
 20
4931498.86856754403561354
 10
1412592.15178180672228336
 20
4931527.57350460905581713
 97
     0
 75
     0
 76
     1
 98
     0
  0
LWPOLYLINE
  5
1f9
  8
nz-property-titles(LINZ DOWNLOAD)
100
AcDbEntity
100
AcDbPolyline
  6
CONTINUOUS
420
2302755
 90
     9
 70
   129
 43
260.0
 10
1412590.08058593142777681
 20
4931596.30504870600998402
 10
1412611.42233382444828749
 20
4931607.08276805095374584
 10
1412621.5756874461658299
 20
4931587.76554444339126348
 10
1412638.89511813223361969
 20
4931552.66248515713959932
 10
1412643.41092327516525984
 20
4931543.70050405524671078
 10
1412600.7048509269952774
 20
4931520.75195976253598928
 10
1412596.29639064962975681
 20
4931529.76718781050294638
 10
1412591.80939318961463869
 20
4931538.93544062040746212
 10
1412590.08058593142777681
 20
4931596.30504870600998402
  0
HATCH
  5
1fa
330
6d
100
AcDbEntity
  8
nz-property-titles(LINZ DOWNLOAD)
420
9355145
100
AcDbHatch
 10
0.0
 20
0.0
 30
0.0
210
0.0
220
0.0
230
1.0
  2
SOLID
 70
     1
 71
     0
 91
     1
 92
     2
 72
     0
 73
     1
 93
     9
 10
1412590.08058593142777681
 20
4931596.30504870600998402
 10
1412611.42233382444828749
 20
4931607.08276805095374584
 10
1412621.5756874461658299
 20
4931587.76554444339126348
 10
1412638.89511813223361969
 20
4931552.66248515713959932
 10
1412643.41092327516525984
 20
4931543.70050405524671078
 10
1412600.7048509269952774
 20
4931520.75195976253598928
 10
1412596.29639064962975681
 20
4931529.76718781050294638
 10
1412591.80939318961463869
 20
4931538.93544062040746212
 10
1412590.08058593142777681
 20
4931596.30504870600998402
 97
     0
 75
     0
 76
     1
 98
     0
  0
ENDSEC
0
SECTION
2
OBJECTS
0
DICTIONARY
5
C
330
0
100
AcDbDictionary
281
   1
3
ACAD_GROUP
350
D
3
ACAD_LAYOUT
350
1A
3
ACAD_MLEADERSTYLE
350
43
3
ACAD_MLINESTYLE
350
17
3
ACAD_PLOTSETTINGS
350
19
3
ACAD_PLOTSTYLENAME
350
E
3
ACAD_TABLESTYLE
350
42
3
ACAD_VISUALSTYLE
350
2A
0
DICTIONARY
5
D
102
{ACAD_REACTORS
330
C
102
}
330
C
100
AcDbDictionary
281
   1
0
DICTIONARY
5
1A
102
{ACAD_REACTORS
330
C
102
}
330
C
100
AcDbDictionary
281
   1
3
Layout1
350
1E
3
Layout2
350
26
3
Model
350
22
0
DICTIONARY
5
43
102
{ACAD_REACTORS
330
C
102
}
330
C
100
AcDbDictionary
281
   1
0
DICTIONARY
5
17
102
{ACAD_REACTORS
330
C
102
}
330
C
100
AcDbDictionary
281
   1
3
Standard
350
18
0
DICTIONARY
5
19
102
{ACAD_REACTORS
330
C
102
}
330
C
100
AcDbDictionary
281
   1
0
ACDBDICTIONARYWDFLT
5
E
102
{ACAD_REACTORS
330
C
102
}
330
C
100
AcDbDictionary
281
   1
3
Normal
350
F
100
AcDbDictionaryWithDefault
340
F
0
DICTIONARY
5
42
102
{ACAD_REACTORS
330
C
102
}
330
C
100
AcDbDictionary
281
   1
0
DICTIONARY
5
2A
102
{ACAD_REACTORS
330
C
102
}
330
C
100
AcDbDictionary
281
   1
3
2dWireframe
350
2F
3
3D Hidden
350
31
3
3dWireframe
350
30
3
Basic
350
32
3
Brighten
350
36
3
ColorChange
350
3A
3
Conceptual
350
34
3
Dim
350
35
3
Facepattern
350
39
3
Flat
350
2B
3
FlatWithEdges
350
2C
3
Gouraud
350
2D
3
GouraudWithEdges
350
2E
3
Linepattern
350
38
3
Realistic
350
33
3
Thicken
350
37
0
LAYOUT
5
1E
102
{ACAD_REACTORS
330
1A
102
}
330
1A
100
AcDbPlotSettings
1

2
none_device
4

6

40
0.0
41
0.0
42
0.0
43
0.0
44
0.0
45
0.0
46
0.0
47
0.0
48
0.0
49
0.0
140
0.0
141
0.0
142
1.0
143
1.0
70
 688
72
   0
73
   0
74
   5
7

75
  16
76
   0
77
   2
78
 300
147
1.0
148
0.0
149
0.0
100
AcDbLayout
1
Layout1
70
   1
71
   1
10
0.0
20
0.0
11
12.0
21
9.0
12
0.0
22
0.0
32
0.0
14
1.000000000000000E+20
24
1.000000000000000E+20
34
1.000000000000000E+20
15
-1.000000000000000E+20
25
-1.000000000000000E+20
35
-1.000000000000000E+20
146
0.0
13
0.0
23
0.0
33
0.0
16
1.0
26
0.0
36
0.0
17
0.0
27
1.0
37
0.0
76
   0
330
1B
0
LAYOUT
5
26
102
{ACAD_REACTORS
330
1A
102
}
330
1A
100
AcDbPlotSettings
1

2
none_device
4

6

40
0.0
41
0.0
42
0.0
43
0.0
44
0.0
45
0.0
46
0.0
47
0.0
48
0.0
49
0.0
140
0.0
141
0.0
142
1.0
143
1.0
70
 688
72
   0
73
   0
74
   5
7

75
  16
76
   0
77
   2
78
 300
147
1.0
148
0.0
149
0.0
100
AcDbLayout
1
Layout2
70
   1
71
   2
10
0.0
20
0.0
11
0.0
21
0.0
12
0.0
22
0.0
32
0.0
14
0.0
24
0.0
34
0.0
15
0.0
25
0.0
35
0.0
146
0.0
13
0.0
23
0.0
33
0.0
16
1.0
26
0.0
36
0.0
17
0.0
27
1.0
37
0.0
76
   0
330
23
0
LAYOUT
5
22
102
{ACAD_REACTORS
330
1A
102
}
330
1A
100
AcDbPlotSettings
1

2
none_device
4

6

40
0.0
41
0.0
42
0.0
43
0.0
44
0.0
45
0.0
46
0.0
47
0.0
48
0.0
49
0.0
140
0.0
141
0.0
142
1.0
143
1.0
70
1712
72
   0
73
   0
74
   0
7

75
   0
76
   0
77
   2
78
 300
147
1.0
148
0.0
149
0.0
100
AcDbLayout
1
Model
70
   1
71
   0
10
0.0
20
0.0
11
12.0
21
9.0
12
0.0
22
0.0
32
0.0
14
30.0
24
49.75
34
0.0
15
130.5
25
163.1318914119703
35
0.0
146
0.0
13
0.0
23
0.0
33
0.0
16
1.0
26
0.0
36
0.0
17
0.0
27
1.0
37
0.0
76
   0
330
1F
331
29
0
MLINESTYLE
5
18
102
{ACAD_REACTORS
330
17
102
}
330
17
100
AcDbMlineStyle
2
Standard
70
   0
3

62
 256
51
90.0
52
90.0
71
   2
49
0.5
62
 256
6
BYLAYER
49
-0.5
62
 256
6
BYLAYER
0
ACDBPLACEHOLDER
5
F
102
{ACAD_REACTORS
330
E
102
}
330
E
0
VISUALSTYLE
5
2F
102
{ACAD_REACTORS
330
2A
102
}
330
2A
100
AcDbVisualStyle
2
2dWireframe
70
   4
71
   0
72
   2
73
   0
90
      0
40
-0.6
41
-30.0
62
   5
63
   7
421
16777215
74
   1
91
      4
64
   7
65
 257
75
   1
175
   1
42
1.0
92
      0
66
 257
43
1.0
76
   1
77
   6
78
   2
67
   7
79
   5
170
   0
171
   0
290
   0
174
   0
93
      1
44
0.0
173
   0
291
   0
45
0.0
1001
ACAD
1000
AcDbSavedByObjectVersion
1070
   0
0
VISUALSTYLE
5
31
102
{ACAD_REACTORS
330
2A
102
}
330
2A
100
AcDbVisualStyle
2
3D Hidden
70
   6
71
   1
72
   2
73
   2
90
      0
40
-0.6
41
-30.0
62
   5
63
   7
421
16777215
74
   2
91
      2
64
   7
65
 257
75
   2
175
   1
42
40.0
92
      0
66
 257
43
1.0
76
   1
77
   6
78
   2
67
   7
79
   3
170
   0
171
   0
290
   0
174
   0
93
      1
44
0.0
173
   0
291
   0
45
0.0
1001
ACAD
1000
AcDbSavedByObjectVersion
1070
   0
0
VISUALSTYLE
5
30
102
{ACAD_REACTORS
330
2A
102
}
330
2A
100
AcDbVisualStyle
2
3dWireframe
70
   5
71
   0
72
   2
73
   0
90
      0
40
-0.6
41
-30.0
62
   5
63
   7
421
16777215
74
   1
91
      4
64
   7
65
 257
75
   1
175
   1
42
1.0
92
      0
66
 257
43
1.0
76
   1
77
   6
78
   2
67
   7
79
   5
170
   0
171
   0
290
   0
174
   0
93
      1
44
0.0
173
   0
291
   0
45
0.0
1001
ACAD
1000
AcDbSavedByObjectVersion
1070
   0
0
VISUALSTYLE
5
32
102
{ACAD_REACTORS
330
2A
102
}
330
2A
100
AcDbVisualStyle
2
Basic
70
   7
71
   1
72
   0
73
   1
90
      0
40
-0.6
41
-30.0
62
   5
63
   7
421
16777215
74
   0
91
      4
64
   7
65
 257
75
   1
175
   1
42
1.0
92
      8
66
   7
43
1.0
76
   1
77
   6
78
   2
67
   7
79
   5
170
   0
171
   0
290
   0
174
   0
93
      1
44
0.0
173
   0
291
   1
45
0.0
1001
ACAD
1000
AcDbSavedByObjectVersion
1070
   0
0
VISUALSTYLE
5
36
102
{ACAD_REACTORS
330
2A
102
}
330
2A
100
AcDbVisualStyle
2
Brighten
70
  12
71
   2
72
   2
73
   0
90
      0
40
-0.6
41
-30.0
62
   5
63
   7
421
16777215
74
   1
91
      4
64
   7
65
 257
75
   1
175
   1
42
1.0
92
      8
66
   7
43
1.0
76
   1
77
   6
78
   2
67
   7
79
   5
170
   0
171
   0
290
   0
174
   0
93
      1
44
50.0
173
   0
291
   1
45
0.0
1001
ACAD
1000
AcDbSavedByObjectVersion
1070
   0
0
VISUALSTYLE
5
3A
102
{ACAD_REACTORS
330
2A
102
}
330
2A
100
AcDbVisualStyle
2
ColorChange
70
  16
71
   2
72
   2
73
   3
90
      0
40
-0.6
41
-30.0
62
   5
63
   8
421
8421504
74
   1
91
      4
64
   7
65
 257
75
   1
175
   1
42
1.0
92
      8
66
   8
424
8421504
43
1.0
76
   1
77
   6
78
   2
67
   7
79
   5
170
   0
171
   0
290
   0
174
   0
93
      1
44
0.0
173
   0
291
   1
45
0.0
1001
ACAD
1000
AcDbSavedByObjectVersion
1070
   0
0
VISUALSTYLE
5
34
102
{ACAD_REACTORS
330
2A
102
}
330
2A
100
AcDbVisualStyle
2
Conceptual
70
   9
71
   3
72
   2
73
   0
90
      0
40
-0.6
41
-30.0
62
   5
63
   7
421
16777215
74
   2
91
      2
64
   7
65
 257
75
   1
175
   1
42
40.0
92
      8
66
   7
43
1.0
76
   1
77
   6
78
   2
67
   7
79
   3
170
   0
171
   0
290
   0
174
   0
93
      1
44
0.0
173
   0
291
   0
45
0.0
1001
ACAD
1000
AcDbSavedByObjectVersion
1070
   0
0
VISUALSTYLE
5
35
102
{ACAD_REACTORS
330
2A
102
}
330
2A
100
AcDbVisualStyle
2
Dim
70
  11
71
   2
72
   2
73
   0
90
      0
40
-0.6
41
-30.0
62
   5
63
   7
421
16777215
74
   1
91
      4
64
   7
65
 257
75
   1
175
   1
42
1.0
92
      8
66
   7
43
1.0
76
   1
77
   6
78
   2
67
   7
79
   5
170
   0
171
   0
290
   0
174
   0
93
      1
44
-50.0
173
   0
291
   1
45
0.0
1001
ACAD
1000
AcDbSavedByObjectVersion
1070
   0
0
VISUALSTYLE
5
39
102
{ACAD_REACTORS
330
2A
102
}
330
2A
100
AcDbVisualStyle
2
Facepattern
70
  15
71
   2
72
   2
73
   0
90
      0
40
-0.6
41
-30.0
62
   5
63
   7
421
16777215
74
   1
91
      4
64
   7
65
 257
75
   1
175
   1
42
1.0
92
      8
66
   7
43
1.0
76
   1
77
   6
78
   2
67
   7
79
   5
170
   0
171
   0
290
   0
174
   0
93
      1
44
0.0
173
   0
291
   1
45
0.0
1001
ACAD
1000
AcDbSavedByObjectVersion
1070
   0
0
VISUALSTYLE
5
2B
102
{ACAD_REACTORS
330
2A
102
}
330
2A
100
AcDbVisualStyle
2
Flat
70
   0
71
   2
72
   1
73
   1
90
      2
40
-0.6
41
30.0
62
   5
63
   7
421
16777215
74
   0
91
      4
64
   7
65
 257
75
   1
175
   1
42
1.0
92
      8
66
   7
43
1.0
76
   1
77
   6
78
   2
67
   7
79
   5
170
   0
171
   0
290
   0
174
   0
93
     13
44
0.0
173
   0
291
   1
45
0.0
1001
ACAD
1000
AcDbSavedByObjectVersion
1070
   0
0
VISUALSTYLE
5
2C
102
{ACAD_REACTORS
330
2A
102
}
330
2A
100
AcDbVisualStyle
2
FlatWithEdges
70
   1
71
   2
72
   1
73
   1
90
      2
40
-0.6
41
30.0
62
   5
63
   7
421
16777215
74
   1
91
      4
64
   7
65
 257
75
   1
175
   1
42
1.0
92
      0
66
 257
43
1.0
76
   1
77
   6
78
   2
67
   7
79
   5
170
   0
171
   0
290
   0
174
   0
93
     13
44
0.0
173
   0
291
   1
45
0.0
1001
ACAD
1000
AcDbSavedByObjectVersion
1070
   0
0
VISUALSTYLE
5
2D
102
{ACAD_REACTORS
330
2A
102
}
330
2A
100
AcDbVisualStyle
2
Gouraud
70
   2
71
   2
72
   2
73
   1
90
      2
40
-0.6
41
30.0
62
   5
63
   7
421
16777215
74
   0
91
      4
64
   7
65
 257
75
   1
175
   1
42
1.0
92
      0
66
   7
43
1.0
76
   1
77
   6
78
   2
67
   7
79
   5
170
   0
171
   0
290
   0
174
   0
93
     13
44
0.0
173
   0
291
   1
45
0.0
1001
ACAD
1000
AcDbSavedByObjectVersion
1070
   0
0
VISUALSTYLE
5
2E
102
{ACAD_REACTORS
330
2A
102
}
330
2A
100
AcDbVisualStyle
2
GouraudWithEdges
70
   3
71
   2
72
   2
73
   1
90
      2
40
-0.6
41
30.0
62
   5
63
   7
421
16777215
74
   1
91
      4
64
   7
65
 257
75
   1
175
   1
42
1.0
92
      0
66
 257
43
1.0
76
   1
77
   6
78
   2
67
   7
79
   5
170
   0
171
   0
290
   0
174
   0
93
     13
44
0.0
173
   0
291
   1
45
0.0
1001
ACAD
1000
AcDbSavedByObjectVersion
1070
   0
0
VISUALSTYLE
5
38
102
{ACAD_REACTORS
330
2A
102
}
330
2A
100
AcDbVisualStyle
2
Linepattern
70
  14
71
   2
72
   2
73
   0
90
      0
40
-0.6
41
-30.0
62
   5
63
   7
421
16777215
74
   1
91
      4
64
   7
65
 257
75
   7
175
   7
42
1.0
92
      8
66
   7
43
1.0
76
   1
77
   6
78
   2
67
   7
79
   5
170
   0
171
   0
290
   0
174
   0
93
      1
44
0.0
173
   0
291
   1
45
0.0
1001
ACAD
1000
AcDbSavedByObjectVersion
1070
   0
0
VISUALSTYLE
5
33
102
{ACAD_REACTORS
330
2A
102
}
330
2A
100
AcDbVisualStyle
2
Realistic
70
   8
71
   2
72
   2
73
   0
90
      0
40
-0.6
41
-30.0
62
   5
63
   7
421
16777215
74
   1
91
      0
64
   7
65
 257
75
   1
175
   1
42
1.0
92
      8
66
   8
424
7895160
43
1.0
76
   1
77
   6
78
   2
67
   7
79
   5
170
   0
171
   0
290
   0
174
   0
93
     13
44
0.0
173
   0
291
   0
45
0.0
1001
ACAD
1000
AcDbSavedByObjectVersion
1070
   0
0
VISUALSTYLE
5
37
102
{ACAD_REACTORS
330
2A
102
}
330
2A
100
AcDbVisualStyle
2
Thicken
70
  13
71
   2
72
   2
73
   0
90
      0
40
-0.6
41
-30.0
62
   5
63
   7
421
16777215
74
   1
91
      4
64
   7
65
 257
75
   1
175
   1
42
1.0
92
     12
66
   7
43
1.0
76
   1
77
   6
78
   2
67
   7
79
   5
170
   0
171
   0
290
   0
174
   0
93
      1
44
0.0
173
   0
291
   1
45
0.0
1001
ACAD
1000
AcDbSavedByObjectVersion
1070
   0
0
ENDSEC
  0
EOF
