  0
SECTION
  2
HEADER
  9
$ACADVER
  1
AC1018
  9
$ACADMAINTVER
 70
     0
  9
$DWGCODEPAGE
  3
ANSI_1252
  9
$EXTMIN
 10
1412624.31
 20
4931532.78
 30
0.0
  9
$EXTMAX
 10
1412714.69
 20
4931587.59
 30
0.0
  9
$LIMMIN
 10
0.0
 20
0.0
  9
$LIMMAX
 10
12.0
 20
9.0
  9
$ORTHOMODE
 70
     0
  9
$REGENMODE
 70
     1
  9
$FILLMODE
 70
     1
  9
$QTEXTMODE
 70
     0
  9
$MIRRTEXT
 70
     1
  9
$LTSCALE
 40
1.0
  9
$ATTMODE
 70
     1
  9
$TEXTSIZE
 40
0.2
  9
$TRACEWID
 40
0.05
  9
$TEXTSTYLE
  7
Standard
  9
$CLAYER
  8
0
  9
$CELTYPE
  6
ByLayer
  9
$CECOLOR
 62
   256
  9
$CELTSCALE
 40
1.0
  9
$DISPSILH
 70
     0
  9
$LUNITS
 70
     2
  9
$LUPREC
 70
     4
  9
$SKETCHINC
 40
0.1
  9
$FILLETRAD
 40
0.5
  9
$AUNITS
 70
     0
  9
$AUPREC
 70
     0
  9
$MENU
  1
.
  9
$ELEVATION
 40
0.0
  9
$PELEVATION
 40
0.0
  9
$THICKNESS
 40
0.0
  9
$LIMCHECK
 70
     0
  9
$CHAMFERA
 40
0.5
  9
$CHAMFERB
 40
0.5
  9
$CHAMFERC
 40
1.0
  9
$CHAMFERD
 40
0.0
  9
$SKPOLY
 70
     0
  9
$TDCREATE
 40
2455343.56230316
  9
$TDUCREATE
 40
2455343.728969826
  9
$TDUPDATE
 40
2455343.562303171
  9
$TDUUPDATE
 40
2455343.728969838
  9
$TDINDWG
 40
0.0000000116
  9
$TDUSRTIMER
 40
0.0000000116
  9
$USRTIMER
 70
     1
  9
$ANGBASE
 50
0.0
  9
$ANGDIR
 70
     0
  9
$PDMODE
 70
     0
  9
$PDSIZE
 40
0.0
  9
$PLINEWID
 40
0.0
  9
$SPLFRAME
 70
     0
  9
$SPLINETYPE
 70
     6
  9
$SPLINESEGS
 70
     8
  9
$HANDSEED
  5
0002006B
  9
$SURFTAB1
 70
     6
  9
$SURFTAB2
 70
     6
  9
$SURFTYPE
 70
     6
  9
$SURFU
 70
     6
  9
$SURFV
 70
     6
  9
$UCSBASE
  2

  9
$UCSNAME
  2

  9
$UCSORG
 10
0.0
 20
0.0
 30
0.0
  9
$UCSXDIR
 10
1.0
 20
0.0
 30
0.0
  9
$UCSYDIR
 10
0.0
 20
1.0
 30
0.0
  9
$UCSORTHOREF
  2

  9
$UCSORTHOVIEW
 70
     0
  9
$UCSORGTOP
 10
0.0
 20
0.0
 30
0.0
  9
$UCSORGBOTTOM
 10
0.0
 20
0.0
 30
0.0
  9
$UCSORGLEFT
 10
0.0
 20
0.0
 30
0.0
  9
$UCSORGRIGHT
 10
0.0
 20
0.0
 30
0.0
  9
$UCSORGFRONT
 10
0.0
 20
0.0
 30
0.0
  9
$UCSORGBACK
 10
0.0
 20
0.0
 30
0.0
  9
$PUCSBASE
  2

  9
$PUCSNAME
  2

  9
$PUCSORG
 10
0.0
 20
0.0
 30
0.0
  9
$PUCSXDIR
 10
1.0
 20
0.0
 30
0.0
  9
$PUCSYDIR
 10
0.0
 20
1.0
 30
0.0
  9
$PUCSORTHOREF
  2

  9
$PUCSORTHOVIEW
 70
     0
  9
$PUCSORGTOP
 10
0.0
 20
0.0
 30
0.0
  9
$PUCSORGBOTTOM
 10
0.0
 20
0.0
 30
0.0
  9
$PUCSORGLEFT
 10
0.0
 20
0.0
 30
0.0
  9
$PUCSORGRIGHT
 10
0.0
 20
0.0
 30
0.0
  9
$PUCSORGFRONT
 10
0.0
 20
0.0
 30
0.0
  9
$PUCSORGBACK
 10
0.0
 20
0.0
 30
0.0
  9
$WORLDVIEW
 70
     1
  9
$SHADEDGE
 70
     3
  9
$SHADEDIF
 70
    70
  9
$TILEMODE
 70
     1
  9
$MAXACTVP
 70
    64
  9
$PINSBASE
 10
0.0
 20
0.0
 30
0.0
  9
$PLIMCHECK
 70
     0
  9
$PEXTMIN
 10
1.000000000000000E+20
 20
1.000000000000000E+20
 30
1.000000000000000E+20
  9
$PEXTMAX
 10
-1.000000000000000E+20
 20
-1.000000000000000E+20
 30
-1.000000000000000E+20
  9
$PLIMMIN
 10
0.0
 20
0.0
  9
$PLIMMAX
 10
12.0
 20
9.0
  9
$UNITMODE
 70
     0
  9
$VISRETAIN
 70
     1
  9
$PLINEGEN
 70
     0
  9
$PSLTSCALE
 70
     1
  9
$TREEDEPTH
 70
  3020
  9
$CMLSTYLE
  2
Standard
  9
$CMLJUST
 70
     0
  9
$CMLSCALE
 40
1.0
  9
$PROXYGRAPHICS
 70
     1
  9
$MEASUREMENT
 70
     0
  9
$CELWEIGHT
370
    -1
  9
$ENDCAPS
280
     0
  9
$JOINSTYLE
280
     0
  9
$LWDISPLAY
290
     0
  9
$INSUNITS
 70
     1
  9
$HYPERLINKBASE
  1

  9
$STYLESHEET
  1

  9
$XEDIT
290
     1
  9
$CEPSNTYPE
380
     0
  9
$PSTYLEMODE
290
     1
  9
$FINGERPRINTGUID
  2
{E7F7769E-AACA-40AB-9EF3-61BBAFBCBA26}
  9
$VERSIONGUID
  2
{FAEB1C32-E019-11D5-929B-00C0DF256EC4}
  9
$EXTNAMES
290
     1
  9
$PSVPSCALE
 40
0.0
  9
$OLESTARTUP
290
     0
  9
$SORTENTS
280
   127
  9
$INDEXCTL
280
     0
  9
$HIDETEXT
280
     1
  9
$XCLIPFRAME
290
     0
  9
$HALOGAP
280
     0
  9
$OBSCOLOR
 70
   257
  9
$OBSLTYPE
280
     0
  9
$INTERSECTIONDISPLAY
280
     0
  9
$INTERSECTIONCOLOR
 70
   257
  9
$DIMASSOC
280
     2
  9
$PROJECTNAME
  1

  0
ENDSEC
  0
SECTION
  2
CLASSES
  0
CLASS
  1
ACDBDICTIONARYWDFLT
  2
AcDbDictionaryWithDefault
  3
ObjectDBX Classes
 90
        0
 91
        4
280
     0
281
     0
  0
CLASS
  1
VISUALSTYLE
  2
AcDbVisualStyle
  3
ObjectDBX Classes
 90
     4095
 91
        4
280
     0
281
     0
  0
ENDSEC
  0
SECTION
  2
TABLES
  0
TABLE
  2
VPORT
  5
8
330
0
100
AcDbSymbolTable
 70
     1
  0
VPORT
  5
29
330
8
100
AcDbSymbolTableRecord
100
AcDbViewportTableRecord
  2
*Active
 70
     0
 10
0.0
 20
0.0
 11
1.0
 21
1.0
 12
80.25
 22
106.4409457059851
 13
0.0
 23
0.0
 14
0.5
 24
0.5
 15
0.5
 25
0.5
 16
0.0
 26
0.0
 36
1.0
 17
0.0
 27
0.0
 37
0.0
 40
113.3818914119703
 41
0.8863849310366128
 42
50.0
 43
0.0
 44
0.0
 50
0.0
 51
0.0
 71
     0
 72
  1000
 73
     1
 74
     3
 75
     0
 76
     0
 77
     0
 78
     0
281
     0
 65
     1
110
0.0
120
0.0
130
0.0
111
1.0
121
0.0
131
0.0
112
0.0
122
1.0
132
0.0
 79
     0
146
0.0
  0
ENDTAB
  0
TABLE
  2
LTYPE
  5
5
330
0
100
AcDbSymbolTable
 70
     1
  0
LTYPE
  5
14
330
5
100
AcDbSymbolTableRecord
100
AcDbLinetypeTableRecord
  2
ByBlock
 70
     0
  3

 72
    65
 73
     0
 40
0.0
  0
LTYPE
  5
15
330
5
100
AcDbSymbolTableRecord
100
AcDbLinetypeTableRecord
  2
ByLayer
 70
     0
  3

 72
    65
 73
     0
 40
0.0
  0
LTYPE
  5
16
330
5
100
AcDbSymbolTableRecord
100
AcDbLinetypeTableRecord
  2
Continuous
 70
     0
  3
Solid line
 72
    65
 73
     0
 40
0.0
  0
ENDTAB
  0
TABLE
  2
LAYER
  5
2
330
0
100
AcDbSymbolTable
 70
     1
  0
LAYER
  5
10
330
2
100
AcDbSymbolTableRecord
100
AcDbLayerTableRecord
  2
0
 70
     0
 62
     7
  6
Continuous
370
    -3
390
F
  0
ENDTAB
  0
TABLE
  2
STYLE
  5
3
330
0
100
AcDbSymbolTable
 70
     1
  0
STYLE
  5
11
330
3
100
AcDbSymbolTableRecord
100
AcDbTextStyleTableRecord
  2
Standard
 70
     0
 40
0.0
 41
1.0
 50
0.0
 71
     0
 42
0.2
  3
txt
  4

  0
ENDTAB
  0
TABLE
  2
VIEW
  5
6
330
0
100
AcDbSymbolTable
 70
     0
  0
ENDTAB
  0
TABLE
  2
UCS
  5
7
330
0
100
AcDbSymbolTable
 70
     0
  0
ENDTAB
  0
TABLE
  2
APPID
  5
9
330
0
100
AcDbSymbolTable
 70
     1
  0
APPID
  5
12
330
9
100
AcDbSymbolTableRecord
100
AcDbRegAppTableRecord
  2
ACAD
 70
     0
  0
ENDTAB
  0
TABLE
  2
DIMSTYLE
  5
A
330
0
100
AcDbSymbolTable
 70
     1
100
AcDbDimStyleTable
  0
DIMSTYLE
105
27
330
A
100
AcDbSymbolTableRecord
100
AcDbDimStyleTableRecord
  2
Standard
 70
     0
340
11
  0
ENDTAB
  0
TABLE
  2
BLOCK_RECORD
  5
1
330
0
100
AcDbSymbolTable
 70
     1
  0
BLOCK_RECORD
  5
1F
330
1
100
AcDbSymbolTableRecord
100
AcDbBlockTableRecord
  2
*Model_Space
340
22
  0
BLOCK_RECORD
  5
1B
330
1
100
AcDbSymbolTableRecord
100
AcDbBlockTableRecord
  2
*Paper_Space
340
1E
  0
BLOCK_RECORD
  5
23
330
1
100
AcDbSymbolTableRecord
100
AcDbBlockTableRecord
  2
*Paper_Space0
340
26
  0
ENDTAB
  0
ENDSEC
  0
SECTION
  2
BLOCKS
  0
BLOCK
  5
20
330
1F
100
AcDbEntity
  8
0
100
AcDbBlockBegin
  2
*Model_Space
 70
     0
 10
0.0
 20
0.0
 30
0.0
  3
*Model_Space
  1

  0
ENDBLK
  5
21
330
1F
100
AcDbEntity
  8
0
100
AcDbBlockEnd
  0
BLOCK
  5
1C
330
1B
100
AcDbEntity
 67
     1
  8
0
100
AcDbBlockBegin
  2
*Paper_Space
 70
     0
 10
0.0
 20
0.0
 30
0.0
  3
*Paper_Space
  1

  0
ENDBLK
  5
1D
330
1B
100
AcDbEntity
 67
     1
  8
0
100
AcDbBlockEnd
  0
BLOCK
  5
24
330
23
100
AcDbEntity
  8
0
100
AcDbBlockBegin
  2
*Paper_Space0
 70
     0
 10
0.0
 20
0.0
 30
0.0
  3
*Paper_Space0
  1

  0
ENDBLK
  5
25
330
23
100
AcDbEntity
  8
0
100
AcDbBlockEnd
  0
ENDSEC
  0
SECTION
  2
ENTITIES
  0
POLYLINE
  5
20000
  8
0
100
AcDbEntity
100
AcDb3dPolyline
 10
0
 20
0
 30
0
 70
8
 66
1
  0
VERTEX
100
AcDbEntity
100
AcDbVertex
100
AcDb3dPolylineVertex
  5
20001
  8
0
 10
1412628.11
 20
4931577.5
 30
68.42
 70
32
  0
VERTEX
100
AcDbEntity
100
AcDbVertex
100
AcDb3dPolylineVertex
  5
20002
  8
0
 10
1412633.05
 20
4931574.19
 30
69.06
 70
32
  0
VERTEX
100
AcDbEntity
100
AcDbVertex
100
AcDb3dPolylineVertex
  5
20003
  8
0
 10
1412634.96
 20
4931570.18
 30
69.4
 70
32
  0
VERTEX
100
AcDbEntity
100
AcDbVertex
100
AcDb3dPolylineVertex
  5
20004
  8
0
 10
1412641.65
 20
4931558.92
 30
70.03
 70
32
  0
VERTEX
100
AcDbEntity
100
AcDbVertex
100
AcDb3dPolylineVertex
  5
20005
  8
0
 10
1412643.23
 20
4931552.22
 30
71.36
 70
32
  0
VERTEX
100
AcDbEntity
100
AcDbVertex
100
AcDb3dPolylineVertex
  5
20006
  8
0
 10
1412645.18
 20
4931545.9
 30
73.16
 70
32
  0
VERTEX
100
AcDbEntity
100
AcDbVertex
100
AcDb3dPolylineVertex
  5
20007
  8
0
 10
1412648.78
 20
4931537.03
 30
74.13
 70
32
  0
VERTEX
100
AcDbEntity
100
AcDbVertex
100
AcDb3dPolylineVertex
  5
20008
  8
0
 10
1412651.34
 20
4931534.66
 30
74.62
 70
32
  0
VERTEX
100
AcDbEntity
100
AcDbVertex
100
AcDb3dPolylineVertex
  5
20009
  8
0
 10
1412654.11
 20
4931534.38
 30
74.24
 70
32
  0
VERTEX
100
AcDbEntity
100
AcDbVertex
100
AcDb3dPolylineVertex
  5
2000A
  8
0
 10
1412662.28
 20
4931539.83
 30
71.4
 70
32
  0
SEQEND
  5
2000B
  8
0
100
AcDbEntity
  0
POLYLINE
  5
2000C
  8
0
100
AcDbEntity
100
AcDb3dPolyline
 10
0
 20
0
 30
0
 70
8
 66
1
  0
VERTEX
100
AcDbEntity
100
AcDbVertex
100
AcDb3dPolylineVertex
  5
2000D
  8
0
 10
1412625.83
 20
4931580.38
 30
67.99
 70
32
  0
VERTEX
100
AcDbEntity
100
AcDbVertex
100
AcDb3dPolylineVertex
  5
2000E
  8
0
 10
1412628.75
 20
4931581.8
 30
68.29
 70
32
  0
VERTEX
100
AcDbEntity
100
AcDbVertex
100
AcDb3dPolylineVertex
  5
2000F
  8
0
 10
1412632.64
 20
4931582.21
 30
68.47
 70
32
  0
VERTEX
100
AcDbEntity
100
AcDbVertex
100
AcDb3dPolylineVertex
  5
20010
  8
0
 10
1412634.8
 20
4931580.2
 30
68.43
 70
32
  0
VERTEX
100
AcDbEntity
100
AcDbVertex
100
AcDb3dPolylineVertex
  5
20011
  8
0
 10
1412637.58
 20
4931576.34
 30
69.02
 70
32
  0
VERTEX
100
AcDbEntity
100
AcDbVertex
100
AcDb3dPolylineVertex
  5
20012
  8
0
 10
1412641.3
 20
4931568.83
 30
69.52
 70
32
  0
VERTEX
100
AcDbEntity
100
AcDbVertex
100
AcDb3dPolylineVertex
  5
20013
  8
0
 10
1412646.46
 20
4931561.43
 30
69.59
 70
32
  0
VERTEX
100
AcDbEntity
100
AcDbVertex
100
AcDb3dPolylineVertex
  5
20014
  8
0
 10
1412653.58
 20
4931556.32
 30
68.6
 70
32
  0
VERTEX
100
AcDbEntity
100
AcDbVertex
100
AcDb3dPolylineVertex
  5
20015
  8
0
 10
1412661.21
 20
4931552.91
 30
66.66
 70
32
  0
VERTEX
100
AcDbEntity
100
AcDbVertex
100
AcDb3dPolylineVertex
  5
20016
  8
0
 10
1412664.41
 20
4931553.01
 30
66.61
 70
32
  0
VERTEX
100
AcDbEntity
100
AcDbVertex
100
AcDb3dPolylineVertex
  5
20017
  8
0
 10
1412671.43
 20
4931552.25
 30
66.49
 70
32
  0
VERTEX
100
AcDbEntity
100
AcDbVertex
100
AcDb3dPolylineVertex
  5
20018
  8
0
 10
1412680.76
 20
4931551.75
 30
65.67
 70
32
  0
VERTEX
100
AcDbEntity
100
AcDbVertex
100
AcDb3dPolylineVertex
  5
20019
  8
0
 10
1412690.96
 20
4931557.29
 30
64.09
 70
32
  0
VERTEX
100
AcDbEntity
100
AcDbVertex
100
AcDb3dPolylineVertex
  5
2001A
  8
0
 10
1412699.75
 20
4931563.42
 30
62.68
 70
32
  0
VERTEX
100
AcDbEntity
100
AcDbVertex
100
AcDb3dPolylineVertex
  5
2001B
  8
0
 10
1412708.32
 20
4931567.05
 30
60.96
 70
32
  0
SEQEND
  5
2001C
  8
0
100
AcDbEntity
  0
POLYLINE
  5
2001D
  8
0
100
AcDbEntity
100
AcDb3dPolyline
 10
0
 20
0
 30
0
 70
8
 66
1
  0
VERTEX
100
AcDbEntity
100
AcDbVertex
100
AcDb3dPolylineVertex
  5
2001E
  8
0
 10
1412635.73
 20
4931573.34
 30
69.13
 70
32
  0
VERTEX
100
AcDbEntity
100
AcDbVertex
100
AcDb3dPolylineVertex
  5
2001F
  8
0
 10
1412640.21
 20
4931565.93
 30
69.78
 70
32
  0
VERTEX
100
AcDbEntity
100
AcDbVertex
100
AcDb3dPolylineVertex
  5
20020
  8
0
 10
1412645.09
 20
4931558.53
 30
69.78
 70
32
  0
VERTEX
100
AcDbEntity
100
AcDbVertex
100
AcDb3dPolylineVertex
  5
20021
  8
0
 10
1412645.08
 20
4931557.36
 30
69.98
 70
32
  0
VERTEX
100
AcDbEntity
100
AcDbVertex
100
AcDb3dPolylineVertex
  5
20022
  8
0
 10
1412645.22
 20
4931550.52
 30
71.84
 70
32
  0
VERTEX
100
AcDbEntity
100
AcDbVertex
100
AcDb3dPolylineVertex
  5
20023
  8
0
 10
1412648.72
 20
4931542.76
 30
73.79
 70
32
  0
VERTEX
100
AcDbEntity
100
AcDbVertex
100
AcDb3dPolylineVertex
  5
20024
  8
0
 10
1412653.69
 20
4931538.27
 30
73.94
 70
32
  0
SEQEND
  5
20025
  8
0
100
AcDbEntity
  0
POLYLINE
  5
20026
  8
0
100
AcDbEntity
100
AcDb3dPolyline
 10
0
 20
0
 30
0
 70
8
 66
1
  0
VERTEX
100
AcDbEntity
100
AcDbVertex
100
AcDb3dPolylineVertex
  5
20027
  8
0
 10
1412624.31
 20
4931582.43
 30
66.87
 70
32
  0
VERTEX
100
AcDbEntity
100
AcDbVertex
100
AcDb3dPolylineVertex
  5
20028
  8
0
 10
1412625.64
 20
4931584.3
 30
66.05
 70
32
  0
VERTEX
100
AcDbEntity
100
AcDbVertex
100
AcDb3dPolylineVertex
  5
20029
  8
0
 10
1412628.73
 20
4931586.46
 30
65.28
 70
32
  0
VERTEX
100
AcDbEntity
100
AcDbVertex
100
AcDb3dPolylineVertex
  5
2002A
  8
0
 10
1412633.2
 20
4931587.59
 30
64.65
 70
32
  0
VERTEX
100
AcDbEntity
100
AcDbVertex
100
AcDb3dPolylineVertex
  5
2002B
  8
0
 10
1412637.92
 20
4931585.4
 30
64.18
 70
32
  0
VERTEX
100
AcDbEntity
100
AcDbVertex
100
AcDb3dPolylineVertex
  5
2002C
  8
0
 10
1412637.83
 20
4931584.3
 30
64.97
 70
32
  0
VERTEX
100
AcDbEntity
100
AcDbVertex
100
AcDb3dPolylineVertex
  5
2002D
  8
0
 10
1412637.83
 20
4931584.3
 30
64.97
 70
32
  0
VERTEX
100
AcDbEntity
100
AcDbVertex
100
AcDb3dPolylineVertex
  5
2002E
  8
0
 10
1412645.14
 20
4931573.48
 30
65.74
 70
32
  0
VERTEX
100
AcDbEntity
100
AcDbVertex
100
AcDb3dPolylineVertex
  5
2002F
  8
0
 10
1412645.14
 20
4931573.48
 30
65.74
 70
32
  0
VERTEX
100
AcDbEntity
100
AcDbVertex
100
AcDb3dPolylineVertex
  5
20030
  8
0
 10
1412645.14
 20
4931573.48
 30
65.74
 70
32
  0
VERTEX
100
AcDbEntity
100
AcDbVertex
100
AcDb3dPolylineVertex
  5
20031
  8
0
 10
1412646.51
 20
4931569.94
 30
66.18
 70
32
  0
VERTEX
100
AcDbEntity
100
AcDbVertex
100
AcDb3dPolylineVertex
  5
20032
  8
0
 10
1412645.58
 20
4931567.64
 30
67.35
 70
32
  0
SEQEND
  5
20033
  8
0
100
AcDbEntity
  0
POLYLINE
  5
20034
  8
0
100
AcDbEntity
100
AcDb3dPolyline
 10
0
 20
0
 30
0
 70
8
 66
1
  0
VERTEX
100
AcDbEntity
100
AcDbVertex
100
AcDb3dPolylineVertex
  5
20035
  8
0
 10
1412645.09
 20
4931558.53
 30
69.78
 70
32
  0
VERTEX
100
AcDbEntity
100
AcDbVertex
100
AcDb3dPolylineVertex
  5
20036
  8
0
 10
1412661.49
 20
4931550.97
 30
66.86
 70
32
  0
VERTEX
100
AcDbEntity
100
AcDbVertex
100
AcDb3dPolylineVertex
  5
20037
  8
0
 10
1412674.09
 20
4931550.21
 30
66.35
 70
32
  0
VERTEX
100
AcDbEntity
100
AcDbVertex
100
AcDb3dPolylineVertex
  5
20038
  8
0
 10
1412683.54
 20
4931551.15
 30
65.32
 70
32
  0
VERTEX
100
AcDbEntity
100
AcDbVertex
100
AcDb3dPolylineVertex
  5
20039
  8
0
 10
1412691.99
 20
4931555.2
 30
64.06
 70
32
  0
VERTEX
100
AcDbEntity
100
AcDbVertex
100
AcDb3dPolylineVertex
  5
2003A
  8
0
 10
1412700.83
 20
4931560.13
 30
62.77
 70
32
  0
VERTEX
100
AcDbEntity
100
AcDbVertex
100
AcDb3dPolylineVertex
  5
2003B
  8
0
 10
1412709.01
 20
4931564.18
 30
61.18
 70
32
  0
SEQEND
  5
2003C
  8
0
100
AcDbEntity
  0
POLYLINE
  5
2003D
  8
0
100
AcDbEntity
100
AcDb3dPolyline
 10
0
 20
0
 30
0
 70
8
 66
1
  0
VERTEX
100
AcDbEntity
100
AcDbVertex
100
AcDb3dPolylineVertex
  5
2003E
  8
0
 10
1412646.87
 20
4931551.86
 30
71.41
 70
32
  0
VERTEX
100
AcDbEntity
100
AcDbVertex
100
AcDb3dPolylineVertex
  5
2003F
  8
0
 10
1412664.06
 20
4931547.3
 30
67.94
 70
32
  0
VERTEX
100
AcDbEntity
100
AcDbVertex
100
AcDb3dPolylineVertex
  5
20040
  8
0
 10
1412680.47
 20
4931547.31
 30
67.17
 70
32
  0
VERTEX
100
AcDbEntity
100
AcDbVertex
100
AcDb3dPolylineVertex
  5
20041
  8
0
 10
1412698.54
 20
4931552.49
 30
66.94
 70
32
  0
VERTEX
100
AcDbEntity
100
AcDbVertex
100
AcDb3dPolylineVertex
  5
20042
  8
0
 10
1412706.91
 20
4931556.07
 30
65.65
 70
32
  0
VERTEX
100
AcDbEntity
100
AcDbVertex
100
AcDb3dPolylineVertex
  5
20043
  8
0
 10
1412714.69
 20
4931563.43
 30
61.98
 70
32
  0
SEQEND
  5
20044
  8
0
100
AcDbEntity
  0
POLYLINE
  5
20045
  8
0
100
AcDbEntity
100
AcDb3dPolyline
 10
0
 20
0
 30
0
 70
8
 66
1
  0
VERTEX
100
AcDbEntity
100
AcDbVertex
100
AcDb3dPolylineVertex
  5
20046
  8
0
 10
1412711.73
 20
4931562.82
 30
60.68
 70
32
  0
VERTEX
100
AcDbEntity
100
AcDbVertex
100
AcDb3dPolylineVertex
  5
20047
  8
0
 10
1412700.57
 20
4931556.35
 30
62.42
 70
32
  0
VERTEX
100
AcDbEntity
100
AcDbVertex
100
AcDb3dPolylineVertex
  5
20048
  8
0
 10
1412691.34
 20
4931552.07
 30
64.13
 70
32
  0
VERTEX
100
AcDbEntity
100
AcDbVertex
100
AcDb3dPolylineVertex
  5
20049
  8
0
 10
1412681.93
 20
4931548.05
 30
65.54
 70
32
  0
VERTEX
100
AcDbEntity
100
AcDbVertex
100
AcDb3dPolylineVertex
  5
2004A
  8
0
 10
1412672.34
 20
4931547.94
 30
66.31
 70
32
  0
VERTEX
100
AcDbEntity
100
AcDbVertex
100
AcDb3dPolylineVertex
  5
2004B
  8
0
 10
1412661.77
 20
4931549.26
 30
66.87
 70
32
  0
VERTEX
100
AcDbEntity
100
AcDbVertex
100
AcDb3dPolylineVertex
  5
2004C
  8
0
 10
1412658.05
 20
4931550.37
 30
67.42
 70
32
  0
VERTEX
100
AcDbEntity
100
AcDbVertex
100
AcDb3dPolylineVertex
  5
2004D
  8
0
 10
1412653.65
 20
4931552.02
 30
68.46
 70
32
  0
VERTEX
100
AcDbEntity
100
AcDbVertex
100
AcDb3dPolylineVertex
  5
2004E
  8
0
 10
1412647.75
 20
4931555.08
 30
69.7
 70
32
  0
SEQEND
  5
2004F
  8
0
100
AcDbEntity
  0
POLYLINE
  5
20050
  8
0
100
AcDbEntity
100
AcDb3dPolyline
 10
0
 20
0
 30
0
 70
8
 66
1
  0
VERTEX
100
AcDbEntity
100
AcDbVertex
100
AcDb3dPolylineVertex
  5
20051
  8
0
 10
1412658.73
 20
4931539.6
 30
73.65
 70
32
  0
VERTEX
100
AcDbEntity
100
AcDbVertex
100
AcDb3dPolylineVertex
  5
20052
  8
0
 10
1412658.43
 20
4931540.36
 30
73.55
 70
32
  0
VERTEX
100
AcDbEntity
100
AcDbVertex
100
AcDb3dPolylineVertex
  5
20053
  8
0
 10
1412655.52
 20
4931542.27
 30
73.87
 70
32
  0
VERTEX
100
AcDbEntity
100
AcDbVertex
100
AcDb3dPolylineVertex
  5
20054
  8
0
 10
1412646.87
 20
4931551.86
 30
71.41
 70
32
  0
SEQEND
  5
20055
  8
0
100
AcDbEntity
  0
POLYLINE
  5
20056
  8
0
100
AcDbEntity
100
AcDb3dPolyline
 10
0
 20
0
 30
0
 70
8
 66
1
  0
VERTEX
100
AcDbEntity
100
AcDbVertex
100
AcDb3dPolylineVertex
  5
20057
  8
0
 10
1412637.51
 20
4931561.72
 30
73.08
 70
32
  0
VERTEX
100
AcDbEntity
100
AcDbVertex
100
AcDb3dPolylineVertex
  5
20058
  8
0
 10
1412642.32
 20
4931553.03
 30
73.7
 70
32
  0
VERTEX
100
AcDbEntity
100
AcDbVertex
100
AcDb3dPolylineVertex
  5
20059
  8
0
 10
1412642.88
 20
4931549.84
 30
74.34
 70
32
  0
VERTEX
100
AcDbEntity
100
AcDbVertex
100
AcDb3dPolylineVertex
  5
2005A
  8
0
 10
1412643.18
 20
4931547.95
 30
74.57
 70
32
  0
VERTEX
100
AcDbEntity
100
AcDbVertex
100
AcDb3dPolylineVertex
  5
2005B
  8
0
 10
1412643.64
 20
4931546.41
 30
74.59
 70
32
  0
SEQEND
  5
2005C
  8
0
100
AcDbEntity
  0
POLYLINE
  5
2005D
  8
0
100
AcDbEntity
100
AcDb3dPolyline
 10
0
 20
0
 30
0
 70
8
 66
1
  0
VERTEX
100
AcDbEntity
100
AcDbVertex
100
AcDb3dPolylineVertex
  5
2005E
  8
0
 10
1412644.83
 20
4931543.72
 30
75.27
 70
32
  0
VERTEX
100
AcDbEntity
100
AcDbVertex
100
AcDb3dPolylineVertex
  5
2005F
  8
0
 10
1412646.03
 20
4931539.83
 30
76.74
 70
32
  0
VERTEX
100
AcDbEntity
100
AcDbVertex
100
AcDb3dPolylineVertex
  5
20060
  8
0
 10
1412646.99
 20
4931536.82
 30
77.77
 70
32
  0
VERTEX
100
AcDbEntity
100
AcDbVertex
100
AcDb3dPolylineVertex
  5
20061
  8
0
 10
1412648.15
 20
4931534.19
 30
78.31
 70
32
  0
VERTEX
100
AcDbEntity
100
AcDbVertex
100
AcDb3dPolylineVertex
  5
20062
  8
0
 10
1412651.5
 20
4931532.78
 30
77.48
 70
32
  0
VERTEX
100
AcDbEntity
100
AcDbVertex
100
AcDb3dPolylineVertex
  5
20063
  8
0
 10
1412653.74
 20
4931532.89
 30
76.51
 70
32
  0
VERTEX
100
AcDbEntity
100
AcDbVertex
100
AcDb3dPolylineVertex
  5
20064
  8
0
 10
1412655.25
 20
4931533.57
 30
75.86
 70
32
  0
VERTEX
100
AcDbEntity
100
AcDbVertex
100
AcDb3dPolylineVertex
  5
20065
  8
0
 10
1412657.05
 20
4931534.8
 30
74.68
 70
32
  0
SEQEND
  5
20066
  8
0
100
AcDbEntity
  0
POLYLINE
  5
20067
  8
0
100
AcDbEntity
100
AcDb3dPolyline
 10
0
 20
0
 30
0
 70
8
 66
1
  0
VERTEX
100
AcDbEntity
100
AcDbVertex
100
AcDb3dPolylineVertex
  5
20068
  8
0
 10
1412644.83
 20
4931543.72
 30
75.27
 70
32
  0
VERTEX
100
AcDbEntity
100
AcDbVertex
100
AcDb3dPolylineVertex
  5
20069
  8
0
 10
1412643.51
 20
4931548.07
 30
74.4
 70
32
  0
SEQEND
  5
2006A
  8
0
100
AcDbEntity
  0
ENDSEC
  0
SECTION
  2
OBJECTS
  0
DICTIONARY
  5
C
330
0
100
AcDbDictionary
281
     1
  3
ACAD_GROUP
350
D
  0
DICTIONARY
  5
D
102
{ACAD_REACTORS
330
C
102
}
330
C
100
AcDbDictionary
281
     1
  0
ENDSEC
  0
EOF
