  0
SECTION
  2
HEADER
  9
$ACADVER
  1
AC1009
  9
$INSBASE
 10
0.0
 20
0.0
 30
0.0
  9
$EXTMIN
 10
0.0
 20
0.0
 30
0.0
  9
$EXTMAX
 10
100.0
 20
100.0
 30
0.0
  9
$UNITMODE
 70
0
  9
$AUNITS
 70
0
  9
$ANGBASE
 50
0.0
  9
$ANGDIR
 70
0
  0
ENDSEC
  0
SECTION
  2
TABLES
  0
TABLE
  2
LTYPE
 70
19
  0
LTYPE
  2
CONTINUOUS
 70
0
  3
Solid
 72
65
 73
0
 40
0.0
  0
LTYPE
  2
CENTER
 70
0
  3
Center ____ _ ____ _ ____ _ ____ _ ____ _ ____
 72
65
 73
4
 40
2.0
 49
1.25
 49
-0.25
 49
0.25
 49
-0.25
  0
LTYPE
  2
CENTERX2
 70
0
  3
Center (2x) ________  __  ________  __  ________
 72
65
 73
4
 40
3.5
 49
2.5
 49
-0.25
 49
0.5
 49
-0.25
  0
LTYPE
  2
CENTER2
 70
0
  3
Center (.5x) ____ _ ____ _ ____ _ ____ _ ____
 72
65
 73
4
 40
1.0
 49
0.625
 49
-0.125
 49
0.125
 49
-0.125
  0
LTYPE
  2
DASHED
 70
0
  3
Dashed __ __ __ __ __ __ __ __ __ __ __ __ __ _
 72
65
 73
2
 40
0.6
 49
0.5
 49
-0.1
  0
LTYPE
  2
DASHEDX2
 70
0
  3
Dashed (2x) ____  ____  ____  ____  ____  ____
 72
65
 73
2
 40
1.2
 49
1.0
 49
-0.2
  0
LTYPE
  2
DASHED2
 70
0
  3
Dashed (.5x) _ _ _ _ _ _ _ _ _ _ _ _ _ _
 72
65
 73
2
 40
0.3
 49
0.25
 49
-0.05
  0
LTYPE
  2
PHANTOM
 70
0
  3
Phantom ______  __  __  ______  __  __  ______
 72
65
 73
6
 40
2.5
 49
1.25
 49
-0.25
 49
0.25
 49
-0.25
 49
0.25
 49
-0.25
  0
LTYPE
  2
PHANTOMX2
 70
0
  3
Phantom (2x)____________    ____    ____    ____________
 72
65
 73
6
 40
4.25
 49
2.5
 49
-0.25
 49
0.5
 49
-0.25
 49
0.5
 49
-0.25
  0
LTYPE
  2
PHANTOM2
 70
0
  3
Phantom (.5x) ___ _ _ ___ _ _ ___ _ _ ___ _ _ ___
 72
65
 73
6
 40
1.25
 49
0.625
 49
-0.125
 49
0.125
 49
-0.125
 49
0.125
 49
-0.125
  0
LTYPE
  2
DASHDOT
 70
0
  3
Dash dot __ . __ . __ . __ . __ . __ . __ . __
 72
65
 73
4
 40
1.4
 49
1.0
 49
-0.2
 49
0.0
 49
-0.2
  0
LTYPE
  2
DASHDOTX2
 70
0
  3
Dash dot (2x) ____  .  ____  .  ____  .  ____
 72
65
 73
4
 40
2.4
 49
2.0
 49
-0.2
 49
0.0
 49
-0.2
  0
LTYPE
  2
DASHDOT2
 70
0
  3
Dash dot (.5x) _ . _ . _ . _ . _ . _ . _ . _
 72
65
 73
4
 40
0.7
 49
0.5
 49
-0.1
 49
0.0
 49
-0.1
  0
LTYPE
  2
DOT
 70
0
  3
Dot .  .  .  .  .  .  .  .  .  .  .  .  .  .  .  .
 72
65
 73
2
 40
0.2
 49
0.0
 49
-0.2
  0
LTYPE
  2
DOTX2
 70
0
  3
Dot (2x) .    .    .    .    .    .    .    . 
 72
65
 73
2
 40
0.4
 49
0.0
 49
-0.4
  0
LTYPE
  2
DOT2
 70
0
  3
Dot (.5) . . . . . . . . . . . . . . . . . . . 
 72
65
 73
2
 40
0.1
 49
0.0
 49
-0.1
  0
LTYPE
  2
DIVIDE
 70
0
  3
Divide __ . . __ . . __ . . __ . . __ . . __
 72
65
 73
6
 40
1.6
 49
1.0
 49
-0.2
 49
0.0
 49
-0.2
 49
0.0
 49
-0.2
  0
LTYPE
  2
DIVIDEX2
 70
0
  3
Divide (2x) ____  . .  ____  . .  ____  . .  ____
 72
65
 73
6
 40
2.6
 49
2.0
 49
-0.2
 49
0.0
 49
-0.2
 49
0.0
 49
-0.2
  0
LTYPE
  2
DIVIDE2
 70
0
  3
Divide(.5x) _ . _ . _ . _ . _ . _ . _ . _
 72
65
 73
6
 40
0.8
 49
0.5
 49
-0.1
 49
0.0
 49
-0.1
 49
0.0
 49
-0.1
  0
ENDTAB
  0
TABLE
  2
LAYER
 70
6
  0
LAYER
  2
DIMENSIONS
 70
0
 62
1
  6
CONTINUOUS
  0
LAYER
  2
TABLEBACKGROUND
 70
0
 62
1
  6
CONTINUOUS
  0
LAYER
  2
TABLECONTENT
 70
0
 62
1
  6
CONTINUOUS
  0
LAYER
  2
TABLEGRID
 70
0
 62
1
  6
CONTINUOUS
  0
LAYER
  2
VIEWPORTS
 70
0
 62
7
  6
CONTINUOUS
  0
LAYER
  2
TOPPLATFORM iNTERPOLATED
 70
0
 62
1
  6
CONTINUOUS
  0
ENDTAB
  0
TABLE
  2
STYLE
 70
12
  0
STYLE
  2
STANDARD
 70
0
 40
0.0
 41
1.0
 42
1.0
 50
0.0
 71
0
  3
arial.ttf
  4

  0
STYLE
  2
ARIAL
 70
0
 40
0.0
 41
1.0
 42
1.0
 50
0.0
 71
0
  3
arial.ttf
  4

  0
STYLE
  2
ARIAL_BOLD
 70
0
 40
0.0
 41
1.0
 42
1.0
 50
0.0
 71
0
  3
arialbd.ttf
  4

  0
STYLE
  2
ARIAL_ITALIC
 70
0
 40
0.0
 41
1.0
 42
1.0
 50
0.0
 71
0
  3
ariali.ttf
  4

  0
STYLE
  2
ARIAL_BOLD_ITALIC
 70
0
 40
0.0
 41
1.0
 42
1.0
 50
0.0
 71
0
  3
arialbi.ttf
  4

  0
STYLE
  2
ARIAL_BLACK
 70
0
 40
0.0
 41
1.0
 42
1.0
 50
0.0
 71
0
  3
ariblk.ttf
  4

  0
STYLE
  2
ISOCPEUR
 70
0
 40
0.0
 41
1.0
 42
1.0
 50
0.0
 71
0
  3
isocpeur.ttf
  4

  0
STYLE
  2
ISOCPEUR_ITALIC
 70
0
 40
0.0
 41
1.0
 42
1.0
 50
0.0
 71
0
  3
isocpeui.ttf
  4

  0
STYLE
  2
TIMES
 70
0
 40
0.0
 41
1.0
 42
1.0
 50
0.0
 71
0
  3
times.ttf
  4

  0
STYLE
  2
TIMES_BOLD
 70
0
 40
0.0
 41
1.0
 42
1.0
 50
0.0
 71
0
  3
timesbd.ttf
  4

  0
STYLE
  2
TIMES_ITALIC
 70
0
 40
0.0
 41
1.0
 42
1.0
 50
0.0
 71
0
  3
timesi.ttf
  4

  0
STYLE
  2
TIMES_BOLD_ITALIC
 70
0
 40
0.0
 41
1.0
 42
1.0
 50
0.0
 71
0
  3
timesbi.ttf
  4

  0
ENDTAB
  0
TABLE
  2
VIEW
 70
0
  0
ENDTAB
  0
TABLE
  2
APPID
 70
1
  0
APPID
  2
DXFWRITE
 70
0
  0
ENDTAB
  0
TABLE
  2
VPORT
 70
0
  0
ENDTAB
  0
TABLE
  2
UCS
 70
0
  0
ENDTAB
  0
ENDSEC
  0
SECTION
  2
BLOCKS
  0
ENDSEC
  0
SECTION
  2
ENTITIES
  0
VIEWPORT
  8
VIEWPORTS
 67
1
 10
0.0
 20
0.0
 30
0.0
 40
1.0
 41
1.0
 68
1
 69
1
1001
ACAD
1000
MVIEW
1002
{
1070
16
1010
0.0
1020
0.0
1030
0.0
1010
0.0
1020
0.0
1030
0.0
1040
0.0
1040
1.0
1040
0.0
1040
0.0
1040
50.0
1040
0.0
1040
0.0
1070
0
1070
100
1070
1
1070
3
1070
0
1070
0
1070
0
1070
0
1040
0.0
1040
0.0
1040
0.0
1040
0.1
1040
0.1
1040
0.1
1040
0.1
1070
0
1002
{
1002
}
1002
}
  0
POLYLINE
 62
7
  8
TOPPLATFORM iNTERPOLATED
 66
1
 10
0.0
 20
0.0
 30
0.0
 70
8
  0
VERTEX
  8
TOPPLATFORM iNTERPOLATED
 10
0.11881503108683285
 20
73.967484
 30
0.0
  0
VERTEX
  8
TOPPLATFORM iNTERPOLATED
 10
0.2376300621736657
 20
73.983882
 30
0.0
  0
VERTEX
  8
TOPPLATFORM iNTERPOLATED
 10
0.35644509326049856
 20
73.971471
 30
0.0
  0
VERTEX
  8
TOPPLATFORM iNTERPOLATED
 10
0.4752601243473314
 20
73.967698
 30
0.0
  0
VERTEX
  8
TOPPLATFORM iNTERPOLATED
 10
0.5940751554341642
 20
73.975457
 30
0.0
  0
VERTEX
  8
TOPPLATFORM iNTERPOLATED
 10
0.7128901865209971
 20
73.971684
 30
0.0
  0
VERTEX
  8
TOPPLATFORM iNTERPOLATED
 10
0.8317052176078299
 20
73.979291
 30
0.0
  0
VERTEX
  8
TOPPLATFORM iNTERPOLATED
 10
0.9505202486946628
 20
73.975671
 30
0.0
  0
VERTEX
  8
TOPPLATFORM iNTERPOLATED
 10
1.0693352797814957
 20
73.971898
 30
0.0
  0
VERTEX
  8
TOPPLATFORM iNTERPOLATED
 10
1.1881503108683285
 20
73.979657
 30
0.0
  0
VERTEX
  8
TOPPLATFORM iNTERPOLATED
 10
1.3069653419551612
 20
73.975885
 30
0.0
  0
VERTEX
  8
TOPPLATFORM iNTERPOLATED
 10
1.4257803730419942
 20
73.983542
 30
0.0
  0
VERTEX
  8
TOPPLATFORM iNTERPOLATED
 10
1.544595404128827
 20
73.979871
 30
0.0
  0
VERTEX
  8
TOPPLATFORM iNTERPOLATED
 10
1.6634104352156598
 20
73.976099
 30
0.0
  0
VERTEX
  8
TOPPLATFORM iNTERPOLATED
 10
1.7822254663024928
 20
73.983858
 30
0.0
  0
VERTEX
  8
TOPPLATFORM iNTERPOLATED
 10
1.9010404973893256
 20
73.980085
 30
0.0
  0
VERTEX
  8
TOPPLATFORM iNTERPOLATED
 10
2.0198555284761586
 20
73.976313
 30
0.0
  0
VERTEX
  8
TOPPLATFORM iNTERPOLATED
 10
2.1386705595629913
 20
73.984072
 30
0.0
  0
VERTEX
  8
TOPPLATFORM iNTERPOLATED
 10
2.257485590649824
 20
73.980299
 30
0.0
  0
VERTEX
  8
TOPPLATFORM iNTERPOLATED
 10
2.376300621736657
 20
73.988058
 30
0.0
  0
VERTEX
  8
TOPPLATFORM iNTERPOLATED
 10
2.4951156528234897
 20
73.984285
 30
0.0
  0
VERTEX
  8
TOPPLATFORM iNTERPOLATED
 10
2.6139306839103225
 20
73.980513
 30
0.0
  0
VERTEX
  8
TOPPLATFORM iNTERPOLATED
 10
2.7327457149971557
 20
73.988272
 30
0.0
  0
VERTEX
  8
TOPPLATFORM iNTERPOLATED
 10
2.8515607460839885
 20
73.984499
 30
0.0
  0
VERTEX
  8
TOPPLATFORM iNTERPOLATED
 10
2.9703757771708212
 20
73.992258
 30
0.0
  0
VERTEX
  8
TOPPLATFORM iNTERPOLATED
 10
3.089190808257654
 20
73.988486
 30
0.0
  0
VERTEX
  8
TOPPLATFORM iNTERPOLATED
 10
3.208005839344487
 20
73.984713
 30
0.0
  0
VERTEX
  8
TOPPLATFORM iNTERPOLATED
 10
3.3268208704313196
 20
73.992472
 30
0.0
  0
VERTEX
  8
TOPPLATFORM iNTERPOLATED
 10
3.445635901518153
 20
73.9887
 30
0.0
  0
VERTEX
  8
TOPPLATFORM iNTERPOLATED
 10
3.5644509326049856
 20
73.984927
 30
0.0
  0
VERTEX
  8
TOPPLATFORM iNTERPOLATED
 10
3.6832659636918184
 20
73.992686
 30
0.0
  0
VERTEX
  8
TOPPLATFORM iNTERPOLATED
 10
3.802080994778651
 20
73.988913
 30
0.0
  0
VERTEX
  8
TOPPLATFORM iNTERPOLATED
 10
3.920896025865484
 20
73.996672
 30
0.0
  0
VERTEX
  8
TOPPLATFORM iNTERPOLATED
 10
4.039711056952317
 20
73.9929
 30
0.0
  0
VERTEX
  8
TOPPLATFORM iNTERPOLATED
 10
4.1585260880391495
 20
73.989127
 30
0.0
  0
VERTEX
  8
TOPPLATFORM iNTERPOLATED
 10
4.277341119125983
 20
73.996886
 30
0.0
  0
VERTEX
  8
TOPPLATFORM iNTERPOLATED
 10
4.396156150212815
 20
73.993114
 30
0.0
  0
VERTEX
  8
TOPPLATFORM iNTERPOLATED
 10
4.514971181299648
 20
74.000873
 30
0.0
  0
VERTEX
  8
TOPPLATFORM iNTERPOLATED
 10
4.6337862123864815
 20
73.9971
 30
0.0
  0
VERTEX
  8
TOPPLATFORM iNTERPOLATED
 10
4.752601243473314
 20
73.993328
 30
0.0
  0
VERTEX
  8
TOPPLATFORM iNTERPOLATED
 10
4.871416274560147
 20
74.001087
 30
0.0
  0
VERTEX
  8
TOPPLATFORM iNTERPOLATED
 10
4.990231305646979
 20
74.003335
 30
0.0
  0
VERTEX
  8
TOPPLATFORM iNTERPOLATED
 10
5.109046336733813
 20
74.012554
 30
0.0
  0
VERTEX
  8
TOPPLATFORM iNTERPOLATED
 10
5.227861367820645
 20
74.016303
 30
0.0
  0
VERTEX
  8
TOPPLATFORM iNTERPOLATED
 10
5.346676398907478
 20
74.018975
 30
0.0
  0
VERTEX
  8
TOPPLATFORM iNTERPOLATED
 10
5.465491429994311
 20
74.024475
 30
0.0
  0
VERTEX
  8
TOPPLATFORM iNTERPOLATED
 10
5.584306461081144
 20
74.027147
 30
0.0
  0
VERTEX
  8
TOPPLATFORM iNTERPOLATED
 10
5.703121492167977
 20
74.029818
 30
0.0
  0
VERTEX
  8
TOPPLATFORM iNTERPOLATED
 10
5.821936523254809
 20
74.035319
 30
0.0
  0
VERTEX
  8
TOPPLATFORM iNTERPOLATED
 10
5.8694696149088275
 20
74.035319
 30
0.0
  0
VERTEX
  8
TOPPLATFORM iNTERPOLATED
 10
5.8694696149088275
 20
74.035319
 30
0.0
  0
SEQEND
  0
ENDSEC
  0
EOF
