999
DXF created from QGIS
  0
SECTION
  2
HEADER
  9
$ACADVER
  1
AC1015
  9
$EXTMIN
 10
1412588.50624565780162811
 20
4931502.08759722020477057
 30
0.0
  9
$EXTMAX
 10
1412879.81745573319494724
 20
4931645.33909722324460745
 30
0.0
  9
$LTSCALE
 40
1.0
  9
$PDMODE
 70
    33
  9
$PDSIZE
 40
     1
  9
$PSLTSCALE
 70
     0
  9
$HANDSEED
  5
9999999
  9
$DWGCODEPAGE
  3
ANSI_1252
  0
ENDSEC
  0
SECTION
  2
TABLES
  0
TABLE
  2
LTYPE
  5
64
100
AcDbSymbolTable
 70
     5
  0
LTYPE
  5
65
100
AcDbSymbolTableRecord
100
AcDbLinetypeTableRecord
  2
ByLayer
 70
    64
  3
Defaultstyle
 72
    65
 73
     0
 40
0.0
  0
LTYPE
  5
66
100
AcDbSymbolTableRecord
100
AcDbLinetypeTableRecord
  2
ByBlock
 70
    64
  3
Defaultstyle
 72
    65
 73
     0
 40
0.0
  0
LTYPE
  5
67
100
AcDbSymbolTableRecord
100
AcDbLinetypeTableRecord
  2
CONTINUOUS
 70
    64
  3
Defaultstyle
 72
    65
 73
     0
 40
0.0
  0
LTYPE
  5
68
100
AcDbSymbolTableRecord
100
AcDbLinetypeTableRecord
  2
DASH
 70
    64
  3

 72
    65
 73
     2
 40
2600.0
 49
2000.0
 74
     0
 49
-600.0
 74
     0
  0
LTYPE
  5
69
100
AcDbSymbolTableRecord
100
AcDbLinetypeTableRecord
  2
DOT
 70
    64
  3

 72
    65
 73
     2
 40
1200.0
 49
600.0
 74
     0
 49
-600.0
 74
     0
  0
LTYPE
  5
6a
100
AcDbSymbolTableRecord
100
AcDbLinetypeTableRecord
  2
DASHDOT
 70
    64
  3

 72
    65
 73
     4
 40
3800.0
 49
2000.0
 74
     0
 49
-600.0
 74
     0
 49
600.0
 74
     0
 49
-600.0
 74
     0
  0
LTYPE
  5
6b
100
AcDbSymbolTableRecord
100
AcDbLinetypeTableRecord
  2
DASHDOTDOT
 70
    64
  3

 72
    65
 73
     6
 40
5000.0
 49
2000.0
 74
     0
 49
-600.0
 74
     0
 49
600.0
 74
     0
 49
-600.0
 74
     0
 49
600.0
 74
     0
 49
-600.0
 74
     0
  0
ENDTAB
  0
TABLE
  2
BLOCK_RECORD
  5
6c
100
AcDbSymbolTable
 70
     0
  0
BLOCK_RECORD
  5
6d
100
AcDbSymbolTableRecord
100
AcDbBlockTableRecord
  2
*Model_Space
  0
BLOCK_RECORD
  5
6e
100
AcDbSymbolTableRecord
100
AcDbBlockTableRecord
  2
*Paper_Space
  0
BLOCK_RECORD
  5
6f
100
AcDbSymbolTableRecord
100
AcDbBlockTableRecord
  2
*Paper_Space0
  0
ENDTAB
  0
TABLE
  2
APPID
  5
70
100
AcDbSymbolTable
 70
     1
  0
APPID
  5
71
100
AcDbSymbolTableRecord
100
AcDbRegAppTableRecord
  2
ACAD
 70
     0
  0
ENDTAB
  0
TABLE
  2
VIEW
  5
72
100
AcDbSymbolTable
 70
     0
  0
ENDTAB
  0
TABLE
  2
UCS
  5
73
100
AcDbSymbolTable
 70
     0
  0
ENDTAB
  0
TABLE
  2
VPORT
  5
74
100
AcDbSymbolTable
  0
VPORT
  5
75
100
AcDbSymbolTableRecord
100
AcDbViewportTableRecord
  2
*ACTIVE
 70
     0
 10
0.0
 20
0.0
 11
1.0
 21
1.0
 12
0.0
 22
0.0
 13
0.0
 23
0.0
 14
1.0
 24
1.0
 15
1.0
 25
1.0
 16
0.0
 26
0.0
 36
1.0
 17
1412734.16185069549828768
 27
4931573.71334722172468901
 40
143.25150000303983688
 41
2.03356481481318951
 42
50.0
 43
0.0
 44
0.0
 50
0.0
 51
0.0
 71
     0
 72
   100
 73
     1
 74
     1
 75
     0
 76
     0
 77
     0
 78
     0
281
     0
 65
     1
110
0.0
120
0.0
130
0.0
111
1.0
121
0.0
131
0.0
112
0.0
122
1.0
132
0.0
 79
     0
146
0.0
 70
     0
  0
ENDTAB
  0
TABLE
  2
DIMSTYLE
  5
76
100
AcDbSymbolTable
100
AcDbDimStyleTable
 70
     0
  0
ENDTAB
  0
TABLE
  2
LAYER
  5
77
100
AcDbSymbolTable
 70
     8
  0
LAYER
  5
78
100
AcDbSymbolTableRecord
100
AcDbLayerTableRecord
  2
0
 70
    64
 62
     1
  6
CONTINUOUS
390
f
  0
LAYER
  5
79
100
AcDbSymbolTableRecord
100
AcDbLayerTableRecord
  2
New scratch layer
 70
    64
 62
     1
  6
CONTINUOUS
390
f
  0
LAYER
  5
7a
100
AcDbSymbolTableRecord
100
AcDbLayerTableRecord
  2
top platform lines top_platform_lines
 70
    64
 62
     1
  6
CONTINUOUS
390
f
  0
LAYER
  5
7b
100
AcDbSymbolTableRecord
100
AcDbLayerTableRecord
  2
Overlooming cross-section 2 Overlooming cross-section 2.kmz
 70
    64
 62
     1
  6
CONTINUOUS
390
f
  0
LAYER
  5
7c
100
AcDbSymbolTableRecord
100
AcDbLayerTableRecord
  2
BUILDINGS21082020 entities
 70
    64
 62
     1
  6
CONTINUOUS
390
f
  0
LAYER
  5
7d
100
AcDbSymbolTableRecord
100
AcDbLayerTableRecord
  2
Buildings-21-08-2020
 70
    64
 62
     1
  6
CONTINUOUS
390
f
  0
LAYER
  5
7e
100
AcDbSymbolTableRecord
100
AcDbLayerTableRecord
  2
Ground topo-Rev01
 70
    64
 62
     1
  6
CONTINUOUS
390
f
  0
LAYER
  5
7f
100
AcDbSymbolTableRecord
100
AcDbLayerTableRecord
  2
nz-property-titles(LINZ DOWNLOAD)
 70
    64
 62
     1
  6
CONTINUOUS
390
f
  0
ENDTAB
  0
TABLE
  2
STYLE
  5
80
100
AcDbSymbolTable
 70
     1
  0
STYLE
  5
81
100
AcDbSymbolTableRecord
100
AcDbTextStyleTableRecord
  2
STANDARD
 70
    64
 40
0.0
 41
1.0
 50
0.0
 71
     0
 42
5.0
  3
romans.shx
  4

  0
ENDTAB
  0
ENDSEC
  0
SECTION
  2
BLOCKS
  0
BLOCK
  5
82
330
6d
100
AcDbEntity
  8
0
100
AcDbBlockBegin
  2
*Model_Space
 70
     0
 10
0.0
 20
0.0
 30
0.0
  3
*Model_Space
  1

  0
ENDBLK
  5
83
100
AcDbEntity
  8
0
100
AcDbBlockEnd
  0
BLOCK
  5
84
330
6e
100
AcDbEntity
  8
0
100
AcDbBlockBegin
  2
*Paper_Space
 70
     0
 10
0.0
 20
0.0
 30
0.0
  3
*Paper_Space
  1

  0
ENDBLK
  5
85
100
AcDbEntity
  8
0
100
AcDbBlockEnd
  0
BLOCK
  5
86
330
6f
100
AcDbEntity
  8
0
100
AcDbBlockBegin
  2
*Paper_Space0
 70
     0
 10
0.0
 20
0.0
 30
0.0
  3
*Paper_Space0
  1

  0
ENDBLK
  5
87
100
AcDbEntity
  8
0
100
AcDbBlockEnd
  0
ENDSEC
  0
SECTION
  2
ENTITIES
  0
LWPOLYLINE
  5
88
  8
New scratch layer
100
AcDbEntity
100
AcDbPolyline
  6
CONTINUOUS
420
     0
 90
    19
 70
   129
 43
-1.0
 10
1412692.11985795595683157
 20
4931584.27444318123161793
 10
1412706.99322727555409074
 20
4931579.73164204228669405
 10
1412707.65985795762389898
 20
4931577.17548863496631384
 10
1412712.46313068526796997
 20
4931577.81121590733528137
 10
1412712.81631250353530049
 20
4931576.92826136201620102
 10
1412713.34608523081988096
 20
4931575.30362499877810478
 10
1412713.34608523081988096
 20
4931573.92621590755879879
 10
1412709.63767613959498703
 20
4931573.1138977250084281
 10
1412701.47917613876052201
 20
4931571.80712499842047691
 10
1412694.34490341087803245
 20
4931570.88885227032005787
 10
1412690.63649431942030787
 20
4931570.99480681587010622
 10
1412685.30344886449165642
 20
4931569.26421590708196163
 10
1412683.4669034096878022
 20
4931571.31267045252025127
 10
1412682.51331250043585896
 20
4931574.3147159069776535
 10
1412680.95931250043213367
 20
4931576.57507954351603985
 10
1412680.60613068216480315
 20
4931579.50648863520473242
 10
1412683.11372159142047167
 20
4931580.84857954457402229
 10
1412687.10467613721266389
 20
4931582.2613068176433444
 10
1412692.11985795595683157
 20
4931584.27444318123161793
  0
LWPOLYLINE
  5
89
  8
New scratch layer
100
AcDbEntity
100
AcDbPolyline
  6
CONTINUOUS
420
     0
 90
    19
 70
   129
 43
-1.0
 10
1412692.11985795595683157
 20
4931584.27444318123161793
 10
1412706.99322727555409074
 20
4931579.73164204228669405
 10
1412707.65985795762389898
 20
4931577.17548863496631384
 10
1412712.46313068526796997
 20
4931577.81121590733528137
 10
1412712.81631250353530049
 20
4931576.92826136201620102
 10
1412713.34608523081988096
 20
4931575.30362499877810478
 10
1412713.34608523081988096
 20
4931573.92621590755879879
 10
1412709.63767613959498703
 20
4931573.1138977250084281
 10
1412701.47917613876052201
 20
4931571.80712499842047691
 10
1412694.34490341087803245
 20
4931570.88885227032005787
 10
1412690.63649431942030787
 20
4931570.99480681587010622
 10
1412685.30344886449165642
 20
4931569.26421590708196163
 10
1412683.4669034096878022
 20
4931571.31267045252025127
 10
1412682.51331250043585896
 20
4931574.3147159069776535
 10
1412680.95931250043213367
 20
4931576.57507954351603985
 10
1412680.60613068216480315
 20
4931579.50648863520473242
 10
1412683.11372159142047167
 20
4931580.84857954457402229
 10
1412687.10467613721266389
 20
4931582.2613068176433444
 10
1412692.11985795595683157
 20
4931584.27444318123161793
  0
LWPOLYLINE
  5
8a
  8
New scratch layer
100
AcDbEntity
100
AcDbPolyline
  6
CONTINUOUS
420
     0
 90
     9
 70
   129
 43
-1.0
 10
1412663.96685227146372199
 20
4931591.03346022870391607
 10
1412678.58857954572886229
 20
4931597.07286932040005922
 10
1412689.71380681963637471
 20
4931601.48764204699546099
 10
1412699.46385879348963499
 20
4931605.75041516218334436
 10
1412703.31130682094953954
 20
4931605.23136932030320168
 10
1412690.79101136513054371
 20
4931598.20305113773792982
 10
1412676.69905681838281453
 20
4931592.78171022795140743
 10
1412668.5405568175483495
 20
4931589.21457386389374733
 10
1412663.96685227146372199
 20
4931591.03346022870391607
  0
LWPOLYLINE
  5
8b
  8
New scratch layer
100
AcDbEntity
100
AcDbPolyline
  6
CONTINUOUS
420
     0
 90
    12
 70
   129
 43
-1.0
 10
1412645.6808636337518692
 20
4931569.35692613385617733
 10
1412645.53959090635180473
 20
4931569.39224431570619345
 10
1412637.02790908748283982
 20
4931565.68383522424846888
 10
1412631.9420909050386399
 20
4931574.97251704335212708
 10
1412626.71499999542720616
 20
4931577.79797158949077129
 10
1412624.24272726802155375
 20
4931581.96551704406738281
 10
1412624.86323321238160133
 20
4931583.96050342824310064
 10
1412628.29158329404890537
 20
4931586.48932123836129904
 10
1412633.19999999995343387
 20
4931587.58999999985098839
 10
1412637.4454077600967139
 20
4931585.80655129160732031
 10
1412644.09154545166529715
 20
4931575.14910795260220766
 10
1412645.6808636337518692
 20
4931569.35692613385617733
  0
LWPOLYLINE
  5
8c
  8
New scratch layer
100
AcDbEntity
100
AcDbPolyline
  6
CONTINUOUS
420
     0
 90
     7
 70
   129
 43
-1.0
 10
1412657.0043348902836442
 20
4931572.97838272992521524
 10
1412659.26439307234250009
 20
4931572.51930841151624918
 10
1412662.0541523911524564
 20
4931556.84015477169305086
 10
1412659.18999999994412065
 20
4931556.63999999966472387
 10
1412658.41687125409953296
 20
4931558.39394477196037769
 10
1412657.56934943562373519
 20
4931564.25597068294882774
 10
1412657.0043348902836442
 20
4931572.97838272992521524
  0
LWPOLYLINE
  5
8d
  8
New scratch layer
100
AcDbEntity
100
AcDbPolyline
  6
CONTINUOUS
420
     0
 90
     5
 70
   129
 43
-1.0
 10
1412671.23563875700347126
 20
4931586.66232875734567642
 10
1412673.99008466652594507
 20
4931586.591701939702034
 10
1412676.35608307621441782
 20
4931578.32836421020328999
 10
1412673.78217056556604803
 20
4931577.97166921757161617
 10
1412671.23563875700347126
 20
4931586.66232875734567642
  0
LWPOLYLINE
  5
8e
  8
New scratch layer
100
AcDbEntity
100
AcDbPolyline
  6
CONTINUOUS
420
     0
 90
    11
 70
   129
 43
-1.0
 10
1412697.0893771443516016
 20
4931587.54237550403922796
 10
1412702.42999999993480742
 20
4931591.08000000007450581
 10
1412707.87999999988824129
 20
4931593.4599999999627471
 10
1412713.10206257714889944
 20
4931594.44138666056096554
 10
1412717.37032239907421172
 20
4931597.31373761035501957
 10
1412718.27000000001862645
 20
4931596.86000000033527613
 10
1412713.77000000001862645
 20
4931594.17999999970197678
 10
1412708.23999999999068677
 20
4931591.2900000000372529
 10
1412703.18999999994412065
 20
4931589.44000000040978193
 10
1412698.88999999989755452
 20
4931586.61000000033527613
 10
1412697.0893771443516016
 20
4931587.54237550403922796
  0
LWPOLYLINE
  5
8f
  8
New scratch layer
100
AcDbEntity
100
AcDbPolyline
  6
CONTINUOUS
420
     0
 90
    13
 70
   129
 43
-1.0
 10
1412727.96999999997206032
 20
4931600.95000000018626451
 10
1412738.98999999999068677
 20
4931600.45000000018626451
 10
1412748.39999999990686774
 20
4931599.83999999985098839
 10
1412761.03000000002793968
 20
4931600.09999999962747097
 10
1412771.44999999995343387
 20
4931601.98000000044703484
 10
1412777.75
 20
4931600.37999999988824129
 10
1412773.47999999998137355
 20
4931596.38999999966472387
 10
1412761.80000000004656613
 20
4931594.44000000040978193
 10
1412739.34000000008381903
 20
4931597.41999999992549419
 10
1412737.95336638670414686
 20
4931597.4949181517586112
 10
1412738.76353621296584606
 20
4931594.51565955951809883
 10
1412722.73999999999068677
 20
4931598.16999999992549419
 10
1412727.96999999997206032
 20
4931600.95000000018626451
  0
LWPOLYLINE
  5
90
  8
New scratch layer
100
AcDbEntity
100
AcDbPolyline
  6
CONTINUOUS
420
     0
 90
     7
 70
   129
 43
-1.0
 10
1412739.34000000008381903
 20
4931597.41999999992549419
 10
1412764.26000000000931323
 20
4931589.83999999985098839
 10
1412758.0
 20
4931587.58000000007450581
 10
1412742.33000000007450581
 20
4931592.98000000044703484
 10
1412738.46999999997206032
 20
4931594.57000000029802322
 10
1412737.95336638670414686
 20
4931597.4949181517586112
 10
1412739.34000000008381903
 20
4931597.41999999992549419
  0
LWPOLYLINE
  5
91
  8
New scratch layer
100
AcDbEntity
100
AcDbPolyline
  6
CONTINUOUS
420
     0
 90
     5
 70
   129
 43
-1.0
 10
1412773.47999999998137355
 20
4931596.38999999966472387
 10
1412777.75
 20
4931600.37999999988824129
 10
1412776.28909544250927866
 20
4931588.90771219320595264
 10
1412764.26000000000931323
 20
4931589.83999999985098839
 10
1412773.47999999998137355
 20
4931596.38999999966472387
  0
LWPOLYLINE
  5
92
  8
New scratch layer
100
AcDbEntity
100
AcDbPolyline
  6
CONTINUOUS
420
     0
 90
    18
 70
   129
 43
-1.0
 10
1412776.22548519726842642
 20
4931589.01549530308693647
 10
1412764.42999999993480742
 20
4931586.54999999981373549
 10
1412755.0
 20
4931583.79999999981373549
 10
1412739.67999999993480742
 20
4931584.9599999999627471
 10
1412724.30000000004656613
 20
4931581.21999999973922968
 10
1412720.26000000000931323
 20
4931580.03000000026077032
 10
1412715.14999999990686774
 20
4931578.71999999973922968
 10
1412709.19999999995343387
 20
4931577.92999999970197678
 10
1412707.86750340205617249
 20
4931579.85143526084721088
 10
1412694.68690226436592638
 20
4931583.66334027610719204
 10
1412693.53259299974888563
 20
4931584.05258409772068262
 10
1412692.81842214008793235
 20
4931584.35956043377518654
 10
1412692.91150867287069559
 20
4931584.79261307790875435
 10
1412697.2099999999627471
 20
4931584.40000000037252903
 10
1412716.55154465418308973
 20
4931586.20518222637474537
 10
1412727.2900000000372529
 20
4931586.70000000018626451
 10
1412758.0
 20
4931587.58000000007450581
 10
1412776.22548519726842642
 20
4931589.01549530308693647
  0
LWPOLYLINE
  5
93
  8
New scratch layer
100
AcDbEntity
100
AcDbPolyline
  6
CONTINUOUS
420
     0
 90
     5
 70
   129
 43
-1.0
 10
1412766.25407667434774339
 20
4931590.91803978476673365
 10
1412776.28737643035128713
 20
4931588.91634082049131393
 10
1412758.0
 20
4931587.58000000007450581
 10
1412764.26000000000931323
 20
4931589.83999999985098839
 10
1412766.25407667434774339
 20
4931590.91803978476673365
  0
LWPOLYLINE
  5
94
  8
New scratch layer
100
AcDbEntity
100
AcDbPolyline
  6
CONTINUOUS
420
     0
 90
     4
 70
   129
 43
-1.0
 10
1412739.72999999998137355
 20
4931587.9599999999627471
 10
1412758.0
 20
4931587.58000000007450581
 10
1412727.63169400999322534
 20
4931586.69004654791206121
 10
1412739.72999999998137355
 20
4931587.9599999999627471
  0
LWPOLYLINE
  5
95
  8
New scratch layer
100
AcDbEntity
100
AcDbPolyline
  6
CONTINUOUS
420
     0
 90
     9
 70
   129
 43
-1.0
 10
1412693.24029858713038266
 20
4931584.6882087355479598
 10
1412711.70772792887873948
 20
4931580.02071532513946295
 10
1412713.23344388208352029
 20
4931576.74411806277930737
 10
1412710.79970155865885317
 20
4931575.60444095637649298
 10
1412707.11586015927605331
 20
4931576.32810756471008062
 10
1412706.49843892478384078
 20
4931577.99246045760810375
 10
1412703.152090486837551
 20
4931579.68767451029270887
 10
1412690.90005114325322211
 20
4931584.12729280069470406
 10
1412693.24029858713038266
 20
4931584.6882087355479598
  0
LWPOLYLINE
  5
96
  8
New scratch layer
100
AcDbEntity
100
AcDbPolyline
  6
CONTINUOUS
420
     0
 90
    12
 70
   129
 43
-1.0
 10
1412636.95098781352862716
 20
4931565.55581295397132635
 10
1412646.51000000000931323
 20
4931569.94000000040978193
 10
1412645.7970424578525126
 20
4931568.35296543873846531
 10
1412646.43801526702009141
 20
4931561.55022900737822056
 10
1412653.65396975679323077
 20
4931556.22554410621523857
 10
1412643.32349553517997265
 20
4931553.91303230728954077
 10
1412640.90749939973466098
 20
4931553.61774389073252678
 10
1412636.59745799144729972
 20
4931554.19325642660260201
 10
1412636.22315133735537529
 20
4931557.36253789998590946
 10
1412634.95116489031352103
 20
4931559.68441969063133001
 10
1412637.35303942719474435
 20
4931561.79576990380883217
 10
1412636.95098781352862716
 20
4931565.55581295397132635
  0
LWPOLYLINE
  5
97
  8
New scratch layer
100
AcDbEntity
100
AcDbPolyline
  6
CONTINUOUS
420
     0
 90
     7
 70
   129
 43
-1.0
 10
1412633.05000000004656613
 20
4931574.19000000040978193
 10
1412638.36168526811525226
 20
4931562.20532719325274229
 10
1412634.17419913411140442
 20
4931559.43922077864408493
 10
1412631.05134143820032477
 20
4931562.53288657963275909
 10
1412631.84000000008381903
 20
4931565.90000000037252903
 10
1412632.90999999991618097
 20
4931569.41000000014901161
 10
1412633.05000000004656613
 20
4931574.19000000040978193
  0
LWPOLYLINE
  5
98
  8
New scratch layer
100
AcDbEntity
100
AcDbPolyline
  6
CONTINUOUS
420
     0
 90
     5
 70
   129
 43
-1.0
 10
1412634.0400000000372529
 20
4931559.4599999999627471
 10
1412635.59000000008381903
 20
4931561.07000000029802322
 10
1412639.90999999991618097
 20
4931554.0
 10
1412636.82896904880180955
 20
4931554.11758716218173504
 10
1412634.0400000000372529
 20
4931559.4599999999627471
  0
LWPOLYLINE
  5
99
  8
New scratch layer
100
AcDbEntity
100
AcDbPolyline
  6
CONTINUOUS
420
     0
 90
    23
 70
   129
 43
-1.0
 10
1412639.90999999991618097
 20
4931554.0
 10
1412642.73627425241284072
 20
4931554.54052019491791725
 10
1412642.32000000006519258
 20
4931553.03000000026077032
 10
1412642.87999999988824129
 20
4931549.83999999985098839
 10
1412643.17999999993480742
 20
4931547.95000000018626451
 10
1412645.17999999993480742
 20
4931545.90000000037252903
 10
1412644.9106707745231688
 20
4931543.71215973608195782
 10
1412644.83000000007450581
 20
4931543.71999999973922968
 10
1412646.03000000002793968
 20
4931539.83000000007450581
 10
1412648.78000000002793968
 20
4931537.03000000026077032
 10
1412651.34000000008381903
 20
4931534.66000000014901161
 10
1412654.11000000010244548
 20
4931534.37999999988824129
 10
1412657.05000000004656613
 20
4931534.79999999981373549
 10
1412655.25
 20
4931533.57000000029802322
 10
1412653.76446219277568161
 20
4931532.88054812978953123
 10
1412651.43018528213724494
 20
4931532.70304883737117052
 10
1412648.69999999995343387
 20
4931533.15000000037252903
 10
1412647.31321869185194373
 20
4931534.13341839425265789
 10
1412645.29991459660232067
 20
4931539.11505597736686468
 10
1412640.32000000006519258
 20
4931545.88999999966472387
 10
1412639.64999999990686774
 20
4931547.57000000029802322
 10
1412639.23999999999068677
 20
4931547.7099999999627471
 10
1412639.90999999991618097
 20
4931554.0
  0
LWPOLYLINE
  5
9a
  8
New scratch layer
100
AcDbEntity
100
AcDbPolyline
  6
CONTINUOUS
420
     0
 90
    15
 70
   129
 43
-1.0
 10
1412653.52411925001069903
 20
4931556.48830252140760422
 10
1412661.37480024178512394
 20
4931553.40338741149753332
 10
1412661.8205603992100805
 20
4931549.13937426824122667
 10
1412658.75475887535139918
 20
4931547.97632694989442825
 10
1412657.80302315624430776
 20
4931545.21846205275505781
 10
1412658.89907069457694888
 20
4931542.93252045474946499
 10
1412660.13158836914226413
 20
4931540.57227464765310287
 10
1412661.5273553051520139
 20
4931539.44725544843822718
 10
1412662.12685589049942791
 20
4931539.63544556219130754
 10
1412662.33267467143014073
 20
4931539.6337822712957859
 10
1412657.05000000004656613
 20
4931534.79999999981373549
 10
1412651.5
 20
4931532.78000000026077032
 10
1412643.41497816075570881
 20
4931544.69784897286444902
 10
1412641.04691701522096992
 20
4931555.10854878183454275
 10
1412653.52411925001069903
 20
4931556.48830252140760422
  0
LWPOLYLINE
  5
9b
  8
New scratch layer
100
AcDbEntity
100
AcDbPolyline
  6
CONTINUOUS
420
     0
 90
    17
 70
   129
 43
-1.0
 10
1412685.39999999990686774
 20
4931570.65000000037252903
 10
1412687.10000000009313226
 20
4931569.23000000044703484
 10
1412692.31000000005587935
 20
4931569.96999999973922968
 10
1412706.29532548482529819
 20
4931572.43183866329491138
 10
1412716.51140068797394633
 20
4931575.31473140884190798
 10
1412717.81527161807753146
 20
4931570.3676917040720582
 10
1412718.23711221292614937
 20
4931568.02839385904371738
 10
1412710.17984626209363341
 20
4931570.60604186449199915
 10
1412705.07000000006519258
 20
4931568.53000000026077032
 10
1412697.95352431037463248
 20
4931567.04312997404485941
 10
1412695.3343834113329649
 20
4931566.45559794455766678
 10
1412693.64798963791690767
 20
4931566.58301339019089937
 10
1412690.93252097209915519
 20
4931565.39508590009063482
 10
1412685.68520350125618279
 20
4931566.05537074990570545
 10
1412683.99771725153550506
 20
4931567.33810924831777811
 10
1412683.58226818055845797
 20
4931568.62919712997972965
 10
1412685.39999999990686774
 20
4931570.65000000037252903
  0
LWPOLYLINE
  5
9c
  8
New scratch layer
100
AcDbEntity
100
AcDbPolyline
  6
CONTINUOUS
420
     0
 90
    22
 70
   129
 43
-1.0
 10
1412681.60495649860240519
 20
4931579.93609108589589596
 10
1412683.92380408034659922
 20
4931572.93369077146053314
 10
1412684.89253063057549298
 20
4931569.89471891615539789
 10
1412683.76000000000931323
 20
4931568.61000000033527613
 10
1412683.68383738817647099
 20
4931566.99418621230870485
 10
1412684.43234089179895818
 20
4931566.23237556498497725
 10
1412684.98201197013258934
 20
4931563.59906760882586241
 10
1412685.17375769512727857
 20
4931562.07788485661149025
 10
1412684.22781211836263537
 20
4931561.79665779415518045
 10
1412681.08564070449210703
 20
4931560.84121650829911232
 10
1412680.9914695406332612
 20
4931561.91441800352185965
 10
1412681.96114657446742058
 20
4931563.31021641194820404
 10
1412675.59286296903155744
 20
4931563.6693743746727705
 10
1412672.90842281910590827
 20
4931564.07843192107975483
 10
1412673.05000000004656613
 20
4931565.08999999985098839
 10
1412672.66884604003280401
 20
4931567.07722217123955488
 10
1412672.96119115315377712
 20
4931571.04681920167058706
 10
1412671.51952503295615315
 20
4931574.54561785794794559
 10
1412674.00776497577317059
 20
4931577.62846315465867519
 10
1412675.87409003241918981
 20
4931578.88120189122855663
 10
1412677.76598118571564555
 20
4931579.11129676178097725
 10
1412681.60495649860240519
 20
4931579.93609108589589596
  0
LWPOLYLINE
  5
9d
  8
New scratch layer
100
AcDbEntity
100
AcDbPolyline
  6
CONTINUOUS
420
     0
 90
    11
 70
   129
 43
-1.0
 10
1412681.0016902934294194
 20
4931560.70850080251693726
 10
1412683.76000000000931323
 20
4931568.61000000033527613
 10
1412684.21999999997206032
 20
4931567.37000000011175871
 10
1412685.88999999989755452
 20
4931566.16000000014901161
 10
1412689.99985988019034266
 20
4931556.7369022760540247
 10
1412685.27122843684628606
 20
4931554.48315626382827759
 10
1412684.56816077837720513
 20
4931554.3425427321344614
 10
1412683.22594070341438055
 20
4931554.64933589193969965
 10
1412681.55352710094302893
 20
4931555.32947893533855677
 10
1412679.44567124056629837
 20
4931558.28013668395578861
 10
1412681.0016902934294194
 20
4931560.70850080251693726
  0
LWPOLYLINE
  5
9e
  8
New scratch layer
100
AcDbEntity
100
AcDbPolyline
  6
CONTINUOUS
420
     0
 90
     7
 70
   129
 43
-1.0
 10
1412681.05416101100854576
 20
4931561.7312612934038043
 10
1412677.21311434218659997
 20
4931563.12449693866074085
 10
1412672.90842281910590827
 20
4931564.07843192107975483
 10
1412673.05000000004656613
 20
4931565.08999999985098839
 10
1412673.77000000001862645
 20
4931565.00999999977648258
 10
1412682.28205192694440484
 20
4931563.52019080054014921
 10
1412681.05416101100854576
 20
4931561.7312612934038043
  0
LWPOLYLINE
  5
9f
  8
New scratch layer
100
AcDbEntity
100
AcDbPolyline
  6
CONTINUOUS
420
     0
 90
    17
 70
   129
 43
-1.0
 10
1412661.45072848629206419
 20
4931553.37055510934442282
 10
1412671.42999999993480742
 20
4931552.25
 10
1412680.8307170202024281
 20
4931552.51456681825220585
 10
1412684.88999999989755452
 20
4931554.51999999955296516
 10
1412690.9599999999627471
 20
4931557.2900000000372529
 10
1412699.75
 20
4931563.41999999992549419
 10
1412708.3416492419783026
 20
4931567.09663200844079256
 10
1412711.06443476187996566
 20
4931570.11449932586401701
 10
1412720.15999999991618097
 20
4931568.9599999999627471
 10
1412714.67999999993480742
 20
4931563.42999999970197678
 10
1412711.66272853408008814
 20
4931562.93548765033483505
 10
1412700.61351577658206224
 20
4931556.30890056025236845
 10
1412691.34000000008381903
 20
4931552.07000000029802322
 10
1412682.864881188608706
 20
4931548.65920083783566952
 10
1412672.34000000008381903
 20
4931547.94000000040978193
 10
1412661.68928925460204482
 20
4931549.31002499349415302
 10
1412661.45072848629206419
 20
4931553.37055510934442282
  0
LWPOLYLINE
  5
a0
  8
New scratch layer
100
AcDbEntity
100
AcDbPolyline
  6
CONTINUOUS
420
     0
 90
     5
 70
   129
 43
-1.0
 10
1412673.05000000004656613
 20
4931565.08999999985098839
 10
1412682.2823814214207232
 20
4931563.47724390123039484
 10
1412680.02000000001862645
 20
4931558.36000000033527613
 10
1412671.44999999995343387
 20
4931561.87000000011175871
 10
1412673.05000000004656613
 20
4931565.08999999985098839
  0
LWPOLYLINE
  5
a1
  8
New scratch layer
100
AcDbEntity
100
AcDbPolyline
  6
CONTINUOUS
420
     0
 90
     4
 70
   129
 43
-1.0
 10
1412688.37591129378415644
 20
4931597.36868553794920444
 10
1412701.16999999992549419
 20
4931603.82000000029802322
 10
1412692.74771382380276918
 20
4931598.45524464640766382
 10
1412688.37591129378415644
 20
4931597.36868553794920444
  0
LWPOLYLINE
  5
a2
  8
New scratch layer
100
AcDbEntity
100
AcDbPolyline
  6
CONTINUOUS
420
     0
 90
     8
 70
   129
 43
-1.0
 10
1412699.88704631896689534
 20
4931603.01879290025681257
 10
1412697.08755873376503587
 20
4931601.58069996256381273
 10
1412696.79354862216860056
 20
4931601.70853044558316469
 10
1412697.6819704812951386
 20
4931602.80787260178476572
 10
1412703.31130682094953954
 20
4931605.23136932030320168
 10
1412703.22774844733066857
 20
4931604.73632320202887058
 10
1412701.98346624546684325
 20
4931603.86886561382561922
 10
1412699.88704631896689534
 20
4931603.01879290025681257
  0
LWPOLYLINE
  5
a3
  8
New scratch layer
100
AcDbEntity
100
AcDbPolyline
  6
CONTINUOUS
420
     0
 90
    16
 70
   129
 43
-1.0
 10
1412712.07045307476073503
 20
4931575.46790909394621849
 10
1412726.02787002129480243
 20
4931574.12263471260666847
 10
1412729.56628510588780046
 20
4931573.3499571681022644
 10
1412735.42999999993480742
 20
4931573.78000000026077032
 10
1412748.12594810267910361
 20
4931572.39038783498108387
 10
1412747.70884709805250168
 20
4931570.97255719918757677
 10
1412746.89637391641736031
 20
4931570.17540002521127462
 10
1412738.52665299735963345
 20
4931569.46733041293919086
 10
1412734.47720889933407307
 20
4931568.48239980638027191
 10
1412725.55000000004656613
 20
4931569.9599999999627471
 10
1412722.29892580583691597
 20
4931570.39645354449748993
 10
1412721.90187845332548022
 20
4931569.04066298343241215
 10
1412720.15999999991618097
 20
4931568.9599999999627471
 10
1412719.37365215760655701
 20
4931568.61446960922330618
 10
1412716.09271306823939085
 20
4931567.50257011968642473
 10
1412712.07045307476073503
 20
4931575.46790909394621849
  0
LWPOLYLINE
  5
a4
  8
New scratch layer
100
AcDbEntity
100
AcDbPolyline
  6
CONTINUOUS
420
     0
 90
    18
 70
   129
 43
-1.0
 10
1412719.13302108319476247
 20
4931568.16348106600344181
 10
1412721.09731926256790757
 20
4931570.85664328467100859
 10
1412721.86430216254666448
 20
4931570.85664328467100859
 10
1412722.58015286922454834
 20
4931570.62654841504991055
 10
1412723.90958989597856998
 20
4931570.34532135166227818
 10
1412726.15156660554930568
 20
4931570.09302630927413702
 10
1412728.02573145925998688
 20
4931569.80843332130461931
 10
1412729.78979212930426002
 20
4931569.75730112846940756
 10
1412735.31206900929100811
 20
4931570.01296209450811148
 10
1412748.04384430777281523
 20
4931572.38202064856886864
 10
1412748.71999999997206032
 20
4931569.83000000007450581
 10
1412747.45274548581801355
 20
4931569.11307139322161674
 10
1412745.52175495703704655
 20
4931568.47835760284215212
 10
1412738.31000000005587935
 20
4931566.04999999981373549
 10
1412734.39977301890030503
 20
4931566.2562735415995121
 10
1412731.10000000009313226
 20
4931567.53000000026077032
 10
1412724.62999999988824129
 20
4931568.71999999973922968
 10
1412719.13302108319476247
 20
4931568.16348106600344181
  0
LWPOLYLINE
  5
a5
  8
New scratch layer
100
AcDbEntity
100
AcDbPolyline
  6
CONTINUOUS
420
     0
 90
     9
 70
   129
 43
-1.0
 10
1412741.65263032633811235
 20
4931573.16657286044210196
 10
1412723.90958989574573934
 20
4931572.441741275601089
 10
1412723.7306272191926837
 20
4931572.69740224257111549
 10
1412723.67949502589181066
 20
4931573.77117830235511065
 10
1412724.369779635919258
 20
4931574.10353755950927734
 10
1412727.38565872283652425
 20
4931574.38746169023215771
 10
1412728.56261948915198445
 20
4931574.1546697523444891
 10
1412731.73882840201258659
 20
4931574.34997547417879105
 10
1412741.65263032633811235
 20
4931573.16657286044210196
  0
POINT
  5
a6
100
AcDbEntity
100
AcDbPoint
  8
Buildings-21-08-2020
420
     0
 10
1412684.88999999989755452
 20
4931554.51999999955296516
 30
64.76000000000000512
  0
POINT
  5
a7
100
AcDbEntity
100
AcDbPoint
  8
Buildings-21-08-2020
420
     0
 10
1412683.91999999992549419
 20
4931556.71999999973922968
 30
65.23000000000000398
  0
POINT
  5
a8
100
AcDbEntity
100
AcDbPoint
  8
Buildings-21-08-2020
420
     0
 10
1412686.72999999998137355
 20
4931558.04999999981373549
 30
63.28000000000000114
  0
POINT
  5
a9
100
AcDbEntity
100
AcDbPoint
  8
Buildings-21-08-2020
420
     0
 10
1412680.02000000001862645
 20
4931558.36000000033527613
 30
62.14000000000000057
  0
POINT
  5
aa
100
AcDbEntity
100
AcDbPoint
  8
Buildings-21-08-2020
420
     0
 10
1412681.18999999994412065
 20
4931560.92999999970197678
 30
61.65999999999999659
  0
POINT
  5
ab
100
AcDbEntity
100
AcDbPoint
  8
Buildings-21-08-2020
420
     0
 10
1412681.14999999990686774
 20
4931561.95000000018626451
 30
61.32000000000000028
  0
POINT
  5
ac
100
AcDbEntity
100
AcDbPoint
  8
Buildings-21-08-2020
420
     0
 10
1412681.48999999999068677
 20
4931561.88999999966472387
 30
61.38000000000000256
  0
POINT
  5
ad
100
AcDbEntity
100
AcDbPoint
  8
Buildings-21-08-2020
420
     0
 10
1412682.2099999999627471
 20
4931563.49000000022351742
 30
60.90999999999999659
  0
POINT
  5
ae
100
AcDbEntity
100
AcDbPoint
  8
Buildings-21-08-2020
420
     0
 10
1412684.21999999997206032
 20
4931567.37000000011175871
 30
60.10999999999999943
  0
POINT
  5
af
100
AcDbEntity
100
AcDbPoint
  8
Buildings-21-08-2020
420
     0
 10
1412682.65999999991618097
 20
4931565.7900000000372529
 30
60.35999999999999943
  0
POINT
  5
b0
100
AcDbEntity
100
AcDbPoint
  8
Buildings-21-08-2020
420
     0
 10
1412675.38999999989755452
 20
4931569.33999999985098839
 30
60.18999999999999773
  0
POINT
  5
b1
100
AcDbEntity
100
AcDbPoint
  8
Buildings-21-08-2020
420
     0
 10
1412675.86000000010244548
 20
4931571.33999999985098839
 30
60.00999999999999801
  0
POINT
  5
b2
100
AcDbEntity
100
AcDbPoint
  8
Buildings-21-08-2020
420
     0
 10
1412674.78000000002793968
 20
4931568.19000000040978193
 30
60.20000000000000284
  0
POINT
  5
b3
100
AcDbEntity
100
AcDbPoint
  8
Buildings-21-08-2020
420
     0
 10
1412673.77000000001862645
 20
4931567.08999999985098839
 30
61.29999999999999716
  0
POINT
  5
b4
100
AcDbEntity
100
AcDbPoint
  8
Buildings-21-08-2020
420
     0
 10
1412673.05000000004656613
 20
4931565.08999999985098839
 30
61.35999999999999943
  0
POINT
  5
b5
100
AcDbEntity
100
AcDbPoint
  8
Buildings-21-08-2020
420
     0
 10
1412673.77000000001862645
 20
4931565.00999999977648258
 30
61.31000000000000227
  0
POINT
  5
b6
100
AcDbEntity
100
AcDbPoint
  8
Buildings-21-08-2020
420
     0
 10
1412671.44999999995343387
 20
4931561.87000000011175871
 30
62.20000000000000284
  0
POINT
  5
b7
100
AcDbEntity
100
AcDbPoint
  8
Buildings-21-08-2020
420
     0
 10
1412695.18900000001303852
 20
4931579.89300000015646219
 30
58.28999999999999915
  0
POINT
  5
b8
100
AcDbEntity
100
AcDbPoint
  8
Buildings-21-08-2020
420
     0
 10
1412696.93100000009872019
 20
4931575.43900000024586916
 30
59.92999999999999972
  0
POINT
  5
b9
100
AcDbEntity
100
AcDbPoint
  8
Buildings-21-08-2020
420
     0
 10
1412695.97200000006705523
 20
4931580.09999999962747097
 30
59.61999999999999744
  0
POINT
  5
ba
100
AcDbEntity
100
AcDbPoint
  8
Buildings-21-08-2020
420
     0
 10
1412696.60800000000745058
 20
4931571.10500000044703484
 30
60.28999999999999915
  0
POINT
  5
bb
100
AcDbEntity
100
AcDbPoint
  8
Buildings-21-08-2020
420
     0
 10
1412697.55799999996088445
 20
4931571.40799999982118607
 30
60.25
  0
POINT
  5
bc
100
AcDbEntity
100
AcDbPoint
  8
Buildings-21-08-2020
420
     0
 10
1412687.10700000007636845
 20
4931569.47200000006705523
 30
59.84000000000000341
  0
POINT
  5
bd
100
AcDbEntity
100
AcDbPoint
  8
Buildings-21-08-2020
420
     0
 10
1412688.21500000008381903
 20
4931569.55900000035762787
 30
60.14000000000000057
  0
POINT
  5
be
100
AcDbEntity
100
AcDbPoint
  8
Buildings-21-08-2020
420
     0
 10
1412686.21099999989382923
 20
4931573.75399999972432852
 30
59.82999999999999829
  0
POINT
  5
bf
100
AcDbEntity
100
AcDbPoint
  8
Buildings-21-08-2020
420
     0
 10
1412685.68200000002980232
 20
4931577.83899999968707561
 30
59.85000000000000142
  0
POINT
  5
c0
100
AcDbEntity
100
AcDbPoint
  8
Buildings-21-08-2020
420
     0
 10
1412738.72799999988637865
 20
4931572.79700000025331974
 30
60.64999999999999858
  0
POINT
  5
c1
100
AcDbEntity
100
AcDbPoint
  8
Buildings-21-08-2020
420
     0
 10
1412739.32199999992735684
 20
4931575.91000000014901161
 30
60.59000000000000341
  0
POINT
  5
c2
100
AcDbEntity
100
AcDbPoint
  8
Buildings-21-08-2020
420
     0
 10
1412750.11800000001676381
 20
4931575.34599999990314245
 30
60.25
  0
POINT
  5
c3
100
AcDbEntity
100
AcDbPoint
  8
Buildings-21-08-2020
420
     0
 10
1412751.79799999995157123
 20
4931574.50200000032782555
 30
60.52000000000000313
  0
POINT
  5
c4
100
AcDbEntity
100
AcDbPoint
  8
Buildings-21-08-2020
420
     0
 10
1412757.14800000004470348
 20
4931574.00399999972432852
 30
59.71999999999999886
  0
POINT
  5
c5
100
AcDbEntity
100
AcDbPoint
  8
Buildings-21-08-2020
420
     0
 10
1412757.21699999994598329
 20
4931572.87600000016391277
 30
62.14999999999999858
  0
POINT
  5
c6
100
AcDbEntity
100
AcDbPoint
  8
Buildings-21-08-2020
420
     0
 10
1412750.66999999992549419
 20
4931573.52400000020861626
 30
60.64999999999999858
  0
POINT
  5
c7
100
AcDbEntity
100
AcDbPoint
  8
Buildings-21-08-2020
420
     0
 10
1412738.73300000000745058
 20
4931574.10800000000745058
 30
60.61999999999999744
  0
POINT
  5
c8
100
AcDbEntity
100
AcDbPoint
  8
Buildings-21-08-2020
420
     0
 10
1412738.73300000000745058
 20
4931574.10800000000745058
 30
60.60000000000000142
  0
POINT
  5
c9
100
AcDbEntity
100
AcDbPoint
  8
Buildings-21-08-2020
420
     0
 10
1412687.74900000006891787
 20
4931555.89499999955296516
 30
65.18999999999999773
  0
POINT
  5
ca
100
AcDbEntity
100
AcDbPoint
  8
Buildings-21-08-2020
420
     0
 10
1412684.80000000004656613
 20
4931554.62399999983608723
 30
65.20999999999999375
  0
POINT
  5
cb
100
AcDbEntity
100
AcDbPoint
  8
Buildings-21-08-2020
420
     0
 10
1412650.587000000057742
 20
4931542.60400000028312206
 30
73.84000000000000341
  0
POINT
  5
cc
100
AcDbEntity
100
AcDbPoint
  8
Buildings-21-08-2020
420
     0
 10
1412650.32899999991059303
 20
4931541.06400000024586916
 30
73.84000000000000341
  0
POINT
  5
cd
100
AcDbEntity
100
AcDbPoint
  8
Buildings-21-08-2020
420
     0
 10
1412651.70500000007450581
 20
4931541.20100000035017729
 30
73.96999999999999886
  0
POINT
  5
ce
100
AcDbEntity
100
AcDbPoint
  8
Buildings-21-08-2020
420
     0
 10
1412651.63500000000931323
 20
4931542.37899999972432852
 30
73.93999999999999773
  0
POINT
  5
cf
100
AcDbEntity
100
AcDbPoint
  8
Buildings-21-08-2020
420
     0
 10
1412622.32000000006519258
 20
4931586.42200000025331974
 30
65.40000000000000568
  0
POINT
  5
d0
100
AcDbEntity
100
AcDbPoint
  8
Buildings-21-08-2020
420
     0
 10
1412624.25499999988824129
 20
4931587.20799999963492155
 30
65.12000000000000455
  0
POINT
  5
d1
100
AcDbEntity
100
AcDbPoint
  8
Buildings-21-08-2020
420
     0
 10
1412749.52799999993294477
 20
4931614.49100000038743019
 30
48.97999999999999687
  0
POINT
  5
d2
100
AcDbEntity
100
AcDbPoint
  8
Buildings-21-08-2020
420
     0
 10
1412749.67999999993480742
 20
4931613.26499999966472387
 30
48.79999999999999716
  0
POINT
  5
d3
100
AcDbEntity
100
AcDbPoint
  8
Buildings-21-08-2020
420
     0
 10
1412761.02799999993294477
 20
4931614.70199999958276749
 30
48.92000000000000171
  0
POINT
  5
d4
100
AcDbEntity
100
AcDbPoint
  8
Buildings-21-08-2020
420
     0
 10
1412750.64700000011362135
 20
4931625.43599999975413084
 30
48.64000000000000057
  0
POINT
  5
d5
100
AcDbEntity
100
AcDbPoint
  8
Buildings-21-08-2020
420
     0
 10
1412738.39299999992363155
 20
4931615.60300000011920929
 30
47.82000000000000028
  0
POINT
  5
d6
100
AcDbEntity
100
AcDbPoint
  8
Buildings-21-08-2020
420
     0
 10
1412738.2520000000949949
 20
4931613.276999999769032
 30
47.82000000000000028
  0
POINT
  5
d7
100
AcDbEntity
100
AcDbPoint
  8
Buildings-21-08-2020
420
     0
 10
1412735.54499999992549419
 20
4931614.30599999986588955
 30
47.78999999999999915
  0
POINT
  5
d8
100
AcDbEntity
100
AcDbPoint
  8
Buildings-21-08-2020
420
     0
 10
1412735.42900000000372529
 20
4931616.2630000002682209
 30
47.85999999999999943
  0
POINT
  5
d9
100
AcDbEntity
100
AcDbPoint
  8
Buildings-21-08-2020
420
     0
 10
1412737.68900000001303852
 20
4931617.76099999994039536
 30
47.54999999999999716
  0
POINT
  5
da
100
AcDbEntity
100
AcDbPoint
  8
Buildings-21-08-2020
420
     0
 10
1412735.55499999993480742
 20
4931619.30900000035762787
 30
47.49000000000000199
  0
POINT
  5
db
100
AcDbEntity
100
AcDbPoint
  8
Buildings-21-08-2020
420
     0
 10
1412733.39700000011362135
 20
4931617.74500000011175871
 30
47.79999999999999716
  0
POINT
  5
dc
100
AcDbEntity
100
AcDbPoint
  8
Buildings-21-08-2020
420
     0
 10
1412733.12599999993108213
 20
4931619.83700000029057264
 30
47.52000000000000313
  0
POINT
  5
dd
100
AcDbEntity
100
AcDbPoint
  8
Buildings-21-08-2020
420
     0
 10
1412730.60899999993853271
 20
4931620.00200000032782555
 30
47.68999999999999773
  0
POINT
  5
de
100
AcDbEntity
100
AcDbPoint
  8
Buildings-21-08-2020
420
     0
 10
1412724.25799999991431832
 20
4931616.36400000005960464
 30
47.74000000000000199
  0
POINT
  5
df
100
AcDbEntity
100
AcDbPoint
  8
Buildings-21-08-2020
420
     0
 10
1412723.49900000006891787
 20
4931613.98599999956786633
 30
47.75999999999999801
  0
POINT
  5
e0
100
AcDbEntity
100
AcDbPoint
  8
Buildings-21-08-2020
420
     0
 10
1412724.52399999997578561
 20
4931611.76999999955296516
 30
47.78000000000000114
  0
POINT
  5
e1
100
AcDbEntity
100
AcDbPoint
  8
Buildings-21-08-2020
420
     0
 10
1412726.69399999990127981
 20
4931610.36299999989569187
 30
47.84000000000000341
  0
POINT
  5
e2
100
AcDbEntity
100
AcDbPoint
  8
Buildings-21-08-2020
420
     0
 10
1412729.09700000006705523
 20
4931609.72400000039488077
 30
47.90999999999999659
  0
POINT
  5
e3
100
AcDbEntity
100
AcDbPoint
  8
Buildings-21-08-2020
420
     0
 10
1412731.52900000009685755
 20
4931609.71700000017881393
 30
47.90999999999999659
  0
POINT
  5
e4
100
AcDbEntity
100
AcDbPoint
  8
Buildings-21-08-2020
420
     0
 10
1412729.10700000007636845
 20
4931611.79600000008940697
 30
47.92000000000000171
  0
POINT
  5
e5
100
AcDbEntity
100
AcDbPoint
  8
Buildings-21-08-2020
420
     0
 10
1412727.00799999991431832
 20
4931613.17499999981373549
 30
47.79999999999999716
  0
POINT
  5
e6
100
AcDbEntity
100
AcDbPoint
  8
Buildings-21-08-2020
420
     0
 10
1412726.59700000006705523
 20
4931615.27300000004470348
 30
47.74000000000000199
  0
POINT
  5
e7
100
AcDbEntity
100
AcDbPoint
  8
Buildings-21-08-2020
420
     0
 10
1412721.77399999997578561
 20
4931613.50800000037997961
 30
47.75
  0
POINT
  5
e8
100
AcDbEntity
100
AcDbPoint
  8
Buildings-21-08-2020
420
     0
 10
1412721.96099999989382923
 20
4931610.95199999958276749
 30
47.68999999999999773
  0
POINT
  5
e9
100
AcDbEntity
100
AcDbPoint
  8
Buildings-21-08-2020
420
     0
 10
1412722.85400000005029142
 20
4931609.99199999962002039
 30
47.67999999999999972
  0
POINT
  5
ea
100
AcDbEntity
100
AcDbPoint
  8
Buildings-21-08-2020
420
     0
 10
1412728.80000000004656613
 20
4931608.44299999997019768
 30
47.88000000000000256
  0
POINT
  5
eb
100
AcDbEntity
100
AcDbPoint
  8
Buildings-21-08-2020
420
     0
 10
1412728.52499999990686774
 20
4931606.54200000036507845
 30
49.39000000000000057
  0
POINT
  5
ec
100
AcDbEntity
100
AcDbPoint
  8
Buildings-21-08-2020
420
     0
 10
1412727.14800000004470348
 20
4931606.42599999997764826
 30
49.25999999999999801
  0
POINT
  5
ed
100
AcDbEntity
100
AcDbPoint
  8
Buildings-21-08-2020
420
     0
 10
1412726.98799999989569187
 20
4931604.93900000024586916
 30
49.39000000000000057
  0
POINT
  5
ee
100
AcDbEntity
100
AcDbPoint
  8
Buildings-21-08-2020
420
     0
 10
1412731.00600000005215406
 20
4931605.08600000012665987
 30
49.75999999999999801
  0
POINT
  5
ef
100
AcDbEntity
100
AcDbPoint
  8
Buildings-21-08-2020
420
     0
 10
1412730.96699999994598329
 20
4931606.51499999966472387
 30
49.43999999999999773
  0
POINT
  5
f0
100
AcDbEntity
100
AcDbPoint
  8
Buildings-21-08-2020
420
     0
 10
1412728.34799999999813735
 20
4931605.26599999982863665
 30
49.39999999999999858
  0
POINT
  5
f1
100
AcDbEntity
100
AcDbPoint
  8
Buildings-21-08-2020
420
     0
 10
1412727.087000000057742
 20
4931604.6919999998062849
 30
50.89000000000000057
  0
POINT
  5
f2
100
AcDbEntity
100
AcDbPoint
  8
Buildings-21-08-2020
420
     0
 10
1412727.5779999999795109
 20
4931601.40699999965727329
 30
50.96999999999999886
  0
POINT
  5
f3
100
AcDbEntity
100
AcDbPoint
  8
Buildings-21-08-2020
420
     0
 10
1412736.2590000000782311
 20
4931602.13200000021606684
 30
50.88000000000000256
  0
POINT
  5
f4
100
AcDbEntity
100
AcDbPoint
  8
Buildings-21-08-2020
420
     0
 10
1412735.96699999994598329
 20
4931605.44500000029802322
 30
51.24000000000000199
  0
POINT
  5
f5
100
AcDbEntity
100
AcDbPoint
  8
Buildings-21-08-2020
420
     0
 10
1412735.76000000000931323
 20
4931610.63100000005215406
 30
47.72999999999999687
  0
POINT
  5
f6
100
AcDbEntity
100
AcDbPoint
  8
Buildings-21-08-2020
420
     0
 10
1412733.53000000002793968
 20
4931612.36600000038743019
 30
47.82999999999999829
  0
POINT
  5
f7
100
AcDbEntity
100
AcDbPoint
  8
Buildings-21-08-2020
420
     0
 10
1412736.53399999998509884
 20
4931611.13700000010430813
 30
47.84000000000000341
  0
POINT
  5
f8
100
AcDbEntity
100
AcDbPoint
  8
Buildings-21-08-2020
420
     0
 10
1412736.42599999997764826
 20
4931615.17599999997764826
 30
47.89999999999999858
  0
POINT
  5
f9
100
AcDbEntity
100
AcDbPoint
  8
Buildings-21-08-2020
420
     0
 10
1412739.42999999993480742
 20
4931614.52799999993294477
 30
47.79999999999999716
  0
POINT
  5
fa
100
AcDbEntity
100
AcDbPoint
  8
Buildings-21-08-2020
420
     0
 10
1412738.64100000006146729
 20
4931612.73000000044703484
 30
48.75999999999999801
  0
POINT
  5
fb
100
AcDbEntity
100
AcDbPoint
  8
Buildings-21-08-2020
420
     0
 10
1412736.76200000010430813
 20
4931610.89499999955296516
 30
48.78999999999999915
  0
POINT
  5
fc
100
AcDbEntity
100
AcDbPoint
  8
Buildings-21-08-2020
420
     0
 10
1412739.73799999989569187
 20
4931619.3219999996945262
 30
47.32999999999999829
  0
POINT
  5
fd
100
AcDbEntity
100
AcDbPoint
  8
Buildings-21-08-2020
420
     0
 10
1412739.98799999989569187
 20
4931620.48099999967962503
 30
47.17999999999999972
  0
POINT
  5
fe
100
AcDbEntity
100
AcDbPoint
  8
Buildings-21-08-2020
420
     0
 10
1412738.75300000002607703
 20
4931621.21899999957531691
 30
47.09000000000000341
  0
POINT
  5
ff
100
AcDbEntity
100
AcDbPoint
  8
Buildings-21-08-2020
420
     0
 10
1412738.06400000001303852
 20
4931620.29499999992549419
 30
47.18999999999999773
  0
POINT
  5
100
100
AcDbEntity
100
AcDbPoint
  8
Buildings-21-08-2020
420
     0
 10
1412737.89899999997578561
 20
4931620.13999999966472387
 30
47.43999999999999773
  0
POINT
  5
101
100
AcDbEntity
100
AcDbPoint
  8
Buildings-21-08-2020
420
     0
 10
1412738.79799999995157123
 20
4931618.99899999983608723
 30
47.56000000000000227
  0
POINT
  5
102
100
AcDbEntity
100
AcDbPoint
  8
Buildings-21-08-2020
420
     0
 10
1412750.30300000007264316
 20
4931614.65699999965727329
 30
48.65999999999999659
  0
POINT
  5
103
100
AcDbEntity
100
AcDbPoint
  8
Buildings-21-08-2020
420
     0
 10
1412749.28399999998509884
 20
4931623.1380000002682209
 30
47.28000000000000114
  0
POINT
  5
104
100
AcDbEntity
100
AcDbPoint
  8
Buildings-21-08-2020
420
     0
 10
1412735.2409999999217689
 20
4931605.58999999985098839
 30
51.56000000000000227
  0
POINT
  5
105
100
AcDbEntity
100
AcDbPoint
  8
Buildings-21-08-2020
420
     0
 10
1412734.82499999995343387
 20
4931606.9469999996945262
 30
51.60000000000000142
  0
POINT
  5
106
100
AcDbEntity
100
AcDbPoint
  8
Buildings-21-08-2020
420
     0
 10
1412734.5779999999795109
 20
4931609.7900000000372529
 30
49.53999999999999915
  0
POINT
  5
107
100
AcDbEntity
100
AcDbPoint
  8
Buildings-21-08-2020
420
     0
 10
1412734.35700000007636845
 20
4931609.53199999965727329
 30
47.88000000000000256
  0
POINT
  5
108
100
AcDbEntity
100
AcDbPoint
  8
Buildings-21-08-2020
420
     0
 10
1412730.74300000001676381
 20
4931609.28000000026077032
 30
47.92000000000000171
  0
POINT
  5
109
100
AcDbEntity
100
AcDbPoint
  8
Buildings-21-08-2020
420
     0
 10
1412738.15599999995902181
 20
4931573.72900000028312206
 30
63.91700000000000159
  0
POINT
  5
10a
100
AcDbEntity
100
AcDbPoint
  8
Buildings-21-08-2020
420
     0
 10
1412738.73300000000745058
 20
4931574.10800000000745058
 30
60.59000000000000341
  0
POINT
  5
10b
100
AcDbEntity
100
AcDbPoint
  8
Buildings-21-08-2020
420
     0
 10
1412758.35700000007636845
 20
4931573.48500000033527613
 30
60.6980000000000004
  0
POINT
  5
10c
100
AcDbEntity
100
AcDbPoint
  8
Buildings-21-08-2020
420
     0
 10
1412757.12899999995715916
 20
4931572.23199999984353781
 30
60.60799999999999699
  0
POINT
  5
10d
100
AcDbEntity
100
AcDbPoint
  8
Buildings-21-08-2020
420
     0
 10
1412751.89100000006146729
 20
4931572.36400000005960464
 30
60.59799999999999898
  0
POINT
  5
10e
100
AcDbEntity
100
AcDbPoint
  8
Buildings-21-08-2020
420
     0
 10
1412747.87400000006891787
 20
4931571.89800000004470348
 30
61.87700000000000244
  0
POINT
  5
10f
100
AcDbEntity
100
AcDbPoint
  8
Buildings-21-08-2020
420
     0
 10
1412743.30700000002980232
 20
4931572.60300000011920929
 30
60.59700000000000131
  0
POINT
  5
110
100
AcDbEntity
100
AcDbPoint
  8
Buildings-21-08-2020
420
     0
 10
1412741.549000000115484
 20
4931573.10300000011920929
 30
64.01699999999999591
  0
POINT
  5
111
100
AcDbEntity
100
AcDbPoint
  8
Buildings-21-08-2020
420
     0
 10
1412738.68800000008195639
 20
4931569.82400000002235174
 30
60.55700000000000216
  0
POINT
  5
112
100
AcDbEntity
100
AcDbPoint
  8
BUILDINGS21082020 entities
420
     0
 10
1412684.88999999989755452
 20
4931554.51999999955296516
 30
64.76000000000000512
  0
POINT
  5
113
100
AcDbEntity
100
AcDbPoint
  8
BUILDINGS21082020 entities
420
     0
 10
1412683.91999999992549419
 20
4931556.71999999973922968
 30
65.23000000000000398
  0
POINT
  5
114
100
AcDbEntity
100
AcDbPoint
  8
BUILDINGS21082020 entities
420
     0
 10
1412686.72999999998137355
 20
4931558.04999999981373549
 30
63.28000000000000114
  0
POINT
  5
115
100
AcDbEntity
100
AcDbPoint
  8
BUILDINGS21082020 entities
420
     0
 10
1412680.02000000001862645
 20
4931558.36000000033527613
 30
62.14000000000000057
  0
POINT
  5
116
100
AcDbEntity
100
AcDbPoint
  8
BUILDINGS21082020 entities
420
     0
 10
1412681.18999999994412065
 20
4931560.92999999970197678
 30
61.65999999999999659
  0
POINT
  5
117
100
AcDbEntity
100
AcDbPoint
  8
BUILDINGS21082020 entities
420
     0
 10
1412681.14999999990686774
 20
4931561.95000000018626451
 30
61.32000000000000028
  0
POINT
  5
118
100
AcDbEntity
100
AcDbPoint
  8
BUILDINGS21082020 entities
420
     0
 10
1412681.48999999999068677
 20
4931561.88999999966472387
 30
61.38000000000000256
  0
POINT
  5
119
100
AcDbEntity
100
AcDbPoint
  8
BUILDINGS21082020 entities
420
     0
 10
1412682.2099999999627471
 20
4931563.49000000022351742
 30
60.90999999999999659
  0
POINT
  5
11a
100
AcDbEntity
100
AcDbPoint
  8
BUILDINGS21082020 entities
420
     0
 10
1412684.21999999997206032
 20
4931567.37000000011175871
 30
60.10999999999999943
  0
POINT
  5
11b
100
AcDbEntity
100
AcDbPoint
  8
BUILDINGS21082020 entities
420
     0
 10
1412682.65999999991618097
 20
4931565.7900000000372529
 30
60.35999999999999943
  0
POINT
  5
11c
100
AcDbEntity
100
AcDbPoint
  8
BUILDINGS21082020 entities
420
     0
 10
1412675.38999999989755452
 20
4931569.33999999985098839
 30
60.18999999999999773
  0
POINT
  5
11d
100
AcDbEntity
100
AcDbPoint
  8
BUILDINGS21082020 entities
420
     0
 10
1412675.86000000010244548
 20
4931571.33999999985098839
 30
60.00999999999999801
  0
POINT
  5
11e
100
AcDbEntity
100
AcDbPoint
  8
BUILDINGS21082020 entities
420
     0
 10
1412674.78000000002793968
 20
4931568.19000000040978193
 30
60.20000000000000284
  0
POINT
  5
11f
100
AcDbEntity
100
AcDbPoint
  8
BUILDINGS21082020 entities
420
     0
 10
1412673.77000000001862645
 20
4931567.08999999985098839
 30
61.29999999999999716
  0
POINT
  5
120
100
AcDbEntity
100
AcDbPoint
  8
BUILDINGS21082020 entities
420
     0
 10
1412673.05000000004656613
 20
4931565.08999999985098839
 30
61.35999999999999943
  0
POINT
  5
121
100
AcDbEntity
100
AcDbPoint
  8
BUILDINGS21082020 entities
420
     0
 10
1412673.77000000001862645
 20
4931565.00999999977648258
 30
61.31000000000000227
  0
POINT
  5
122
100
AcDbEntity
100
AcDbPoint
  8
BUILDINGS21082020 entities
420
     0
 10
1412671.44999999995343387
 20
4931561.87000000011175871
 30
62.20000000000000284
  0
POINT
  5
123
100
AcDbEntity
100
AcDbPoint
  8
BUILDINGS21082020 entities
420
     0
 10
1412695.18900000001303852
 20
4931579.89300000015646219
 30
58.28999999999999915
  0
POINT
  5
124
100
AcDbEntity
100
AcDbPoint
  8
BUILDINGS21082020 entities
420
     0
 10
1412696.93100000009872019
 20
4931575.43900000024586916
 30
59.92999999999999972
  0
POINT
  5
125
100
AcDbEntity
100
AcDbPoint
  8
BUILDINGS21082020 entities
420
     0
 10
1412695.97200000006705523
 20
4931580.09999999962747097
 30
59.61999999999999744
  0
POINT
  5
126
100
AcDbEntity
100
AcDbPoint
  8
BUILDINGS21082020 entities
420
     0
 10
1412696.60800000000745058
 20
4931571.10500000044703484
 30
60.28999999999999915
  0
POINT
  5
127
100
AcDbEntity
100
AcDbPoint
  8
BUILDINGS21082020 entities
420
     0
 10
1412697.55799999996088445
 20
4931571.40799999982118607
 30
60.25
  0
POINT
  5
128
100
AcDbEntity
100
AcDbPoint
  8
BUILDINGS21082020 entities
420
     0
 10
1412687.10700000007636845
 20
4931569.47200000006705523
 30
59.84000000000000341
  0
POINT
  5
129
100
AcDbEntity
100
AcDbPoint
  8
BUILDINGS21082020 entities
420
     0
 10
1412688.21500000008381903
 20
4931569.55900000035762787
 30
60.14000000000000057
  0
POINT
  5
12a
100
AcDbEntity
100
AcDbPoint
  8
BUILDINGS21082020 entities
420
     0
 10
1412686.21099999989382923
 20
4931573.75399999972432852
 30
59.82999999999999829
  0
POINT
  5
12b
100
AcDbEntity
100
AcDbPoint
  8
BUILDINGS21082020 entities
420
     0
 10
1412685.68200000002980232
 20
4931577.83899999968707561
 30
59.85000000000000142
  0
POINT
  5
12c
100
AcDbEntity
100
AcDbPoint
  8
BUILDINGS21082020 entities
420
     0
 10
1412738.72799999988637865
 20
4931572.79700000025331974
 30
60.64999999999999858
  0
POINT
  5
12d
100
AcDbEntity
100
AcDbPoint
  8
BUILDINGS21082020 entities
420
     0
 10
1412739.32199999992735684
 20
4931575.91000000014901161
 30
60.59000000000000341
  0
POINT
  5
12e
100
AcDbEntity
100
AcDbPoint
  8
BUILDINGS21082020 entities
420
     0
 10
1412750.11800000001676381
 20
4931575.34599999990314245
 30
60.25
  0
POINT
  5
12f
100
AcDbEntity
100
AcDbPoint
  8
BUILDINGS21082020 entities
420
     0
 10
1412751.79799999995157123
 20
4931574.50200000032782555
 30
60.52000000000000313
  0
POINT
  5
130
100
AcDbEntity
100
AcDbPoint
  8
BUILDINGS21082020 entities
420
     0
 10
1412757.14800000004470348
 20
4931574.00399999972432852
 30
59.71999999999999886
  0
POINT
  5
131
100
AcDbEntity
100
AcDbPoint
  8
BUILDINGS21082020 entities
420
     0
 10
1412757.21699999994598329
 20
4931572.87600000016391277
 30
62.14999999999999858
  0
POINT
  5
132
100
AcDbEntity
100
AcDbPoint
  8
BUILDINGS21082020 entities
420
     0
 10
1412750.66999999992549419
 20
4931573.52400000020861626
 30
60.64999999999999858
  0
POINT
  5
133
100
AcDbEntity
100
AcDbPoint
  8
BUILDINGS21082020 entities
420
     0
 10
1412738.73300000000745058
 20
4931574.10800000000745058
 30
60.61999999999999744
  0
POINT
  5
134
100
AcDbEntity
100
AcDbPoint
  8
BUILDINGS21082020 entities
420
     0
 10
1412738.73300000000745058
 20
4931574.10800000000745058
 30
60.60000000000000142
  0
POINT
  5
135
100
AcDbEntity
100
AcDbPoint
  8
BUILDINGS21082020 entities
420
     0
 10
1412687.74900000006891787
 20
4931555.89499999955296516
 30
65.18999999999999773
  0
POINT
  5
136
100
AcDbEntity
100
AcDbPoint
  8
BUILDINGS21082020 entities
420
     0
 10
1412684.80000000004656613
 20
4931554.62399999983608723
 30
65.20999999999999375
  0
POINT
  5
137
100
AcDbEntity
100
AcDbPoint
  8
BUILDINGS21082020 entities
420
     0
 10
1412650.587000000057742
 20
4931542.60400000028312206
 30
73.84000000000000341
  0
POINT
  5
138
100
AcDbEntity
100
AcDbPoint
  8
BUILDINGS21082020 entities
420
     0
 10
1412650.32899999991059303
 20
4931541.06400000024586916
 30
73.84000000000000341
  0
POINT
  5
139
100
AcDbEntity
100
AcDbPoint
  8
BUILDINGS21082020 entities
420
     0
 10
1412651.70500000007450581
 20
4931541.20100000035017729
 30
73.96999999999999886
  0
POINT
  5
13a
100
AcDbEntity
100
AcDbPoint
  8
BUILDINGS21082020 entities
420
     0
 10
1412651.63500000000931323
 20
4931542.37899999972432852
 30
73.93999999999999773
  0
POINT
  5
13b
100
AcDbEntity
100
AcDbPoint
  8
BUILDINGS21082020 entities
420
     0
 10
1412622.32000000006519258
 20
4931586.42200000025331974
 30
65.40000000000000568
  0
POINT
  5
13c
100
AcDbEntity
100
AcDbPoint
  8
BUILDINGS21082020 entities
420
     0
 10
1412624.25499999988824129
 20
4931587.20799999963492155
 30
65.12000000000000455
  0
POINT
  5
13d
100
AcDbEntity
100
AcDbPoint
  8
BUILDINGS21082020 entities
420
     0
 10
1412749.52799999993294477
 20
4931614.49100000038743019
 30
48.97999999999999687
  0
POINT
  5
13e
100
AcDbEntity
100
AcDbPoint
  8
BUILDINGS21082020 entities
420
     0
 10
1412749.67999999993480742
 20
4931613.26499999966472387
 30
48.79999999999999716
  0
POINT
  5
13f
100
AcDbEntity
100
AcDbPoint
  8
BUILDINGS21082020 entities
420
     0
 10
1412761.02799999993294477
 20
4931614.70199999958276749
 30
48.92000000000000171
  0
POINT
  5
140
100
AcDbEntity
100
AcDbPoint
  8
BUILDINGS21082020 entities
420
     0
 10
1412750.64700000011362135
 20
4931625.43599999975413084
 30
48.64000000000000057
  0
POINT
  5
141
100
AcDbEntity
100
AcDbPoint
  8
BUILDINGS21082020 entities
420
     0
 10
1412738.39299999992363155
 20
4931615.60300000011920929
 30
47.82000000000000028
  0
POINT
  5
142
100
AcDbEntity
100
AcDbPoint
  8
BUILDINGS21082020 entities
420
     0
 10
1412738.2520000000949949
 20
4931613.276999999769032
 30
47.82000000000000028
  0
POINT
  5
143
100
AcDbEntity
100
AcDbPoint
  8
BUILDINGS21082020 entities
420
     0
 10
1412735.54499999992549419
 20
4931614.30599999986588955
 30
47.78999999999999915
  0
POINT
  5
144
100
AcDbEntity
100
AcDbPoint
  8
BUILDINGS21082020 entities
420
     0
 10
1412735.42900000000372529
 20
4931616.2630000002682209
 30
47.85999999999999943
  0
POINT
  5
145
100
AcDbEntity
100
AcDbPoint
  8
BUILDINGS21082020 entities
420
     0
 10
1412737.68900000001303852
 20
4931617.76099999994039536
 30
47.54999999999999716
  0
POINT
  5
146
100
AcDbEntity
100
AcDbPoint
  8
BUILDINGS21082020 entities
420
     0
 10
1412735.55499999993480742
 20
4931619.30900000035762787
 30
47.49000000000000199
  0
POINT
  5
147
100
AcDbEntity
100
AcDbPoint
  8
BUILDINGS21082020 entities
420
     0
 10
1412733.39700000011362135
 20
4931617.74500000011175871
 30
47.79999999999999716
  0
POINT
  5
148
100
AcDbEntity
100
AcDbPoint
  8
BUILDINGS21082020 entities
420
     0
 10
1412733.12599999993108213
 20
4931619.83700000029057264
 30
47.52000000000000313
  0
POINT
  5
149
100
AcDbEntity
100
AcDbPoint
  8
BUILDINGS21082020 entities
420
     0
 10
1412730.60899999993853271
 20
4931620.00200000032782555
 30
47.68999999999999773
  0
POINT
  5
14a
100
AcDbEntity
100
AcDbPoint
  8
BUILDINGS21082020 entities
420
     0
 10
1412724.25799999991431832
 20
4931616.36400000005960464
 30
47.74000000000000199
  0
POINT
  5
14b
100
AcDbEntity
100
AcDbPoint
  8
BUILDINGS21082020 entities
420
     0
 10
1412723.49900000006891787
 20
4931613.98599999956786633
 30
47.75999999999999801
  0
POINT
  5
14c
100
AcDbEntity
100
AcDbPoint
  8
BUILDINGS21082020 entities
420
     0
 10
1412724.52399999997578561
 20
4931611.76999999955296516
 30
47.78000000000000114
  0
POINT
  5
14d
100
AcDbEntity
100
AcDbPoint
  8
BUILDINGS21082020 entities
420
     0
 10
1412726.69399999990127981
 20
4931610.36299999989569187
 30
47.84000000000000341
  0
POINT
  5
14e
100
AcDbEntity
100
AcDbPoint
  8
BUILDINGS21082020 entities
420
     0
 10
1412729.09700000006705523
 20
4931609.72400000039488077
 30
47.90999999999999659
  0
POINT
  5
14f
100
AcDbEntity
100
AcDbPoint
  8
BUILDINGS21082020 entities
420
     0
 10
1412731.52900000009685755
 20
4931609.71700000017881393
 30
47.90999999999999659
  0
POINT
  5
150
100
AcDbEntity
100
AcDbPoint
  8
BUILDINGS21082020 entities
420
     0
 10
1412729.10700000007636845
 20
4931611.79600000008940697
 30
47.92000000000000171
  0
POINT
  5
151
100
AcDbEntity
100
AcDbPoint
  8
BUILDINGS21082020 entities
420
     0
 10
1412727.00799999991431832
 20
4931613.17499999981373549
 30
47.79999999999999716
  0
POINT
  5
152
100
AcDbEntity
100
AcDbPoint
  8
BUILDINGS21082020 entities
420
     0
 10
1412726.59700000006705523
 20
4931615.27300000004470348
 30
47.74000000000000199
  0
POINT
  5
153
100
AcDbEntity
100
AcDbPoint
  8
BUILDINGS21082020 entities
420
     0
 10
1412721.77399999997578561
 20
4931613.50800000037997961
 30
47.75
  0
POINT
  5
154
100
AcDbEntity
100
AcDbPoint
  8
BUILDINGS21082020 entities
420
     0
 10
1412721.96099999989382923
 20
4931610.95199999958276749
 30
47.68999999999999773
  0
POINT
  5
155
100
AcDbEntity
100
AcDbPoint
  8
BUILDINGS21082020 entities
420
     0
 10
1412722.85400000005029142
 20
4931609.99199999962002039
 30
47.67999999999999972
  0
POINT
  5
156
100
AcDbEntity
100
AcDbPoint
  8
BUILDINGS21082020 entities
420
     0
 10
1412728.80000000004656613
 20
4931608.44299999997019768
 30
47.88000000000000256
  0
POINT
  5
157
100
AcDbEntity
100
AcDbPoint
  8
BUILDINGS21082020 entities
420
     0
 10
1412728.52499999990686774
 20
4931606.54200000036507845
 30
49.39000000000000057
  0
POINT
  5
158
100
AcDbEntity
100
AcDbPoint
  8
BUILDINGS21082020 entities
420
     0
 10
1412727.14800000004470348
 20
4931606.42599999997764826
 30
49.25999999999999801
  0
POINT
  5
159
100
AcDbEntity
100
AcDbPoint
  8
BUILDINGS21082020 entities
420
     0
 10
1412726.98799999989569187
 20
4931604.93900000024586916
 30
49.39000000000000057
  0
POINT
  5
15a
100
AcDbEntity
100
AcDbPoint
  8
BUILDINGS21082020 entities
420
     0
 10
1412731.00600000005215406
 20
4931605.08600000012665987
 30
49.75999999999999801
  0
POINT
  5
15b
100
AcDbEntity
100
AcDbPoint
  8
BUILDINGS21082020 entities
420
     0
 10
1412730.96699999994598329
 20
4931606.51499999966472387
 30
49.43999999999999773
  0
POINT
  5
15c
100
AcDbEntity
100
AcDbPoint
  8
BUILDINGS21082020 entities
420
     0
 10
1412728.34799999999813735
 20
4931605.26599999982863665
 30
49.39999999999999858
  0
POINT
  5
15d
100
AcDbEntity
100
AcDbPoint
  8
BUILDINGS21082020 entities
420
     0
 10
1412727.087000000057742
 20
4931604.6919999998062849
 30
50.89000000000000057
  0
POINT
  5
15e
100
AcDbEntity
100
AcDbPoint
  8
BUILDINGS21082020 entities
420
     0
 10
1412727.5779999999795109
 20
4931601.40699999965727329
 30
50.96999999999999886
  0
POINT
  5
15f
100
AcDbEntity
100
AcDbPoint
  8
BUILDINGS21082020 entities
420
     0
 10
1412736.2590000000782311
 20
4931602.13200000021606684
 30
50.88000000000000256
  0
POINT
  5
160
100
AcDbEntity
100
AcDbPoint
  8
BUILDINGS21082020 entities
420
     0
 10
1412735.96699999994598329
 20
4931605.44500000029802322
 30
51.24000000000000199
  0
POINT
  5
161
100
AcDbEntity
100
AcDbPoint
  8
BUILDINGS21082020 entities
420
     0
 10
1412735.76000000000931323
 20
4931610.63100000005215406
 30
47.72999999999999687
  0
POINT
  5
162
100
AcDbEntity
100
AcDbPoint
  8
BUILDINGS21082020 entities
420
     0
 10
1412733.53000000002793968
 20
4931612.36600000038743019
 30
47.82999999999999829
  0
POINT
  5
163
100
AcDbEntity
100
AcDbPoint
  8
BUILDINGS21082020 entities
420
     0
 10
1412736.53399999998509884
 20
4931611.13700000010430813
 30
47.84000000000000341
  0
POINT
  5
164
100
AcDbEntity
100
AcDbPoint
  8
BUILDINGS21082020 entities
420
     0
 10
1412736.42599999997764826
 20
4931615.17599999997764826
 30
47.89999999999999858
  0
POINT
  5
165
100
AcDbEntity
100
AcDbPoint
  8
BUILDINGS21082020 entities
420
     0
 10
1412739.42999999993480742
 20
4931614.52799999993294477
 30
47.79999999999999716
  0
POINT
  5
166
100
AcDbEntity
100
AcDbPoint
  8
BUILDINGS21082020 entities
420
     0
 10
1412738.64100000006146729
 20
4931612.73000000044703484
 30
48.75999999999999801
  0
POINT
  5
167
100
AcDbEntity
100
AcDbPoint
  8
BUILDINGS21082020 entities
420
     0
 10
1412736.76200000010430813
 20
4931610.89499999955296516
 30
48.78999999999999915
  0
POINT
  5
168
100
AcDbEntity
100
AcDbPoint
  8
BUILDINGS21082020 entities
420
     0
 10
1412739.73799999989569187
 20
4931619.3219999996945262
 30
47.32999999999999829
  0
POINT
  5
169
100
AcDbEntity
100
AcDbPoint
  8
BUILDINGS21082020 entities
420
     0
 10
1412739.98799999989569187
 20
4931620.48099999967962503
 30
47.17999999999999972
  0
POINT
  5
16a
100
AcDbEntity
100
AcDbPoint
  8
BUILDINGS21082020 entities
420
     0
 10
1412738.75300000002607703
 20
4931621.21899999957531691
 30
47.09000000000000341
  0
POINT
  5
16b
100
AcDbEntity
100
AcDbPoint
  8
BUILDINGS21082020 entities
420
     0
 10
1412738.06400000001303852
 20
4931620.29499999992549419
 30
47.18999999999999773
  0
POINT
  5
16c
100
AcDbEntity
100
AcDbPoint
  8
BUILDINGS21082020 entities
420
     0
 10
1412737.89899999997578561
 20
4931620.13999999966472387
 30
47.43999999999999773
  0
POINT
  5
16d
100
AcDbEntity
100
AcDbPoint
  8
BUILDINGS21082020 entities
420
     0
 10
1412738.79799999995157123
 20
4931618.99899999983608723
 30
47.56000000000000227
  0
POINT
  5
16e
100
AcDbEntity
100
AcDbPoint
  8
BUILDINGS21082020 entities
420
     0
 10
1412750.30300000007264316
 20
4931614.65699999965727329
 30
48.65999999999999659
  0
POINT
  5
16f
100
AcDbEntity
100
AcDbPoint
  8
BUILDINGS21082020 entities
420
     0
 10
1412749.28399999998509884
 20
4931623.1380000002682209
 30
47.28000000000000114
  0
POINT
  5
170
100
AcDbEntity
100
AcDbPoint
  8
BUILDINGS21082020 entities
420
     0
 10
1412735.2409999999217689
 20
4931605.58999999985098839
 30
51.56000000000000227
  0
POINT
  5
171
100
AcDbEntity
100
AcDbPoint
  8
BUILDINGS21082020 entities
420
     0
 10
1412734.82499999995343387
 20
4931606.9469999996945262
 30
51.60000000000000142
  0
POINT
  5
172
100
AcDbEntity
100
AcDbPoint
  8
BUILDINGS21082020 entities
420
     0
 10
1412734.5779999999795109
 20
4931609.7900000000372529
 30
49.53999999999999915
  0
POINT
  5
173
100
AcDbEntity
100
AcDbPoint
  8
BUILDINGS21082020 entities
420
     0
 10
1412734.35700000007636845
 20
4931609.53199999965727329
 30
47.88000000000000256
  0
POINT
  5
174
100
AcDbEntity
100
AcDbPoint
  8
BUILDINGS21082020 entities
420
     0
 10
1412730.74300000001676381
 20
4931609.28000000026077032
 30
47.92000000000000171
  0
POINT
  5
175
100
AcDbEntity
100
AcDbPoint
  8
BUILDINGS21082020 entities
420
     0
 10
1412738.15599999995902181
 20
4931573.72900000028312206
 30
63.91700000000000159
  0
POINT
  5
176
100
AcDbEntity
100
AcDbPoint
  8
BUILDINGS21082020 entities
420
     0
 10
1412738.73300000000745058
 20
4931574.10800000000745058
 30
60.59000000000000341
  0
POINT
  5
177
100
AcDbEntity
100
AcDbPoint
  8
BUILDINGS21082020 entities
420
     0
 10
1412758.35700000007636845
 20
4931573.48500000033527613
 30
60.6980000000000004
  0
POINT
  5
178
100
AcDbEntity
100
AcDbPoint
  8
BUILDINGS21082020 entities
420
     0
 10
1412757.12899999995715916
 20
4931572.23199999984353781
 30
60.60799999999999699
  0
POINT
  5
179
100
AcDbEntity
100
AcDbPoint
  8
BUILDINGS21082020 entities
420
     0
 10
1412751.89100000006146729
 20
4931572.36400000005960464
 30
60.59799999999999898
  0
POINT
  5
17a
100
AcDbEntity
100
AcDbPoint
  8
BUILDINGS21082020 entities
420
     0
 10
1412747.87400000006891787
 20
4931571.89800000004470348
 30
61.87700000000000244
  0
POINT
  5
17b
100
AcDbEntity
100
AcDbPoint
  8
BUILDINGS21082020 entities
420
     0
 10
1412743.30700000002980232
 20
4931572.60300000011920929
 30
60.59700000000000131
  0
POINT
  5
17c
100
AcDbEntity
100
AcDbPoint
  8
BUILDINGS21082020 entities
420
     0
 10
1412741.549000000115484
 20
4931573.10300000011920929
 30
64.01699999999999591
  0
POINT
  5
17d
100
AcDbEntity
100
AcDbPoint
  8
BUILDINGS21082020 entities
420
     0
 10
1412738.68800000008195639
 20
4931569.82400000002235174
 30
60.55700000000000216
  0
POINT
  5
17e
100
AcDbEntity
100
AcDbPoint
  8
Ground topo-Rev01
420
     0
 10
1412714.68999999994412065
 20
4931563.42999999970197678
 30
61.97999999999999687
  0
POINT
  5
17f
100
AcDbEntity
100
AcDbPoint
  8
Ground topo-Rev01
420
     0
 10
1412714.67999999993480742
 20
4931563.42999999970197678
 30
61.96999999999999886
  0
POINT
  5
180
100
AcDbEntity
100
AcDbPoint
  8
Ground topo-Rev01
420
     0
 10
1412706.90999999991618097
 20
4931556.07000000029802322
 30
65.65000000000000568
  0
POINT
  5
181
100
AcDbEntity
100
AcDbPoint
  8
Ground topo-Rev01
420
     0
 10
1412709.16999999992549419
 20
4931553.0
 30
66.65000000000000568
  0
POINT
  5
182
100
AcDbEntity
100
AcDbPoint
  8
Ground topo-Rev01
420
     0
 10
1412698.5400000000372529
 20
4931552.49000000022351742
 30
66.93999999999999773
  0
POINT
  5
183
100
AcDbEntity
100
AcDbPoint
  8
Ground topo-Rev01
420
     0
 10
1412682.83000000007450581
 20
4931548.62999999988824129
 30
65.42000000000000171
  0
POINT
  5
184
100
AcDbEntity
100
AcDbPoint
  8
Ground topo-Rev01
420
     0
 10
1412658.05000000004656613
 20
4931550.37000000011175871
 30
67.42000000000000171
  0
POINT
  5
185
100
AcDbEntity
100
AcDbPoint
  8
Ground topo-Rev01
420
     0
 10
1412652.33000000007450581
 20
4931550.78000000026077032
 30
70.21999999999999886
  0
POINT
  5
186
100
AcDbEntity
100
AcDbPoint
  8
Ground topo-Rev01
420
     0
 10
1412652.17999999993480742
 20
4931550.67999999970197678
 30
70.28000000000000114
  0
POINT
  5
187
100
AcDbEntity
100
AcDbPoint
  8
Ground topo-Rev01
420
     0
 10
1412639.15999999991618097
 20
4931563.4599999999627471
 30
69.89000000000000057
  0
POINT
  5
188
100
AcDbEntity
100
AcDbPoint
  8
Ground topo-Rev01
420
     0
 10
1412639.17999999993480742
 20
4931563.44000000040978193
 30
69.89000000000000057
  0
POINT
  5
189
100
AcDbEntity
100
AcDbPoint
  8
Ground topo-Rev01
420
     0
 10
1412633.7099999999627471
 20
4931566.37000000011175871
 30
72.59000000000000341
  0
POINT
  5
18a
100
AcDbEntity
100
AcDbPoint
  8
Ground topo-Rev01
420
     0
 10
1412637.51000000000931323
 20
4931561.71999999973922968
 30
73.07999999999999829
  0
POINT
  5
18b
100
AcDbEntity
100
AcDbPoint
  8
Ground topo-Rev01
420
     0
 10
1412634.0400000000372529
 20
4931559.4599999999627471
 30
75.70000000000000284
  0
POINT
  5
18c
100
AcDbEntity
100
AcDbPoint
  8
Ground topo-Rev01
420
     0
 10
1412639.64999999990686774
 20
4931547.57000000029802322
 30
76.64000000000000057
  0
POINT
  5
18d
100
AcDbEntity
100
AcDbPoint
  8
Ground topo-Rev01
420
     0
 10
1412643.17999999993480742
 20
4931547.95000000018626451
 30
74.56999999999999318
  0
POINT
  5
18e
100
AcDbEntity
100
AcDbPoint
  8
Ground topo-Rev01
420
     0
 10
1412628.12999999988824129
 20
4931587.54999999981373549
 30
64.92000000000000171
  0
POINT
  5
18f
100
AcDbEntity
100
AcDbPoint
  8
Ground topo-Rev01
420
     0
 10
1412631.18999999994412065
 20
4931587.73000000044703484
 30
64.76000000000000512
  0
POINT
  5
190
100
AcDbEntity
100
AcDbPoint
  8
Ground topo-Rev01
420
     0
 10
1412630.88999999989755452
 20
4931588.54999999981373549
 30
64.60999999999999943
  0
POINT
  5
191
100
AcDbEntity
100
AcDbPoint
  8
Ground topo-Rev01
420
     0
 10
1412638.08000000007450581
 20
4931571.83000000007450581
 30
69.29000000000000625
  0
POINT
  5
192
100
AcDbEntity
100
AcDbPoint
  8
Ground topo-Rev01
420
     0
 10
1412684.88999999989755452
 20
4931554.51999999955296516
 30
64.76000000000000512
  0
POINT
  5
193
100
AcDbEntity
100
AcDbPoint
  8
Ground topo-Rev01
420
     0
 10
1412686.72999999998137355
 20
4931558.04999999981373549
 30
63.28000000000000114
  0
POINT
  5
194
100
AcDbEntity
100
AcDbPoint
  8
Ground topo-Rev01
420
     0
 10
1412680.02000000001862645
 20
4931558.36000000033527613
 30
62.14000000000000057
  0
POINT
  5
195
100
AcDbEntity
100
AcDbPoint
  8
Ground topo-Rev01
420
     0
 10
1412681.18999999994412065
 20
4931560.92999999970197678
 30
61.65999999999999659
  0
POINT
  5
196
100
AcDbEntity
100
AcDbPoint
  8
Ground topo-Rev01
420
     0
 10
1412681.14999999990686774
 20
4931561.95000000018626451
 30
61.32000000000000028
  0
POINT
  5
197
100
AcDbEntity
100
AcDbPoint
  8
Ground topo-Rev01
420
     0
 10
1412681.48999999999068677
 20
4931561.88999999966472387
 30
61.38000000000000256
  0
POINT
  5
198
100
AcDbEntity
100
AcDbPoint
  8
Ground topo-Rev01
420
     0
 10
1412682.2099999999627471
 20
4931563.49000000022351742
 30
60.90999999999999659
  0
POINT
  5
199
100
AcDbEntity
100
AcDbPoint
  8
Ground topo-Rev01
420
     0
 10
1412684.21999999997206032
 20
4931567.37000000011175871
 30
60.10999999999999943
  0
POINT
  5
19a
100
AcDbEntity
100
AcDbPoint
  8
Ground topo-Rev01
420
     0
 10
1412682.65999999991618097
 20
4931565.7900000000372529
 30
60.35999999999999943
  0
POINT
  5
19b
100
AcDbEntity
100
AcDbPoint
  8
Ground topo-Rev01
420
     0
 10
1412675.38999999989755452
 20
4931569.33999999985098839
 30
60.18999999999999773
  0
POINT
  5
19c
100
AcDbEntity
100
AcDbPoint
  8
Ground topo-Rev01
420
     0
 10
1412675.86000000010244548
 20
4931571.33999999985098839
 30
60.00999999999999801
  0
POINT
  5
19d
100
AcDbEntity
100
AcDbPoint
  8
Ground topo-Rev01
420
     0
 10
1412674.78000000002793968
 20
4931568.19000000040978193
 30
60.20000000000000284
  0
POINT
  5
19e
100
AcDbEntity
100
AcDbPoint
  8
Ground topo-Rev01
420
     0
 10
1412673.77000000001862645
 20
4931567.08999999985098839
 30
61.29999999999999716
  0
POINT
  5
19f
100
AcDbEntity
100
AcDbPoint
  8
Ground topo-Rev01
420
     0
 10
1412673.05000000004656613
 20
4931565.08999999985098839
 30
61.35999999999999943
  0
POINT
  5
1a0
100
AcDbEntity
100
AcDbPoint
  8
Ground topo-Rev01
420
     0
 10
1412673.77000000001862645
 20
4931565.00999999977648258
 30
61.31000000000000227
  0
POINT
  5
1a1
100
AcDbEntity
100
AcDbPoint
  8
Ground topo-Rev01
420
     0
 10
1412671.44999999995343387
 20
4931561.87000000011175871
 30
62.20000000000000284
  0
POINT
  5
1a2
100
AcDbEntity
100
AcDbPoint
  8
Ground topo-Rev01
420
     0
 10
1412716.44999999995343387
 20
4931586.16000000014901161
 30
57.21999999999999886
  0
POINT
  5
1a3
100
AcDbEntity
100
AcDbPoint
  8
Ground topo-Rev01
420
     0
 10
1412715.94999999995343387
 20
4931588.08999999985098839
 30
56.97999999999999687
  0
POINT
  5
1a4
100
AcDbEntity
100
AcDbPoint
  8
Ground topo-Rev01
420
     0
 10
1412717.58000000007450581
 20
4931589.66999999992549419
 30
56.31000000000000227
  0
POINT
  5
1a5
100
AcDbEntity
100
AcDbPoint
  8
Ground topo-Rev01
420
     0
 10
1412719.57000000006519258
 20
4931589.40000000037252903
 30
56.42000000000000171
  0
POINT
  5
1a6
100
AcDbEntity
100
AcDbPoint
  8
Ground topo-Rev01
420
     0
 10
1412720.75
 20
4931587.84999999962747097
 30
56.52000000000000313
  0
POINT
  5
1a7
100
AcDbEntity
100
AcDbPoint
  8
Ground topo-Rev01
420
     0
 10
1412717.76000000000931323
 20
4931585.33000000007450581
 30
57.24000000000000199
  0
POINT
  5
1a8
100
AcDbEntity
100
AcDbPoint
  8
Ground topo-Rev01
420
     0
 10
1412719.17999999993480742
 20
4931585.4599999999627471
 30
56.63000000000000256
  0
POINT
  5
1a9
100
AcDbEntity
100
AcDbPoint
  8
Ground topo-Rev01
420
     0
 10
1412747.5
 20
4931641.78000000026077032
 30
44.70000000000000284
  0
POINT
  5
1aa
100
AcDbEntity
100
AcDbPoint
  8
Ground topo-Rev01
420
     0
 10
1412724.33000000007450581
 20
4931622.2099999999627471
 30
46.77000000000000313
  0
POINT
  5
1ab
100
AcDbEntity
100
AcDbPoint
  8
Ground topo-Rev01
420
     0
 10
1412723.12999999988824129
 20
4931620.07000000029802322
 30
47.10000000000000142
  0
POINT
  5
1ac
100
AcDbEntity
100
AcDbPoint
  8
Ground topo-Rev01
420
     0
 10
1412716.26000000000931323
 20
4931605.79999999981373549
 30
49.81000000000000227
  0
POINT
  5
1ad
100
AcDbEntity
100
AcDbPoint
  8
Ground topo-Rev01
420
     0
 10
1412721.63999999989755452
 20
4931604.04999999981373549
 30
50.34000000000000341
  0
POINT
  5
1ae
100
AcDbEntity
100
AcDbPoint
  8
Ground topo-Rev01
420
     0
 10
1412714.09000000008381903
 20
4931602.44000000040978193
 30
49.89000000000000057
  0
POINT
  5
1af
100
AcDbEntity
100
AcDbPoint
  8
Ground topo-Rev01
420
     0
 10
1412708.72999999998137355
 20
4931601.91999999992549419
 30
50.35000000000000142
  0
POINT
  5
1b0
100
AcDbEntity
100
AcDbPoint
  8
Ground topo-Rev01
420
     0
 10
1412706.37000000011175871
 20
4931606.21999999973922968
 30
50.54999999999999716
  0
POINT
  5
1b1
100
AcDbEntity
100
AcDbPoint
  8
Ground topo-Rev01
420
     0
 10
1412701.82000000006519258
 20
4931603.91000000014901161
 30
51.35999999999999943
  0
POINT
  5
1b2
100
AcDbEntity
100
AcDbPoint
  8
Ground topo-Rev01
420
     0
 10
1412703.01000000000931323
 20
4931599.66000000014901161
 30
51.32999999999999829
  0
POINT
  5
1b3
100
AcDbEntity
100
AcDbPoint
  8
Ground topo-Rev01
420
     0
 10
1412696.15999999991618097
 20
4931597.12000000011175871
 30
53.49000000000000199
  0
POINT
  5
1b4
100
AcDbEntity
100
AcDbPoint
  8
Ground topo-Rev01
420
     0
 10
1412671.86000000010244548
 20
4931590.11000000033527613
 30
56.64000000000000057
  0
POINT
  5
1b5
100
AcDbEntity
100
AcDbPoint
  8
Ground topo-Rev01
420
     0
 10
1412674.90999999991618097
 20
4931584.67999999970197678
 30
56.67000000000000171
  0
POINT
  5
1b6
100
AcDbEntity
100
AcDbPoint
  8
Ground topo-Rev01
420
     0
 10
1412722.73999999999068677
 20
4931598.16999999992549419
 30
51.10999999999999943
  0
POINT
  5
1b7
100
AcDbEntity
100
AcDbPoint
  8
Ground topo-Rev01
420
     0
 10
1412727.96999999997206032
 20
4931600.95000000018626451
 30
51.18999999999999773
  0
POINT
  5
1b8
100
AcDbEntity
100
AcDbPoint
  8
Ground topo-Rev01
420
     0
 10
1412738.98999999999068677
 20
4931600.45000000018626451
 30
51.63000000000000256
  0
POINT
  5
1b9
100
AcDbEntity
100
AcDbPoint
  8
Ground topo-Rev01
420
     0
 10
1412739.34000000008381903
 20
4931597.41999999992549419
 30
51.81000000000000227
  0
POINT
  5
1ba
100
AcDbEntity
100
AcDbPoint
  8
Ground topo-Rev01
420
     0
 10
1412738.46999999997206032
 20
4931594.57000000029802322
 30
51.92000000000000171
  0
POINT
  5
1bb
100
AcDbEntity
100
AcDbPoint
  8
Ground topo-Rev01
420
     0
 10
1412748.39999999990686774
 20
4931599.83999999985098839
 30
51.92999999999999972
  0
POINT
  5
1bc
100
AcDbEntity
100
AcDbPoint
  8
Ground topo-Rev01
420
     0
 10
1412748.07000000006519258
 20
4931596.4599999999627471
 30
51.84000000000000341
  0
POINT
  5
1bd
100
AcDbEntity
100
AcDbPoint
  8
Ground topo-Rev01
420
     0
 10
1412761.03000000002793968
 20
4931600.09999999962747097
 30
52.61999999999999744
  0
POINT
  5
1be
100
AcDbEntity
100
AcDbPoint
  8
Ground topo-Rev01
420
     0
 10
1412761.80000000004656613
 20
4931594.44000000040978193
 30
52.42999999999999972
  0
POINT
  5
1bf
100
AcDbEntity
100
AcDbPoint
  8
Ground topo-Rev01
420
     0
 10
1412771.44999999995343387
 20
4931601.98000000044703484
 30
53.60999999999999943
  0
POINT
  5
1c0
100
AcDbEntity
100
AcDbPoint
  8
Ground topo-Rev01
420
     0
 10
1412773.47999999998137355
 20
4931596.38999999966472387
 30
53.84000000000000341
  0
POINT
  5
1c1
100
AcDbEntity
100
AcDbPoint
  8
Ground topo-Rev01
420
     0
 10
1412777.75
 20
4931600.37999999988824129
 30
54.21000000000000085
  0
POINT
  5
1c2
100
AcDbEntity
100
AcDbPoint
  8
Ground topo-Rev01
420
     0
 10
1412797.59000000008381903
 20
4931599.46999999973922968
 30
59.65999999999999659
  0
POINT
  5
1c3
100
AcDbEntity
100
AcDbPoint
  8
Ground topo-Rev01
420
     0
 10
1412791.76000000000931323
 20
4931599.20000000018626451
 30
59.92999999999999972
  0
POINT
  5
1c4
100
AcDbEntity
100
AcDbPoint
  8
Ground topo-Rev01
420
     0
 10
1412792.03000000002793968
 20
4931599.62000000011175871
 30
59.25
  0
POINT
  5
1c5
100
AcDbEntity
100
AcDbPoint
  8
Ground topo-Rev01
420
     0
 10
1412787.62000000011175871
 20
4931601.33999999985098839
 30
57.63000000000000256
  0
POINT
  5
1c6
100
AcDbEntity
100
AcDbPoint
  8
Ground topo-Rev01
420
     0
 10
1412776.13999999989755452
 20
4931588.88999999966472387
 30
54.35999999999999943
  0
POINT
  5
1c7
100
AcDbEntity
100
AcDbPoint
  8
Ground topo-Rev01
420
     0
 10
1412764.26000000000931323
 20
4931589.83999999985098839
 30
54.36999999999999744
  0
POINT
  5
1c8
100
AcDbEntity
100
AcDbPoint
  8
Ground topo-Rev01
420
     0
 10
1412764.42999999993480742
 20
4931586.54999999981373549
 30
54.52000000000000313
  0
POINT
  5
1c9
100
AcDbEntity
100
AcDbPoint
  8
Ground topo-Rev01
420
     0
 10
1412758.0
 20
4931587.58000000007450581
 30
54.22999999999999687
  0
POINT
  5
1ca
100
AcDbEntity
100
AcDbPoint
  8
Ground topo-Rev01
420
     0
 10
1412753.36000000010244548
 20
4931592.86000000033527613
 30
54.59000000000000341
  0
POINT
  5
1cb
100
AcDbEntity
100
AcDbPoint
  8
Ground topo-Rev01
420
     0
 10
1412742.33000000007450581
 20
4931592.98000000044703484
 30
52.50999999999999801
  0
POINT
  5
1cc
100
AcDbEntity
100
AcDbPoint
  8
Ground topo-Rev01
420
     0
 10
1412755.0
 20
4931583.79999999981373549
 30
54.89000000000000057
  0
POINT
  5
1cd
100
AcDbEntity
100
AcDbPoint
  8
Ground topo-Rev01
420
     0
 10
1412739.72999999998137355
 20
4931587.9599999999627471
 30
55.89999999999999858
  0
POINT
  5
1ce
100
AcDbEntity
100
AcDbPoint
  8
Ground topo-Rev01
420
     0
 10
1412739.67999999993480742
 20
4931584.9599999999627471
 30
55.85000000000000142
  0
POINT
  5
1cf
100
AcDbEntity
100
AcDbPoint
  8
Ground topo-Rev01
420
     0
 10
1412727.2900000000372529
 20
4931586.70000000018626451
 30
56.31000000000000227
  0
POINT
  5
1d0
100
AcDbEntity
100
AcDbPoint
  8
Ground topo-Rev01
420
     0
 10
1412724.30000000004656613
 20
4931581.21999999973922968
 30
56.57000000000000028
  0
POINT
  5
1d1
100
AcDbEntity
100
AcDbPoint
  8
Ground topo-Rev01
420
     0
 10
1412715.14999999990686774
 20
4931578.71999999973922968
 30
57.21000000000000085
  0
POINT
  5
1d2
100
AcDbEntity
100
AcDbPoint
  8
Ground topo-Rev01
420
     0
 10
1412712.18999999994412065
 20
4931585.08000000007450581
 30
57.46999999999999886
  0
POINT
  5
1d3
100
AcDbEntity
100
AcDbPoint
  8
Ground topo-Rev01
420
     0
 10
1412705.88999999989755452
 20
4931584.5400000000372529
 30
57.79999999999999716
  0
POINT
  5
1d4
100
AcDbEntity
100
AcDbPoint
  8
Ground topo-Rev01
420
     0
 10
1412697.2099999999627471
 20
4931584.40000000037252903
 30
58.13000000000000256
  0
POINT
  5
1d5
100
AcDbEntity
100
AcDbPoint
  8
Ground topo-Rev01
420
     0
 10
1412698.98999999999068677
 20
4931575.88999999966472387
 30
57.93999999999999773
  0
POINT
  5
1d6
100
AcDbEntity
100
AcDbPoint
  8
Ground topo-Rev01
420
     0
 10
1412706.17999999993480742
 20
4931572.45000000018626451
 30
58.95000000000000284
  0
POINT
  5
1d7
100
AcDbEntity
100
AcDbPoint
  8
Ground topo-Rev01
420
     0
 10
1412709.19999999995343387
 20
4931577.92999999970197678
 30
57.96999999999999886
  0
POINT
  5
1d8
100
AcDbEntity
100
AcDbPoint
  8
Ground topo-Rev01
420
     0
 10
1412716.38999999989755452
 20
4931575.4599999999627471
 30
59.40999999999999659
  0
POINT
  5
1d9
100
AcDbEntity
100
AcDbPoint
  8
Ground topo-Rev01
420
     0
 10
1412725.41999999992549419
 20
4931574.28000000026077032
 30
60.02000000000000313
  0
POINT
  5
1da
100
AcDbEntity
100
AcDbPoint
  8
Ground topo-Rev01
420
     0
 10
1412725.55000000004656613
 20
4931569.9599999999627471
 30
59.74000000000000199
  0
POINT
  5
1db
100
AcDbEntity
100
AcDbPoint
  8
Ground topo-Rev01
420
     0
 10
1412728.90999999991618097
 20
4931574.08999999985098839
 30
60.21999999999999886
  0
POINT
  5
1dc
100
AcDbEntity
100
AcDbPoint
  8
Ground topo-Rev01
420
     0
 10
1412720.15999999991618097
 20
4931568.9599999999627471
 30
59.52000000000000313
  0
POINT
  5
1dd
100
AcDbEntity
100
AcDbPoint
  8
Ground topo-Rev01
420
     0
 10
1412708.32000000006519258
 20
4931567.04999999981373549
 30
60.96000000000000085
  0
POINT
  5
1de
100
AcDbEntity
100
AcDbPoint
  8
Ground topo-Rev01
420
     0
 10
1412699.75
 20
4931563.41999999992549419
 30
62.67999999999999972
  0
POINT
  5
1df
100
AcDbEntity
100
AcDbPoint
  8
Ground topo-Rev01
420
     0
 10
1412690.9599999999627471
 20
4931557.2900000000372529
 30
64.09000000000000341
  0
POINT
  5
1e0
100
AcDbEntity
100
AcDbPoint
  8
Ground topo-Rev01
420
     0
 10
1412680.76000000000931323
 20
4931551.75
 30
65.67000000000000171
  0
POINT
  5
1e1
100
AcDbEntity
100
AcDbPoint
  8
Ground topo-Rev01
420
     0
 10
1412671.42999999993480742
 20
4931552.25
 30
66.48999999999999488
  0
POINT
  5
1e2
100
AcDbEntity
100
AcDbPoint
  8
Ground topo-Rev01
420
     0
 10
1412664.40999999991618097
 20
4931553.00999999977648258
 30
66.60999999999999943
  0
POINT
  5
1e3
100
AcDbEntity
100
AcDbPoint
  8
Ground topo-Rev01
420
     0
 10
1412661.2099999999627471
 20
4931552.91000000014901161
 30
66.65999999999999659
  0
POINT
  5
1e4
100
AcDbEntity
100
AcDbPoint
  8
Ground topo-Rev01
420
     0
 10
1412653.58000000007450581
 20
4931556.32000000029802322
 30
68.59999999999999432
  0
POINT
  5
1e5
100
AcDbEntity
100
AcDbPoint
  8
Ground topo-Rev01
420
     0
 10
1412646.4599999999627471
 20
4931561.42999999970197678
 30
69.59000000000000341
  0
POINT
  5
1e6
100
AcDbEntity
100
AcDbPoint
  8
Ground topo-Rev01
420
     0
 10
1412641.30000000004656613
 20
4931568.83000000007450581
 30
69.51999999999999602
  0
POINT
  5
1e7
100
AcDbEntity
100
AcDbPoint
  8
Ground topo-Rev01
420
     0
 10
1412637.58000000007450581
 20
4931576.33999999985098839
 30
69.01999999999999602
  0
POINT
  5
1e8
100
AcDbEntity
100
AcDbPoint
  8
Ground topo-Rev01
420
     0
 10
1412634.80000000004656613
 20
4931580.20000000018626451
 30
68.43000000000000682
  0
POINT
  5
1e9
100
AcDbEntity
100
AcDbPoint
  8
Ground topo-Rev01
420
     0
 10
1412632.63999999989755452
 20
4931582.2099999999627471
 30
68.46999999999999886
  0
POINT
  5
1ea
100
AcDbEntity
100
AcDbPoint
  8
Ground topo-Rev01
420
     0
 10
1412628.75
 20
4931581.79999999981373549
 30
68.29000000000000625
  0
POINT
  5
1eb
100
AcDbEntity
100
AcDbPoint
  8
Ground topo-Rev01
420
     0
 10
1412625.83000000007450581
 20
4931580.37999999988824129
 30
67.98999999999999488
  0
POINT
  5
1ec
100
AcDbEntity
100
AcDbPoint
  8
Ground topo-Rev01
420
     0
 10
1412628.11000000010244548
 20
4931577.5
 30
68.42000000000000171
  0
POINT
  5
1ed
100
AcDbEntity
100
AcDbPoint
  8
Ground topo-Rev01
420
     0
 10
1412633.05000000004656613
 20
4931574.19000000040978193
 30
69.06000000000000227
  0
POINT
  5
1ee
100
AcDbEntity
100
AcDbPoint
  8
Ground topo-Rev01
420
     0
 10
1412634.9599999999627471
 20
4931570.17999999970197678
 30
69.40000000000000568
  0
POINT
  5
1ef
100
AcDbEntity
100
AcDbPoint
  8
Ground topo-Rev01
420
     0
 10
1412641.64999999990686774
 20
4931558.91999999992549419
 30
70.03000000000000114
  0
POINT
  5
1f0
100
AcDbEntity
100
AcDbPoint
  8
Ground topo-Rev01
420
     0
 10
1412643.22999999998137355
 20
4931552.21999999973922968
 30
71.35999999999999943
  0
POINT
  5
1f1
100
AcDbEntity
100
AcDbPoint
  8
Ground topo-Rev01
420
     0
 10
1412645.17999999993480742
 20
4931545.90000000037252903
 30
73.15999999999999659
  0
POINT
  5
1f2
100
AcDbEntity
100
AcDbPoint
  8
Ground topo-Rev01
420
     0
 10
1412648.78000000002793968
 20
4931537.03000000026077032
 30
74.12999999999999545
  0
POINT
  5
1f3
100
AcDbEntity
100
AcDbPoint
  8
Ground topo-Rev01
420
     0
 10
1412651.34000000008381903
 20
4931534.66000000014901161
 30
74.62000000000000455
  0
POINT
  5
1f4
100
AcDbEntity
100
AcDbPoint
  8
Ground topo-Rev01
420
     0
 10
1412654.11000000010244548
 20
4931534.37999999988824129
 30
74.23999999999999488
  0
POINT
  5
1f5
100
AcDbEntity
100
AcDbPoint
  8
Ground topo-Rev01
420
     0
 10
1412658.72999999998137355
 20
4931539.59999999962747097
 30
73.65000000000000568
  0
POINT
  5
1f6
100
AcDbEntity
100
AcDbPoint
  8
Ground topo-Rev01
420
     0
 10
1412655.52000000001862645
 20
4931542.26999999955296516
 30
73.87000000000000455
  0
POINT
  5
1f7
100
AcDbEntity
100
AcDbPoint
  8
Ground topo-Rev01
420
     0
 10
1412650.59000000008381903
 20
4931542.59999999962747097
 30
73.84000000000000341
  0
POINT
  5
1f8
100
AcDbEntity
100
AcDbPoint
  8
Ground topo-Rev01
420
     0
 10
1412650.33000000007450581
 20
4931541.05999999959021807
 30
73.84000000000000341
  0
POINT
  5
1f9
100
AcDbEntity
100
AcDbPoint
  8
Ground topo-Rev01
420
     0
 10
1412651.7099999999627471
 20
4931541.20000000018626451
 30
73.96999999999999886
  0
POINT
  5
1fa
100
AcDbEntity
100
AcDbPoint
  8
Ground topo-Rev01
420
     0
 10
1412651.63999999989755452
 20
4931542.37999999988824129
 30
73.93999999999999773
  0
POINT
  5
1fb
100
AcDbEntity
100
AcDbPoint
  8
Ground topo-Rev01
420
     0
 10
1412646.87000000011175871
 20
4931551.86000000033527613
 30
71.40999999999999659
  0
POINT
  5
1fc
100
AcDbEntity
100
AcDbPoint
  8
Ground topo-Rev01
420
     0
 10
1412647.75
 20
4931555.08000000007450581
 30
69.70000000000000284
  0
POINT
  5
1fd
100
AcDbEntity
100
AcDbPoint
  8
Ground topo-Rev01
420
     0
 10
1412653.64999999990686774
 20
4931552.01999999955296516
 30
68.45999999999999375
  0
POINT
  5
1fe
100
AcDbEntity
100
AcDbPoint
  8
Ground topo-Rev01
420
     0
 10
1412661.77000000001862645
 20
4931549.25999999977648258
 30
66.87000000000000455
  0
POINT
  5
1ff
100
AcDbEntity
100
AcDbPoint
  8
Ground topo-Rev01
420
     0
 10
1412672.34000000008381903
 20
4931547.94000000040978193
 30
66.31000000000000227
  0
POINT
  5
200
100
AcDbEntity
100
AcDbPoint
  8
Ground topo-Rev01
420
     0
 10
1412681.92999999993480742
 20
4931548.04999999981373549
 30
65.54000000000000625
  0
POINT
  5
201
100
AcDbEntity
100
AcDbPoint
  8
Ground topo-Rev01
420
     0
 10
1412691.34000000008381903
 20
4931552.07000000029802322
 30
64.12999999999999545
  0
POINT
  5
202
100
AcDbEntity
100
AcDbPoint
  8
Ground topo-Rev01
420
     0
 10
1412700.57000000006519258
 20
4931556.34999999962747097
 30
62.42000000000000171
  0
POINT
  5
203
100
AcDbEntity
100
AcDbPoint
  8
Ground topo-Rev01
420
     0
 10
1412711.72999999998137355
 20
4931562.82000000029802322
 30
60.67999999999999972
  0
POINT
  5
204
100
AcDbEntity
100
AcDbPoint
  8
Ground topo-Rev01
420
     0
 10
1412709.01000000000931323
 20
4931564.17999999970197678
 30
61.17999999999999972
  0
POINT
  5
205
100
AcDbEntity
100
AcDbPoint
  8
Ground topo-Rev01
420
     0
 10
1412700.83000000007450581
 20
4931560.12999999988824129
 30
62.77000000000000313
  0
POINT
  5
206
100
AcDbEntity
100
AcDbPoint
  8
Ground topo-Rev01
420
     0
 10
1412691.98999999999068677
 20
4931555.20000000018626451
 30
64.06000000000000227
  0
POINT
  5
207
100
AcDbEntity
100
AcDbPoint
  8
Ground topo-Rev01
420
     0
 10
1412683.5400000000372529
 20
4931551.15000000037252903
 30
65.31999999999999318
  0
POINT
  5
208
100
AcDbEntity
100
AcDbPoint
  8
Ground topo-Rev01
420
     0
 10
1412674.09000000008381903
 20
4931550.2099999999627471
 30
66.34999999999999432
  0
POINT
  5
209
100
AcDbEntity
100
AcDbPoint
  8
Ground topo-Rev01
420
     0
 10
1412661.48999999999068677
 20
4931550.96999999973922968
 30
66.85999999999999943
  0
POINT
  5
20a
100
AcDbEntity
100
AcDbPoint
  8
Ground topo-Rev01
420
     0
 10
1412645.09000000008381903
 20
4931558.53000000026077032
 30
69.78000000000000114
  0
POINT
  5
20b
100
AcDbEntity
100
AcDbPoint
  8
Ground topo-Rev01
420
     0
 10
1412640.2099999999627471
 20
4931565.92999999970197678
 30
69.78000000000000114
  0
POINT
  5
20c
100
AcDbEntity
100
AcDbPoint
  8
Ground topo-Rev01
420
     0
 10
1412635.72999999998137355
 20
4931573.33999999985098839
 30
69.12999999999999545
  0
POINT
  5
20d
100
AcDbEntity
100
AcDbPoint
  8
Ground topo-Rev01
420
     0
 10
1412645.08000000007450581
 20
4931557.36000000033527613
 30
69.98000000000000398
  0
POINT
  5
20e
100
AcDbEntity
100
AcDbPoint
  8
Ground topo-Rev01
420
     0
 10
1412645.21999999997206032
 20
4931550.51999999955296516
 30
71.84000000000000341
  0
POINT
  5
20f
100
AcDbEntity
100
AcDbPoint
  8
Ground topo-Rev01
420
     0
 10
1412648.71999999997206032
 20
4931542.75999999977648258
 30
73.79000000000000625
  0
POINT
  5
210
100
AcDbEntity
100
AcDbPoint
  8
Ground topo-Rev01
420
     0
 10
1412653.68999999994412065
 20
4931538.26999999955296516
 30
73.93999999999999773
  0
POINT
  5
211
100
AcDbEntity
100
AcDbPoint
  8
Ground topo-Rev01
420
     0
 10
1412640.32000000006519258
 20
4931545.88999999966472387
 30
76.95000000000000284
  0
POINT
  5
212
100
AcDbEntity
100
AcDbPoint
  8
Ground topo-Rev01
420
     0
 10
1412636.75
 20
4931554.29999999981373549
 30
76.18999999999999773
  0
POINT
  5
213
100
AcDbEntity
100
AcDbPoint
  8
Ground topo-Rev01
420
     0
 10
1412631.07000000006519258
 20
4931562.5400000000372529
 30
75.54000000000000625
  0
POINT
  5
214
100
AcDbEntity
100
AcDbPoint
  8
Ground topo-Rev01
420
     0
 10
1412631.84000000008381903
 20
4931565.90000000037252903
 30
73.73999999999999488
  0
POINT
  5
215
100
AcDbEntity
100
AcDbPoint
  8
Ground topo-Rev01
420
     0
 10
1412635.59000000008381903
 20
4931561.07000000029802322
 30
74.18000000000000682
  0
POINT
  5
216
100
AcDbEntity
100
AcDbPoint
  8
Ground topo-Rev01
420
     0
 10
1412639.90999999991618097
 20
4931554.0
 30
74.70000000000000284
  0
POINT
  5
217
100
AcDbEntity
100
AcDbPoint
  8
Ground topo-Rev01
420
     0
 10
1412642.32000000006519258
 20
4931553.03000000026077032
 30
73.70000000000000284
  0
POINT
  5
218
100
AcDbEntity
100
AcDbPoint
  8
Ground topo-Rev01
420
     0
 10
1412642.87999999988824129
 20
4931549.83999999985098839
 30
74.34000000000000341
  0
POINT
  5
219
100
AcDbEntity
100
AcDbPoint
  8
Ground topo-Rev01
420
     0
 10
1412643.63999999989755452
 20
4931546.41000000014901161
 30
74.59000000000000341
  0
POINT
  5
21a
100
AcDbEntity
100
AcDbPoint
  8
Ground topo-Rev01
420
     0
 10
1412659.18999999994412065
 20
4931556.63999999966472387
 30
65.59999999999999432
  0
POINT
  5
21b
100
AcDbEntity
100
AcDbPoint
  8
Ground topo-Rev01
420
     0
 10
1412658.23999999999068677
 20
4931563.37999999988824129
 30
63.89999999999999858
  0
POINT
  5
21c
100
AcDbEntity
100
AcDbPoint
  8
Ground topo-Rev01
420
     0
 10
1412657.80000000004656613
 20
4931571.65000000037252903
 30
62.06000000000000227
  0
POINT
  5
21d
100
AcDbEntity
100
AcDbPoint
  8
Ground topo-Rev01
420
     0
 10
1412664.78000000002793968
 20
4931559.20000000018626451
 30
65.29999999999999716
  0
POINT
  5
21e
100
AcDbEntity
100
AcDbPoint
  8
Ground topo-Rev01
420
     0
 10
1412662.47999999998137355
 20
4931557.53000000026077032
 30
65.73999999999999488
  0
POINT
  5
21f
100
AcDbEntity
100
AcDbPoint
  8
Ground topo-Rev01
420
     0
 10
1412661.2900000000372529
 20
4931564.05999999959021807
 30
63.93999999999999773
  0
POINT
  5
220
100
AcDbEntity
100
AcDbPoint
  8
Ground topo-Rev01
420
     0
 10
1412660.25
 20
4931570.83000000007450581
 30
62.20000000000000284
  0
POINT
  5
221
100
AcDbEntity
100
AcDbPoint
  8
Ground topo-Rev01
420
     0
 10
1412663.05000000004656613
 20
4931587.73000000044703484
 30
57.61999999999999744
  0
POINT
  5
222
100
AcDbEntity
100
AcDbPoint
  8
Ground topo-Rev01
420
     0
 10
1412664.08000000007450581
 20
4931583.96999999973922968
 30
57.72999999999999687
  0
POINT
  5
223
100
AcDbEntity
100
AcDbPoint
  8
Ground topo-Rev01
420
     0
 10
1412676.16999999992549419
 20
4931579.34999999962747097
 30
57.95000000000000284
  0
POINT
  5
224
100
AcDbEntity
100
AcDbPoint
  8
Ground topo-Rev01
420
     0
 10
1412671.48999999999068677
 20
4931574.46999999973922968
 30
58.63000000000000256
  0
POINT
  5
225
100
AcDbEntity
100
AcDbPoint
  8
Ground topo-Rev01
420
     0
 10
1412680.67999999993480742
 20
4931574.87999999988824129
 30
58.28999999999999915
  0
POINT
  5
226
100
AcDbEntity
100
AcDbPoint
  8
Ground topo-Rev01
420
     0
 10
1412683.76000000000931323
 20
4931568.61000000033527613
 30
59.53999999999999915
  0
POINT
  5
227
100
AcDbEntity
100
AcDbPoint
  8
Ground topo-Rev01
420
     0
 10
1412685.88999999989755452
 20
4931566.16000000014901161
 30
60.38000000000000256
  0
POINT
  5
228
100
AcDbEntity
100
AcDbPoint
  8
Ground topo-Rev01
420
     0
 10
1412691.11000000010244548
 20
4931565.55999999959021807
 30
60.52000000000000313
  0
POINT
  5
229
100
AcDbEntity
100
AcDbPoint
  8
Ground topo-Rev01
420
     0
 10
1412694.32000000006519258
 20
4931566.70000000018626451
 30
60.20000000000000284
  0
POINT
  5
22a
100
AcDbEntity
100
AcDbPoint
  8
Ground topo-Rev01
420
     0
 10
1412699.28000000002793968
 20
4931567.51999999955296516
 30
59.84000000000000341
  0
POINT
  5
22b
100
AcDbEntity
100
AcDbPoint
  8
Ground topo-Rev01
420
     0
 10
1412705.07000000006519258
 20
4931568.53000000026077032
 30
59.28000000000000114
  0
POINT
  5
22c
100
AcDbEntity
100
AcDbPoint
  8
Ground topo-Rev01
420
     0
 10
1412711.03000000002793968
 20
4931570.12000000011175871
 30
58.96999999999999886
  0
POINT
  5
22d
100
AcDbEntity
100
AcDbPoint
  8
Ground topo-Rev01
420
     0
 10
1412706.26000000000931323
 20
4931571.79999999981373549
 30
59.10999999999999943
  0
POINT
  5
22e
100
AcDbEntity
100
AcDbPoint
  8
Ground topo-Rev01
420
     0
 10
1412698.55000000004656613
 20
4931570.78000000026077032
 30
60.04999999999999716
  0
POINT
  5
22f
100
AcDbEntity
100
AcDbPoint
  8
Ground topo-Rev01
420
     0
 10
1412692.31000000005587935
 20
4931569.96999999973922968
 30
60.38000000000000256
  0
POINT
  5
230
100
AcDbEntity
100
AcDbPoint
  8
Ground topo-Rev01
420
     0
 10
1412687.10000000009313226
 20
4931569.23000000044703484
 30
59.88000000000000256
  0
POINT
  5
231
100
AcDbEntity
100
AcDbPoint
  8
Ground topo-Rev01
420
     0
 10
1412685.39999999990686774
 20
4931570.65000000037252903
 30
59.24000000000000199
  0
POINT
  5
232
100
AcDbEntity
100
AcDbPoint
  8
Ground topo-Rev01
420
     0
 10
1412683.94999999995343387
 20
4931572.9599999999627471
 30
58.49000000000000199
  0
POINT
  5
233
100
AcDbEntity
100
AcDbPoint
  8
Ground topo-Rev01
420
     0
 10
1412674.46999999997206032
 20
4931577.55999999959021807
 30
58.00999999999999801
  0
POINT
  5
234
100
AcDbEntity
100
AcDbPoint
  8
Ground topo-Rev01
420
     0
 10
1412672.07000000006519258
 20
4931585.29999999981373549
 30
57.09000000000000341
  0
POINT
  5
235
100
AcDbEntity
100
AcDbPoint
  8
Ground topo-Rev01
420
     0
 10
1412678.21999999997206032
 20
4931589.7900000000372529
 30
55.70000000000000284
  0
POINT
  5
236
100
AcDbEntity
100
AcDbPoint
  8
Ground topo-Rev01
420
     0
 10
1412718.28000000002793968
 20
4931595.40000000037252903
 30
52.25999999999999801
  0
POINT
  5
237
100
AcDbEntity
100
AcDbPoint
  8
Ground topo-Rev01
420
     0
 10
1412713.86000000010244548
 20
4931593.13999999966472387
 30
53.10999999999999943
  0
POINT
  5
238
100
AcDbEntity
100
AcDbPoint
  8
Ground topo-Rev01
420
     0
 10
1412708.23999999999068677
 20
4931591.2900000000372529
 30
54.32999999999999829
  0
POINT
  5
239
100
AcDbEntity
100
AcDbPoint
  8
Ground topo-Rev01
420
     0
 10
1412703.18999999994412065
 20
4931589.44000000040978193
 30
55.71000000000000085
  0
POINT
  5
23a
100
AcDbEntity
100
AcDbPoint
  8
Ground topo-Rev01
420
     0
 10
1412698.88999999989755452
 20
4931586.61000000033527613
 30
57.09000000000000341
  0
POINT
  5
23b
100
AcDbEntity
100
AcDbPoint
  8
Ground topo-Rev01
420
     0
 10
1412698.47999999998137355
 20
4931588.11000000033527613
 30
56.86999999999999744
  0
POINT
  5
23c
100
AcDbEntity
100
AcDbPoint
  8
Ground topo-Rev01
420
     0
 10
1412702.42999999993480742
 20
4931591.08000000007450581
 30
55.67999999999999972
  0
POINT
  5
23d
100
AcDbEntity
100
AcDbPoint
  8
Ground topo-Rev01
420
     0
 10
1412707.87999999988824129
 20
4931593.4599999999627471
 30
54.10999999999999943
  0
POINT
  5
23e
100
AcDbEntity
100
AcDbPoint
  8
Ground topo-Rev01
420
     0
 10
1412713.77000000001862645
 20
4931594.17999999970197678
 30
52.95000000000000284
  0
POINT
  5
23f
100
AcDbEntity
100
AcDbPoint
  8
Ground topo-Rev01
420
     0
 10
1412718.27000000001862645
 20
4931596.86000000033527613
 30
52.04999999999999716
  0
POINT
  5
240
100
AcDbEntity
100
AcDbPoint
  8
Ground topo-Rev01
420
     0
 10
1412706.5400000000372529
 20
4931606.36000000033527613
 30
50.53999999999999915
  0
POINT
  5
241
100
AcDbEntity
100
AcDbPoint
  8
Ground topo-Rev01
420
     0
 10
1412692.63999999989755452
 20
4931598.65000000037252903
 30
53.07000000000000028
  0
POINT
  5
242
100
AcDbEntity
100
AcDbPoint
  8
Ground topo-Rev01
420
     0
 10
1412692.42999999993480742
 20
4931598.54999999981373549
 30
52.97999999999999687
  0
POINT
  5
243
100
AcDbEntity
100
AcDbPoint
  8
Ground topo-Rev01
420
     0
 10
1412622.5400000000372529
 20
4931585.66999999992549419
 30
65.73000000000000398
  0
POINT
  5
244
100
AcDbEntity
100
AcDbPoint
  8
Ground topo-Rev01
420
     0
 10
1412622.32000000006519258
 20
4931586.41999999992549419
 30
65.40000000000000568
  0
POINT
  5
245
100
AcDbEntity
100
AcDbPoint
  8
Ground topo-Rev01
420
     0
 10
1412624.26000000000931323
 20
4931587.2099999999627471
 30
65.12000000000000455
  0
POINT
  5
246
100
AcDbEntity
100
AcDbPoint
  8
Ground topo-Rev01
420
     0
 10
1412700.38999999989755452
 20
4931605.94000000040978193
 30
49.77000000000000313
  0
POINT
  5
247
100
AcDbEntity
100
AcDbPoint
  8
Ground topo-Rev01
420
     0
 10
1412649.57000000006519258
 20
4931530.70000000018626451
 30
78.87000000000000455
  0
POINT
  5
248
100
AcDbEntity
100
AcDbPoint
  8
Ground topo-Rev01
420
     0
 10
1412639.23999999999068677
 20
4931547.7099999999627471
 30
76.62000000000000455
  0
POINT
  5
249
100
AcDbEntity
100
AcDbPoint
  8
Ground topo-Rev01
420
     0
 10
1412643.51000000000931323
 20
4931548.07000000029802322
 30
74.40000000000000568
  0
POINT
  5
24a
100
AcDbEntity
100
AcDbPoint
  8
Ground topo-Rev01
420
     0
 10
1412644.83000000007450581
 20
4931543.71999999973922968
 30
75.26999999999999602
  0
POINT
  5
24b
100
AcDbEntity
100
AcDbPoint
  8
Ground topo-Rev01
420
     0
 10
1412646.03000000002793968
 20
4931539.83000000007450581
 30
76.73999999999999488
  0
POINT
  5
24c
100
AcDbEntity
100
AcDbPoint
  8
Ground topo-Rev01
420
     0
 10
1412646.98999999999068677
 20
4931536.82000000029802322
 30
77.76999999999999602
  0
POINT
  5
24d
100
AcDbEntity
100
AcDbPoint
  8
Ground topo-Rev01
420
     0
 10
1412648.14999999990686774
 20
4931534.19000000040978193
 30
78.31000000000000227
  0
POINT
  5
24e
100
AcDbEntity
100
AcDbPoint
  8
Ground topo-Rev01
420
     0
 10
1412651.5
 20
4931532.78000000026077032
 30
77.48000000000000398
  0
POINT
  5
24f
100
AcDbEntity
100
AcDbPoint
  8
Ground topo-Rev01
420
     0
 10
1412653.73999999999068677
 20
4931532.88999999966472387
 30
76.51000000000000512
  0
POINT
  5
250
100
AcDbEntity
100
AcDbPoint
  8
Ground topo-Rev01
420
     0
 10
1412655.25
 20
4931533.57000000029802322
 30
75.85999999999999943
  0
POINT
  5
251
100
AcDbEntity
100
AcDbPoint
  8
Ground topo-Rev01
420
     0
 10
1412657.05000000004656613
 20
4931534.79999999981373549
 30
74.68000000000000682
  0
POINT
  5
252
100
AcDbEntity
100
AcDbPoint
  8
Ground topo-Rev01
420
     0
 10
1412660.13999999989755452
 20
4931537.25999999977648258
 30
73.57999999999999829
  0
POINT
  5
253
100
AcDbEntity
100
AcDbPoint
  8
Ground topo-Rev01
420
     0
 10
1412661.22999999998137355
 20
4931536.87000000011175871
 30
73.57999999999999829
  0
POINT
  5
254
100
AcDbEntity
100
AcDbPoint
  8
Ground topo-Rev01
420
     0
 10
1412648.69999999995343387
 20
4931533.15000000037252903
 30
78.42000000000000171
  0
POINT
  5
255
100
AcDbEntity
100
AcDbPoint
  8
Ground topo-Rev01
420
     0
 10
1412632.90999999991618097
 20
4931569.41000000014901161
 30
71.21999999999999886
  0
POINT
  5
256
100
AcDbEntity
100
AcDbPoint
  8
Ground topo-Rev01
420
     0
 10
1412629.17999999993480742
 20
4931564.23000000044703484
 30
75.18999999999999773
  0
POINT
  5
257
100
AcDbEntity
100
AcDbPoint
  8
Ground topo-Rev01
420
     0
 10
1412640.84000000008381903
 20
4931556.25999999977648258
 30
73.09999999999999432
  0
POINT
  5
258
100
AcDbEntity
100
AcDbPoint
  8
Ground topo-Rev01
420
     0
 10
1412734.80000000004656613
 20
4931567.48000000044703484
 30
60.07000000000000028
  0
POINT
  5
259
100
AcDbEntity
100
AcDbPoint
  8
Ground topo-Rev01
420
     0
 10
1412731.07000000006519258
 20
4931568.63999999966472387
 30
60.10000000000000142
  0
POINT
  5
25a
100
AcDbEntity
100
AcDbPoint
  8
Ground topo-Rev01
420
     0
 10
1412724.52000000001862645
 20
4931569.83000000007450581
 30
59.99000000000000199
  0
POINT
  5
25b
100
AcDbEntity
100
AcDbPoint
  8
Ground topo-Rev01
420
     0
 10
1412724.62999999988824129
 20
4931568.71999999973922968
 30
61.17000000000000171
  0
POINT
  5
25c
100
AcDbEntity
100
AcDbPoint
  8
Ground topo-Rev01
420
     0
 10
1412731.10000000009313226
 20
4931567.53000000026077032
 30
62.25999999999999801
  0
POINT
  5
25d
100
AcDbEntity
100
AcDbPoint
  8
Ground topo-Rev01
420
     0
 10
1412734.2900000000372529
 20
4931566.2099999999627471
 30
62.81000000000000227
  0
POINT
  5
25e
100
AcDbEntity
100
AcDbPoint
  8
Ground topo-Rev01
420
     0
 10
1412738.31000000005587935
 20
4931566.04999999981373549
 30
62.89000000000000057
  0
POINT
  5
25f
100
AcDbEntity
100
AcDbPoint
  8
Ground topo-Rev01
420
     0
 10
1412731.87999999988824129
 20
4931569.57000000029802322
 30
60.04999999999999716
  0
POINT
  5
260
100
AcDbEntity
100
AcDbPoint
  8
Ground topo-Rev01
420
     0
 10
1412735.42999999993480742
 20
4931573.78000000026077032
 30
60.34000000000000341
  0
POINT
  5
261
100
AcDbEntity
100
AcDbPoint
  8
Ground topo-Rev01
420
     0
 10
1412739.30000000004656613
 20
4931568.54999999981373549
 30
59.92000000000000171
  0
POINT
  5
262
100
AcDbEntity
100
AcDbPoint
  8
Ground topo-Rev01
420
     0
 10
1412745.5400000000372529
 20
4931568.45000000018626451
 30
60.99000000000000199
  0
POINT
  5
263
100
AcDbEntity
100
AcDbPoint
  8
Ground topo-Rev01
420
     0
 10
1412747.26000000000931323
 20
4931568.96999999973922968
 30
60.47999999999999687
  0
POINT
  5
264
100
AcDbEntity
100
AcDbPoint
  8
Ground topo-Rev01
420
     0
 10
1412747.12000000011175871
 20
4931569.40000000037252903
 30
59.25
  0
POINT
  5
265
100
AcDbEntity
100
AcDbPoint
  8
Ground topo-Rev01
420
     0
 10
1412741.83000000007450581
 20
4931560.98000000044703484
 30
65.79999999999999716
  0
POINT
  5
266
100
AcDbEntity
100
AcDbPoint
  8
Ground topo-Rev01
420
     0
 10
1412739.10000000009313226
 20
4931564.94000000040978193
 30
63.74000000000000199
  0
POINT
  5
267
100
AcDbEntity
100
AcDbPoint
  8
Ground topo-Rev01
420
     0
 10
1412689.2900000000372529
 20
4931600.9599999999627471
 30
51.85999999999999943
  0
POINT
  5
268
100
AcDbEntity
100
AcDbPoint
  8
Ground topo-Rev01
420
     0
 10
1412687.03000000002793968
 20
4931602.28000000026077032
 30
51.25
  0
POINT
  5
269
100
AcDbEntity
100
AcDbPoint
  8
Ground topo-Rev01
420
     0
 10
1412701.34000000008381903
 20
4931606.34999999962747097
 30
49.84000000000000341
  0
POINT
  5
26a
100
AcDbEntity
100
AcDbPoint
  8
Ground topo-Rev01
420
     0
 10
1412703.01000000000931323
 20
4931604.80999999959021807
 30
51.03999999999999915
  0
POINT
  5
26b
100
AcDbEntity
100
AcDbPoint
  8
Ground topo-Rev01
420
     0
 10
1412736.2099999999627471
 20
4931615.38999999966472387
 30
47.82000000000000028
  0
POINT
  5
26c
100
AcDbEntity
100
AcDbPoint
  8
Ground topo-Rev01
420
     0
 10
1412736.2099999999627471
 20
4931615.38999999966472387
 30
47.82000000000000028
  0
POINT
  5
26d
100
AcDbEntity
100
AcDbPoint
  8
Ground topo-Rev01
420
     0
 10
1412712.65999999991618097
 20
4931602.48000000044703484
 30
49.75
  0
POINT
  5
26e
100
AcDbEntity
100
AcDbPoint
  8
Ground topo-Rev01
420
     0
 10
1412704.30000000004656613
 20
4931599.91000000014901161
 30
51.20000000000000284
  0
POINT
  5
26f
100
AcDbEntity
100
AcDbPoint
  8
Ground topo-Rev01
420
     0
 10
1412701.16999999992549419
 20
4931603.82000000029802322
 30
51.35999999999999943
  0
POINT
  5
270
100
AcDbEntity
100
AcDbPoint
  8
Ground topo-Rev01
420
     0
 10
1412671.98999999999068677
 20
4931590.30999999959021807
 30
56.57000000000000028
  0
POINT
  5
271
100
AcDbEntity
100
AcDbPoint
  8
Ground topo-Rev01
420
     0
 10
1412661.43999999994412065
 20
4931585.23000000044703484
 30
58.17999999999999972
  0
POINT
  5
272
100
AcDbEntity
100
AcDbPoint
  8
Ground topo-Rev01
420
     0
 10
1412660.71999999997206032
 20
4931571.61000000033527613
 30
61.92000000000000171
  0
POINT
  5
273
100
AcDbEntity
100
AcDbPoint
  8
Ground topo-Rev01
420
     0
 10
1412661.0
 20
4931565.0400000000372529
 30
63.63000000000000256
  0
POINT
  5
274
100
AcDbEntity
100
AcDbPoint
  8
Ground topo-Rev01
420
     0
 10
1412658.21999999997206032
 20
4931563.75999999977648258
 30
63.89999999999999858
  0
POINT
  5
275
100
AcDbEntity
100
AcDbPoint
  8
Ground topo-Rev01
420
     0
 10
1412657.64999999990686774
 20
4931562.83000000007450581
 30
64.93999999999999773
  0
POINT
  5
276
100
AcDbEntity
100
AcDbPoint
  8
Ground topo-Rev01
420
     0
 10
1412645.58000000007450581
 20
4931567.63999999966472387
 30
67.34999999999999432
  0
POINT
  5
277
100
AcDbEntity
100
AcDbPoint
  8
Ground topo-Rev01
420
     0
 10
1412646.51000000000931323
 20
4931569.94000000040978193
 30
66.18000000000000682
  0
POINT
  5
278
100
AcDbEntity
100
AcDbPoint
  8
Ground topo-Rev01
420
     0
 10
1412642.92999999993480742
 20
4931572.24000000022351742
 30
67.45999999999999375
  0
POINT
  5
279
100
AcDbEntity
100
AcDbPoint
  8
Ground topo-Rev01
420
     0
 10
1412642.83000000007450581
 20
4931572.12000000011175871
 30
67.45999999999999375
  0
POINT
  5
27a
100
AcDbEntity
100
AcDbPoint
  8
Ground topo-Rev01
420
     0
 10
1412645.13999999989755452
 20
4931573.48000000044703484
 30
65.73999999999999488
  0
POINT
  5
27b
100
AcDbEntity
100
AcDbPoint
  8
Ground topo-Rev01
420
     0
 10
1412635.94999999995343387
 20
4931582.54999999981373549
 30
66.73999999999999488
  0
POINT
  5
27c
100
AcDbEntity
100
AcDbPoint
  8
Ground topo-Rev01
420
     0
 10
1412637.83000000007450581
 20
4931584.29999999981373549
 30
64.96999999999999886
  0
POINT
  5
27d
100
AcDbEntity
100
AcDbPoint
  8
Ground topo-Rev01
420
     0
 10
1412637.91999999992549419
 20
4931585.40000000037252903
 30
64.18000000000000682
  0
POINT
  5
27e
100
AcDbEntity
100
AcDbPoint
  8
Ground topo-Rev01
420
     0
 10
1412628.72999999998137355
 20
4931586.4599999999627471
 30
65.28000000000000114
  0
POINT
  5
27f
100
AcDbEntity
100
AcDbPoint
  8
Ground topo-Rev01
420
     0
 10
1412625.63999999989755452
 20
4931584.29999999981373549
 30
66.04999999999999716
  0
POINT
  5
280
100
AcDbEntity
100
AcDbPoint
  8
Ground topo-Rev01
420
     0
 10
1412624.31000000005587935
 20
4931582.42999999970197678
 30
66.87000000000000455
  0
POINT
  5
281
100
AcDbEntity
100
AcDbPoint
  8
Ground topo-Rev01
420
     0
 10
1412633.19999999995343387
 20
4931587.58999999985098839
 30
64.65000000000000568
  0
POINT
  5
282
100
AcDbEntity
100
AcDbPoint
  8
Ground topo-Rev01
420
     0
 10
1412630.40999999991618097
 20
4931588.40000000037252903
 30
64.57999999999999829
  0
POINT
  5
283
100
AcDbEntity
100
AcDbPoint
  8
Ground topo-Rev01
420
     0
 10
1412658.42999999993480742
 20
4931540.36000000033527613
 30
73.54999999999999716
  0
POINT
  5
284
100
AcDbEntity
100
AcDbPoint
  8
Ground topo-Rev01
420
     0
 10
1412658.55000000004656613
 20
4931545.58000000007450581
 30
70.43000000000000682
  0
POINT
  5
285
100
AcDbEntity
100
AcDbPoint
  8
Ground topo-Rev01
420
     0
 10
1412662.28000000002793968
 20
4931539.83000000007450581
 30
71.40000000000000568
  0
POINT
  5
286
100
AcDbEntity
100
AcDbPoint
  8
Ground topo-Rev01
420
     0
 10
1412664.06000000005587935
 20
4931547.29999999981373549
 30
67.93999999999999773
  0
POINT
  5
287
100
AcDbEntity
100
AcDbPoint
  8
Ground topo-Rev01
420
     0
 10
1412680.46999999997206032
 20
4931547.30999999959021807
 30
67.17000000000000171
  0
POINT
  5
288
100
AcDbEntity
100
AcDbPoint
  8
Ground topo-Rev01
420
     0
 10
1412698.57000000006519258
 20
4931552.58999999985098839
 30
66.87999999999999545
  0
POINT
  5
289
100
AcDbEntity
100
AcDbPoint
  8
Ground topo-Rev01
420
     0
 10
1412741.53000000002793968
 20
4931576.0
 30
60.09000000000000341
  0
POINT
  5
28a
100
AcDbEntity
100
AcDbPoint
  8
Ground topo-Rev01
420
     0
 10
1412745.43999999994412065
 20
4931576.21999999973922968
 30
59.79999999999999716
  0
POINT
  5
28b
100
AcDbEntity
100
AcDbPoint
  8
Ground topo-Rev01
420
     0
 10
1412748.9599999999627471
 20
4931575.98000000044703484
 30
59.70000000000000284
  0
POINT
  5
28c
100
AcDbEntity
100
AcDbPoint
  8
Ground topo-Rev01
420
     0
 10
1412753.83000000007450581
 20
4931574.84999999962747097
 30
59.64000000000000057
  0
POINT
  5
28d
100
AcDbEntity
100
AcDbPoint
  8
Ground topo-Rev01
420
     0
 10
1412748.71999999997206032
 20
4931569.83000000007450581
 30
60.09000000000000341
  0
POINT
  5
28e
100
AcDbEntity
100
AcDbPoint
  8
Ground topo-Rev01
420
     0
 10
1412748.4599999999627471
 20
4931569.41000000014901161
 30
61.63000000000000256
  0
POINT
  5
28f
100
AcDbEntity
100
AcDbPoint
  8
Ground topo-Rev01
420
     0
 10
1412721.2099999999627471
 20
4931578.36000000033527613
 30
57.71999999999999886
  0
POINT
  5
290
100
AcDbEntity
100
AcDbPoint
  8
Ground topo-Rev01
420
     0
 10
1412721.2099999999627471
 20
4931578.37000000011175871
 30
57.71000000000000085
  0
POINT
  5
291
100
AcDbEntity
100
AcDbPoint
  8
Ground topo-Rev01
420
     0
 10
1412720.26000000000931323
 20
4931580.03000000026077032
 30
56.82999999999999829
  0
POINT
  5
292
100
AcDbEntity
100
AcDbPoint
  8
Ground topo-Rev01
420
     0
 10
1412722.44999999995343387
 20
4931593.07000000029802322
 30
53.97999999999999687
  0
POINT
  5
293
100
AcDbEntity
100
AcDbPoint
  8
Ground topo-Rev01
420
     0
 10
1412723.2900000000372529
 20
4931595.09999999962747097
 30
53.42000000000000171
  0
POINT
  5
294
100
AcDbEntity
100
AcDbPoint
  8
Ground topo-Rev01
420
     0
 10
1412716.94999999995343387
 20
4931590.98000000044703484
 30
56.0
  0
POINT
  5
295
100
AcDbEntity
100
AcDbPoint
  8
Ground topo-Rev01
420
     0
 10
1412692.88999999989755452
 20
4931584.75
 30
58.06000000000000227
  0
POINT
  5
296
100
AcDbEntity
100
AcDbPoint
  8
Ground topo-Rev01
420
     0
 10
1412682.42999999993480742
 20
4931580.34999999962747097
 30
57.68999999999999773
  0
POINT
  5
297
100
AcDbEntity
100
AcDbPoint
  8
Ground topo-Rev01
420
     0
 10
1412680.44999999995343387
 20
4931588.33000000007450581
 30
55.47999999999999687
  0
POINT
  5
298
100
AcDbEntity
100
AcDbPoint
  8
Ground topo-Rev01
420
     0
 10
1412705.81000000005587935
 20
4931584.84999999962747097
 30
57.75999999999999801
  0
POINT
  5
299
100
AcDbEntity
100
AcDbPoint
  8
Ground topo-Rev01
420
     0
 10
1412681.69999999995343387
 20
4931593.63999999966472387
 30
54.28000000000000114
  0
POINT
  5
29a
100
AcDbEntity
100
AcDbPoint
  8
Ground topo-Rev01
420
     0
 10
1412679.73999999999068677
 20
4931597.57000000029802322
 30
50.92000000000000171
  0
POINT
  5
29b
100
AcDbEntity
100
AcDbPoint
  8
Ground topo-Rev01
420
     0
 10
1412682.75
 20
4931600.9599999999627471
 30
49.86999999999999744
  0
POINT
  5
29c
100
AcDbEntity
100
AcDbPoint
  8
Ground topo-Rev01
420
     0
 10
1412664.63999999989755452
 20
4931588.29999999981373549
 30
56.96999999999999886
  0
POINT
  5
29d
100
AcDbEntity
100
AcDbPoint
  8
Ground topo-Rev01
420
     0
 10
1412665.27000000001862645
 20
4931591.42999999970197678
 30
54.90999999999999659
  0
POINT
  5
29e
100
AcDbEntity
100
AcDbPoint
  8
Ground topo-Rev01
420
     0
 10
1412663.63999999989755452
 20
4931596.33999999985098839
 30
53.90999999999999659
  0
POINT
  5
29f
100
AcDbEntity
100
AcDbPoint
  8
Ground topo-Rev01
420
     0
 10
1412667.80000000004656613
 20
4931585.13999999966472387
 30
56.85999999999999943
  0
POINT
  5
2a0
100
AcDbEntity
100
AcDbPoint
  8
Ground topo-Rev01
420
     0
 10
1412646.86000000010244548
 20
4931591.75
 30
58.46000000000000085
  0
POINT
  5
2a1
100
AcDbEntity
100
AcDbPoint
  8
Ground topo-Rev01
420
     0
 10
1412658.31000000005587935
 20
4931575.96999999973922968
 30
60.22999999999999687
  0
POINT
  5
2a2
100
AcDbEntity
100
AcDbPoint
  8
Ground topo-Rev01
420
     0
 10
1412661.02000000001862645
 20
4931574.63999999966472387
 30
60.57000000000000028
  0
POLYLINE
  5
2a3
330
6d
100
AcDbEntity
  8
Overlooming cross-section 2 Overlooming cross-section 2.kmz
  6
CONTINUOUS
420
     0
100
AcDb3dPolyline
 10
0.0
 20
0.0
 30
0.0
 70
     8
  0
VERTEX
  5
2a4
330
   675
100
AcDbEntity
  8
Overlooming cross-section 2 Overlooming cross-section 2.kmz
420
     0
100
AcDbVertex
100
AcDb3dPolylineVertex
 10
82.92624988368812922
 20
-75.81510946615621549
 30
0.0
 70
    32
  0
SEQEND
  5
2a5
330
   675
100
AcDbEntity
  8
Overlooming cross-section 2 Overlooming cross-section 2.kmz
420
     0
  0
POLYLINE
  5
2a6
330
6d
100
AcDbEntity
  8
top platform lines top_platform_lines
  6
CONTINUOUS
420
     0
100
AcDb3dPolyline
 10
0.0
 20
0.0
 30
0.0
 70
     8
  0
VERTEX
  5
2a7
330
   678
100
AcDbEntity
  8
top platform lines top_platform_lines
420
     0
100
AcDbVertex
100
AcDb3dPolylineVertex
 10
82.92624988822680621
 20
-75.81510946561971309
 30
68.42000000000000171
 70
    32
  0
VERTEX
  5
2a8
330
   678
100
AcDbEntity
  8
top platform lines top_platform_lines
420
     0
100
AcDbVertex
100
AcDb3dPolylineVertex
 10
82.92624988712140066
 20
-75.81510946615952662
 30
69.06000000000000227
 70
    32
  0
VERTEX
  5
2a9
330
   678
100
AcDbEntity
  8
top platform lines top_platform_lines
420
     0
100
AcDbVertex
100
AcDb3dPolylineVertex
 10
82.92624988582385015
 20
-75.8151094663587628
 30
69.40000000000000568
 70
    32
  0
VERTEX
  5
2aa
330
   678
100
AcDbEntity
  8
top platform lines top_platform_lines
420
     0
100
AcDbVertex
100
AcDb3dPolylineVertex
 10
82.92624988216684301
 20
-75.81510946706633547
 30
70.03000000000000114
 70
    32
  0
VERTEX
  5
2ab
330
   678
100
AcDbEntity
  8
top platform lines top_platform_lines
420
     0
100
AcDbVertex
100
AcDb3dPolylineVertex
 10
82.92624988001534803
 20
-75.81510946721944322
 30
71.35999999999999943
 70
    32
  0
VERTEX
  5
2ac
330
   678
100
AcDbEntity
  8
top platform lines top_platform_lines
420
     0
100
AcDbVertex
100
AcDb3dPolylineVertex
 10
82.92624987798114944
 20
-75.8151094674151409
 30
73.15999999999999659
 70
    32
  0
VERTEX
  5
2ad
330
   678
100
AcDbEntity
  8
top platform lines top_platform_lines
420
     0
100
AcDbVertex
100
AcDb3dPolylineVertex
 10
82.92624987511742063
 20
-75.81510946778615789
 30
74.12999999999999545
 70
    32
  0
VERTEX
  5
2ae
330
   678
100
AcDbEntity
  8
top platform lines top_platform_lines
420
     0
100
AcDbVertex
100
AcDb3dPolylineVertex
 10
82.92624987433596573
 20
-75.81510946806363904
 30
74.62000000000000455
 70
    32
  0
VERTEX
  5
2af
330
   678
100
AcDbEntity
  8
top platform lines top_platform_lines
420
     0
100
AcDbVertex
100
AcDb3dPolylineVertex
 10
82.92624987421839933
 20
-75.81510946837178722
 30
74.23999999999999488
 70
    32
  0
VERTEX
  5
2b0
330
   678
100
AcDbEntity
  8
top platform lines top_platform_lines
420
     0
100
AcDbVertex
100
AcDb3dPolylineVertex
 10
82.92624987587205965
 20
-75.81510946930242767
 30
71.40000000000000568
 70
    32
  0
SEQEND
  5
2b1
330
   678
100
AcDbEntity
  8
top platform lines top_platform_lines
420
     0
  0
POLYLINE
  5
2b2
330
6d
100
AcDbEntity
  8
top platform lines top_platform_lines
  6
CONTINUOUS
420
     0
100
AcDb3dPolyline
 10
0.0
 20
0.0
 30
0.0
 70
     8
  0
VERTEX
  5
2b3
330
   690
100
AcDbEntity
  8
top platform lines top_platform_lines
420
     0
100
AcDbVertex
100
AcDb3dPolylineVertex
 10
82.92624988916793427
 20
-75.81510946537524376
 30
67.98999999999999488
 70
    32
  0
VERTEX
  5
2b4
330
   690
100
AcDbEntity
  8
top platform lines top_platform_lines
420
     0
100
AcDbVertex
100
AcDb3dPolylineVertex
 10
82.92624988959066457
 20
-75.81510946570604403
 30
68.29000000000000625
 70
    32
  0
VERTEX
  5
2b5
330
   690
100
AcDbEntity
  8
top platform lines top_platform_lines
420
     0
100
AcDbVertex
100
AcDb3dPolylineVertex
 10
82.9262498896816993
 20
-75.8151094661415641
 30
68.46999999999999886
 70
    32
  0
VERTEX
  5
2b6
330
   690
100
AcDbEntity
  8
top platform lines top_platform_lines
420
     0
100
AcDbVertex
100
AcDb3dPolylineVertex
 10
82.92624988901901872
 20
-75.8151094663756453
 30
68.43000000000000682
 70
    32
  0
VERTEX
  5
2b7
330
   690
100
AcDbEntity
  8
top platform lines top_platform_lines
420
     0
100
AcDbVertex
100
AcDb3dPolylineVertex
 10
82.92624988776039174
 20
-75.81510946667251005
 30
69.01999999999999602
 70
    32
  0
VERTEX
  5
2b8
330
   690
100
AcDbEntity
  8
top platform lines top_platform_lines
420
     0
100
AcDbVertex
100
AcDb3dPolylineVertex
 10
82.92624988532882924
 20
-75.81510946706161747
 30
69.51999999999999602
 70
    32
  0
VERTEX
  5
2b9
330
   690
100
AcDbEntity
  8
top platform lines top_platform_lines
420
     0
100
AcDbVertex
100
AcDb3dPolylineVertex
 10
82.92624988291774457
 20
-75.81510946761181913
 30
69.59000000000000341
 70
    32
  0
VERTEX
  5
2ba
330
   690
100
AcDbEntity
  8
top platform lines top_platform_lines
420
     0
100
AcDbVertex
100
AcDb3dPolylineVertex
 10
82.92624988121643526
 20
-75.81510946838866971
 30
68.59999999999999432
 70
    32
  0
VERTEX
  5
2bb
330
   690
100
AcDbEntity
  8
top platform lines top_platform_lines
420
     0
100
AcDbVertex
100
AcDb3dPolylineVertex
 10
82.92624988005175624
 20
-75.81510946922834648
 30
66.65999999999999659
 70
    32
  0
VERTEX
  5
2bc
330
   690
100
AcDbEntity
  8
top platform lines top_platform_lines
420
     0
100
AcDbVertex
100
AcDb3dPolylineVertex
 10
82.9262498800509178
 20
-75.81510946958579211
 30
66.60999999999999943
 70
    32
  0
VERTEX
  5
2bd
330
   690
100
AcDbEntity
  8
top platform lines top_platform_lines
420
     0
100
AcDbVertex
100
AcDb3dPolylineVertex
 10
82.92624987973705686
 20
-75.8151094703665791
 30
66.48999999999999488
 70
    32
  0
VERTEX
  5
2be
330
   690
100
AcDbEntity
  8
top platform lines top_platform_lines
420
     0
100
AcDbVertex
100
AcDb3dPolylineVertex
 10
82.92624987948248361
 20
-75.81510947140604628
 30
65.67000000000000171
 70
    32
  0
VERTEX
  5
2bf
330
   690
100
AcDbEntity
  8
top platform lines top_platform_lines
420
     0
100
AcDbVertex
100
AcDb3dPolylineVertex
 10
82.92624988114411622
 20
-75.81510947256354882
 30
64.09000000000000341
 70
    32
  0
VERTEX
  5
2c0
330
   690
100
AcDbEntity
  8
top platform lines top_platform_lines
420
     0
100
AcDbVertex
100
AcDb3dPolylineVertex
 10
82.92624988300808297
 20
-75.81510947356572672
 30
62.67999999999999972
 70
    32
  0
VERTEX
  5
2c1
330
   690
100
AcDbEntity
  8
top platform lines top_platform_lines
420
     0
100
AcDbVertex
100
AcDb3dPolylineVertex
 10
82.92624988407760611
 20
-75.81510947453469385
 30
60.96000000000000085
 70
    32
  0
SEQEND
  5
2c2
330
   690
100
AcDbEntity
  8
top platform lines top_platform_lines
420
     0
  0
POLYLINE
  5
2c3
330
6d
100
AcDbEntity
  8
top platform lines top_platform_lines
  6
CONTINUOUS
420
     0
100
AcDb3dPolyline
 10
0.0
 20
0.0
 30
0.0
 70
     8
  0
VERTEX
  5
2c4
330
   707
100
AcDbEntity
  8
top platform lines top_platform_lines
420
     0
100
AcDbVertex
100
AcDb3dPolylineVertex
 10
82.92624988682311482
 20
-75.81510946645566662
 30
69.12999999999999545
 70
    32
  0
VERTEX
  5
2c5
330
   707
100
AcDbEntity
  8
top platform lines top_platform_lines
420
     0
100
AcDbVertex
100
AcDb3dPolylineVertex
 10
82.92624988441569656
 20
-75.81510946692992547
 30
69.78000000000000114
 70
    32
  0
VERTEX
  5
2c6
330
   707
100
AcDbEntity
  8
top platform lines top_platform_lines
420
     0
100
AcDbVertex
100
AcDb3dPolylineVertex
 10
82.92624988163463229
 20
-75.81510946744369051
 30
69.98000000000000398
 70
    32
  0
VERTEX
  5
2c7
330
   707
100
AcDbEntity
  8
top platform lines top_platform_lines
420
     0
100
AcDbVertex
100
AcDb3dPolylineVertex
 10
82.92624987945325188
 20
-75.81510946743563295
 30
71.84000000000000341
 70
    32
  0
VERTEX
  5
2c8
330
   707
100
AcDbEntity
  8
top platform lines top_platform_lines
420
     0
100
AcDbVertex
100
AcDb3dPolylineVertex
 10
82.92624987694428285
 20
-75.81510946779931714
 30
73.79000000000000625
 70
    32
  0
VERTEX
  5
2c9
330
   707
100
AcDbEntity
  8
top platform lines top_platform_lines
420
     0
100
AcDbVertex
100
AcDb3dPolylineVertex
 10
82.92624987546250281
 20
-75.81510946833839171
 30
73.93999999999999773
 70
    32
  0
SEQEND
  5
2ca
330
   707
100
AcDbEntity
  8
top platform lines top_platform_lines
420
     0
  0
POLYLINE
  5
2cb
330
6d
100
AcDbEntity
  8
top platform lines top_platform_lines
  6
CONTINUOUS
420
     0
100
AcDb3dPolyline
 10
0.0
 20
0.0
 30
0.0
 70
     8
  0
VERTEX
  5
2cc
330
   715
100
AcDbEntity
  8
top platform lines top_platform_lines
420
     0
100
AcDbVertex
100
AcDb3dPolylineVertex
 10
82.92624988983682499
 20
-75.81510946521272842
 30
66.87000000000000455
 70
    32
  0
VERTEX
  5
2cd
330
   715
100
AcDbEntity
  8
top platform lines top_platform_lines
420
     0
100
AcDbVertex
100
AcDb3dPolylineVertex
 10
82.92624989041914318
 20
-75.81510946536762674
 30
66.04999999999999716
 70
    32
  0
VERTEX
  5
2ce
330
   715
100
AcDbEntity
  8
top platform lines top_platform_lines
420
     0
100
AcDbVertex
100
AcDb3dPolylineVertex
 10
82.926249891076111
 20
-75.81510946571994225
 30
65.28000000000000114
 70
    32
  0
VERTEX
  5
2cf
330
   715
100
AcDbEntity
  8
top platform lines top_platform_lines
420
     0
100
AcDbVertex
100
AcDb3dPolylineVertex
 10
82.92624989139065406
 20
-75.81510946622270808
 30
64.65000000000000568
 70
    32
  0
VERTEX
  5
2d0
330
   715
100
AcDbEntity
  8
top platform lines top_platform_lines
420
     0
100
AcDbVertex
100
AcDb3dPolylineVertex
 10
82.92624989064444208
 20
-75.81510946674185902
 30
64.18000000000000682
 70
    32
  0
VERTEX
  5
2d1
330
   715
100
AcDbEntity
  8
top platform lines top_platform_lines
420
     0
100
AcDbVertex
100
AcDb3dPolylineVertex
 10
82.926249890294784
 20
-75.81510946672798923
 30
64.96999999999999886
 70
    32
  0
VERTEX
  5
2d2
330
   715
100
AcDbEntity
  8
top platform lines top_platform_lines
420
     0
100
AcDbVertex
100
AcDb3dPolylineVertex
 10
82.92624988677168574
 20
-75.8151094675062609
 30
65.73999999999999488
 70
    32
  0
VERTEX
  5
2d3
330
   715
100
AcDbEntity
  8
top platform lines top_platform_lines
420
     0
100
AcDbVertex
100
AcDb3dPolylineVertex
 10
82.92624988562948829
 20
-75.81510946764689152
 30
66.18000000000000682
 70
    32
  0
VERTEX
  5
2d4
330
   715
100
AcDbEntity
  8
top platform lines top_platform_lines
420
     0
100
AcDbVertex
100
AcDb3dPolylineVertex
 10
82.92624988490594262
 20
-75.81510946753512314
 30
67.34999999999999432
 70
    32
  0
SEQEND
  5
2d5
330
   715
100
AcDbEntity
  8
top platform lines top_platform_lines
420
     0
  0
POLYLINE
  5
2d6
330
6d
100
AcDbEntity
  8
top platform lines top_platform_lines
  6
CONTINUOUS
420
     0
100
AcDb3dPolyline
 10
0.0
 20
0.0
 30
0.0
 70
     8
  0
VERTEX
  5
2d7
330
   726
100
AcDbEntity
  8
top platform lines top_platform_lines
420
     0
100
AcDbVertex
100
AcDb3dPolylineVertex
 10
82.92624988200742564
 20
-75.81510946744887747
 30
69.78000000000000114
 70
    32
  0
VERTEX
  5
2d8
330
   726
100
AcDbEntity
  8
top platform lines top_platform_lines
420
     0
100
AcDbVertex
100
AcDb3dPolylineVertex
 10
82.92624987943057135
 20
-75.81510946925287442
 30
66.85999999999999943
 70
    32
  0
VERTEX
  5
2d9
330
   726
100
AcDbEntity
  8
top platform lines top_platform_lines
420
     0
100
AcDbVertex
100
AcDb3dPolylineVertex
 10
82.92624987905978173
 20
-75.81510947065635264
 30
66.34999999999999432
 70
    32
  0
VERTEX
  5
2da
330
   726
100
AcDbEntity
  8
top platform lines top_platform_lines
420
     0
100
AcDbVertex
100
AcDb3dPolylineVertex
 10
82.92624987926294011
 20
-75.81510947171420867
 30
65.31999999999999318
 70
    32
  0
VERTEX
  5
2db
330
   726
100
AcDbEntity
  8
top platform lines top_platform_lines
420
     0
100
AcDbVertex
100
AcDb3dPolylineVertex
 10
82.92624988046748058
 20
-75.81510947267125289
 30
64.06000000000000227
 70
    32
  0
VERTEX
  5
2dc
330
   726
100
AcDbEntity
  8
top platform lines top_platform_lines
420
     0
100
AcDbVertex
100
AcDb3dPolylineVertex
 10
82.92624988194845059
 20
-75.81510947367485187
 30
62.77000000000000313
 70
    32
  0
VERTEX
  5
2dd
330
   726
100
AcDbEntity
  8
top platform lines top_platform_lines
420
     0
100
AcDbVertex
100
AcDb3dPolylineVertex
 10
82.92624988315584744
 20
-75.81510947460175487
 30
61.17999999999999972
 70
    32
  0
SEQEND
  5
2de
330
   726
100
AcDbEntity
  8
top platform lines top_platform_lines
420
     0
  0
POLYLINE
  5
2df
330
6d
100
AcDbEntity
  8
top platform lines top_platform_lines
  6
CONTINUOUS
420
     0
100
AcDb3dPolyline
 10
0.0
 20
0.0
 30
0.0
 70
     8
  0
VERTEX
  5
2e0
330
   735
100
AcDbEntity
  8
top platform lines top_platform_lines
420
     0
100
AcDbVertex
100
AcDb3dPolylineVertex
 10
82.92624987986340557
 20
-75.81510946762439573
 30
71.40999999999999659
 70
    32
  0
VERTEX
  5
2e1
330
   735
100
AcDbEntity
  8
top platform lines top_platform_lines
420
     0
100
AcDbVertex
100
AcDb3dPolylineVertex
 10
82.92624987823469951
 20
-75.81510946952695917
 30
67.93999999999999773
 70
    32
  0
VERTEX
  5
2e2
330
   735
100
AcDbEntity
  8
top platform lines top_platform_lines
420
     0
100
AcDbVertex
100
AcDb3dPolylineVertex
 10
82.92624987807033676
 20
-75.81510947135831202
 30
67.17000000000000171
 70
    32
  0
VERTEX
  5
2e3
330
   735
100
AcDbEntity
  8
top platform lines top_platform_lines
420
     0
100
AcDbVertex
100
AcDb3dPolylineVertex
 10
82.92624987953692539
 20
-75.81510947339282325
 30
66.93999999999999773
 70
    32
  0
VERTEX
  5
2e4
330
   735
100
AcDbEntity
  8
top platform lines top_platform_lines
420
     0
100
AcDbVertex
100
AcDb3dPolylineVertex
 10
82.92624988059249347
 20
-75.81510947433929459
 30
65.65000000000000568
 70
    32
  0
VERTEX
  5
2e5
330
   735
100
AcDbEntity
  8
top platform lines top_platform_lines
420
     0
100
AcDbVertex
100
AcDb3dPolylineVertex
 10
82.92624988285879795
 20
-75.81510947523302946
 30
61.97999999999999687
 70
    32
  0
SEQEND
  5
2e6
330
   735
100
AcDbEntity
  8
top platform lines top_platform_lines
420
     0
  0
POLYLINE
  5
2e7
330
6d
100
AcDbEntity
  8
top platform lines top_platform_lines
  6
CONTINUOUS
420
     0
100
AcDb3dPolyline
 10
0.0
 20
0.0
 30
0.0
 70
     8
  0
VERTEX
  5
2e8
330
   743
100
AcDbEntity
  8
top platform lines top_platform_lines
420
     0
100
AcDbVertex
100
AcDb3dPolylineVertex
 10
82.92624988269471942
 20
-75.81510947490058072
 30
60.67999999999999972
 70
    32
  0
VERTEX
  5
2e9
330
   743
100
AcDbEntity
  8
top platform lines top_platform_lines
420
     0
100
AcDbVertex
100
AcDb3dPolylineVertex
 10
82.92624988074645387
 20
-75.81510947363274511
 30
62.42000000000000171
 70
    32
  0
VERTEX
  5
2ea
330
   743
100
AcDbEntity
  8
top platform lines top_platform_lines
420
     0
100
AcDbVertex
100
AcDb3dPolylineVertex
 10
82.9262498794765861
 20
-75.8151094725878778
 30
64.12999999999999545
 70
    32
  0
VERTEX
  5
2eb
330
   743
100
AcDbEntity
  8
top platform lines top_platform_lines
420
     0
100
AcDbVertex
100
AcDb3dPolylineVertex
 10
82.92624987829132976
 20
-75.81510947152381164
 30
65.54000000000000625
 70
    32
  0
VERTEX
  5
2ec
330
   743
100
AcDbEntity
  8
top platform lines top_platform_lines
420
     0
100
AcDbVertex
100
AcDb3dPolylineVertex
 10
82.92624987835412753
 20
-75.81510947045320847
 30
66.31000000000000227
 70
    32
  0
VERTEX
  5
2ed
330
   743
100
AcDbEntity
  8
top platform lines top_platform_lines
420
     0
100
AcDbVertex
100
AcDb3dPolylineVertex
 10
82.92624987888271448
 20
-75.81510946927818395
 30
66.87000000000000455
 70
    32
  0
VERTEX
  5
2ee
330
   743
100
AcDbEntity
  8
top platform lines top_platform_lines
420
     0
100
AcDbVertex
100
AcDb3dPolylineVertex
 10
82.92624987927452196
 20
-75.81510946886689339
 30
67.42000000000000171
 70
    32
  0
VERTEX
  5
2ef
330
   743
100
AcDbEntity
  8
top platform lines top_platform_lines
420
     0
100
AcDbVertex
100
AcDb3dPolylineVertex
 10
82.92624987984525831
 20
-75.81510946838159271
 30
68.45999999999999375
 70
    32
  0
VERTEX
  5
2f0
330
   743
100
AcDbEntity
  8
top platform lines top_platform_lines
420
     0
100
AcDbVertex
100
AcDb3dPolylineVertex
 10
82.92624988088070381
 20
-75.81510946773376247
 30
69.70000000000000284
 70
    32
  0
SEQEND
  5
2f1
330
   743
100
AcDbEntity
  8
top platform lines top_platform_lines
420
     0
  0
POLYLINE
  5
2f2
330
6d
100
AcDbEntity
  8
top platform lines top_platform_lines
  6
CONTINUOUS
420
     0
100
AcDb3dPolyline
 10
0.0
 20
0.0
 30
0.0
 70
     8
  0
VERTEX
  5
2f3
330
   754
100
AcDbEntity
  8
top platform lines top_platform_lines
420
     0
100
AcDbVertex
100
AcDb3dPolylineVertex
 10
82.92624987583491247
 20
-75.81510946890546165
 30
73.65000000000000568
 70
    32
  0
VERTEX
  5
2f4
330
   754
100
AcDbEntity
  8
top platform lines top_platform_lines
420
     0
100
AcDbVertex
100
AcDb3dPolylineVertex
 10
82.92624987608020604
 20
-75.81510946887460989
 30
73.54999999999999716
 70
    32
  0
VERTEX
  5
2f5
330
   754
100
AcDbEntity
  8
top platform lines top_platform_lines
420
     0
100
AcDbVertex
100
AcDb3dPolylineVertex
 10
82.92624987671875658
 20
-75.81510946855648569
 30
73.87000000000000455
 70
    32
  0
VERTEX
  5
2f6
330
   754
100
AcDbEntity
  8
top platform lines top_platform_lines
420
     0
100
AcDbVertex
100
AcDb3dPolylineVertex
 10
82.92624987986340557
 20
-75.81510946762439573
 30
71.40999999999999659
 70
    32
  0
SEQEND
  5
2f7
330
   754
100
AcDbEntity
  8
top platform lines top_platform_lines
420
     0
  0
POLYLINE
  5
2f8
330
6d
100
AcDbEntity
  8
top platform lines top_platform_lines
  6
CONTINUOUS
420
     0
100
AcDb3dPolyline
 10
0.0
 20
0.0
 30
0.0
 70
     8
  0
VERTEX
  5
2f9
330
   760
100
AcDbEntity
  8
top platform lines top_platform_lines
420
     0
100
AcDbVertex
100
AcDb3dPolylineVertex
 10
82.92624988310149092
 20
-75.81510946661401817
 30
73.07999999999999829
 70
    32
  0
VERTEX
  5
2fa
330
   760
100
AcDbEntity
  8
top platform lines top_platform_lines
420
     0
100
AcDbVertex
100
AcDb3dPolylineVertex
 10
82.92624988028281052
 20
-75.8151094671207062
 30
73.70000000000000284
 70
    32
  0
VERTEX
  5
2fb
330
   760
100
AcDbEntity
  8
top platform lines top_platform_lines
420
     0
100
AcDbVertex
100
AcDb3dPolylineVertex
 10
82.92624987926033953
 20
-75.81510946717213528
 30
74.34000000000000341
 70
    32
  0
VERTEX
  5
2fc
330
   760
100
AcDbEntity
  8
top platform lines top_platform_lines
420
     0
100
AcDbVertex
100
AcDb3dPolylineVertex
 10
82.92624987865498554
 20
-75.81510946719906485
 30
74.56999999999999318
 70
    32
  0
VERTEX
  5
2fd
330
   760
100
AcDbEntity
  8
top platform lines top_platform_lines
420
     0
100
AcDbVertex
100
AcDb3dPolylineVertex
 10
82.92624987815946724
 20
-75.81510946724506539
 30
74.59000000000000341
 70
    32
  0
SEQEND
  5
2fe
330
   760
100
AcDbEntity
  8
top platform lines top_platform_lines
420
     0
  0
POLYLINE
  5
2ff
330
6d
100
AcDbEntity
  8
top platform lines top_platform_lines
  6
CONTINUOUS
420
     0
100
AcDb3dPolyline
 10
0.0
 20
0.0
 30
0.0
 70
     8
  0
VERTEX
  5
300
330
   767
100
AcDbEntity
  8
top platform lines top_platform_lines
420
     0
100
AcDbVertex
100
AcDb3dPolylineVertex
 10
82.92624987728990504
 20
-75.81510946736852929
 30
75.26999999999999602
 70
    32
  0
VERTEX
  5
301
330
   767
100
AcDbEntity
  8
top platform lines top_platform_lines
420
     0
100
AcDbVertex
100
AcDb3dPolylineVertex
 10
82.9262498760378719
 20
-75.81510946748896629
 30
76.73999999999999488
 70
    32
  0
VERTEX
  5
302
330
   767
100
AcDbEntity
  8
top platform lines top_platform_lines
420
     0
100
AcDbVertex
100
AcDb3dPolylineVertex
 10
82.92624987506874845
 20
-75.81510946758565694
 30
77.76999999999999602
 70
    32
  0
VERTEX
  5
303
330
   767
100
AcDbEntity
  8
top platform lines top_platform_lines
420
     0
100
AcDbVertex
100
AcDb3dPolylineVertex
 10
82.92624987421871197
 20
-75.81510946770599446
 30
78.31000000000000227
 70
    32
  0
VERTEX
  5
304
330
   767
100
AcDbEntity
  8
top platform lines top_platform_lines
420
     0
100
AcDbVertex
100
AcDb3dPolylineVertex
 10
82.92624987373513079
 20
-75.81510946807496509
 30
77.48000000000000398
 70
    32
  0
VERTEX
  5
305
330
   767
100
AcDbEntity
  8
top platform lines top_platform_lines
420
     0
100
AcDbVertex
100
AcDb3dPolylineVertex
 10
82.92624987374733792
 20
-75.81510946832533193
 30
76.51000000000000512
 70
    32
  0
VERTEX
  5
306
330
   767
100
AcDbEntity
  8
top platform lines top_platform_lines
420
     0
100
AcDbVertex
100
AcDb3dPolylineVertex
 10
82.92624987394863467
 20
-75.81510946849620325
 30
75.85999999999999943
 70
    32
  0
VERTEX
  5
307
330
   767
100
AcDbEntity
  8
top platform lines top_platform_lines
420
     0
100
AcDbVertex
100
AcDb3dPolylineVertex
 10
82.92624987432225225
 20
-75.81510946870133694
 30
74.68000000000000682
 70
    32
  0
SEQEND
  5
308
330
   767
100
AcDbEntity
  8
top platform lines top_platform_lines
420
     0
  0
POLYLINE
  5
309
330
6d
100
AcDbEntity
  8
top platform lines top_platform_lines
  6
CONTINUOUS
420
     0
100
AcDb3dPolyline
 10
0.0
 20
0.0
 30
0.0
 70
     8
  0
VERTEX
  5
30a
330
   777
100
AcDbEntity
  8
top platform lines top_platform_lines
420
     0
100
AcDbVertex
100
AcDb3dPolylineVertex
 10
82.92624987728990504
 20
-75.81510946736852929
 30
75.26999999999999602
 70
    32
  0
VERTEX
  5
30b
330
   777
100
AcDbEntity
  8
top platform lines top_platform_lines
420
     0
100
AcDbVertex
100
AcDb3dPolylineVertex
 10
82.92624987868983055
 20
-75.81510946723629729
 30
74.40000000000000568
 70
    32
  0
SEQEND
  5
30c
330
   777
100
AcDbEntity
  8
top platform lines top_platform_lines
420
     0
  0
POLYLINE
  5
30d
330
6d
100
AcDbEntity
  8
top platform lines top_platform_lines
  6
CONTINUOUS
420
     0
100
AcDb3dPolyline
 10
0.0
 20
0.0
 30
0.0
 70
     8
  0
VERTEX
  5
30e
330
   781
100
AcDbEntity
  8
top platform lines top_platform_lines
420
     0
100
AcDbVertex
100
AcDb3dPolylineVertex
 10
82.92624988822680621
 20
-75.81510946561971309
 30
0.0
 70
    32
  0
SEQEND
  5
30f
330
   781
100
AcDbEntity
  8
top platform lines top_platform_lines
420
     0
  0
LWPOLYLINE
  5
310
  8
nz-property-titles(LINZ DOWNLOAD)
100
AcDbEntity
100
AcDbPolyline
  6
CONTINUOUS
420
     0
 90
     4
 70
   129
 43
-1.0
 10
1412850.43949310574680567
 20
4931549.48814697377383709
 10
1412842.59394778730347753
 20
4931552.6670080590993166
 10
1412849.80796657456085086
 20
4931570.47399620991200209
 10
1412850.43949310574680567
 20
4931549.48814697377383709
  0
LWPOLYLINE
  5
311
  8
nz-property-titles(LINZ DOWNLOAD)
100
AcDbEntity
100
AcDbPolyline
  6
CONTINUOUS
420
     0
 90
    16
 70
   129
 43
-1.0
 10
1412682.69756378838792443
 20
4931640.46608144976198673
 10
1412710.05421795696020126
 20
4931647.15022832900285721
 10
1412737.41092436760663986
 20
4931653.83425320964306593
 10
1412764.20339866704307497
 20
4931660.38255071360617876
 10
1412779.00562461442314088
 20
4931654.38968092296272516
 10
1412775.7414980917237699
 20
4931621.4762684628367424
 10
1412777.16772519936785102
 20
4931607.16141335014253855
 10
1412789.24511982430703938
 20
4931608.39976027514785528
 10
1412777.35972018330357969
 20
4931579.10214272607117891
 10
1412649.67790162726305425
 20
4931531.31255331542342901
 10
1412643.41092327516525984
 20
4931543.70050405524671078
 10
1412638.89511813223361969
 20
4931552.66248515713959932
 10
1412621.5756874461658299
 20
4931587.76554444339126348
 10
1412660.66237163660116494
 20
4931597.30163561645895243
 10
1412699.74780769925564528
 20
4931606.83928286470472813
 10
1412682.69756378838792443
 20
4931640.46608144976198673
  0
LWPOLYLINE
  5
312
  8
nz-property-titles(LINZ DOWNLOAD)
100
AcDbEntity
100
AcDbPolyline
  6
CONTINUOUS
420
     0
 90
    12
 70
   129
 43
-1.0
 10
1412665.04252094961702824
 20
4931501.03863542247563601
 10
1412649.67790162726305425
 20
4931531.31255331542342901
 10
1412777.35972018330357969
 20
4931579.10214272607117891
 10
1412789.24511982430703938
 20
4931608.39976027514785528
 10
1412803.8072553735692054
 20
4931644.34984072018414736
 10
1412822.40988745400682092
 20
4931636.81438115797936916
 10
1412795.97166920895688236
 20
4931571.55407410301268101
 10
1412819.28220010758377612
 20
4931562.11056437250226736
 10
1412842.59394778730347753
 20
4931552.6670080590993166
 10
1412850.43949310574680567
 20
4931549.48814697377383709
 10
1412851.72834307001903653
 20
4931506.65941751934587955
 10
1412665.04252094961702824
 20
4931501.03863542247563601
  0
LWPOLYLINE
  5
313
  8
nz-property-titles(LINZ DOWNLOAD)
100
AcDbEntity
100
AcDbPolyline
  6
CONTINUOUS
420
     0
 90
     6
 70
   129
 43
-1.0
 10
1412613.80297916382551193
 20
4931689.7040178282186389
 10
1412652.88224198808893561
 20
4931699.24915860220789909
 10
1412682.69756378838792443
 20
4931640.46608144976198673
 10
1412699.74780769925564528
 20
4931606.83928286470472813
 10
1412660.66237163660116494
 20
4931597.30163561645895243
 10
1412613.80297916382551193
 20
4931689.7040178282186389
  0
LWPOLYLINE
  5
314
  8
nz-property-titles(LINZ DOWNLOAD)
100
AcDbEntity
100
AcDbPolyline
  6
CONTINUOUS
420
     0
 90
     4
 70
   129
 43
-1.0
 10
1412591.80939318961463869
 20
4931538.93544062040746212
 10
1412596.29639064962975681
 20
4931529.76718781050294638
 10
1412592.15178180672228336
 20
4931527.57350460905581713
 10
1412591.80939318961463869
 20
4931538.93544062040746212
  0
LWPOLYLINE
  5
315
  8
nz-property-titles(LINZ DOWNLOAD)
100
AcDbEntity
100
AcDbPolyline
  6
CONTINUOUS
420
     0
 90
     5
 70
   129
 43
-1.0
 10
1412588.3792961232829839
 20
4931652.76199574302881956
 10
1412595.42778145475313067
 20
4931638.77476517204195261
 10
1412598.33952222671359777
 20
4931633.00966635160148144
 10
1412589.02687551965937018
 20
4931631.27215118240565062
 10
1412588.3792961232829839
 20
4931652.76199574302881956
  0
LWPOLYLINE
  5
316
  8
nz-property-titles(LINZ DOWNLOAD)
100
AcDbEntity
100
AcDbPolyline
  6
CONTINUOUS
420
     0
 90
     6
 70
   129
 43
-1.0
 10
1412842.59394778730347753
 20
4931552.6670080590993166
 10
1412819.28220010758377612
 20
4931562.11056437250226736
 10
1412845.71930864476598799
 20
4931627.37072838190943003
 10
1412848.12511125393211842
 20
4931626.39620086271315813
 10
1412849.80796657456085086
 20
4931570.47399620991200209
 10
1412842.59394778730347753
 20
4931552.6670080590993166
  0
LWPOLYLINE
  5
317
  8
nz-property-titles(LINZ DOWNLOAD)
100
AcDbEntity
100
AcDbPolyline
  6
CONTINUOUS
420
     0
 90
     5
 70
   129
 43
-1.0
 10
1412795.97166920895688236
 20
4931571.55407410301268101
 10
1412822.40988745400682092
 20
4931636.81438115797936916
 10
1412845.71930864476598799
 20
4931627.37072838190943003
 10
1412819.28220010758377612
 20
4931562.11056437250226736
 10
1412795.97166920895688236
 20
4931571.55407410301268101
  0
LWPOLYLINE
  5
318
  8
nz-property-titles(LINZ DOWNLOAD)
100
AcDbEntity
100
AcDbPolyline
  6
CONTINUOUS
420
     0
 90
    12
 70
   129
 43
-1.0
 10
1412606.91471131844446063
 20
4931681.18795535434037447
 10
1412602.03805496892891824
 20
4931686.83269255142658949
 10
1412613.80297916382551193
 20
4931689.7040178282186389
 10
1412660.66237163660116494
 20
4931597.30163561645895243
 10
1412621.5756874461658299
 20
4931587.76554444339126348
 10
1412611.42233382444828749
 20
4931607.08276805095374584
 10
1412598.33952222671359777
 20
4931633.00966635160148144
 10
1412595.42778145475313067
 20
4931638.77476517204195261
 10
1412611.24024290405213833
 20
4931647.62274785898625851
 10
1412624.56248681573197246
 20
4931655.22435646597296
 10
1412613.49807748571038246
 20
4931677.04024145659059286
 10
1412606.91471131844446063
 20
4931681.18795535434037447
  0
LWPOLYLINE
  5
319
  8
nz-property-titles(LINZ DOWNLOAD)
100
AcDbEntity
100
AcDbPolyline
  6
CONTINUOUS
420
     0
 90
     8
 70
   129
 43
-1.0
 10
1412592.15178180672228336
 20
4931527.57350460905581713
 10
1412596.29639064962975681
 20
4931529.76718781050294638
 10
1412600.7048509269952774
 20
4931520.75195976253598928
 10
1412643.41092327516525984
 20
4931543.70050405524671078
 10
1412649.67790162726305425
 20
4931531.31255331542342901
 10
1412665.04252094961702824
 20
4931501.03863542247563601
 10
1412593.0167993379291147
 20
4931498.86856754403561354
 10
1412592.15178180672228336
 20
4931527.57350460905581713
  0
LWPOLYLINE
  5
31a
  8
nz-property-titles(LINZ DOWNLOAD)
100
AcDbEntity
100
AcDbPolyline
  6
CONTINUOUS
420
     0
 90
     5
 70
   129
 43
-1.0
 10
1412589.02687551965937018
 20
4931631.27215118240565062
 10
1412598.33952222671359777
 20
4931633.00966635160148144
 10
1412611.42233382444828749
 20
4931607.08276805095374584
 10
1412590.08058593142777681
 20
4931596.30504870600998402
 10
1412589.02687551965937018
 20
4931631.27215118240565062
  0
LWPOLYLINE
  5
31b
  8
nz-property-titles(LINZ DOWNLOAD)
100
AcDbEntity
100
AcDbPolyline
  6
CONTINUOUS
420
     0
 90
     9
 70
   129
 43
-1.0
 10
1412590.08058593142777681
 20
4931596.30504870600998402
 10
1412611.42233382444828749
 20
4931607.08276805095374584
 10
1412621.5756874461658299
 20
4931587.76554444339126348
 10
1412638.89511813223361969
 20
4931552.66248515713959932
 10
1412643.41092327516525984
 20
4931543.70050405524671078
 10
1412600.7048509269952774
 20
4931520.75195976253598928
 10
1412596.29639064962975681
 20
4931529.76718781050294638
 10
1412591.80939318961463869
 20
4931538.93544062040746212
 10
1412590.08058593142777681
 20
4931596.30504870600998402
  0
LWPOLYLINE
  5
31c
  8
nz-property-titles(LINZ DOWNLOAD)
100
AcDbEntity
100
AcDbPolyline
  6
CONTINUOUS
420
     0
 90
     5
 70
   129
 43
-1.0
 10
1412710.05421795696020126
 20
4931647.15022832900285721
 10
1412682.69756378838792443
 20
4931640.46608144976198673
 10
1412652.88224198808893561
 20
4931699.24915860220789909
 10
1412680.23913546302355826
 20
4931705.93342956341803074
 10
1412710.05421795696020126
 20
4931647.15022832900285721
  0
LWPOLYLINE
  5
31d
  8
nz-property-titles(LINZ DOWNLOAD)
100
AcDbEntity
100
AcDbPolyline
  6
CONTINUOUS
420
     0
 90
     9
 70
   129
 43
-1.0
 10
1412606.91471131844446063
 20
4931681.18795535434037447
 10
1412613.49807748571038246
 20
4931677.04024145659059286
 10
1412624.56248681573197246
 20
4931655.22435646597296
 10
1412611.24024290405213833
 20
4931647.62274785898625851
 10
1412595.42778145475313067
 20
4931638.77476517204195261
 10
1412588.3792961232829839
 20
4931652.76199574302881956
 10
1412587.47799196490086615
 20
4931682.67178374156355858
 10
1412602.03805496892891824
 20
4931686.83269255142658949
 10
1412606.91471131844446063
 20
4931681.18795535434037447
  0
LWPOLYLINE
  5
31e
  8
nz-property-titles(LINZ DOWNLOAD)
100
AcDbEntity
100
AcDbPolyline
  6
CONTINUOUS
420
     0
 90
     6
 70
   129
 43
-1.0
 10
1412789.24511982430703938
 20
4931608.39976027514785528
 10
1412777.16772519936785102
 20
4931607.16141335014253855
 10
1412775.7414980917237699
 20
4931621.4762684628367424
 10
1412779.00562461442314088
 20
4931654.38968092296272516
 10
1412803.8072553735692054
 20
4931644.34984072018414736
 10
1412789.24511982430703938
 20
4931608.39976027514785528
  0
ENDSEC
0
SECTION
2
OBJECTS
0
DICTIONARY
5
C
330
0
100
AcDbDictionary
281
   1
3
ACAD_GROUP
350
D
3
ACAD_LAYOUT
350
1A
3
ACAD_MLEADERSTYLE
350
43
3
ACAD_MLINESTYLE
350
17
3
ACAD_PLOTSETTINGS
350
19
3
ACAD_PLOTSTYLENAME
350
E
3
ACAD_TABLESTYLE
350
42
3
ACAD_VISUALSTYLE
350
2A
0
DICTIONARY
5
D
102
{ACAD_REACTORS
330
C
102
}
330
C
100
AcDbDictionary
281
   1
0
DICTIONARY
5
1A
102
{ACAD_REACTORS
330
C
102
}
330
C
100
AcDbDictionary
281
   1
3
Layout1
350
1E
3
Layout2
350
26
3
Model
350
22
0
DICTIONARY
5
43
102
{ACAD_REACTORS
330
C
102
}
330
C
100
AcDbDictionary
281
   1
0
DICTIONARY
5
17
102
{ACAD_REACTORS
330
C
102
}
330
C
100
AcDbDictionary
281
   1
3
Standard
350
18
0
DICTIONARY
5
19
102
{ACAD_REACTORS
330
C
102
}
330
C
100
AcDbDictionary
281
   1
0
ACDBDICTIONARYWDFLT
5
E
102
{ACAD_REACTORS
330
C
102
}
330
C
100
AcDbDictionary
281
   1
3
Normal
350
F
100
AcDbDictionaryWithDefault
340
F
0
DICTIONARY
5
42
102
{ACAD_REACTORS
330
C
102
}
330
C
100
AcDbDictionary
281
   1
0
DICTIONARY
5
2A
102
{ACAD_REACTORS
330
C
102
}
330
C
100
AcDbDictionary
281
   1
3
2dWireframe
350
2F
3
3D Hidden
350
31
3
3dWireframe
350
30
3
Basic
350
32
3
Brighten
350
36
3
ColorChange
350
3A
3
Conceptual
350
34
3
Dim
350
35
3
Facepattern
350
39
3
Flat
350
2B
3
FlatWithEdges
350
2C
3
Gouraud
350
2D
3
GouraudWithEdges
350
2E
3
Linepattern
350
38
3
Realistic
350
33
3
Thicken
350
37
0
LAYOUT
5
1E
102
{ACAD_REACTORS
330
1A
102
}
330
1A
100
AcDbPlotSettings
1

2
none_device
4

6

40
0.0
41
0.0
42
0.0
43
0.0
44
0.0
45
0.0
46
0.0
47
0.0
48
0.0
49
0.0
140
0.0
141
0.0
142
1.0
143
1.0
70
 688
72
   0
73
   0
74
   5
7

75
  16
76
   0
77
   2
78
 300
147
1.0
148
0.0
149
0.0
100
AcDbLayout
1
Layout1
70
   1
71
   1
10
0.0
20
0.0
11
12.0
21
9.0
12
0.0
22
0.0
32
0.0
14
1.000000000000000E+20
24
1.000000000000000E+20
34
1.000000000000000E+20
15
-1.000000000000000E+20
25
-1.000000000000000E+20
35
-1.000000000000000E+20
146
0.0
13
0.0
23
0.0
33
0.0
16
1.0
26
0.0
36
0.0
17
0.0
27
1.0
37
0.0
76
   0
330
1B
0
LAYOUT
5
26
102
{ACAD_REACTORS
330
1A
102
}
330
1A
100
AcDbPlotSettings
1

2
none_device
4

6

40
0.0
41
0.0
42
0.0
43
0.0
44
0.0
45
0.0
46
0.0
47
0.0
48
0.0
49
0.0
140
0.0
141
0.0
142
1.0
143
1.0
70
 688
72
   0
73
   0
74
   5
7

75
  16
76
   0
77
   2
78
 300
147
1.0
148
0.0
149
0.0
100
AcDbLayout
1
Layout2
70
   1
71
   2
10
0.0
20
0.0
11
0.0
21
0.0
12
0.0
22
0.0
32
0.0
14
0.0
24
0.0
34
0.0
15
0.0
25
0.0
35
0.0
146
0.0
13
0.0
23
0.0
33
0.0
16
1.0
26
0.0
36
0.0
17
0.0
27
1.0
37
0.0
76
   0
330
23
0
LAYOUT
5
22
102
{ACAD_REACTORS
330
1A
102
}
330
1A
100
AcDbPlotSettings
1

2
none_device
4

6

40
0.0
41
0.0
42
0.0
43
0.0
44
0.0
45
0.0
46
0.0
47
0.0
48
0.0
49
0.0
140
0.0
141
0.0
142
1.0
143
1.0
70
1712
72
   0
73
   0
74
   0
7

75
   0
76
   0
77
   2
78
 300
147
1.0
148
0.0
149
0.0
100
AcDbLayout
1
Model
70
   1
71
   0
10
0.0
20
0.0
11
12.0
21
9.0
12
0.0
22
0.0
32
0.0
14
30.0
24
49.75
34
0.0
15
130.5
25
163.1318914119703
35
0.0
146
0.0
13
0.0
23
0.0
33
0.0
16
1.0
26
0.0
36
0.0
17
0.0
27
1.0
37
0.0
76
   0
330
1F
331
29
0
MLINESTYLE
5
18
102
{ACAD_REACTORS
330
17
102
}
330
17
100
AcDbMlineStyle
2
Standard
70
   0
3

62
 256
51
90.0
52
90.0
71
   2
49
0.5
62
 256
6
BYLAYER
49
-0.5
62
 256
6
BYLAYER
0
ACDBPLACEHOLDER
5
F
102
{ACAD_REACTORS
330
E
102
}
330
E
0
VISUALSTYLE
5
2F
102
{ACAD_REACTORS
330
2A
102
}
330
2A
100
AcDbVisualStyle
2
2dWireframe
70
   4
71
   0
72
   2
73
   0
90
      0
40
-0.6
41
-30.0
62
   5
63
   7
421
16777215
74
   1
91
      4
64
   7
65
 257
75
   1
175
   1
42
1.0
92
      0
66
 257
43
1.0
76
   1
77
   6
78
   2
67
   7
79
   5
170
   0
171
   0
290
   0
174
   0
93
      1
44
0.0
173
   0
291
   0
45
0.0
1001
ACAD
1000
AcDbSavedByObjectVersion
1070
   0
0
VISUALSTYLE
5
31
102
{ACAD_REACTORS
330
2A
102
}
330
2A
100
AcDbVisualStyle
2
3D Hidden
70
   6
71
   1
72
   2
73
   2
90
      0
40
-0.6
41
-30.0
62
   5
63
   7
421
16777215
74
   2
91
      2
64
   7
65
 257
75
   2
175
   1
42
40.0
92
      0
66
 257
43
1.0
76
   1
77
   6
78
   2
67
   7
79
   3
170
   0
171
   0
290
   0
174
   0
93
      1
44
0.0
173
   0
291
   0
45
0.0
1001
ACAD
1000
AcDbSavedByObjectVersion
1070
   0
0
VISUALSTYLE
5
30
102
{ACAD_REACTORS
330
2A
102
}
330
2A
100
AcDbVisualStyle
2
3dWireframe
70
   5
71
   0
72
   2
73
   0
90
      0
40
-0.6
41
-30.0
62
   5
63
   7
421
16777215
74
   1
91
      4
64
   7
65
 257
75
   1
175
   1
42
1.0
92
      0
66
 257
43
1.0
76
   1
77
   6
78
   2
67
   7
79
   5
170
   0
171
   0
290
   0
174
   0
93
      1
44
0.0
173
   0
291
   0
45
0.0
1001
ACAD
1000
AcDbSavedByObjectVersion
1070
   0
0
VISUALSTYLE
5
32
102
{ACAD_REACTORS
330
2A
102
}
330
2A
100
AcDbVisualStyle
2
Basic
70
   7
71
   1
72
   0
73
   1
90
      0
40
-0.6
41
-30.0
62
   5
63
   7
421
16777215
74
   0
91
      4
64
   7
65
 257
75
   1
175
   1
42
1.0
92
      8
66
   7
43
1.0
76
   1
77
   6
78
   2
67
   7
79
   5
170
   0
171
   0
290
   0
174
   0
93
      1
44
0.0
173
   0
291
   1
45
0.0
1001
ACAD
1000
AcDbSavedByObjectVersion
1070
   0
0
VISUALSTYLE
5
36
102
{ACAD_REACTORS
330
2A
102
}
330
2A
100
AcDbVisualStyle
2
Brighten
70
  12
71
   2
72
   2
73
   0
90
      0
40
-0.6
41
-30.0
62
   5
63
   7
421
16777215
74
   1
91
      4
64
   7
65
 257
75
   1
175
   1
42
1.0
92
      8
66
   7
43
1.0
76
   1
77
   6
78
   2
67
   7
79
   5
170
   0
171
   0
290
   0
174
   0
93
      1
44
50.0
173
   0
291
   1
45
0.0
1001
ACAD
1000
AcDbSavedByObjectVersion
1070
   0
0
VISUALSTYLE
5
3A
102
{ACAD_REACTORS
330
2A
102
}
330
2A
100
AcDbVisualStyle
2
ColorChange
70
  16
71
   2
72
   2
73
   3
90
      0
40
-0.6
41
-30.0
62
   5
63
   8
421
8421504
74
   1
91
      4
64
   7
65
 257
75
   1
175
   1
42
1.0
92
      8
66
   8
424
8421504
43
1.0
76
   1
77
   6
78
   2
67
   7
79
   5
170
   0
171
   0
290
   0
174
   0
93
      1
44
0.0
173
   0
291
   1
45
0.0
1001
ACAD
1000
AcDbSavedByObjectVersion
1070
   0
0
VISUALSTYLE
5
34
102
{ACAD_REACTORS
330
2A
102
}
330
2A
100
AcDbVisualStyle
2
Conceptual
70
   9
71
   3
72
   2
73
   0
90
      0
40
-0.6
41
-30.0
62
   5
63
   7
421
16777215
74
   2
91
      2
64
   7
65
 257
75
   1
175
   1
42
40.0
92
      8
66
   7
43
1.0
76
   1
77
   6
78
   2
67
   7
79
   3
170
   0
171
   0
290
   0
174
   0
93
      1
44
0.0
173
   0
291
   0
45
0.0
1001
ACAD
1000
AcDbSavedByObjectVersion
1070
   0
0
VISUALSTYLE
5
35
102
{ACAD_REACTORS
330
2A
102
}
330
2A
100
AcDbVisualStyle
2
Dim
70
  11
71
   2
72
   2
73
   0
90
      0
40
-0.6
41
-30.0
62
   5
63
   7
421
16777215
74
   1
91
      4
64
   7
65
 257
75
   1
175
   1
42
1.0
92
      8
66
   7
43
1.0
76
   1
77
   6
78
   2
67
   7
79
   5
170
   0
171
   0
290
   0
174
   0
93
      1
44
-50.0
173
   0
291
   1
45
0.0
1001
ACAD
1000
AcDbSavedByObjectVersion
1070
   0
0
VISUALSTYLE
5
39
102
{ACAD_REACTORS
330
2A
102
}
330
2A
100
AcDbVisualStyle
2
Facepattern
70
  15
71
   2
72
   2
73
   0
90
      0
40
-0.6
41
-30.0
62
   5
63
   7
421
16777215
74
   1
91
      4
64
   7
65
 257
75
   1
175
   1
42
1.0
92
      8
66
   7
43
1.0
76
   1
77
   6
78
   2
67
   7
79
   5
170
   0
171
   0
290
   0
174
   0
93
      1
44
0.0
173
   0
291
   1
45
0.0
1001
ACAD
1000
AcDbSavedByObjectVersion
1070
   0
0
VISUALSTYLE
5
2B
102
{ACAD_REACTORS
330
2A
102
}
330
2A
100
AcDbVisualStyle
2
Flat
70
   0
71
   2
72
   1
73
   1
90
      2
40
-0.6
41
30.0
62
   5
63
   7
421
16777215
74
   0
91
      4
64
   7
65
 257
75
   1
175
   1
42
1.0
92
      8
66
   7
43
1.0
76
   1
77
   6
78
   2
67
   7
79
   5
170
   0
171
   0
290
   0
174
   0
93
     13
44
0.0
173
   0
291
   1
45
0.0
1001
ACAD
1000
AcDbSavedByObjectVersion
1070
   0
0
VISUALSTYLE
5
2C
102
{ACAD_REACTORS
330
2A
102
}
330
2A
100
AcDbVisualStyle
2
FlatWithEdges
70
   1
71
   2
72
   1
73
   1
90
      2
40
-0.6
41
30.0
62
   5
63
   7
421
16777215
74
   1
91
      4
64
   7
65
 257
75
   1
175
   1
42
1.0
92
      0
66
 257
43
1.0
76
   1
77
   6
78
   2
67
   7
79
   5
170
   0
171
   0
290
   0
174
   0
93
     13
44
0.0
173
   0
291
   1
45
0.0
1001
ACAD
1000
AcDbSavedByObjectVersion
1070
   0
0
VISUALSTYLE
5
2D
102
{ACAD_REACTORS
330
2A
102
}
330
2A
100
AcDbVisualStyle
2
Gouraud
70
   2
71
   2
72
   2
73
   1
90
      2
40
-0.6
41
30.0
62
   5
63
   7
421
16777215
74
   0
91
      4
64
   7
65
 257
75
   1
175
   1
42
1.0
92
      0
66
   7
43
1.0
76
   1
77
   6
78
   2
67
   7
79
   5
170
   0
171
   0
290
   0
174
   0
93
     13
44
0.0
173
   0
291
   1
45
0.0
1001
ACAD
1000
AcDbSavedByObjectVersion
1070
   0
0
VISUALSTYLE
5
2E
102
{ACAD_REACTORS
330
2A
102
}
330
2A
100
AcDbVisualStyle
2
GouraudWithEdges
70
   3
71
   2
72
   2
73
   1
90
      2
40
-0.6
41
30.0
62
   5
63
   7
421
16777215
74
   1
91
      4
64
   7
65
 257
75
   1
175
   1
42
1.0
92
      0
66
 257
43
1.0
76
   1
77
   6
78
   2
67
   7
79
   5
170
   0
171
   0
290
   0
174
   0
93
     13
44
0.0
173
   0
291
   1
45
0.0
1001
ACAD
1000
AcDbSavedByObjectVersion
1070
   0
0
VISUALSTYLE
5
38
102
{ACAD_REACTORS
330
2A
102
}
330
2A
100
AcDbVisualStyle
2
Linepattern
70
  14
71
   2
72
   2
73
   0
90
      0
40
-0.6
41
-30.0
62
   5
63
   7
421
16777215
74
   1
91
      4
64
   7
65
 257
75
   7
175
   7
42
1.0
92
      8
66
   7
43
1.0
76
   1
77
   6
78
   2
67
   7
79
   5
170
   0
171
   0
290
   0
174
   0
93
      1
44
0.0
173
   0
291
   1
45
0.0
1001
ACAD
1000
AcDbSavedByObjectVersion
1070
   0
0
VISUALSTYLE
5
33
102
{ACAD_REACTORS
330
2A
102
}
330
2A
100
AcDbVisualStyle
2
Realistic
70
   8
71
   2
72
   2
73
   0
90
      0
40
-0.6
41
-30.0
62
   5
63
   7
421
16777215
74
   1
91
      0
64
   7
65
 257
75
   1
175
   1
42
1.0
92
      8
66
   8
424
7895160
43
1.0
76
   1
77
   6
78
   2
67
   7
79
   5
170
   0
171
   0
290
   0
174
   0
93
     13
44
0.0
173
   0
291
   0
45
0.0
1001
ACAD
1000
AcDbSavedByObjectVersion
1070
   0
0
VISUALSTYLE
5
37
102
{ACAD_REACTORS
330
2A
102
}
330
2A
100
AcDbVisualStyle
2
Thicken
70
  13
71
   2
72
   2
73
   0
90
      0
40
-0.6
41
-30.0
62
   5
63
   7
421
16777215
74
   1
91
      4
64
   7
65
 257
75
   1
175
   1
42
1.0
92
     12
66
   7
43
1.0
76
   1
77
   6
78
   2
67
   7
79
   5
170
   0
171
   0
290
   0
174
   0
93
      1
44
0.0
173
   0
291
   1
45
0.0
1001
ACAD
1000
AcDbSavedByObjectVersion
1070
   0
0
ENDSEC
  0
EOF
