  0
SECTION
  2
HEADER
  9
$ACADVER
  1
AC1018
  9
$ACADMAINTVER
 70
     0
  9
$DWGCODEPAGE
  3
ANSI_1252
  9
$EXTMIN
 10
170.583012016201
 20
-45.7460911236788
 30
0.0
  9
$EXTMAX
 10
170.586573989771
 20
-45.7436198
 30
0.0
  9
$LIMMIN
 10
0.0
 20
0.0
  9
$LIMMAX
 10
12.0
 20
9.0
  9
$ORTHOMODE
 70
     0
  9
$REGENMODE
 70
     1
  9
$FILLMODE
 70
     1
  9
$QTEXTMODE
 70
     0
  9
$MIRRTEXT
 70
     1
  9
$LTSCALE
 40
1.0
  9
$ATTMODE
 70
     1
  9
$TEXTSIZE
 40
0.2
  9
$TRACEWID
 40
0.05
  9
$TEXTSTYLE
  7
Standard
  9
$CLAYER
  8
0
  9
$CELTYPE
  6
ByLayer
  9
$CECOLOR
 62
   256
  9
$CELTSCALE
 40
1.0
  9
$DISPSILH
 70
     0
  9
$LUNITS
 70
     2
  9
$LUPREC
 70
     4
  9
$SKETCHINC
 40
0.1
  9
$FILLETRAD
 40
0.5
  9
$AUNITS
 70
     0
  9
$AUPREC
 70
     0
  9
$MENU
  1
.
  9
$ELEVATION
 40
0.0
  9
$PELEVATION
 40
0.0
  9
$THICKNESS
 40
0.0
  9
$LIMCHECK
 70
     0
  9
$CHAMFERA
 40
0.5
  9
$CHAMFERB
 40
0.5
  9
$CHAMFERC
 40
1.0
  9
$CHAMFERD
 40
0.0
  9
$SKPOLY
 70
     0
  9
$TDCREATE
 40
2455343.56230316
  9
$TDUCREATE
 40
2455343.728969826
  9
$TDUPDATE
 40
2455343.562303171
  9
$TDUUPDATE
 40
2455343.728969838
  9
$TDINDWG
 40
0.0000000116
  9
$TDUSRTIMER
 40
0.0000000116
  9
$USRTIMER
 70
     1
  9
$ANGBASE
 50
0.0
  9
$ANGDIR
 70
     0
  9
$PDMODE
 70
     0
  9
$PDSIZE
 40
0.0
  9
$PLINEWID
 40
0.0
  9
$SPLFRAME
 70
     0
  9
$SPLINETYPE
 70
     6
  9
$SPLINESEGS
 70
     8
  9
$HANDSEED
  5
0002001E
  9
$SURFTAB1
 70
     6
  9
$SURFTAB2
 70
     6
  9
$SURFTYPE
 70
     6
  9
$SURFU
 70
     6
  9
$SURFV
 70
     6
  9
$UCSBASE
  2

  9
$UCSNAME
  2

  9
$UCSORG
 10
0.0
 20
0.0
 30
0.0
  9
$UCSXDIR
 10
1.0
 20
0.0
 30
0.0
  9
$UCSYDIR
 10
0.0
 20
1.0
 30
0.0
  9
$UCSORTHOREF
  2

  9
$UCSORTHOVIEW
 70
     0
  9
$UCSORGTOP
 10
0.0
 20
0.0
 30
0.0
  9
$UCSORGBOTTOM
 10
0.0
 20
0.0
 30
0.0
  9
$UCSORGLEFT
 10
0.0
 20
0.0
 30
0.0
  9
$UCSORGRIGHT
 10
0.0
 20
0.0
 30
0.0
  9
$UCSORGFRONT
 10
0.0
 20
0.0
 30
0.0
  9
$UCSORGBACK
 10
0.0
 20
0.0
 30
0.0
  9
$PUCSBASE
  2

  9
$PUCSNAME
  2

  9
$PUCSORG
 10
0.0
 20
0.0
 30
0.0
  9
$PUCSXDIR
 10
1.0
 20
0.0
 30
0.0
  9
$PUCSYDIR
 10
0.0
 20
1.0
 30
0.0
  9
$PUCSORTHOREF
  2

  9
$PUCSORTHOVIEW
 70
     0
  9
$PUCSORGTOP
 10
0.0
 20
0.0
 30
0.0
  9
$PUCSORGBOTTOM
 10
0.0
 20
0.0
 30
0.0
  9
$PUCSORGLEFT
 10
0.0
 20
0.0
 30
0.0
  9
$PUCSORGRIGHT
 10
0.0
 20
0.0
 30
0.0
  9
$PUCSORGFRONT
 10
0.0
 20
0.0
 30
0.0
  9
$PUCSORGBACK
 10
0.0
 20
0.0
 30
0.0
  9
$WORLDVIEW
 70
     1
  9
$SHADEDGE
 70
     3
  9
$SHADEDIF
 70
    70
  9
$TILEMODE
 70
     1
  9
$MAXACTVP
 70
    64
  9
$PINSBASE
 10
0.0
 20
0.0
 30
0.0
  9
$PLIMCHECK
 70
     0
  9
$PEXTMIN
 10
1.000000000000000E+20
 20
1.000000000000000E+20
 30
1.000000000000000E+20
  9
$PEXTMAX
 10
-1.000000000000000E+20
 20
-1.000000000000000E+20
 30
-1.000000000000000E+20
  9
$PLIMMIN
 10
0.0
 20
0.0
  9
$PLIMMAX
 10
12.0
 20
9.0
  9
$UNITMODE
 70
     0
  9
$VISRETAIN
 70
     1
  9
$PLINEGEN
 70
     0
  9
$PSLTSCALE
 70
     1
  9
$TREEDEPTH
 70
  3020
  9
$CMLSTYLE
  2
Standard
  9
$CMLJUST
 70
     0
  9
$CMLSCALE
 40
1.0
  9
$PROXYGRAPHICS
 70
     1
  9
$MEASUREMENT
 70
     0
  9
$CELWEIGHT
370
    -1
  9
$ENDCAPS
280
     0
  9
$JOINSTYLE
280
     0
  9
$LWDISPLAY
290
     0
  9
$INSUNITS
 70
     1
  9
$HYPERLINKBASE
  1

  9
$STYLESHEET
  1

  9
$XEDIT
290
     1
  9
$CEPSNTYPE
380
     0
  9
$PSTYLEMODE
290
     1
  9
$FINGERPRINTGUID
  2
{E7F7769E-AACA-40AB-9EF3-61BBAFBCBA26}
  9
$VERSIONGUID
  2
{FAEB1C32-E019-11D5-929B-00C0DF256EC4}
  9
$EXTNAMES
290
     1
  9
$PSVPSCALE
 40
0.0
  9
$OLESTARTUP
290
     0
  9
$SORTENTS
280
   127
  9
$INDEXCTL
280
     0
  9
$HIDETEXT
280
     1
  9
$XCLIPFRAME
290
     0
  9
$HALOGAP
280
     0
  9
$OBSCOLOR
 70
   257
  9
$OBSLTYPE
280
     0
  9
$INTERSECTIONDISPLAY
280
     0
  9
$INTERSECTIONCOLOR
 70
   257
  9
$DIMASSOC
280
     2
  9
$PROJECTNAME
  1

  0
ENDSEC
  0
SECTION
  2
CLASSES
  0
CLASS
  1
ACDBDICTIONARYWDFLT
  2
AcDbDictionaryWithDefault
  3
ObjectDBX Classes
 90
        0
 91
        4
280
     0
281
     0
  0
CLASS
  1
VISUALSTYLE
  2
AcDbVisualStyle
  3
ObjectDBX Classes
 90
     4095
 91
        4
280
     0
281
     0
  0
ENDSEC
  0
SECTION
  2
TABLES
  0
TABLE
  2
VPORT
  5
8
330
0
100
AcDbSymbolTable
 70
     1
  0
VPORT
  5
29
330
8
100
AcDbSymbolTableRecord
100
AcDbViewportTableRecord
  2
*Active
 70
     0
 10
0.0
 20
0.0
 11
1.0
 21
1.0
 12
80.25
 22
106.4409457059851
 13
0.0
 23
0.0
 14
0.5
 24
0.5
 15
0.5
 25
0.5
 16
0.0
 26
0.0
 36
1.0
 17
0.0
 27
0.0
 37
0.0
 40
113.3818914119703
 41
0.8863849310366128
 42
50.0
 43
0.0
 44
0.0
 50
0.0
 51
0.0
 71
     0
 72
  1000
 73
     1
 74
     3
 75
     0
 76
     0
 77
     0
 78
     0
281
     0
 65
     1
110
0.0
120
0.0
130
0.0
111
1.0
121
0.0
131
0.0
112
0.0
122
1.0
132
0.0
 79
     0
146
0.0
  0
ENDTAB
  0
TABLE
  2
LTYPE
  5
5
330
0
100
AcDbSymbolTable
 70
     1
  0
LTYPE
  5
14
330
5
100
AcDbSymbolTableRecord
100
AcDbLinetypeTableRecord
  2
ByBlock
 70
     0
  3

 72
    65
 73
     0
 40
0.0
  0
LTYPE
  5
15
330
5
100
AcDbSymbolTableRecord
100
AcDbLinetypeTableRecord
  2
ByLayer
 70
     0
  3

 72
    65
 73
     0
 40
0.0
  0
LTYPE
  5
16
330
5
100
AcDbSymbolTableRecord
100
AcDbLinetypeTableRecord
  2
Continuous
 70
     0
  3
Solid line
 72
    65
 73
     0
 40
0.0
  0
ENDTAB
  0
TABLE
  2
LAYER
  5
2
330
0
100
AcDbSymbolTable
 70
     1
  0
LAYER
  5
10
330
2
100
AcDbSymbolTableRecord
100
AcDbLayerTableRecord
  2
0
 70
     0
 62
     7
  6
Continuous
370
    -3
390
F
  0
ENDTAB
  0
TABLE
  2
STYLE
  5
3
330
0
100
AcDbSymbolTable
 70
     1
  0
STYLE
  5
11
330
3
100
AcDbSymbolTableRecord
100
AcDbTextStyleTableRecord
  2
Standard
 70
     0
 40
0.0
 41
1.0
 50
0.0
 71
     0
 42
0.2
  3
txt
  4

  0
ENDTAB
  0
TABLE
  2
VIEW
  5
6
330
0
100
AcDbSymbolTable
 70
     0
  0
ENDTAB
  0
TABLE
  2
UCS
  5
7
330
0
100
AcDbSymbolTable
 70
     0
  0
ENDTAB
  0
TABLE
  2
APPID
  5
9
330
0
100
AcDbSymbolTable
 70
     1
  0
APPID
  5
12
330
9
100
AcDbSymbolTableRecord
100
AcDbRegAppTableRecord
  2
ACAD
 70
     0
  0
ENDTAB
  0
TABLE
  2
DIMSTYLE
  5
A
330
0
100
AcDbSymbolTable
 70
     1
100
AcDbDimStyleTable
  0
DIMSTYLE
105
27
330
A
100
AcDbSymbolTableRecord
100
AcDbDimStyleTableRecord
  2
Standard
 70
     0
340
11
  0
ENDTAB
  0
TABLE
  2
BLOCK_RECORD
  5
1
330
0
100
AcDbSymbolTable
 70
     1
  0
BLOCK_RECORD
  5
1F
330
1
100
AcDbSymbolTableRecord
100
AcDbBlockTableRecord
  2
*Model_Space
340
22
  0
BLOCK_RECORD
  5
1B
330
1
100
AcDbSymbolTableRecord
100
AcDbBlockTableRecord
  2
*Paper_Space
340
1E
  0
BLOCK_RECORD
  5
23
330
1
100
AcDbSymbolTableRecord
100
AcDbBlockTableRecord
  2
*Paper_Space0
340
26
  0
ENDTAB
  0
ENDSEC
  0
SECTION
  2
BLOCKS
  0
BLOCK
  5
20
330
1F
100
AcDbEntity
  8
0
100
AcDbBlockBegin
  2
*Model_Space
 70
     0
 10
0.0
 20
0.0
 30
0.0
  3
*Model_Space
  1

  0
ENDBLK
  5
21
330
1F
100
AcDbEntity
  8
0
100
AcDbBlockEnd
  0
BLOCK
  5
1C
330
1B
100
AcDbEntity
 67
     1
  8
0
100
AcDbBlockBegin
  2
*Paper_Space
 70
     0
 10
0.0
 20
0.0
 30
0.0
  3
*Paper_Space
  1

  0
ENDBLK
  5
1D
330
1B
100
AcDbEntity
 67
     1
  8
0
100
AcDbBlockEnd
  0
BLOCK
  5
24
330
23
100
AcDbEntity
  8
0
100
AcDbBlockBegin
  2
*Paper_Space0
 70
     0
 10
0.0
 20
0.0
 30
0.0
  3
*Paper_Space0
  1

  0
ENDBLK
  5
25
330
23
100
AcDbEntity
  8
0
100
AcDbBlockEnd
  0
ENDSEC
  0
SECTION
  2
ENTITIES
  0
HATCH
  5
20000
  8
0
100
AcDbEntity
100
AcDbHatch
 10
0
 20
0
 30
0
210
0
220
0
230
1
  2
SOLID
 70
1
 71
0
 91
1
 92
2
 72
0
 73
1
 93
6
 10
170.5852382667
 20
-45.7450939833
 10
170.5852724333
 20
-45.7451006333
 10
170.5854700167
 20
-45.7454963667
 10
170.5851858667
 20
-45.7455358667
 10
170.5849353167
 20
-45.7450351
 10
170.5852382667
 20
-45.7450939833
 97
0
 75
0
 76
1
 98
0
  0
HATCH
  5
20001
  8
0
100
AcDbEntity
100
AcDbHatch
 10
0
 20
0
 30
0
210
0
220
0
230
1
  2
SOLID
 70
1
 71
0
 91
1
 92
2
 72
0
 73
1
 93
6
 10
170.5842476167
 20
-45.7456901333
 10
170.5839575833
 20
-45.7451733667
 10
170.5842218833
 20
-45.7451008667
 10
170.58451765
 20
-45.7456294833
 10
170.5844276667
 20
-45.7456421667
 10
170.5842476167
 20
-45.7456901333
 97
0
 75
0
 76
1
 98
0
  0
HATCH
  5
20002
  8
0
100
AcDbEntity
100
AcDbHatch
 10
0
 20
0
 30
0
210
0
220
0
230
1
  2
SOLID
 70
1
 71
0
 91
1
 92
2
 72
0
 73
1
 93
7
 10
170.5834299833
 20
-45.7453174667
 10
170.5836936167
 20
-45.7452455667
 10
170.5839828167
 20
-45.7457608667
 10
170.58396505
 20
-45.7457655667
 10
170.5838153333
 20
-45.7454963333
 10
170.5835670667
 20
-45.7455638333
 10
170.5834299833
 20
-45.7453174667
 97
0
 75
0
 76
1
 98
0
  0
HATCH
  5
20003
  8
0
100
AcDbEntity
100
AcDbHatch
 10
0
 20
0
 30
0
210
0
220
0
230
1
  2
SOLID
 70
1
 71
0
 91
1
 92
2
 72
0
 73
1
 93
5
 10
170.5845020333
 20
-45.7458183167
 10
170.584649458841
 20
-45.7460911236788
 10
170.584373129484
 20
-45.7460911236788
 10
170.5842601333
 20
-45.7458819667
 10
170.5845020333
 20
-45.7458183167
 97
0
 75
0
 76
1
 98
0
  0
HATCH
  5
20004
  8
0
100
AcDbEntity
100
AcDbHatch
 10
0
 20
0
 30
0
210
0
220
0
230
1
  2
SOLID
 70
1
 71
0
 91
1
 92
2
 72
0
 73
1
 93
52
 10
170.5844973
 20
-45.7445174667
 10
170.5845520333
 20
-45.7440837833
 10
170.5845616833
 20
-45.7440994333
 10
170.58456325
 20
-45.7441071833
 10
170.584572
 20
-45.7441142
 10
170.5845744
 20
-45.7441183333
 10
170.5845760167
 20
-45.7441251667
 10
170.5845796833
 20
-45.7441297833
 10
170.5845802167
 20
-45.7441320667
 10
170.5845827167
 20
-45.7441344
 10
170.5845909167
 20
-45.7441527333
 10
170.58459655
 20
-45.74415695
 10
170.5846039333
 20
-45.7441652833
 10
170.5846062667
 20
-45.7441707833
 10
170.58463045
 20
-45.7441940167
 10
170.5846383667
 20
-45.7442046333
 10
170.58465655
 20
-45.74421775
 10
170.5846622833
 20
-45.7442197
 10
170.5846761
 20
-45.7442290833
 10
170.5846766667
 20
-45.7442309167
 10
170.5846933
 20
-45.7442353833
 10
170.5847100667
 20
-45.7442371167
 10
170.5847279667
 20
-45.7442425333
 10
170.5847394833
 20
-45.7442459667
 10
170.5847553167
 20
-45.7442535833
 10
170.5847621667
 20
-45.74425965
 10
170.5847779833
 20
-45.7442677167
 10
170.5847856333
 20
-45.7442701667
 10
170.5848030333
 20
-45.7442723833
 10
170.5848164
 20
-45.7442776667
 10
170.5848254167
 20
-45.7442787833
 10
170.5848900333
 20
-45.7442966
 10
170.5849305167
 20
-45.74431795
 10
170.5849789333
 20
-45.7443630667
 10
170.58502425
 20
-45.7443917833
 10
170.5850325167
 20
-45.7443951333
 10
170.5850766667
 20
-45.74440705
 10
170.5851051167
 20
-45.7444086
 10
170.5851758667
 20
-45.7444066
 10
170.5852104833
 20
-45.74440105
 10
170.5852273167
 20
-45.7444014333
 10
170.5852534167
 20
-45.7443975
 10
170.5852699167
 20
-45.7443915333
 10
170.5852991667
 20
-45.7443758667
 10
170.5853050833
 20
-45.7443741833
 10
170.5853834667
 20
-45.7443338
 10
170.58538605
 20
-45.7443338667
 10
170.5854137333
 20
-45.7443245167
 10
170.58542515
 20
-45.7443170333
 10
170.5857882667
 20
-45.7448526667
 10
170.5845362333
 20
-45.7446222667
 10
170.5844973
 20
-45.7445174667
 97
0
 75
0
 76
1
 98
0
  0
HATCH
  5
20005
  8
0
100
AcDbEntity
100
AcDbHatch
 10
0
 20
0
 30
0
210
0
220
0
230
1
  2
SOLID
 70
1
 71
0
 91
1
 92
2
 72
0
 73
1
 93
5
 10
170.583012016201
 20
-45.745738112955
 10
170.5830309167
 20
-45.7457195333
 10
170.5831776333
 20
-45.7459780667
 10
170.583012016201
 20
-45.7460195796172
 10
170.583012016201
 20
-45.745738112955
 97
0
 75
0
 76
1
 98
0
  0
HATCH
  5
20006
  8
0
100
AcDbEntity
100
AcDbHatch
 10
0
 20
0
 30
0
210
0
220
0
230
1
  2
SOLID
 70
1
 71
0
 91
1
 92
2
 72
0
 73
1
 93
5
 10
170.5844867
 20
-45.7450281
 10
170.584799
 20
-45.74559005
 10
170.58451765
 20
-45.7456294833
 10
170.5842218833
 20
-45.7451008667
 10
170.5844867
 20
-45.7450281
 97
0
 75
0
 76
1
 98
0
  0
HATCH
  5
20007
  8
0
100
AcDbEntity
100
AcDbHatch
 10
0
 20
0
 30
0
210
0
220
0
230
1
  2
SOLID
 70
1
 71
0
 91
1
 92
2
 72
0
 73
1
 93
20
 10
170.5839471667
 20
-45.7438064833
 10
170.5839770667
 20
-45.7437987667
 10
170.5840667833
 20
-45.7437941333
 10
170.5841309833
 20
-45.7437963167
 10
170.58414435
 20
-45.7437984
 10
170.5841018333
 20
-45.7438537167
 10
170.5840455
 20
-45.7438589167
 10
170.5840013
 20
-45.7439390833
 10
170.5841455
 20
-45.7442889167
 10
170.5843329833
 20
-45.7444323667
 10
170.5843729833
 20
-45.7445400833
 10
170.5841926167
 20
-45.7445729333
 10
170.5836235167
 20
-45.74403775
 10
170.5836284333
 20
-45.7440155167
 10
170.5836682667
 20
-45.74395475
 10
170.5837179833
 20
-45.7439304167
 10
170.5837298667
 20
-45.7439217167
 10
170.5837388833
 20
-45.7439151833
 10
170.5838565167
 20
-45.7438298667
 10
170.5839471667
 20
-45.7438064833
 97
0
 75
0
 76
1
 98
0
  0
HATCH
  5
20008
  8
0
100
AcDbEntity
100
AcDbHatch
 10
0
 20
0
 30
0
210
0
220
0
230
1
  2
SOLID
 70
1
 71
0
 91
1
 92
2
 72
0
 73
1
 93
5
 10
170.5836936167
 20
-45.7452455667
 10
170.5839575833
 20
-45.7451733667
 10
170.5842476167
 20
-45.7456901333
 10
170.5839828167
 20
-45.7457608667
 10
170.5836936167
 20
-45.7452455667
 97
0
 75
0
 76
1
 98
0
  0
HATCH
  5
20009
  8
0
100
AcDbEntity
100
AcDbHatch
 10
0
 20
0
 30
0
210
0
220
0
230
1
  2
SOLID
 70
1
 71
0
 91
1
 92
2
 72
0
 73
1
 93
10
 10
170.583492
 20
-45.74424755
 10
170.58358155
 20
-45.7442964833
 10
170.5836117833
 20
-45.744383
 10
170.5836014333
 20
-45.74468055
 10
170.5835890167
 20
-45.7446828167
 10
170.5832914833
 20
-45.7448644833
 10
170.583012016201
 20
-45.7446264328376
 10
170.583012016201
 20
-45.7444923126765
 10
170.5833278167
 20
-45.7444220167
 10
170.583492
 20
-45.74424755
 97
0
 75
0
 76
1
 98
0
  0
HATCH
  5
2000A
  8
0
100
AcDbEntity
100
AcDbHatch
 10
0
 20
0
 30
0
210
0
220
0
230
1
  2
SOLID
 70
1
 71
0
 91
1
 92
2
 72
0
 73
1
 93
46
 10
170.586573989771
 20
-45.7450004015079
 10
170.5857882667
 20
-45.7448526667
 10
170.58542515
 20
-45.7443170333
 10
170.5853093167
 20
-45.7441431833
 10
170.58531695
 20
-45.7441388167
 10
170.5853402167
 20
-45.74412795
 10
170.5854355167
 20
-45.7440922833
 10
170.5854415333
 20
-45.7440887667
 10
170.5854533833
 20
-45.74408585
 10
170.5855391667
 20
-45.7440590667
 10
170.58555625
 20
-45.74405535
 10
170.5855804833
 20
-45.7440525833
 10
170.5856040667
 20
-45.7440424167
 10
170.5856073333
 20
-45.74404205
 10
170.5856113333
 20
-45.74403985
 10
170.5856430167
 20
-45.7440306
 10
170.5856521333
 20
-45.7440303667
 10
170.5856889833
 20
-45.7440221333
 10
170.5856956333
 20
-45.7440191
 10
170.58572075
 20
-45.74401105
 10
170.5857559333
 20
-45.7439968667
 10
170.5857625167
 20
-45.7439952
 10
170.5858023167
 20
-45.7439793
 10
170.5858110333
 20
-45.74397405
 10
170.5858409667
 20
-45.74396065
 10
170.5859099667
 20
-45.74393315
 10
170.5859493
 20
-45.7439136
 10
170.58596055
 20
-45.7439097667
 10
170.5860059167
 20
-45.7438999333
 10
170.58605385
 20
-45.74389105
 10
170.5860981167
 20
-45.7438770833
 10
170.5861172167
 20
-45.7438725333
 10
170.5861644
 20
-45.74386545
 10
170.5861928
 20
-45.7438570167
 10
170.5862041
 20
-45.7438518333
 10
170.5862449833
 20
-45.7438273
 10
170.5862708833
 20
-45.7438165333
 10
170.5863002833
 20
-45.7438004
 10
170.5863251333
 20
-45.7437846
 10
170.5863338
 20
-45.74378025
 10
170.5863646833
 20
-45.7437605
 10
170.5864237
 20
-45.7437377833
 10
170.5864658
 20
-45.7437283167
 10
170.5865279833
 20
-45.7437206833
 10
170.586573989771
 20
-45.7437274350866
 10
170.586573989771
 20
-45.7450004015079
 97
0
 75
0
 76
1
 98
0
  0
HATCH
  5
2000B
  8
0
100
AcDbEntity
100
AcDbHatch
 10
0
 20
0
 30
0
210
0
220
0
230
1
  2
SOLID
 70
1
 71
0
 91
1
 92
2
 72
0
 73
1
 93
6
 10
170.583468030142
 20
-45.7460911236788
 10
170.5835330333
 20
-45.74607415
 10
170.5837753667
 20
-45.7460100667
 10
170.5840177333
 20
-45.7459460333
 10
170.584096274097
 20
-45.7460911236788
 10
170.583468030142
 20
-45.7460911236788
 97
0
 75
0
 76
1
 98
0
  0
HATCH
  5
2000C
  8
0
100
AcDbEntity
100
AcDbHatch
 10
0
 20
0
 30
0
210
0
220
0
230
1
  2
SOLID
 70
1
 71
0
 91
1
 92
2
 72
0
 73
1
 93
6
 10
170.586268
 20
-45.7455704667
 10
170.5865223333
 20
-45.7455340167
 10
170.586573989771
 20
-45.7456104311415
 10
170.586573989771
 20
-45.7459894926594
 10
170.58655135
 20
-45.7459928167
 10
170.586268
 20
-45.7455704667
 97
0
 75
0
 76
1
 98
0
  0
HATCH
  5
2000D
  8
0
100
AcDbEntity
100
AcDbHatch
 10
0
 20
0
 30
0
210
0
220
0
230
1
  2
SOLID
 70
1
 71
0
 91
1
 92
2
 72
0
 73
1
 93
4
 10
170.586573989771
 20
-45.7460263438241
 10
170.58655135
 20
-45.7459928167
 10
170.586573989771
 20
-45.7459894926594
 10
170.586573989771
 20
-45.7460263438241
 97
0
 75
0
 76
1
 98
0
  0
HATCH
  5
2000E
  8
0
100
AcDbEntity
100
AcDbHatch
 10
0
 20
0
 30
0
210
0
220
0
230
1
  2
SOLID
 70
1
 71
0
 91
1
 92
2
 72
0
 73
1
 93
5
 10
170.584096274097
 20
-45.7460911236788
 10
170.5840177333
 20
-45.7459460333
 10
170.5842601333
 20
-45.7458819667
 10
170.584373129484
 20
-45.7460911236788
 10
170.584096274097
 20
-45.7460911236788
 97
0
 75
0
 76
1
 98
0
  0
HATCH
  5
2000F
  8
0
100
AcDbEntity
100
AcDbHatch
 10
0
 20
0
 30
0
210
0
220
0
230
1
  2
SOLID
 70
1
 71
0
 91
1
 92
2
 72
0
 73
1
 93
5
 10
170.5830605667
 20
-45.7450092167
 10
170.583012016201
 20
-45.7450089976039
 10
170.583012016201
 20
-45.7446264328376
 10
170.5832914833
 20
-45.7448644833
 10
170.5830605667
 20
-45.7450092167
 97
0
 75
0
 76
1
 98
0
  0
HATCH
  5
20010
  8
0
100
AcDbEntity
100
AcDbHatch
 10
0
 20
0
 30
0
210
0
220
0
230
1
  2
SOLID
 70
1
 71
0
 91
1
 92
2
 72
0
 73
1
 93
5
 10
170.5838153333
 20
-45.7454963333
 10
170.58396505
 20
-45.7457655667
 10
170.5837174833
 20
-45.74583185
 10
170.5835670667
 20
-45.7455638333
 10
170.5838153333
 20
-45.7454963333
 97
0
 75
0
 76
1
 98
0
  0
HATCH
  5
20011
  8
0
100
AcDbEntity
100
AcDbHatch
 10
0
 20
0
 30
0
210
0
220
0
230
1
  2
SOLID
 70
1
 71
0
 91
1
 92
2
 72
0
 73
1
 93
7
 10
170.584649458841
 20
-45.7460911236788
 10
170.5845020333
 20
-45.7458183167
 10
170.586268
 20
-45.7455704667
 10
170.58655135
 20
-45.7459928167
 10
170.586573989771
 20
-45.7460263438241
 10
170.586573989771
 20
-45.7460911236788
 10
170.584649458841
 20
-45.7460911236788
 97
0
 75
0
 76
1
 98
0
  0
HATCH
  5
20012
  8
0
100
AcDbEntity
100
AcDbHatch
 10
0
 20
0
 30
0
210
0
220
0
230
1
  2
SOLID
 70
1
 71
0
 91
1
 92
2
 72
0
 73
1
 93
8
 10
170.5864123333
 20
-45.7452410333
 10
170.5865504833
 20
-45.745245
 10
170.586573989771
 20
-45.7452428126719
 10
170.586573989771
 20
-45.7453418947125
 10
170.5864467
 20
-45.7453599333
 10
170.5861553833
 20
-45.7454012667
 10
170.58603985
 20
-45.74523035
 10
170.5864123333
 20
-45.7452410333
 97
0
 75
0
 76
1
 98
0
  0
HATCH
  5
20013
  8
0
100
AcDbEntity
100
AcDbHatch
 10
0
 20
0
 30
0
210
0
220
0
230
1
  2
SOLID
 70
1
 71
0
 91
1
 92
2
 72
0
 73
1
 93
6
 10
170.5835670667
 20
-45.7455638333
 10
170.5837174833
 20
-45.74583185
 10
170.5833553667
 20
-45.7459294667
 10
170.58316235
 20
-45.7455846167
 10
170.5834299833
 20
-45.7453174667
 10
170.5835670667
 20
-45.7455638333
 97
0
 75
0
 76
1
 98
0
  0
HATCH
  5
20014
  8
0
100
AcDbEntity
100
AcDbHatch
 10
0
 20
0
 30
0
210
0
220
0
230
1
  2
SOLID
 70
1
 71
0
 91
1
 92
2
 72
0
 73
1
 93
4
 10
170.586573989771
 20
-45.7456104311415
 10
170.5865223333
 20
-45.7455340167
 10
170.586573989771
 20
-45.7455266920342
 10
170.586573989771
 20
-45.7456104311415
 97
0
 75
0
 76
1
 98
0
  0
HATCH
  5
20015
  8
0
100
AcDbEntity
100
AcDbHatch
 10
0
 20
0
 30
0
210
0
220
0
230
1
  2
SOLID
 70
1
 71
0
 91
1
 92
2
 72
0
 73
1
 93
17
 10
170.5844973
 20
-45.7445174667
 10
170.5843729833
 20
-45.7445400833
 10
170.5843329833
 20
-45.7444323667
 10
170.5841455
 20
-45.7442889167
 10
170.5840013
 20
-45.7439390833
 10
170.5840455
 20
-45.7438589167
 10
170.5841018333
 20
-45.7438537167
 10
170.58414435
 20
-45.7437984
 10
170.5842939
 20
-45.7438222
 10
170.5843664167
 20
-45.7438404667
 10
170.5844484667
 20
-45.7438514
 10
170.5844765333
 20
-45.7438601333
 10
170.58450165
 20
-45.7438936833
 10
170.5845303167
 20
-45.74391585
 10
170.5845336667
 20
-45.7440612333
 10
170.5845520333
 20
-45.7440837833
 10
170.5844973
 20
-45.7445174667
 97
0
 75
0
 76
1
 98
0
  0
HATCH
  5
20016
  8
0
100
AcDbEntity
100
AcDbHatch
 10
0
 20
0
 30
0
210
0
220
0
230
1
  2
SOLID
 70
1
 71
0
 91
1
 92
2
 72
0
 73
1
 93
5
 10
170.5830605667
 20
-45.7450092167
 10
170.5831855333
 20
-45.7450769667
 10
170.583012016201
 20
-45.7452511426
 10
170.583012016201
 20
-45.7450089976039
 10
170.5830605667
 20
-45.7450092167
 97
0
 75
0
 76
1
 98
0
  0
HATCH
  5
20017
  8
0
100
AcDbEntity
100
AcDbHatch
 10
0
 20
0
 30
0
210
0
220
0
230
1
  2
SOLID
 70
1
 71
0
 91
1
 92
2
 72
0
 73
1
 93
5
 10
170.58316235
 20
-45.7455846167
 10
170.5833553667
 20
-45.7459294667
 10
170.5831776333
 20
-45.7459780667
 10
170.5830309167
 20
-45.7457195333
 10
170.58316235
 20
-45.7455846167
 97
0
 75
0
 76
1
 98
0
  0
HATCH
  5
20018
  8
0
100
AcDbEntity
100
AcDbHatch
 10
0
 20
0
 30
0
210
0
220
0
230
1
  2
SOLID
 70
1
 71
0
 91
1
 92
2
 72
0
 73
1
 93
192
 10
170.58542515
 20
-45.7443170333
 10
170.5854137333
 20
-45.7443245167
 10
170.58538605
 20
-45.7443338667
 10
170.5853834667
 20
-45.7443338
 10
170.5853050833
 20
-45.7443741833
 10
170.5852991667
 20
-45.7443758667
 10
170.5852699167
 20
-45.7443915333
 10
170.5852534167
 20
-45.7443975
 10
170.5852273167
 20
-45.7444014333
 10
170.5852104833
 20
-45.74440105
 10
170.5851758667
 20
-45.7444066
 10
170.5851051167
 20
-45.7444086
 10
170.5850766667
 20
-45.74440705
 10
170.5850325167
 20
-45.7443951333
 10
170.58502425
 20
-45.7443917833
 10
170.5849789333
 20
-45.7443630667
 10
170.5849305167
 20
-45.74431795
 10
170.5848900333
 20
-45.7442966
 10
170.5848254167
 20
-45.7442787833
 10
170.5848164
 20
-45.7442776667
 10
170.5848030333
 20
-45.7442723833
 10
170.5847856333
 20
-45.7442701667
 10
170.5847779833
 20
-45.7442677167
 10
170.5847621667
 20
-45.74425965
 10
170.5847553167
 20
-45.7442535833
 10
170.5847394833
 20
-45.7442459667
 10
170.5847279667
 20
-45.7442425333
 10
170.5847100667
 20
-45.7442371167
 10
170.5846933
 20
-45.7442353833
 10
170.5846766667
 20
-45.7442309167
 10
170.5846761
 20
-45.7442290833
 10
170.5846622833
 20
-45.7442197
 10
170.58465655
 20
-45.74421775
 10
170.5846383667
 20
-45.7442046333
 10
170.58463045
 20
-45.7441940167
 10
170.5846062667
 20
-45.7441707833
 10
170.5846039333
 20
-45.7441652833
 10
170.58459655
 20
-45.74415695
 10
170.5845909167
 20
-45.7441527333
 10
170.5845827167
 20
-45.7441344
 10
170.5845802167
 20
-45.7441320667
 10
170.5845796833
 20
-45.7441297833
 10
170.5845760167
 20
-45.7441251667
 10
170.5845744
 20
-45.7441183333
 10
170.584572
 20
-45.7441142
 10
170.58456325
 20
-45.7441071833
 10
170.5845616833
 20
-45.7440994333
 10
170.5845520333
 20
-45.7440837833
 10
170.5845336667
 20
-45.7440612333
 10
170.5845303167
 20
-45.74391585
 10
170.58450165
 20
-45.7438936833
 10
170.5844765333
 20
-45.7438601333
 10
170.5844484667
 20
-45.7438514
 10
170.5843664167
 20
-45.7438404667
 10
170.5842939
 20
-45.7438222
 10
170.58414435
 20
-45.7437984
 10
170.5841309833
 20
-45.7437963167
 10
170.5840667833
 20
-45.7437941333
 10
170.5839770667
 20
-45.7437987667
 10
170.5839471667
 20
-45.7438064833
 10
170.5838565167
 20
-45.7438298667
 10
170.5837388833
 20
-45.7439151833
 10
170.5837298667
 20
-45.7439217167
 10
170.5837179833
 20
-45.7439304167
 10
170.5836682667
 20
-45.74395475
 10
170.5836284333
 20
-45.7440155167
 10
170.5836235167
 20
-45.74403775
 10
170.583492
 20
-45.74424755
 10
170.5833278167
 20
-45.7444220167
 10
170.583012016201
 20
-45.7444923126765
 10
170.583012016201
 20
-45.7443205941455
 10
170.58304675
 20
-45.7443112333
 10
170.58307335
 20
-45.7442992333
 10
170.5831012333
 20
-45.7442890833
 10
170.5831038667
 20
-45.7442886667
 10
170.5831119
 20
-45.7442832667
 10
170.5831605333
 20
-45.7442591833
 10
170.5831753
 20
-45.74424885
 10
170.5831841
 20
-45.7442397833
 10
170.5831965167
 20
-45.7442202167
 10
170.58321145
 20
-45.7442039167
 10
170.5832336333
 20
-45.7441863333
 10
170.5832436333
 20
-45.7441814333
 10
170.5832530167
 20
-45.7441756
 10
170.5832589833
 20
-45.7441729333
 10
170.5832690833
 20
-45.7441648167
 10
170.5832813333
 20
-45.7441503
 10
170.58329555
 20
-45.7441362667
 10
170.5833326333
 20
-45.7440826333
 10
170.5833461333
 20
-45.7440483833
 10
170.5833503333
 20
-45.7440401833
 10
170.5833785
 20
-45.7439560833
 10
170.5833833833
 20
-45.7439465167
 10
170.5833936333
 20
-45.7439117667
 10
170.5833939
 20
-45.74390305
 10
170.5833960833
 20
-45.7438961833
 10
170.5834071833
 20
-45.7438766
 10
170.5834260333
 20
-45.7438608167
 10
170.5834280833
 20
-45.7438580833
 10
170.5834361167
 20
-45.74385315
 10
170.5834435333
 20
-45.7438463667
 10
170.5834522667
 20
-45.7438400833
 10
170.5834563167
 20
-45.743836
 10
170.5835526167
 20
-45.7437772667
 10
170.5835568833
 20
-45.74377495
 10
170.5835670167
 20
-45.7437694167
 10
170.5836544333
 20
-45.7437217833
 10
170.5836935667
 20
-45.7436909333
 10
170.5837240833
 20
-45.7436794833
 10
170.5837475333
 20
-45.7436633333
 10
170.5837628167
 20
-45.74365715
 10
170.5837779333
 20
-45.74365555
 10
170.58388735
 20
-45.74363615
 10
170.5839393667
 20
-45.7436287167
 10
170.5839518167
 20
-45.7436289167
 10
170.5839610167
 20
-45.7436281333
 10
170.58399115
 20
-45.74362815
 10
170.5840017167
 20
-45.7436260167
 10
170.5840438667
 20
-45.7436198
 10
170.5840595667
 20
-45.7436205
 10
170.58410595
 20
-45.74362535
 10
170.5841511167
 20
-45.7436269833
 10
170.5841820333
 20
-45.7436233167
 10
170.58423685
 20
-45.74363015
 10
170.5842440667
 20
-45.74363025
 10
170.5842486167
 20
-45.7436317
 10
170.5842871667
 20
-45.74363505
 10
170.5842982
 20
-45.7436384333
 10
170.5843406167
 20
-45.74364415
 10
170.5843835167
 20
-45.7436553667
 10
170.5843925167
 20
-45.74366055
 10
170.5844048167
 20
-45.7436653333
 10
170.5844152333
 20
-45.7436673333
 10
170.5844275833
 20
-45.7436702833
 10
170.5844452667
 20
-45.7436710167
 10
170.5845241667
 20
-45.74368325
 10
170.5845438333
 20
-45.7436835667
 10
170.5845757667
 20
-45.7436891
 10
170.5846299333
 20
-45.7436959167
 10
170.5846677
 20
-45.7437033833
 10
170.5846982
 20
-45.7437130333
 10
170.5847405667
 20
-45.74374075
 10
170.5847520667
 20
-45.74374965
 10
170.5847562167
 20
-45.7437634833
 10
170.58476735
 20
-45.7437843
 10
170.5847708167
 20
-45.7437985667
 10
170.5847689167
 20
-45.7438168833
 10
170.5847729167
 20
-45.7438353
 10
170.5847723333
 20
-45.7438531667
 10
170.5847746167
 20
-45.7438637667
 10
170.5847606167
 20
-45.7439121667
 10
170.58475745
 20
-45.7439290833
 10
170.5847562833
 20
-45.7439446667
 10
170.5847636
 20
-45.74396175
 10
170.5847639667
 20
-45.7439709333
 10
170.5847656833
 20
-45.7439787667
 10
170.58477425
 20
-45.7439972333
 10
170.5847767833
 20
-45.7440000333
 10
170.5847778833
 20
-45.7440069333
 10
170.5847815
 20
-45.7440166167
 10
170.58478715
 20
-45.7440245
 10
170.5847900667
 20
-45.7440351
 10
170.5847932833
 20
-45.7440369833
 10
170.5847981667
 20
-45.7440485333
 10
170.58479795
 20
-45.7440554
 10
170.5848102
 20
-45.74408175
 10
170.58482495
 20
-45.7440920667
 10
170.5848708167
 20
-45.7441125
 10
170.5849078833
 20
-45.7441213333
 10
170.5849183333
 20
-45.7441228833
 10
170.5849267667
 20
-45.7441257667
 10
170.5849528833
 20
-45.7441284667
 10
170.5849690667
 20
-45.7441346667
 10
170.5849917833
 20
-45.7441419167
 10
170.5850092167
 20
-45.7441499833
 10
170.5850149833
 20
-45.7441537333
 10
170.58504305
 20
-45.7441780333
 10
170.58506445
 20
-45.7442049667
 10
170.5850817
 20
-45.744219
 10
170.5850829333
 20
-45.7442217667
 10
170.5850919833
 20
-45.7442251167
 10
170.5850958333
 20
-45.7442279333
 10
170.5851062
 20
-45.7442313167
 10
170.5851154167
 20
-45.7442305333
 10
170.5851426167
 20
-45.7442204
 10
170.5851585833
 20
-45.7442128667
 10
170.5852150167
 20
-45.74419035
 10
170.5852203333
 20
-45.7441876833
 10
170.5852296167
 20
-45.7441846167
 10
170.5852595
 20
-45.7441722333
 10
170.5853093167
 20
-45.7441431833
 10
170.58542515
 20
-45.7443170333
 97
0
 75
0
 76
1
 98
0
  0
HATCH
  5
20019
  8
0
100
AcDbEntity
100
AcDbHatch
 10
0
 20
0
 30
0
210
0
220
0
230
1
  2
SOLID
 70
1
 71
0
 91
1
 92
2
 72
0
 73
1
 93
6
 10
170.5856556667
 20
-45.7454710833
 10
170.58548885
 20
-45.7454933833
 10
170.5854700167
 20
-45.7454963667
 10
170.5852724333
 20
-45.7451006333
 10
170.5855323
 20
-45.7451506667
 10
170.5856556667
 20
-45.7454710833
 97
0
 75
0
 76
1
 98
0
  0
HATCH
  5
2001A
  8
0
100
AcDbEntity
100
AcDbHatch
 10
0
 20
0
 30
0
210
0
220
0
230
1
  2
SOLID
 70
1
 71
0
 91
1
 92
2
 72
0
 73
1
 93
6
 10
170.5855323
 20
-45.7451506667
 10
170.5858068333
 20
-45.7452032833
 10
170.58603985
 20
-45.74523035
 10
170.5861553833
 20
-45.7454012667
 10
170.5856556667
 20
-45.7454710833
 10
170.5855323
 20
-45.7451506667
 97
0
 75
0
 76
1
 98
0
  0
HATCH
  5
2001B
  8
0
100
AcDbEntity
100
AcDbHatch
 10
0
 20
0
 30
0
210
0
220
0
230
1
  2
SOLID
 70
1
 71
0
 91
1
 92
2
 72
0
 73
1
 93
8
 10
170.5836235167
 20
-45.74403775
 10
170.5841926167
 20
-45.7445729333
 10
170.5837382333
 20
-45.7446556333
 10
170.5836014333
 20
-45.74468055
 10
170.5836117833
 20
-45.744383
 10
170.58358155
 20
-45.7442964833
 10
170.583492
 20
-45.74424755
 10
170.5836235167
 20
-45.74403775
 97
0
 75
0
 76
1
 98
0
  0
HATCH
  5
2001C
  8
0
100
AcDbEntity
100
AcDbHatch
 10
0
 20
0
 30
0
210
0
220
0
230
1
  2
SOLID
 70
1
 71
0
 91
1
 92
2
 72
0
 73
1
 93
6
 10
170.5846581167
 20
-45.7449811667
 10
170.5849353167
 20
-45.7450351
 10
170.5851858667
 20
-45.7455358667
 10
170.58496675
 20
-45.7455666333
 10
170.5846317167
 20
-45.7449883
 10
170.5846581167
 20
-45.7449811667
 97
0
 75
0
 76
1
 98
0
  0
HATCH
  5
2001D
  8
0
100
AcDbEntity
100
AcDbHatch
 10
0
 20
0
 30
0
210
0
220
0
230
1
  2
SOLID
 70
1
 71
0
 91
1
 92
2
 72
0
 73
1
 93
4
 10
170.583012016201
 20
-45.7456862479155
 10
170.5830309167
 20
-45.7457195333
 10
170.583012016201
 20
-45.745738112955
 10
170.583012016201
 20
-45.7456862479155
 97
0
 75
0
 76
1
 98
0
  0
ENDSEC
  0
SECTION
  2
OBJECTS
  0
DICTIONARY
  5
C
330
0
100
AcDbDictionary
281
     1
  3
ACAD_GROUP
350
D
  0
DICTIONARY
  5
D
102
{ACAD_REACTORS
330
C
102
}
330
C
100
AcDbDictionary
281
     1
  0
ENDSEC
  0
EOF
